/* XPM */
static char *rcp13443212064034665[] = {
/* columns rows colors chars-per-pixel */
"64 64 16 1 ",
"  c #2D2D2D",
". c #2F2F2F",
"X c gray19",
"o c gray20",
"O c #343333",
"+ c #343433",
"@ c #373636",
"# c #383736",
"$ c #393837",
"% c #3A3938",
"& c #3C3A3A",
"* c #3D3C3B",
"= c #3D3C3C",
"- c #403E3E",
"; c #403F3E",
": c #403F3F",
/* pixels */
"  =----------------------------=  =-----------------------------",
"  =-==========-===========-===-=  =-=================-==========",
"  %&&&&&&&&&&&&&&&&&&&&&&&&&&&&%  %&&&&&&&&&&&&&&&&&&&&&&&&&&&&&",
"  $%%%%%%%%%%%%%%%%%%%%%%%%%%%%$  $%&&&%%%%%%%%%%%%%%%%%%%%%%%%%",
"  $%%%%%%%%%%%%%%%%%%%%%%%%%%%%$  $%&%%%%%%%%%&%%%%%%@@#%#+#%%%%",
"  $%%%%%%%%%%%%%%%%%%%&%%%%%%%%$  $%%%%%%%%%%%%%%%##XXXXXXXXX@%%",
"  $%%%%%&%%%%%%%%%%%%%%%%%%%%%%$  $%%%&&%%%%%%%%%%#XO%%%$%$XXXXX",
"  %%%%%%&&%%%%%%%%%%%%%&%%%%%%%$  %%%%%%%%%%%%%&%%%%%%%%@@X@%$@@",
"  $%%%%%%%%%%%%%%%%%%%%%%%%%%%%$  @@@@%%%%%%%%%%%%%%%%%%$@#%%%%%",
"  $%%&%%%%%%%%%%%%%%%%%%%%%%%%%$  XXXXXX@$%%%%%%%%%%%%%%%%%%%%%%",
"  $%&%%%%%%%%%%%%%%%%%%&%%&%%%%$  #%%%XX%%%%%%&&%%%%%%%%%%%%%%%%",
"  $%%%%%%%%%&&%%%%%%%%%&%%%&%%%$  $&%%%XX@#%%%&&%%%%&&%%%%%%%%%%",
"  %%%%%%%%%%%%%%%%%%%%%%&&%%%%%%  %%&&%%#@@#%%%%%&%%%%%%%%%%%%%%",
"  #%$$$$$$$$$$$$%$$$$$$$%%%$$$%#  $%%%%$%%%%$$$$$%$$$$$$$$$$%$$$",
"                                                                ",
"    X         X         XX                            X     XXX ",
"===============&  &============================&  &=============",
"---------------=  =----------------------------=  =-------------",
"&&&&&&&&&&&&&&&%  %&&&&&&&&&&&&&&&&&&&&&&&&&&&&%  %&&&&&&&&&&&&&",
"%%%%%%%%%%%%%%%$  %&%%%%%%%%%%%%%%%%%%%%%%%%%%%$  $%%%%%%%%%%%%%",
"%%%%%%&%%%%%%%%$  $%%%%%%%%%%%%%%%%%%%%%%%%%%%%$  $%%%&%%%%%%%%%",
"%%%%%%%&%%%%%%%$  $%%%%%%%%%%%%%%%%%%%%%%%%%%%%$  %%%%&%%%%%%%%%",
"%%%%%%%%%%%%%%%$  $%%%%%%&%%%%%%%%%%%%%%%%%%%%%$  %&%%%%%%%%%%%%",
"%%%%%%%%%%%%%%%$  $%%%%%%&%%%%%%%%%&&%%%%%%%%%%$  $&%%%%%%%%%&&%",
"%%%%%%%%%%%%%%%$  $%%%%%%%%&&%%%%%%%%%&%%%%%%%%$  $%%%%%%%%%%%%%",
"%%&&%%%%%%%%%%%$  $%%%%%%%%%%%%%%%%%%%%&%%%%%%%$  $%%%%%%%%%%%%%",
"%%%%&%%%%%%%%%%$  $%%%&&%%%%%%%%%%%%%%%%%%%%%%%%  $%%%%%%%&&%%%%",
"%%%%&%%%%%%&%%%$  $%%%&&%%%%%%%%%%%%%%%%%%%%%%&$  $%%%%%%%&%%%%%",
"&&%%%%%%%%&%&&%%  %%%%%&&&%%%%%%%%%%&&%%%%%%%%%%  %%%%%%%%%%%%%%",
"%%%$$$$$$$%%%%%#  #%$$$$$%$$%%$$$$$$%%%%$$$$$$%#  $%$$$$$$$$$$$$",
"                                                                ",
"            X                       XX          XX         XX   ",
"  &=======================%X=%X&  &=============================",
"  =-----------------------%X=%X*  =-----------------------------",
"  %&&&&&&&&&&&&&&&&&&&&&&%X@&%X#  %&&&&&&&&&&&&&&&&&&&&&&&&&&&&&",
"  $%%%%%%%%%%%%%%&%%%%%%@X #%%%$  %%%%%%%%%%%%%%%%%%%%%%%%%%%%%%",
"  $%%%%%%%%%%%%%%%%%%%%#X@X@%%%$  $%%%%%%%%%%%%%%%%%%%%%%%%%%%&%",
"  $%%%%%%%%%%%%%%%%%%%%#@%@X@%%$  %&%%%%%%%%%%%%%%%%%%%%%%%%%%&%",
"  $%%%%%%&%%%%%%%%%%%%%##%%@X%%$  $%%%%%%&%%%%%%%%%%%%%%%%%%%%%%",
"  $%%%%%%&%%%%%%%%%%%%%%%%%#X%%$  $%%%%%%&%%%%%%%%%&&%%%%%%%%%%%",
"  $%%%%%%%%&&%%%%%%%%%&%%%%#X%%$  $%%%%%%%%&&%%%%%%%%%&%%%%%%%%%",
"  $%%%%%%%%%%%%%%%%%%%%&%%%%X%%$  $%%%%%%%%%%%%%%%%%%%%&%%%%%%%%",
"  $%%%&&%%%%%%%%%%%%%%%%%%%%@@&%  $%%%&&%%%%%%%%%%%%%%%%%%%%%%&&",
"  $%%%%&%%%%%%%%%%%%%%%%%%%%%%%%  $%%%%&%%%%%%%%%%%%%%%%%%%%%%&&",
"  %%%%%%&&%%%%%%%%%%&&%%%%%%%%%%  %%%%%%&&%%%%%%%%%%&&%%%%%%%%%&",
"  #%$$$$%%%$%%$$$$$$%%%$$$$$$$%$  #%$$$$%%%$%%$$$$$$%%%%$$$$$$$%",
"                                                                ",
"        XX          XX                  XX          XX          ",
"===============&  =============================&  ==============",
"---------------=  =----------------------------=  =-------------",
"&&&&&&&&&&&&&&&%  %&&&&&&&&&&&&&&&&&&&&&&&&&&&&%  %&&&&&&&&&&&&&",
"%%&&%%%%%%%%%%%$  $%%%%%%%%%%%%%%%&&%%%%%%%%%%%$  $%%%%%%%%%%%%%",
"%%%%%%%%%%%%%%%$  $%%%%%%%%&%%%%%%%%%%%%%%%%%%%$  $%%%%%%%%&%%%%",
"%%%%%%%%%%%%%%%$  $%%%%%%%%&%%%%%%%%%%%%%%%%%%%$  $%%%%%%%%&%%%%",
"%%%%%%%%%%%%%%%$  $%%%%%%%%%&&%%%%%%%%%%%%%%%%%$  $%%%%%%%%%&&%%",
"&&%%%%%%%%%%%%%$  $%%%%%%%%%%%%%&&%%%%%%%%%%%%%$  $%%%%%%%%%%%%%",
"%%%%%%%%%%%%%%%$  $%%%%%%%%%%%%%%%%%%%%%%%%%%%%$  $%%%%%%%%%%%%%",
"%%%%%%%%%%%%%%%$  $%%%%%%%%%%%%%%%%%%%%%%%%%%%%$  $%%%%%%%%%%%%%",
"%%%%%%%%&%%%%%%$  $%%%%%&&%%%%%%%%%%%%%%&%%%%%%$  $%%%%%&&%%%%%%",
"%%%%%%%%%&%%%%%$  $%%%%%%%%%%%%%%%%%%%%%%&%%%%%$  $%%%%%%%%%%%%%",
"&&%%%%%%%%%%%%%%  %%%%%%%%%%%%%%&&%%%%%%%%%%%%%%  %%%%%%%%%%%%%%",
"$$$$$$$$$$$$$$%#  #%$$$$$$$$$$$$$$$$$$$$$$$$$$%#  #%$$$$$$$$$$$$",
"                                                                ",
"                                                                "
};
