/* XPM */
static char *_aac290076e14809f1eb6bf3062563c7dzW2TRr7zouVbWQn[] = {
/* columns rows colors chars-per-pixel */
"64 64 100 2 ",
"   c black",
".  c #070707",
"X  c #363332",
"o  c #3E3B3A",
"O  c #3D3A39",
"+  c #070706",
"@  c #343130",
"#  c #3C3837",
"$  c #3B3837",
"%  c #070606",
"&  c #060505",
"*  c #292624",
"=  c #2F2B29",
"-  c gray2",
";  c #282422",
":  c #2D2927",
">  c #050504",
",  c #2E2927",
"<  c #2E2A28",
"1  c #2B2725",
"2  c #1F1D1B",
"3  c #1E1C1A",
"4  c #24211F",
"5  c #282523",
"6  c #23201E",
"7  c #181615",
"8  c #2C2826",
"9  c #252220",
"0  c #23201F",
"q  c #141312",
"w  c #0E0D0C",
"e  c #121110",
"r  c #0F0E0D",
"t  c #0D0D0C",
"y  c #0D0C0C",
"u  c #141212",
"i  c #0D0C0B",
"p  c #100F0E",
"a  c #221F1E",
"s  c #262221",
"d  c #161514",
"f  c #292523",
"g  c #2A2725",
"h  c #272422",
"j  c #282423",
"k  c #262321",
"l  c #0E0D0D",
"z  c #11100F",
"x  c #2E2A27",
"c  c #2B2826",
"v  c #211E1D",
"b  c #1B1817",
"n  c #1A1817",
"m  c #1D1B19",
"M  c #221F1D",
"N  c #040404",
"B  c #1F1C1B",
"V  c #191716",
"C  c #201E1C",
"Z  c #2A2624",
"A  c #020202",
"S  c #151312",
"D  c #0C0B0A",
"F  c #131211",
"G  c #1E1B1A",
"H  c #050404",
"J  c #121010",
"K  c #141211",
"L  c #242120",
"P  c #201D1C",
"I  c #060606",
"U  c #363433",
"Y  c #2F2D2C",
"T  c #3C3938",
"R  c #343231",
"E  c #010101",
"W  c gray1",
"Q  c #010000",
"!  c #373433",
"~  c #2B2928",
"^  c #111010",
"/  c #333130",
"(  c #262424",
")  c #141313",
"_  c #2F2C2C",
"`  c #3D3A38",
"'  c #2A2827",
"]  c #151413",
"[  c #2C2A29",
"{  c #131212",
"}  c #322F2E",
"|  c #2F2B2A",
" . c #242220",
".. c #1B1918",
"X. c #0C0C0B",
"o. c #252120",
"O. c #1C1A19",
"+. c #0F0E0E",
"@. c #131111",
"#. c white",
/* pixels */
"  . X o O O O O O O O O O O O O O O O O O O O O O O O O O O o X . + X o O O O O O O O O O O O O O O O O O O O O O O O O O O O O ",
"  . @ # $ $ $ $ $ $ $ $ $ $ $ $ $ $ $ $ $ $ $ $ $ $ $ $ $ $ # @ % % @ # $ $ $ $ $ $ $ $ $ $ $ $ $ $ $ $ $ $ $ $ $ $ $ $ $ $ $ $ ",
"  & * = = = = = = = = = = = = = = = = = = = = = = = = = = = = * - - * = = = = = = = = = = = = = = = = = = = = = = = = = = = = = ",
"  - ; : : : : : : : : : : : : : : : : : : : : : : : : : : : : ; > > ; : : : : : : : : : : : : : : : : : : , , : : : : : : : : : ",
"  - ; : : : : : : : : : : : : : : : : : : : : : : : : : : : : ; > > ; : : : : : : : : : : : : : : : : < 1 2 3 4 5 6 7 6 8 : : : ",
"  - ; : : : : : : : : : : : : : : : : : : : : : : : : : : : : ; > > ; : : : : : : : : : : : : : : : 9 0 q w e r t y u i p a : * ",
"  - ; : : : : : : : : : : : : : : : : : : : : : : : : : : : : ; > > ; : : : : : : : : : : : : : : : s e d f : g h j k w l y z w ",
"  - ; : : : : : : : : : : : : : : : : : : : : : : : : : : : : ; > > 5 < x : : : : : : : : : : : : : : c : : : * v b p n 1 k m M ",
"  - ; : : : : : : : : : : : : : : : : : : : : : : : : : : : : ; > N B B V C Z c 8 : : : : : : : : : : : : : : g k v 6 : : : < x ",
"  - ; : : : : : : : : : : : : : : : : : : : : : : : : : : : : ; - A w e S l D F G h : : : : : : : : : : : : : : : < , : : : : : ",
"  - ; : : : : : : : : : : : : : : : : : : : : : : : : : : : : ; > H s : : * z p Z : , : : : : : : : : : : : : : : : : : : : : : ",
"  - ; : : : : : : : : : : : : : : : : : : : : : : : : : : : : ; > > ; : : : j J K B L Z : : : : : : : : : : : : : : : : : : : : ",
"  - j < : : : : : : : : : : : : : : : : : : : : : : : : : : < j > > j < : : , c L P B s : : : : : : : : : : : : : : : : : : : : ",
"  H 6 j ; ; ; ; ; ; ; ; ; ; ; ; ; ; ; ; ; ; ; ; ; ; ; ; ; ; j 6 H N 6 j ; ; ; ; 5 5 5 j ; ; ; ; ; ; ; ; ; ; ; ; ; ; ; ; ; ; ; ; ",
"    N > > > > > > > > > > > > > - - > > > > > > > > > > > > > N     N > > > > > > > > > > > > > - - > > > > > > > > > > > > > > ",
". . . . . . . . . . . . . . . I     I . . . . . . . . . . . . . . . . . . . . . . . . . . . . I     I . . . . . . . . . . . . . ",
"X X X X X X X X X X X X X X U Y I I Y U X X X X X X X X X X X X X X X X X X X X X X X X X X U Y I I Y U X X X X X X X X X X X X ",
"# # # # # # # # # # # # # # T R % % R T # # # # # # # # # # # # # # # # # # # # # # # # # # T R % % R T # # # # # # # # # # # # ",
"= = = = = = = = = = = = = = = * - - * = = = = = = = = = = = = = = = = = = = = = = = = = = = = * - - * = = = = = = = = = = = = = ",
": : : : : : : : : : : : : : : ; > > ; : : : : : : : : : : : : : : : : : : : : : : : : : : : : ; > > ; : : : : : : : : : : : : : ",
": : : : : : : : : : : : : : : ; > > ; : : : : : : : : : : : : : : : : : : : : : : : : : : : : ; > > ; : : : : : : : : : : : : : ",
": : : : : : : : : : : : : : : ; > > ; : : : : : : : : : : : : : : : : : : : : : : : : : : : : ; > > ; : : : : : : : : : : : : : ",
": : : : : : : : : : : : : : : ; > > ; : : : : : : : : : : : : : : : : : : : : : : : : : : : : ; > > ; : : : : : : : : : : : : : ",
": : : : : : : : : : : : : : : ; > > ; : : : : : : : : : : : : : : : : : : : : : : : : : : : : ; > > ; : : : : : : : : : : : : : ",
": : : : : : : : : : : : : : : ; > > ; : : : : : : : : : : : : : : : : : : : : : : : : : : : : ; > > ; : : : : : : : : : : : : : ",
": : : : : : : : : : : : : : : ; > > ; : : : : : : : : : : : : : : : : : : : : : : : : : : : : ; > > ; : : : : : : : : : : : : : ",
": : : : : : : : : : : : : : : ; > > ; : : : : : : : : : : : : : : : : : : : : : : : : : : : : ; > > ; : : : : : : : : : : : : : ",
": : : : : : : : : : : : : : : ; > > ; : : : : : : : : : : : : : : : : : : : : : : : : : : : : ; > > ; : : : : : : : : : : : : : ",
": : : : : : : : : : : : : : < j > > j < : : : : : : : : : : : : : : : : : : : : : : : : : : < j > > j < : : : : : : : : : : : : ",
"; ; ; ; ; ; ; ; ; ; ; ; ; ; j 6 H H 6 j ; ; ; ; ; ; ; ; ; ; ; ; ; ; ; ; ; ; ; ; ; ; ; ; ; ; j 6 H H 6 j ; ; ; ; ; ; ; ; ; ; ; ; ",
"- - > > > > > > > > > > > > > N     N > > > > > > > > - > > - > - - > > > > > > > > > > > > > N     N > > > > > > > > > > > > > ",
"  E I . . . . . . . . . . . . . . . . . . . . . . . I W % - W I Q   I . . . . . . . . . . . . . . . . . . . . . . . . . . . . . ",
"  I Y U X X X X X X X X X X X X X X X X X X X X X ! ~ ^ / ( ) _ I I Y U X X X X X X X X X X X X X X X X X X X X X X X X X X X X ",
"  . R T # # # # # # # # # # # # # # # # # # # # # ` ' ] $ [ { } + % R T # # # # # # # # # # # # # # # # # # # # # # # # # # # # ",
"  & * = = = = = = = = = = = = = = = = = = = = = | * J V | 1 F  .& - * = = = = = = = = = = = = = = = = = = = = = = = = = = = = = ",
"  - ; : : : : : : : : : : : : : : : : : : : : 1 ..X.. L : : j k > > ; : : : : : : : : : : : : : : : : : : : : : : : : : : : : : ",
"  - ; : : : : : : : : : : : : : : : : : : : : o.w P l ..: : < ; > > ; : : : : : : : : : : : : : : : : : : : : : : : : : : : : : ",
"  - ; : : : : : : : : : : : : : : : : : : : : 9 ..< M i B : : ; > > ; : : : : : : : : : : : : : : : : : : : : : : : : : : : : : ",
"  - ; : : : : : : : : : : : : : : : : : : : : 6 4 : < O.z 8 : ; > > ; : : : : : : : : : : : : : : : : : : : : : : : : : : : : : ",
"  - ; : : : : : : : : : : : : : : : : : : : : 8 : : , 4 r 1 : ; > > ; : : : : : : : : : : : : : : : : : : : : : : : : : : : : : ",
"  - ; : : : : : : : : : : : : : : : : : : : : : : : : 4 +.1 : ; > > ; : : : : : : : : : : : : : : : : : : : : : : : : : : : : : ",
"  - ; : : : : : : : : : : : : : : : : : : : : : : : : j @.f < ; > > ; : : : : : : : : : : : : : : : : : : : : : : : : : : : : : ",
"  - ; : : : : : : : : : : : : : : : : : : : : : : : : : v C < ; > > ; : : : : : : : : : : : : : : : : : : : : : : : : : : : : : ",
"  - ; : : : : : : : : : : : : : : : : : : : : : : : : : 8 * : ; > > ; : : : : : : : : : : : : : : : : : : : : : : : : : : : : : ",
"  - j < : : : : : : : : : : : : : : : : : : : : : : : : : , < j > > j < : : : : : : : : : : : : : : : : : : : : : : : : : : : : ",
"  H 6 j ; ; ; ; ; ; ; ; ; ; ; ; ; ; ; ; ; ; ; ; ; ; ; ; ; ; j 6 H N 6 j ; ; ; ; ; ; ; ; ; ; ; ; ; ; ; ; ; ; ; ; ; ; ; ; ; ; ; ; ",
"    N > > > > > > > > > > > > > - - > > > > > > > > > > > > > N     N > > > > > > > > > > > > > - - > > > > > > > > > > > > > > ",
". . . . . . . . . . . . . . . I     I . . . . . . . . . . . . . . . . . . . . . . . . . . . . I     I . . . . . . . . . . . . . ",
"X X X X X X X X X X X X X X U Y I I Y U X X X X X X X X X X X X X X X X X X X X X X X X X X U Y I I Y U X X X X X X X X X X X X ",
"# # # # # # # # # # # # # # T R % % R T # # # # # # # # # # # # # # # # # # # # # # # # # # T R % % R T # # # # # # # # # # # # ",
"= = = = = = = = = = = = = = = * - - * = = = = = = = = = = = = = = = = = = = = = = = = = = = = * - - * = = = = = = = = = = = = = ",
": : : : : : : : : : : : : : : ; > > ; : : : : : : : : : : : : : : : : : : : : : : : : : : : : ; > > ; : : : : : : : : : : : : : ",
": : : : : : : : : : : : : : : ; > > ; : : : : : : : : : : : : : : : : : : : : : : : : : : : : ; > > ; : : : : : : : : : : : : : ",
": : : : : : : : : : : : : : : ; > > ; : : : : : : : : : : : : : : : : : : : : : : : : : : : : ; > > ; : : : : : : : : : : : : : ",
": : : : : : : : : : : : : : : ; > > ; : : : : : : : : : : : : : : : : : : : : : : : : : : : : ; > > ; : : : : : : : : : : : : : ",
": : : : : : : : : : : : : : : ; > > ; : : : : : : : : : : : : : : : : : : : : : : : : : : : : ; > > ; : : : : : : : : : : : : : ",
": : : : : : : : : : : : : : : ; > > ; : : : : : : : : : : : : : : : : : : : : : : : : : : : : ; > > ; : : : : : : : : : : : : : ",
": : : : : : : : : : : : : : : ; > > ; : : : : : : : : : : : : : : : : : : : : : : : : : : : : ; > > ; : : : : : : : : : : : : : ",
": : : : : : : : : : : : : : : ; > > ; : : : : : : : : : : : : : : : : : : : : : : : : : : : : ; > > ; : : : : : : : : : : : : : ",
": : : : : : : : : : : : : : : ; > > ; : : : : : : : : : : : : : : : : : : : : : : : : : : : : ; > > ; : : : : : : : : : : : : : ",
": : : : : : : : : : : : : : < j > > j < : : : : : : : : : : : : : : : : : : : : : : : : : : < j > > j < : : : : : : : : : : : : ",
"; ; ; ; ; ; ; ; ; ; ; ; ; ; j 6 H H 6 j ; ; ; ; ; ; ; ; ; ; ; ; ; ; ; ; ; ; ; ; ; ; ; ; ; ; j 6 H H 6 j ; ; ; ; ; ; ; ; ; ; ; ; ",
"- - - - - - - - - - - - - - - H E E H - - - - - - - - - - - - - - - - - - - - - - - - - - - - H E E H - - - - - - - - - - - - - ",
"                                                                                                                                "
};
