/* XPM */
static char *c7d92567c6a74f70f7e5d1f661ca7a973FAvQIaIToXVNxZ3[] = {
/* columns rows colors chars-per-pixel */
"64 64 111 2 ",
"   c None",
".  c #1E1D1C",
"X  c #211F1F",
"o  c #21201F",
"O  c #252221",
"+  c #2C2625",
"@  c #2E2827",
"#  c #2E2929",
"$  c #302927",
"%  c #332C2B",
"&  c #382F2F",
"*  c #36312E",
"=  c #38312F",
"-  c #363231",
";  c #3A3532",
":  c #3D3935",
">  c #3D3A38",
",  c #403C37",
"<  c #423E3A",
"1  c #45423D",
"2  c #49443F",
"3  c #454241",
"4  c #4A4641",
"5  c #4D4944",
"6  c #524D46",
"7  c #524E48",
"8  c #535047",
"9  c #56524A",
"0  c #5A564C",
"q  c #5D594E",
"w  c #575555",
"e  c #5D5950",
"r  c #5A5958",
"t  c #605B51",
"y  c #676261",
"u  c #646162",
"i  c #666262",
"p  c #646463",
"a  c gray39",
"s  c #6B6967",
"d  c #706D6B",
"f  c #706E6D",
"g  c #777777",
"h  c #7B7A77",
"j  c gray47",
"k  c #7C7C7C",
"l  c #7D7C7C",
"z  c #7C7D7C",
"x  c #7D7D7C",
"c  c gray49",
"v  c #7E7D7C",
"b  c #7F7D7C",
"n  c #7E7E7E",
"m  c #838080",
"M  c #828180",
"N  c #838182",
"B  c #868382",
"V  c gray52",
"C  c #868686",
"Z  c gray53",
"A  c #898786",
"S  c #888888",
"D  c #8B8989",
"F  c gray55",
"G  c #9B9A98",
"H  c #9B9A99",
"J  c #9C9A9A",
"K  c #9C9B9B",
"L  c #9F9F9F",
"P  c #A5A2A3",
"I  c #A5A3A3",
"U  c #A4A4A4",
"Y  c #A8A7A7",
"T  c #AAAAAA",
"R  c #AEABAC",
"E  c gray68",
"W  c #AFADAD",
"Q  c #B0AEAE",
"!  c #B0AFAF",
"~  c gray69",
"^  c #B2B2B2",
"/  c #B4B3B2",
"(  c #B4B3B3",
")  c gray71",
"_  c #B6B5B5",
"`  c #B7B6B6",
"'  c #B7B7B7",
"]  c #B8B7B7",
"[  c #B8B8B6",
"{  c #B9B9B8",
"}  c #B9B9B9",
"|  c #BABAB9",
" . c #BBBBBB",
".. c gray75",
"X. c #C0BFBD",
"o. c #C2C1C1",
"O. c #C3C2C2",
"+. c #C4C3C3",
"@. c #C5C4C3",
"#. c #C3C4C4",
"$. c #C5C4C4",
"%. c #C5C5C4",
"&. c #C6C5C4",
"*. c #C6C6C5",
"=. c #C6C6C6",
"-. c #C9C9C8",
";. c gray79",
":. c #CCCCCB",
">. c #CDCCCB",
",. c #CDCCCC",
"<. c #CECDCD",
/* pixels */
"                                                                                                                                ",
"                                                                                                                                ",
"                                                                                                                                ",
"                                                                                                                                ",
"                                                                                                                                ",
"                                                                                                                                ",
"                                                                                                                                ",
"                      *.        r r r r r r                                                                                     ",
"                    -.{           r r r r                                                                                       ",
"                    -.'           r r                                                                                           ",
"                    -.'         r r                                                                                             ",
"                    *.'           r                                                       % % % %                               ",
"                :.+.' E         r r                                                 % % 1 9 9 6 2 +                             ",
"                :.*.~ F M         r                                           $ # ; 9 9 0 0 4 ; %                               ",
"                :.*.~ C l l   r r r                                         % 1 2 5 q 6 5 1 %                                   ",
"                ,.O.T C l l g     r                                   % % : 4 0 0 0 0 0 6 1 +                                   ",
"                ,.] C l l j a r r r r r r r                     @ @ = 6 6 6 9 9 0 9 5 5 9 7 % # $                               ",
"                ,.] C l l l j p r r r r r                     @ * * * : 5 7 7 7 < < 8 9 9 9 1 1 : @ @                           ",
"                ,.O.T C l l l     r                             @ + + - G { [ ] d 4 5 , : ; ; ; ; * * % +                       ",
"                :.*.! S l l       r                               + % 4 J ..*.' ' ' E 5 @ + @ @ @ @ @                           ",
"                :.@.~             r                             + + 7 R i M ] r J #.! 5 + +                                     ",
"                    O.L           r                           $ + - i *.{ { ..I G l 1 & $ +                                     ",
"                      X.          r                       % ; < < B / / ' Y A 5 , ; & & & * % % %                               ",
"                                  r                     % 5 2 < I U M 5 < , ; % % ; 4 2 6 0 9 9 5 %                             ",
"                                  r                   * 9 q 5 < S i 2 6 ; & & = < 5 0 0 q q q q 0 7 &                           ",
"                                  r                   & 9 0 0 9 1 6 9 5 9 6 2 9 0 q q q q q q q 0 9 %                           ",
"                                  w -               + @ = 1 6 0 9 0 q 0 q 9 5 0 q q q q q 0 0 5 2 1 $                           ",
"                              % < w > * % % % % $ $ % & * * : 2 2 8 0 0 0 7 4 5 9 0 0 0 6 2 2 : = & +                           ",
"                            + 2 0 0 5 5 6 9 9 6 4 4 5 5 4 : ; = = < 2 2 4 4 3 4 4 4 4 4 < - - 1 6 7 %                           ",
"                            + < 5 5 4 < : 5 5 6 0 0 0 9 5 5 4 4 4 > = = 1 < > 3 3 < * = < 4 4 6 9 9 %                           ",
"                            + $ = ; = < 4 5 : < 5 5 1 : : 2 5 5 5 4 1 ; 1 < ; > > : ; 1 5 5 5 < : : #                           ",
"                              + ; 9 : < 5 4 * % ; $ % ; ; : : : : 4 4 ; > : ; 3 3 < ; 4 5 4 : ; < 2 $                           ",
"                                  w - * ; %     @ + + % 1 2 4 5 5 5 2 : 1 < ; 3 < ; : 4 1 : : 1 4 2 $                           ",
"                                  r     +             + & & : 4 5 < : 3 > ; ; > : > 3 : < 5 5 < ; & +                           ",
"                                  r                     + $ % = 2 > ; : < < ; 1 3 < ; ; < 5 4 ; % % +                           ",
"                                  r                     + $ % & = ; ; ; > ; ; > > > ; ; < 2 = = & % +                           ",
"                                  r                       + - 5 5 < : 3 3 > ; 1 3 3 1 : ; : = 5 2 +                             ",
"                                  r                       O : 0 9 1 ; ; : < 1 : 1 3 : ; < 4 6 9 5 $ +                           ",
"                                  r                       $ : 5 < : ; - = r h < s f ; = ; : : ; - & +                           ",
"                                  r                     @ 2 6 5 5 < * @ * : 1 ; ; - @ + % ; * < 4 1 $                           ",
"                                  r                   $ & = < 9 5 < * + + % - @ + + + + % : 4 5 5 5 %                           ",
"                                  r               + ; 1 4 ; = ; 4 < * + + # - # + + + + % : 5 5 7 6 = @ @                       ",
"                                  r               + $ ; 4 5 < * : ; * + + O O % $ + + + % : 4 6 5 ; - & $ @                     ",
"                                  r             % & & & = 5 6 5 5 < ; - + O X + % ; - - - ; ; ; , 5 6 1 ; = # +                 ",
"                                  r         $ : 6 5 4 1 = = < 9 9 1 * @ X O @ X # - ; : ; : 7 5 5 9 < 1 2 ; # +                 ",
"                                  r       + < 1 , 8 6 5 4 ; - : : * + + . O % $ O O ; 6 9 9 6 5 2 > ; < 2 ; #                   ",
"                                  r       + < 1 ; > 1 5 5 5 < ; ; - # . + $ % $ X O ; 5 6 6 5 < < 4 : ; - @                     ",
"                                  r       + * ; ; 4 < < 9 7 2 : ; % + . @ % $ X . O ; 4 7 6 , ; : 4 ; % @                       ",
"                                  r       + + % ; 4 < ; , 6 9 6 : % O X + $ $ . O @ ; 6 2 > 4 : ; ; #                           ",
"                                  r             @ ; ; : 4 < : > ; % # * O O $ . O $ ; > : : 5 < ; * @                           ",
"                                  r               @ % : 4 : < 4 ; $ # - O O $ . O $ ; 4 < : 4 : * +                             ",
"                                  r                   $ ; ; < 4 ; $ # - o O $ X O @ ; 4 1 ; ; % +                               ",
"                                  r                     @ * ; ; $ @ + # X O $ $ O + - 1 < = * $ +                               ",
"                                  r                       + @ # - - - - + + + + % * # $ # # +                                   ",
"                                  r                       + # - ; ; & + + @ % % * - - - - - # + +                               ",
"                            e r r r r                   + + $ - - % + + # < 0 9 : $ + * - - - # + +                             ",
"                          t e e e e e e e       e e e 6 % $ % % % % $ % 5 0 e e 0 5 % % % % % % $ & 9 e e                       ",
"                            e e e e e         e e e e q 9 9 9 9 9 9 9 9 e e e e e q 9 9 9 9 9 9 9 0 q e e q                     ",
"                                                e e e e e e e e e e e e e e e e e e e e e e e e e e e e e                       ",
"                                                          e e e e e e e e e e e e e e e e e q                                   ",
"                                                                                                                                ",
"                                                                                                                                ",
"                                                                                                                                ",
"                                                                                                                                "
};
