/* XPM */
static char *rcp89886476075518405[] = {
/* columns rows colors chars-per-pixel */
"64 64 178 2 ",
"   c None",
".  c #9F0506",
"X  c #9D070A",
"o  c #9B090C",
"O  c #9E100B",
"+  c #9B0C12",
"@  c #A60203",
"#  c #A90103",
"$  c #A60E05",
"%  c #AA0C06",
"&  c #A3050A",
"*  c #AB0409",
"=  c #A30C0B",
"-  c #AB0B0A",
";  c #AB1106",
":  c #A41009",
">  c #AD1009",
",  c #A41E0D",
"<  c #AF1B0B",
"1  c #B0150A",
"2  c #BE170C",
"3  c #B31B0C",
"4  c #BC190B",
"5  c #A10810",
"6  c #B41B12",
"7  c #B6220E",
"8  c #B9240F",
"9  c #B42312",
"0  c #B92411",
"q  c #BE2C14",
"w  c #B73012",
"e  c #BA3412",
"r  c #C32710",
"t  c #C32A12",
"y  c #CC2A10",
"u  c #C22D19",
"i  c #C23416",
"p  c #CC3616",
"a  c #C63F16",
"s  c #CD3F15",
"d  c #C63B19",
"f  c #CA3D1C",
"g  c #D33915",
"h  c #D73C16",
"j  c #D53C16",
"k  c #D43C19",
"l  c #CA4714",
"z  c #C74813",
"x  c #CA4815",
"c  c #C9411C",
"v  c #CA421B",
"b  c #C5491D",
"n  c #CA481C",
"m  c #CD4B1D",
"M  c #CD4A1E",
"N  c #CD4A1E",
"B  c #D24C16",
"V  c #D2431B",
"C  c #D24E1C",
"Z  c #DA4819",
"A  c #CF501B",
"S  c #CE551B",
"D  c #CF531C",
"F  c #CD551C",
"G  c #CE551C",
"H  c #CF541E",
"J  c #CE571D",
"K  c #CE541B",
"L  c #D05717",
"P  c #D25916",
"I  c #D1521B",
"U  c #D0541B",
"Y  c #D0531E",
"T  c #D0541D",
"R  c #D0561D",
"E  c #D2531B",
"W  c #DA5618",
"Q  c #DA541C",
"!  c #D9541B",
"~  c #D25D1A",
"^  c #DF581A",
"/  c #E34C1A",
"(  c #E2491C",
")  c #E44D1D",
"_  c #E2491C",
"`  c #EA4A1A",
"'  c #E84B1D",
"]  c #E55F17",
"[  c #E05719",
"{  c #EF551E",
"}  c #E3591C",
"|  c #EB5F1C",
" . c #EB5C1D",
".. c #F55C1F",
"X. c #FA5F1E",
"o. c #DA6D17",
"O. c #DA6E19",
"+. c #EB651C",
"@. c #FB6517",
"#. c #F2611E",
"$. c #FF651B",
"%. c #FF631C",
"&. c #FF651C",
"*. c #FF651E",
"=. c #FE651E",
"-. c #FF631C",
";. c #FB6C1A",
":. c #EC751A",
">. c #F67117",
",. c #F1721E",
"<. c #FB741B",
"1. c #F77C1C",
"2. c #F97A1C",
"3. c #CE4920",
"4. c #EC5320",
"5. c #E55821",
"6. c #F75E21",
"7. c #F46420",
"8. c #F86522",
"9. c #FE6521",
"0. c #FD6420",
"q. c #E0762B",
"w. c #F67E21",
"e. c #E1841D",
"r. c #F58118",
"t. c #FC821D",
"y. c #FA8D1F",
"u. c #FA931E",
"i. c #FDA51F",
"p. c #FFAE1E",
"a. c #FCB21E",
"s. c #FABD1E",
"d. c #E98527",
"f. c #E98D27",
"g. c #EB8729",
"h. c #FB8B21",
"j. c #E89429",
"k. c #E99F2D",
"l. c #FC9721",
"z. c #FB9B21",
"x. c #F5992A",
"c. c #E9A12B",
"v. c #FDA323",
"b. c #FFAC21",
"n. c #FDA52A",
"m. c #FEB221",
"M. c #FCBC21",
"N. c #E8A331",
"B. c #FCC423",
"V. c #FCCB26",
"C. c #FCCC2B",
"Z. c #FDD327",
"A. c #FEDB27",
"S. c #FCD229",
"D. c #FEDC2B",
"F. c #FBD63E",
"G. c #FFE227",
"H. c #FFE229",
"J. c #FDE333",
"K. c #E7AC4A",
"L. c #E7B45E",
"P. c #E7BC75",
"I. c #FBE642",
"U. c #FDE94A",
"Y. c #FBEA52",
"T. c #FDEE5E",
"R. c #FBEE64",
"E. c #FAEF68",
"W. c #FEF061",
"Q. c #FDF374",
"!. c #FCF77F",
"~. c #FCF681",
"^. c #FEF882",
"/. c #FDF88C",
"(. c #FEFB95",
"). c #FEFD9D",
"_. c #FFFEA5",
"`. c #FFFEAB",
/* pixels */
"                                          * @ # # # # # # # # # # # # # # #                                                     ",
"                                          * # # @ # # # # # # # # # # # # #                                                     ",
"                                          @ # # # # # # # # # # # # # # # #                                                     ",
"                                          - # # # # # # # @ # # # @ # # # #                                                     ",
"                          o o o o o o o o k ( ( ( V c v c u @ # # @ &                                                           ",
"                          @ # # # # # # @ ) &.&.&.| G R R f @ # # &                                                             ",
"                          @ # # # # # # # / &.%.$.| D S G d @ # # &                                                             ",
"                          @ # # # # # # @ ) 9.&.&. .R R J d @ @ # &                                                             ",
"                  & & & = 7 7 7 8 g h h j V g g g p i i i q = o o                     & & & & & & & &                           ",
"                & # # # 1 C Y Y Q 8.&.&.9.t # # # # # # # @                           @ # # # # # # #                           ",
"                & # # # 1 A G G W =.%.%.&.t @ # # # # # # #                           @ # # # # # # @                           ",
"                & # # # 1 I S G W 8.&.$.&.r # # # # # # # #                           # # # @ # # # #                           ",
"                & # @ # > d a a s _ ` ` ' t # * @ * * * @ *                           * @ @ * # # # #                           ",
"                & # # # # @ # @ # # * @ @                                                     # # # @ @ @ # # *                 ",
"                & # # # # # # # # # # # @                                                     # # # # # # # # &                 ",
"                & # # # # # # # # # # # @                                                     # # # # # # # # &                 ",
"                & # # # # @ @ # # # # # *                                                     - % % % % % % - =                 ",
"                & # # # #                                                             = & X = f M M M M M M 3.9 X X & +         ",
"                & # # # @                                                             @ # # % n G G E I G G G 7 # # # o         ",
"                & # # # *                                                             @ # # % n G G S S D D Y 7 # # # o         ",
"                5 @ # @ *                                                             @ # # $ n I A I S A A I 7 # # @ o         ",
"                                                                    - * * * * * * * 6 u q q i 5.| | | | | | | p # # # o         ",
"                                                                    # # # # # # # # 0 R G R W 7.&.&.&.&.&.&.9.j # # # o         ",
"                                                                    # # # # # # # # 0 G G G ! #.%.%.&.&.$.%.&.h # # # o         ",
"                                                                    # # # # @ @ # # 0 G S S ! #.%.%.%.%.&.%.9.h # # # o         ",
"                                                                    3 8 7 0 r y y y h } } } ] 1.t.t.t.;.%.&.&.Z 7 8 8 9         ",
"                                  & # # # # # # # # # # # # # # # @ d R R Y  .&.&.&.%.%.%.%.;.v.b.b.b.<.%.%.&.} E Y R c @ # # # ",
"                                  & # # # # # # # # # # # # # # # @ d G S I  .&.%.%.%.%.%.%.;.v.p.p.b.<.%.%.&.} D Y G v # # # # ",
"                                  & # # # # # # # # # # # # # # # # d G A A | %.%.%.%.%.%.%.;.v.b.b.b.<.%.$.&.} S A S v @ # # # ",
"                                  < 3 3 3 3 3 4 4 4 4 4 4 3 w e e e ~ o.o.o.:.2.2.2.2.2.2.2.r.i.b.b.b.<.%.&.%. .^ [ ^ V # # # # ",
"                          & @ & : n Y D C } 6.X.X.6.6.....,.n.n.n.n.b.b.b.b.b.b.b.b.b.b.b.b.b.p.p.b.p.<.%.%.%.%.=.%.9.( # # # # ",
"                          # # # % M G G A | &.&.&.&.&.%.%.2.b.p.p.b.p.p.b.b.b.b.b.b.b.b.b.b.p.b.b.p.b.<.%.%.%.%.&.&.&.( # # # # ",
"                          # # # % M G G A | %.%.%.%.%.%.%.2.b.p.p.p.b.b.b.b.b.b.b.b.b.b.b.b.b.b.p.p.b.<.%.%.%.%.%.&.&.( # # # # ",
"                          @ # # ; C E I E | @.@.@.$.@.@.@.1.b.b.p.p.a.a.a.a.a.a.a.a.a.a.a.a.a.p.p.p.b.<.%.%.%.%.&.&.&.( # # # # ",
"                  * * # 1 d d d v | #.#.#.w.l.l.l.l.l.l.l.z.p.p.b.a.B.S.Z.Z.Z.Z.Z.Z.Z.Z.Z.S.C.a.b.b.b.<.%.%.%.%.&.&.&.( # # # # ",
"                & # # # 1 Y G S ! =.&.&.$.y.b.b.b.p.b.b.b.b.p.p.b.a.S.H.H.H.H.H.H.H.H.H.H.H.D.a.b.b.b.<.%.%.%.%.&.&.&.( # # # # ",
"                & # # # 1 Y G S ! =.&.%.$.h.b.p.b.p.p.p.p.p.p.p.b.a.S.H.H.G.H.H.H.H.H.H.H.H.D.a.b.p.b.<.%.%.%.%.&.&.&.( # # # # ",
"                & # # # 1 C G G ! =.$.$.@.h.b.p.b.b.p.p.p.p.p.p.p.a.S.H.H.H.H.H.H.H.H.H.H.H.D.a.b.p.b.<.%.%.%.%.&.&.&.( # # # # ",
"                & # # # 4  .|  .+.h.y.y.y.z.b.p.b.M.V.V.V.V.V.V.V.C.T.Q.Q.Q.U.H.H.H.Z.B.B.B.B.a.p.p.b.<.%.%.%.%.&.&.&.( # # # # ",
"                & # # # 2 %.$.%.<.v.b.b.b.p.p.b.p.B.H.H.H.H.H.G.H.J.^.`.`.`.T.G.H.H.V.p.b.p.p.p.p.p.b.<.%.%.%.%.%.&.&.( # # # # ",
"                & # # # 2 %.%.%.<.v.p.p.p.p.p.p.p.B.H.H.H.H.H.G.H.J.!.`.`.`.T.G.G.H.V.p.b.p.b.p.p.p.b.<.%.%.%.%.$.%.&.( @ # # # ",
"                & # # # 2 %.&.%.<.v.b.p.p.p.p.p.p.B.H.H.H.H.H.H.H.J.~.`.`.`.T.G.G.H.V.p.p.p.p.b.b.b.b.<.%.%.%.&.&.&.&.( # # # # ",
"                & # # # 2 %.&.%.<.v.b.p.p.M.B.B.B.F.R.R.R.R.R.R.R.E.(.`.`.`.R.G.G.H.V.p.p.p.b.u.y.y.y.;.%.$.%..._ _ ) k - * * * ",
"                & # # # 2 %.&.%.<.v.b.p.p.V.H.H.H.T._._._._._._.`._._.`.`.`.T.G.G.H.V.p.p.b.v.>.$.$.$.$.%.$.9.j # * # O         ",
"                & # # # 2 %.&.%.<.v.b.p.p.V.H.H.H.T.`.`.`.`.`.`.`.`.`.`.`.`.T.G.G.H.V.p.p.p.v.<.%.%.%.%.%.&.&.k # # # o         ",
"                & # # # 2 X.&.%.<.v.b.p.p.V.H.H.H.T.`.`.`.`.`.`.`.`.`.`.`.`.T.G.G.H.V.p.p.p.v.<.%.%.&.&.%.$.$.h # # # o         ",
"                  & & . 3 4.{ { +.v.b.b.p.V.H.H.G.T.`.`.`.`.`.`.`.`.).(.(.(.Y.A.D.D.B.p.b.p.v.<.%.$.%.&.%.%.&.h # # # o         ",
"                          > % % 7 x.p.p.p.V.H.G.G.T.`.`.`.`.`.`.`._.R.I.I.I.C.a.a.a.m.p.p.p.v.<.%.%.%.&.%.%.&.h # # # o         ",
"                          # # # < x.p.p.p.V.H.G.G.T.`.`.`.`.`.`.`._.Y.G.G.G.B.b.b.b.b.p.p.b.v.<.%.%.%.&.%.%.&.h # # # o         ",
"                          # # # < x.b.b.p.V.H.G.G.T.`.`.`.`.`.`.`._.Y.H.H.H.B.p.p.p.p.p.p.b.v.<.%.%.%.&.%.%.&.h # # # o         ",
"                          # # # < x.p.p.p.V.H.G.G.T.`.`.`.`._._._.).U.H.H.H.B.p.p.b.b.b.b.b.v.;.%.%.%.%.%.X.0.h # # @ o         ",
"                          # # # < x.p.b.p.V.H.G.G.T.`.`.`./.Y.U.U.U.J.G.H.H.B.p.p.b.u.<.<.<.<.$.%.$.%.y 2 2 2 4                 ",
"                          @ # # < x.p.b.p.V.H.G.G.T.`.`.`.~.J.G.H.H.H.G.H.H.B.b.b.b.y.$.%.%.%.%.%.%.%.2 @ # # &                 ",
"                          @ # # < x.p.b.p.V.H.G.G.T.`.`.`.~.J.H.H.H.G.H.H.H.B.p.p.b.y.$.%.%.%.%.%.%.X.2 # # # &                 ",
"                          @ # # < x.p.b.p.V.H.G.G.T.`.`.`.~.J.G.G.G.H.H.H.H.B.b.b.b.h.&.&.9.&.&.&.&.0.2 # # * &                 ",
"                          @ # # < x.p.b.p.V.H.G.G.T.`.`.`.~.J.H.H.H.V.B.B.B.e.L P P B h h h h h h h h 4 & & &                   ",
"                          @ # # < x.b.p.p.V.H.G.G.T.`.`.`.~.J.G.H.D.s.p.p.b.z @ # # # @ # # # # # # @                           ",
"                          # # # 3 x.p.p.p.V.H.G.G.T.`.`.`.~.J.H.G.D.M.p.b.b.l # # # # # # # # # # # @                           ",
"                          @ # # 3 x.m.b.a.V.G.G.G.W.`.`.`.^.J.G.G.H.M.p.b.m.x @ @ # # # # # # # # # @                           ",
"                          + o o , q.d.d.d.j.c.c.c.K.P.P.P.L.N.c.c.k.f.d.d.g.b X o o o o o o o o o o o                           ",
"                                  : % % % % % % % $ $ $ $ $ % % % % % % % %                                                     ",
"                                  & # # # # # # # # # # # # # # # # # # # #                                                     ",
"                                  & # # # # # # # # # # # # # # # # # # # #                                                     ",
"                                  & # # # # # # # # # # # # # # # # # # # #                                                     "
};
