/* XPM */
static char *rcp105682204075452436[] = {
/* columns rows colors chars-per-pixel */
"64 64 170 2 ",
"   c None",
".  c #9E0507",
"X  c #9B0806",
"o  c #96060A",
"O  c #9F060A",
"+  c #970A0B",
"@  c #9A090D",
"#  c #9C140D",
"$  c #960D13",
"%  c #9A0C12",
"&  c #A60104",
"*  c #A90103",
"=  c #A50E05",
"-  c #AB0C06",
";  c #A2050A",
":  c #AA040A",
">  c #A40B0C",
",  c #AC0E08",
"<  c #B00D06",
"1  c #A5130C",
"2  c #AB140E",
"3  c #A71B0D",
"4  c #AE1A0B",
"5  c #B2160A",
"6  c #B2190C",
"7  c #BC1A0B",
"8  c #A30911",
"9  c #B5210E",
"0  c #B9220E",
"q  c #B62110",
"w  c #B82210",
"e  c #BD2D14",
"r  c #BF3114",
"t  c #C12C14",
"y  c #CC2911",
"u  c #C43215",
"i  c #CD3111",
"p  c #CD3B17",
"a  c #C53C18",
"s  c #C83A1B",
"d  c #BE541F",
"f  c #C54415",
"g  c #CC461C",
"h  c #CC4B1D",
"j  c #D3421E",
"k  c #D04B1E",
"l  c #DF491E",
"z  c #CC5517",
"x  c #CC5914",
"c  c #CE531C",
"v  c #C55D1A",
"b  c #D25314",
"n  c #D35816",
"m  c #D1531C",
"M  c #DB551C",
"N  c #D25919",
"B  c #DD591A",
"V  c #E14917",
"C  c #E34D1A",
"Z  c #E44B1C",
"A  c #E34B1B",
"S  c #E4551C",
"D  c #EF551F",
"F  c #E35A1B",
"G  c #EE591E",
"H  c #E95D1B",
"J  c #F0571F",
"K  c #F05F1D",
"L  c #FC5F1F",
"P  c #CF631A",
"I  c #CD6D1A",
"U  c #D36217",
"Y  c #D56218",
"T  c #EF611B",
"R  c #E46B1F",
"E  c #EC6B1C",
"W  c #FB6516",
"Q  c #F5621E",
"!  c #FF641B",
"~  c #FD651A",
"^  c #FF631C",
"/  c #FF631E",
"(  c #FF641C",
")  c #FD651E",
"_  c #FE631C",
"`  c #FA6D1A",
"'  c #EF701D",
"]  c #F5741C",
"[  c #FA701A",
"{  c #F97A1B",
"}  c #D24F20",
"|  c #D15520",
" . c #D15020",
".. c #EC5421",
"X. c #FC5E20",
"o. c #E46A21",
"O. c #F66121",
"+. c #F96420",
"@. c #E7851E",
"#. c #E7831F",
"$. c #E9851E",
"%. c #EC891E",
"&. c #FC821D",
"*. c #FA8C1E",
"=. c #FA8C1E",
"-. c #FB9A1E",
";. c #FFAE1E",
":. c #FCB11E",
">. c #FABE1F",
",. c #E78521",
"<. c #E98324",
"1. c #E98329",
"2. c #F78423",
"3. c #F58B21",
"4. c #FB8C20",
"5. c #E99128",
"6. c #EA9F2E",
"7. c #F09421",
"8. c #F69D27",
"9. c #FB9E22",
"0. c #F5972A",
"q. c #F5992A",
"w. c #DDA238",
"e. c #E9A12B",
"r. c #FBA323",
"t. c #FFAE21",
"y. c #FFAF23",
"u. c #FFAD21",
"i. c #FFAD21",
"p. c #FDB522",
"a. c #FBBD21",
"s. c #F9C01E",
"d. c #FDC323",
"f. c #FCCA26",
"g. c #FCC72A",
"h. c #FDCA2B",
"j. c #FDD426",
"k. c #FDD827",
"l. c #FCD229",
"z. c #FEDD2B",
"x. c #FACF36",
"c. c #FCC739",
"v. c #FFE227",
"b. c #FFE229",
"n. c #FDE332",
"m. c #FCE43D",
"M. c #E7A842",
"N. c #E8A843",
"B. c #E7BB6D",
"V. c #E7BC75",
"C. c #FBCC4A",
"Z. c #FBDD42",
"A. c #FBCF57",
"S. c #FBCF5A",
"D. c #FBE744",
"F. c #FCE248",
"G. c #FBEC4F",
"H. c #FBEA53",
"J. c #FCED5D",
"K. c #FBEE63",
"L. c #FAF276",
"P. c #FDF57C",
"I. c #FDF682",
"U. c #FEFA87",
"Y. c #FDF78C",
"T. c #FDF889",
"R. c #FDFA93",
"E. c #FEFE9F",
"W. c #FEFEA3",
"Q. c #FEFEAB",
/* pixels */
"                                          ; * * * :                                                                             ",
"                                          ; * & * :                                                                             ",
"                                          ; * * * :                                                                             ",
"                                          ; * * & :                                                                             ",
"                                                  > @ @ @ @                                                                     ",
"                                                    * * * *                                                                     ",
"                                                    * & * *                                                                     ",
"                                                    & & * &                                                                     ",
"                                            ; ; . 1 9 9 9 6 . ; ; 8                                                             ",
"                                          ; * & & w m m | s & * * ;                                                             ",
"                                          : * * * 0 m z c a * * * ;                                                             ",
"                                          : * * * 9 c z m a & * * ;                                                             ",
"                                          : * * * 0 B B B g : * * ;                                                             ",
"                                          : * * & y ) ) ) G < * * ;                   ; & & O                                   ",
"                                          : * * & y ) ^ ) G < * * ;                   & * * .                                   ",
"                                          : * * * y ) ! ) J , * * ;                   & * * ;                                   ",
"                                          > , , , i ) ! ) G 6 , , >                 @ & * * .                                   ",
"                          ; ; ; . . . . . e k h h S ^ ^ ) K k h h g 4 . ; ; ; ; . @ : * * * .                                   ",
"                          & * * * * * * * e c c z F ) ^ ^ T m z z c 6 & * * * * * * * * * * .                                   ",
"                          & * * * * * * & e m c z F ) ! ^ Q m z z c 6 * * * * * * * * * * & .                                   ",
"                          & * & & * : : * r z z z B ! ! ! T b z z c 6 * * * * & & & & * * * ;                                   ",
"                  : : : 2 e e e u l C C C R $.@.@.%.*.*.*.3.$.@.@.,.F Z Z A p e e e 6 & * * ;                                   ",
"                ; * * * 5 m m m M +.) ) ! 4.y.u.u.u.u.u.u.u.u.u.u.i.{ ! ) ) F m c | t & * * ;                                   ",
"                ; & * * 5 c m z M Q ^ ^ ! *.u.u.;.u.u.u.;.;.;.;.u.i.{ ~ ^ ) F c z m e & * * ;                                   ",
"                . * * * 5 c z z M Q ~ ^ ~ *.u.;.;.;.;.u.;.;.;.;.;.i.{ ~ ^ ^ F c z m t & * * ;                                   ",
"                . * * * 5 S F F H { &.&.&.-.u.u.;.p.d.d.d.a.;.;.u.i.*.&.&.&.E F F F p * * * .                                   ",
"                ; * * & 7 ^ ) ^ [ r.u.u.;.u.u.u.u.d.b.b.v.l.:.;.;.u.u.u.u.u.&.^ ) ) A : * * ;                                   ",
"                ; * * & 7 L ) ^ [ r.u.;.;.;.;.;.;.d.b.v.b.l.:.u.u.;.;.;.;.;.&.^ ! ) Z : & * ;                                   ",
"                ; & * & 7 X.^ ^ [ r.u.;.;.;.;.;.;.d.b.b.b.j.;.u.;.;.u.u.;.;.&.^ ~ ) A * & * ;                                   ",
"                1 6 6 4 t ^ ^ ^ [ r.u.;.;.p.a.a.a.x.H.H.H.Z.a.a.>.a.:.u.u.u.*.{ { { F 6 6 6 4                                   ",
"        $ ; & . q  .c  .M ! ! ~ [ r.;.;.;.f.z.z.z.J.E.W.W.P.n.b.b.z.a.;.;.;.i.i.i.i.#.c m c g , : ; ;                           ",
"        @ * * & q m z c M ) ) ^ ` r.;.;.;.f.b.b.b.J.Q.Q.Q.I.n.v.b.z.a.;.;.u.;.;.;.u.,.z m z h , * * &                           ",
"        + & * * 9 m z z M ^ ^ ^ [ r.;.;.;.f.b.b.v.J.Q.Q.Q.I.n.b.v.z.a.;.u.u.u.;.;.u.,.c m c h , * & &                           ",
"        $ ; ; . q } c m M Q ) ^ ` 9.i.i.i.g.z.b.z.J.W.E.W.P.n.b.v.b.s.:.:.:.;.u.;.u.%.x z x h , * * &                           ",
"                1 5 6 5 e M B M F ] { { { 9.a.a.a.x.H.H.H.D.b.b.b.b.j.l.l.l.a.u.;.;.r.7.7.7.1.4 * * &           : * : 8         ",
"                ; & & & 5 h c c M Q ~ ~ W *.u.;.;.d.b.v.v.b.v.b.b.b.b.b.b.b.d.;.;.;.;.u.u.p.q.4 * * &         ; & * * @         ",
"                ; * * * 5 c c z M Q ^ ^ ! 4.y.;.;.d.b.b.v.b.b.b.b.b.b.b.b.b.d.;.u.;.;.;.;.u.q.4 * * &         ; & * * @         ",
"                ; & * * 5 c c c M Q ^ ) W 4.y.u.u.d.b.b.b.b.b.b.b.b.b.b.b.b.d.;.;.;.;.u.;.;.0.4 & & &         8 & * * @         ",
"                        2 q 0 0 e M F F F ' &.&.&.-.d.d.d.f.b.b.b.b.b.b.b.b.j.f.f.f.a.;.u.u.8.f r r r 6 : : : ; & * * @         ",
"                          & * * , h c z c H ^ ~ ~ &.;.;.;.>.z.b.b.b.b.v.b.b.b.b.b.b.f.;.u.;.r.Y c m m 5 * * * * * * * @         ",
"                          & * * , h z z c H ) ^ ^ &.u.;.u.a.b.v.b.b.b.v.b.b.b.b.b.b.f.;.u.;.r.Y c z c 5 & * * * * * * @         ",
"                          & * * , h m m m H ) ^ ^ &.u.u.;.a.b.b.b.b.b.b.b.b.b.b.b.b.f.;.;.;.r.U c c c 5 * * * & & * * @         ",
"                          ; ; ; > e e e r S ) ) ^ &.u.u.;.a.b.b.b.b.G.K.K.K.D.v.v.b.f.;.;.;.r.U c c c 5 * & * : ; ; ; %         ",
"                                  . * & & Z ) ! ^ &.u.u.;.a.b.b.v.n.P.Q.Q.W.J.b.v.b.f.;.;.;.r.U c c c 5 * * * ;                 ",
"                                  ; * * : A ) ~ ^ &.u.u.;.a.b.b.v.n.I.Q.Q.Q.J.v.b.b.f.;.;.;.r.U c c c 5 * * * ;                 ",
"                                  . * * : C ) ^ ^ &.u.u.;.a.b.b.v.n.I.Q.Q.Q.J.v.v.b.f.;.;.;.r.U z c c 5 * * * :                 ",
"                                  9 7 7 0 S ` ` ` =.:.p.:.d.m.m.m.D.Y.Q.Q.Q.J.v.v.b.f.;.;.;.r.N h h h 4 . . X                   ",
"                          : * * , ..O.O.Q 2.r.r.9.p.k.k.k.F.U.R.R.R.W.Q.Q.Q.J.v.v.b.f.;.;.u.q.9 , , ,                           ",
"                          * * & , D ) ^ ! *.u.;.;.d.v.b.b.H.W.Q.Q.Q.Q.Q.Q.Q.J.v.v.b.f.;.;.;.q.4 * * &                           ",
"                          & * & , ..) ^ ! *.u.u.;.d.b.v.v.H.W.Q.Q.Q.Q.Q.Q.Q.J.v.v.b.f.;.;.;.q.4 * * *                           ",
"                          & * * , D ) ^ ! *.u.;.;.d.b.n.b.H.W.Q.Q.Q.Q.Q.Q.Q.J.v.v.b.f.;.;.;.q.4 & * *                           ",
"                          & * * , D ) ) ! 4.u.;.;.C.T.Y.T.R.W.Q.Q.Q.Q.Q.Q.Q.J.v.b.b.f.;.u.;.8.4 & * *                           ",
"                          & * * , D ) ^ ! 4.u.;.;.S.Q.Q.Q.Q.Q.Q.Q.Q.Q.Q.Q.Q.J.v.b.b.f.;.;.;.q.4 * * &                           ",
"                          & * * , D ) ^ ! 4.u.;.;.S.Q.Q.Q.Q.Q.Q.Q.Q.Q.Q.Q.Q.J.v.b.b.f.;.;.;.q.4 & * &                           ",
"                          & * * , D ) ^ ! 4.u.;.;.A.W.W.W.W.Q.Q.Q.Q.W.W.W.W.K.b.n.n.h.u.y.y.0.6 & * *                           ",
"                          & * * , D ) ^ ! 4.u.;.;.c.J.J.J.L.W.Q.Q.W.L.J.J.J.w.I I I P n n n c 3 ; ; ;                           ",
"                          & * & , D ) ^ W *.u.;.u.d.b.b.b.H.E.Q.Q.W.H.b.b.b.v & & & & & & & X                                   ",
"                          & * * < D ) ^ ! 4.u.;.u.d.b.b.b.H.W.Q.Q.E.H.b.b.b.v & * * * * * * ;                                   ",
"                          & * * , D ) ) ! 4.u.;.u.d.b.b.v.H.W.Q.Q.E.H.b.b.b.v & * * * * * * .                                   ",
"                          % @ + # j A A V o.1.<.<.5.e.6.e.N.B.V.V.B.M.e.e.e.d o @ @ @ @ @ @ $                                   ",
"                                  X * : : - , - = - - - - - = = = = - - - ,                                                     ",
"                                  . * * * * * * * * * * * * * * * * * * * *                                                     ",
"                                  . * * * * * * * * * * * * * * * * * * * *                                                     ",
"                                  . * * * * * * * * * * * * * * * * * * * *                                                     "
};
