/* XPM */
static char *rcp86241940075514353[] = {
/* columns rows colors chars-per-pixel */
"64 64 166 2 ",
"   c None",
".  c #9C0807",
"X  c #97060A",
"o  c #9E060A",
"O  c #960A0C",
"+  c #9A090D",
"@  c #9E1009",
"#  c #960E13",
"$  c #9D0B12",
"%  c #A60103",
"&  c #A90003",
"*  c #A60E05",
"=  c #AA0C06",
"-  c #A3050A",
";  c #AB0409",
":  c #A20B0C",
">  c #AC0C09",
",  c #A7100D",
"<  c #A31C0D",
"1  c #AD1A0B",
"2  c #B1160A",
"3  c #B21A0C",
"4  c #BC1A0C",
"5  c #A40911",
"6  c #A91B10",
"7  c #B31F10",
"8  c #AF220F",
"9  c #B6210E",
"0  c #B9230E",
"q  c #BA2C0E",
"w  c #AF2012",
"e  c #B52311",
"r  c #B92510",
"t  c #BE2F15",
"y  c #BA2A11",
"u  c #BB3212",
"i  c #C01C0C",
"p  c #C5280F",
"a  c #C42513",
"s  c #C32A11",
"d  c #C13114",
"f  c #C93316",
"g  c #C63C1A",
"h  c #CA3A19",
"j  c #D63C16",
"k  c #D03819",
"l  c #BF551F",
"z  c #C7401E",
"x  c #CB471D",
"c  c #CC461A",
"v  c #CD4A1D",
"b  c #CC4A1E",
"n  c #CE4A1E",
"m  c #CE4C1C",
"M  c #D14417",
"N  c #D0441A",
"B  c #D24A1C",
"V  c #DA4F1D",
"C  c #CF5817",
"Z  c #CE521B",
"A  c #CE541B",
"S  c #CE551A",
"D  c #CE541A",
"F  c #CF531C",
"G  c #CF501C",
"H  c #CF541C",
"J  c #CE551E",
"K  c #CE541B",
"L  c #C55E1A",
"P  c #D15516",
"I  c #DA5517",
"U  c #D25817",
"Y  c #D1531D",
"T  c #D0541D",
"R  c #D1541E",
"E  c #D1531B",
"W  c #DC561A",
"Q  c #D15818",
"!  c #DD581C",
"~  c #E34C1D",
"^  c #E0571B",
"/  c #ED531D",
"(  c #E35B1B",
")  c #EB5D1D",
"_  c #F15F1D",
"`  c #FB5E1E",
"'  c #D56718",
"]  c #FB6517",
"[  c #F96916",
"{  c #F1601E",
"}  c #FF641B",
"|  c #F8631E",
" . c #FD621E",
".. c #FE631C",
"X. c #FA6B19",
"o. c #F47A15",
"O. c #F7761D",
"+. c #FA701A",
"@. c #F67D18",
"#. c #FA791D",
"$. c #D14C22",
"%. c #D15220",
"&. c #EE5620",
"*. c #F45F22",
"=. c #FA5F21",
"-. c #DE752A",
";. c #F56121",
":. c #FC6420",
">. c #FB821D",
",. c #FA8D1F",
"<. c #FD9B1E",
"1. c #FDA51F",
"2. c #FFAE1E",
"3. c #FDB01E",
"4. c #EA8527",
"5. c #F68C24",
"6. c #FB8B21",
"7. c #E09221",
"8. c #E89429",
"9. c #FB9722",
"0. c #FC9E23",
"q. c #F69A2B",
"w. c #EAA02B",
"e. c #FDA524",
"r. c #FFAD21",
"t. c #FDA629",
"y. c #FDB222",
"u. c #FCBD22",
"i. c #E8A331",
"p. c #FDC423",
"a. c #FCCA26",
"s. c #FDCF2B",
"d. c #FDD327",
"f. c #FDD228",
"g. c #FFDF2A",
"h. c #FACE32",
"j. c #FBD138",
"k. c #FFE227",
"l. c #FFE229",
"z. c #FDE332",
"x. c #FCE43D",
"c. c #E7AC4A",
"v. c #E7B45E",
"b. c #E7BC75",
"n. c #FBCA43",
"m. c #FBCF59",
"M. c #FAD055",
"N. c #FADD5B",
"B. c #FDE947",
"V. c #FDE94B",
"C. c #FBE952",
"Z. c #FDEE5D",
"A. c #FCE161",
"S. c #FCEE63",
"D. c #FDE66C",
"F. c #FAEF6A",
"G. c #FEF061",
"H. c #FDE670",
"J. c #FDF374",
"K. c #FCF681",
"L. c #FEF882",
"P. c #FEFA8D",
"I. c #FDFA91",
"U. c #FEFD9C",
"Y. c #FEFEA3",
"T. c #FFFEAB",
/* pixels */
"                                          - & & & % & & & &                                                                     ",
"                                          - & & & & & % & %                                                                     ",
"                                          - & & & & & & & ;                                                                     ",
"                                          % & & & & & & & ;                                                                     ",
"                                  # + + + % & & & &                                                                             ",
"                                  o & & % % & & & ;                                                                             ",
"                                  o % & & & & & & ;                                                                             ",
"                                  o % % % & & & & ;                                                                             ",
"                          : - o : 7 9 4 e > & & & ;                                                                             ",
"                          % & % > n Y Y %.r % & & ;                                                                             ",
"                          % & & = n A A T r % & & ;                                                                             ",
"                          % & & = B A A T r % & & ;                                                                             ",
"                          2 2 2 9 m A A T r % & & ;                                                                             ",
"                : % % % 2 m G G G G H A T r % & & ;                                   - % % o                                   ",
"                o & & & 2 G A A A A G H T r % & & ;                                   % & & o                                   ",
"                o & & & 2 G H A G E A H H r & & & ;                                   - & & o                                   ",
"                o & & & 2 I I I E n x x c e % & &                                     > = = :                                   ",
"                o & & & 4 *.| | *.0 = = = ,                                   - - o e n n n z > o o o                           ",
"                o & & & 4 ..} ..=.4 % & -                                   ; & & % r H A A n = & & &                           ",
"                o & & % 4 ..} } ;.4 % & %                                   ; & & & r T A A n = & & %                           ",
"                $ % % % 4 =... .*.4 % & %                                   ; % & % e Y A A n = & & %                           ",
"                        6 s s p a > % & %                           ; ; ; - e t t t g H A H n = & & %           ; - - $         ",
"                          % % % % & & & %                           ; & & % d T T T H A H H n = & & %         : % & % O         ",
"                          % & & & & & & %                           & & & & d H Y A A G H A n = & & %         : % & & +         ",
"                          % & & & & & & %                           % & & % u H G G G H A A n = % & %         + % & & +         ",
"                          % & & ; 4 0 0 e w                         3 0 0 9 M ( ( ( I A A E m y 0 0 e 1       - & & & +         ",
"                          & & & = $.H H T r & & & & & & & & & & & % g T E Y ) }  . .) E A A A T T T G 2 & & % & & & & +         ",
"                          % & & = n A A Y r % & & & & & & & & & & % g T A E )  ... .) E A A A A A A G 2 & & % % & & & +         ",
"                          % & % = n A G Y e % % % & & % % & % % & % g H A G )  .}  .) E A A A A A A G 2 % & % & & & & +         ",
"                          3 3 3 9 V ! ! ! c u u u u u u u u u u u u B ^ ! ! _ ..}  .) E A A A A A A G r 2 3 3 = & & & +         ",
"                5 - - - 1 B Y Y E ;. . .] 6.t.t.t.t.t.t.t.t.t.t.e.t.O... .|  ... . .) A H A A A A A A Y %.G $.e % & & +         ",
"                - & & & 2 G A A I :.....} 6.r.2.2.r.r.r.r.r.2.2.2.e.#.} ..} .. . . .) E G A A H H H A A Y A %.9 & & & +         ",
"                - & & & 2 G A H I :.....} 6.r.2.2.r.r.r.r.r.r.2.2.e.#...:.......}  .) G H H H G E T T H G A Y 3 & & & +         ",
"                - % % % 3 Y E E I | } } } 6.r.2.2.2.3.3.3.3.3.3.3.r.@.] X.[ } ..}  .) P E E E E E E E E E P E 0 % & & +         ",
"        $ ; ; & 3 h g g N ) { { _ .. . .} 6.r.2.2.u.f.d.f.f.f.f.f.s.e.9.9.9.#.......| { _ _ _ _ { { { { *._ { k & & & +         ",
"        + % & % 9 T H H ! .. . ..... . .} 6.r.r.2.p.k.k.k.k.k.k.k.k.u.2.2.r.>.} ..} .. . . . ...} } }  ..... .j % & & +         ",
"        + & & & 9 Y A G I ..} .... .....} 6.r.2.r.p.k.k.k.k.k.k.k.g.u.2.2.r.>.} ...... .} ...... . . . . . . .j & & & +         ",
"        + & & % 9 Y G G ! ..} ....] } ..] 6.r.2.r.p.k.k.k.k.k.k.k.g.u.2.r.r.>.} } } ..}  ....... . . . . .}  .j & & & +         ",
"        + & & & f ) ) ) _ ..} ..X.6.,.,.,.0.r.2.2.n.J.J.J.Z.l.k.k.g.u.2.2.2.<.,.,.6.#.} ........ . . . . .}  .j & & & +         ",
"        + % & & j  .}  . .} ..} +.e.r.r.2.2.2.r.2.m.T.T.T.K.z.k.k.g.u.2.2.2.r.r.2.r.6.} ..} } .. . . . . . . .j & & & +         ",
"        + & & & j  . ... .......+.e.2.r.r.2.2.2.2.m.T.T.T.K.z.k.k.g.u.2.r.2.2.2.2.r.,.} ..............} ..}  .j % & & +         ",
"        + & & & j  .} .. .......+.e.r.2.2.2.2.2.2.M.T.T.T.K.z.k.k.g.u.2.2.2.2.2.2.r.,.} .............. . . .:.j % & & +         ",
"        + & & & j  .} ..........+.e.r.2.2.u.p.p.p.N.T.T.T.I.F.S.S.Z.h.p.p.p.y.2.2.r.,.} .. .........../ ~ ~ ~ f % - - $         ",
"        + & & & j  .} ..........+.e.r.2.2.a.k.k.k.Z.T.T.T.T.Y.Y.T.U.V.k.k.l.p.2.2.r.,.} .. ...........i ; & & >                 ",
"        + & & & j  .} ..........+.e.r.2.2.a.k.k.k.S.T.T.T.T.T.T.T.Y.C.k.k.k.p.2.2.r.,.} .. ...........4 & & % -                 ",
"        + & & & j  .}  . .....} +.e.r.2.2.a.k.k.k.Z.T.T.T.T.T.T.T.Y.C.k.k.k.p.r.2.r.,.} .. .........` 4 % & & -                 ",
"        # o o . h &./ / _ X.X.X.o.e.r.r.2.h.x.x.x.F.T.T.T.T.T.T.T.U.C.k.k.k.p.2.2.r.,.} .. ...........4 % & & -                 ",
"                , = = = u 0.e.0.e.r.2.r.y.A.P.I.I.U.T.T.T.T.T.T.T.Y.C.k.k.k.p.2.2.r.,.} .. ...........4 & & & -                 ",
"                - % & % q e.2.2.2.2.2.2.y.D.T.T.T.T.T.T.T.T.T.T.T.Y.C.k.k.k.p.2.2.r.,.} .. ...........4 & & & -                 ",
"                - & & % q t.r.r.r.r.r.2.y.H.T.T.T.T.T.T.T.T.T.T.T.Y.C.k.k.k.p.2.2.r.,.} ..............4 & & & -                 ",
"                - & & % q e.2.r.r.r.r.r.y.D.Y.Y.Y.Y.T.T.T.T.Y.Y.Y.U.C.k.k.k.p.2.2.r.,.] } } } ......` 4 % % % -                 ",
"                - & & % q e.2.2.2.2.r.r.r.j.V.V.V.J.T.T.T.P.C.V.V.B.z.k.k.k.p.2.r.r.1.<.<.<.5.s 4 4 4                           ",
"                - & & % q e.2.r.r.2.2.2.2.a.k.k.k.Z.T.T.T.K.z.k.k.k.k.k.k.k.p.2.2.r.r.r.r.r.q.1 & & %                           ",
"                - & & & q t.2.2.2.r.r.2.2.a.k.k.k.Z.T.T.T.K.z.k.k.k.k.k.k.k.p.2.r.2.2.2.2.2.q.1 % & %                           ",
"                o % & % q t.r.r.r.r.2.2.2.a.k.k.k.Z.T.T.T.K.z.k.k.k.k.k.k.k.p.r.r.r.r.r.r.r.q.3 % & &                           ",
"                  o - o 8 C U Q ' e.2.2.2.a.k.k.k.Z.T.T.T.K.z.k.k.k.k.k.k.k.7.P U U U U U U H < - - -                           ",
"                          % % % 1 q.r.2.2.a.k.k.k.Z.T.T.T.K.z.k.k.k.k.k.k.l.L % % % % % % % .                                   ",
"                          % & & 3 q.2.2.2.a.k.k.k.Z.T.T.T.K.z.k.k.k.k.k.k.l.L % & & & & & & -                                   ",
"                          % & & 3 q.y.r.3.a.l.l.l.G.T.T.T.L.z.l.l.l.l.l.l.l.L % & & & & & & o                                   ",
"                          $ + O < -.4.4.4.8.w.w.w.c.b.b.b.v.i.w.w.w.w.w.w.w.l X + O + + + + #                                   ",
"                                  @ = = = = = = = * * * * * = = = = = = = =                                                     ",
"                                  o & & & & & & & & & & & & & & & & & & & &                                                     ",
"                                  o & & & & & & & & & & & & & & & & & & & &                                                     ",
"                                  o & & & & & & & & & & & & & & & & & & & &                                                     "
};
