/* XPM */
static char *rcp109249452075506406[] = {
/* columns rows colors chars-per-pixel */
"64 64 175 2 ",
"   c None",
".  c #9D0807",
"X  c #97060A",
"o  c #9E060A",
"O  c #97090D",
"+  c #99090C",
"@  c #9F1009",
"#  c #950E14",
"$  c #9C0A11",
"%  c #A60104",
"&  c #A90103",
"*  c #A30905",
"=  c #AC0C06",
"-  c #A2050A",
";  c #AA0509",
":  c #A20A0D",
">  c #AB0D09",
",  c #B2050A",
"<  c #A6120A",
"1  c #AD140B",
"2  c #A11D0D",
"3  c #AD1B0C",
"4  c #B3150A",
"5  c #B3190C",
"6  c #BD190C",
"7  c #A91A10",
"8  c #B5210F",
"9  c #BA270E",
"0  c #BA2C0E",
"q  c #B32210",
"w  c #B92611",
"e  c #BE2E14",
"r  c #BF3214",
"t  c #BC3119",
"y  c #C21D0F",
"u  c #C3240E",
"i  c #C32710",
"p  c #C32A11",
"a  c #C23313",
"s  c #C83A17",
"d  c #C43619",
"f  c #C63B19",
"g  c #CA3B19",
"h  c #D43615",
"j  c #D53D15",
"k  c #DA3B16",
"l  c #D63C18",
"z  c #DA3C18",
"x  c #BF551F",
"c  c #C64714",
"v  c #C94714",
"b  c #C74814",
"n  c #CB471D",
"m  c #CD4A1D",
"M  c #DD4016",
"N  c #D24C16",
"B  c #DB4D17",
"V  c #D8451C",
"C  c #D24D1B",
"Z  c #DC4F1E",
"A  c #CD5516",
"S  c #CE5915",
"D  c #CF531D",
"F  c #CE551D",
"G  c #CE541B",
"H  c #C55E1A",
"J  c #D85515",
"K  c #D25816",
"L  c #D1531A",
"P  c #D1541A",
"I  c #D0531E",
"U  c #D0541C",
"Y  c #D1541B",
"T  c #D95519",
"R  c #DB561D",
"E  c #D15818",
"W  c #DD581C",
"Q  c #E44C1C",
"!  c #E4521D",
"~  c #EF551E",
"^  c #EF541D",
"/  c #ED561E",
"(  c #E55B1B",
")  c #EB5D1A",
"_  c #EA5A1C",
"`  c #E95D1C",
"'  c #EC5D1C",
"]  c #EA5C1C",
"[  c #F35B1D",
"{  c #FB5E1F",
"}  c #D56718",
"|  c #D9641C",
" . c #E5661D",
".. c #F7611C",
"X. c #FF631B",
"o. c #FF641B",
"O. c #FF651B",
"+. c #F9631F",
"@. c #FF631C",
"#. c #FF631D",
"$. c #FE631D",
"%. c #FF631E",
"&. c #FD631D",
"*. c #FF641C",
"=. c #FF641D",
"-. c #FE651E",
";. c #FE631C",
":. c #E2751F",
">. c #E1791C",
",. c #ED7D1C",
"<. c #FA701A",
"1. c #F97A1B",
"2. c #D24E21",
"3. c #D25220",
"4. c #E95521",
"5. c #ED5622",
"6. c #EE5621",
"7. c #FC5F21",
"8. c #DF752A",
"9. c #F76320",
"0. c #FE6521",
"q. c #FC6320",
"w. c #E98A1D",
"e. c #FC821D",
"r. c #FA8E1E",
"t. c #F0931F",
"y. c #FD9C1E",
"u. c #FDA31E",
"i. c #FFAE1E",
"p. c #FDB01E",
"a. c #FBBE1F",
"s. c #E78420",
"d. c #EA8527",
"f. c #E18820",
"g. c #E9822B",
"h. c #FB8C21",
"j. c #E89429",
"k. c #F09422",
"l. c #FA9523",
"z. c #F69E20",
"x. c #FC9C22",
"c. c #F6992A",
"v. c #EAA02B",
"b. c #FDA423",
"n. c #FFAD21",
"m. c #FDA629",
"M. c #FFB121",
"N. c #FBBD22",
"B. c #FDC323",
"V. c #FCCB26",
"C. c #FDD327",
"Z. c #FDD329",
"A. c #FFDE2B",
"S. c #F8C33E",
"D. c #FFE327",
"F. c #FFE329",
"G. c #FCE232",
"H. c #FDE63E",
"J. c #F8C341",
"K. c #F6C44A",
"L. c #FCDD45",
"P. c #FBE541",
"I. c #F9E64B",
"U. c #FBEA4A",
"Y. c #FBEA53",
"T. c #FDEE5E",
"R. c #FDF374",
"E. c #FDF57A",
"W. c #FCF782",
"Q. c #FEF78E",
"!. c #FBF889",
"~. c #FEFC97",
"^. c #FFFF9F",
"/. c #FEFDA4",
"(. c #FEFFAB",
/* pixels */
"                                                    & & & & % & % ;                                                             ",
"                                                    & & & & & & & -                                                             ",
"                                                    & & & & & & & -                                                             ",
"                                                    & & & & % & & -                                                             ",
"                                            o + + - & & & ; ;                                                                   ",
"                                          ; % & & & & & % &                                                                     ",
"                                          - & & & & & & & &                                                                     ",
"                                          % % & & & & & & &                                                                     ",
"                                    - - o 1 8 8 8 1 & & & &                           - - -                                     ",
"                                  o & & % p 3.I I r & & & &                           % & & o                                   ",
"                                  o & & % e U G Y r & & & &                           % & & o                                   ",
"                                  o & & % e F G U r & & & &                           % & & o                                   ",
"                                  3 4 4 1 s W W W a & & & &                         7 1 4 4 7                                   ",
"                          - % % > n G G C _ #.-.-.k & & & &         ; % % % % % % % w D G G m > % % -                           ",
"                          % & & = m Y G G ` -.#.-.k & & & &         ; & & & & & & % w U G G m = & & %                           ",
"                          % & & = m G D G ` -.#.-.k % & % ;         ; % & % & & % % w I G G m > & & %                           ",
"                          % & & = C T T J ' #.#.-.M = = = >         > = = = = = = = p R T T C = % & %                           ",
"                          % & % = 4.+.9.9.+.X.o.-._ m m m d * - o * d m m m ! ~ ~ ~ [ +.+.9.4.= % & %                           ",
"                          % & & = ~ o.#.#.#.X.#.#.' F F F f & & % & f U G Y ' -.-.-.-.#.#.-.~ = % & %                           ",
"                          % & & = ~ -.#.#.#.o.#.#.` G D U f % & & & f G I L ' -.-.#.-.-.o.o.~ = & & %                           ",
"                          % & & = 5.0.-.-.-.o.#.#.] L G L f * = = = f U G L ] o.X.X.#.-.-.0.5.= & & %                           ",
"                          % & % = Z ( ( ( [ #.-.#...` ] ] / Q Q Q Q _ ] ` ` ..o.-.o.[ ( ( ( Z = % & %                           ",
"                          % & & = m G G L ` -.#.#.-.#.#.-.-.-.-.-.-.-.#.-.-.#.X.#.0._ L G G m = & & %                           ",
"                          % & & = n F F G ` -.o.#.o.o.#.#.-.#.#.-.o.#.#.#.-.#.#.o.-.` G F F m = & & %                           ",
"                          % & & = m U Y Y ` -.X.#.X.X.#.X.X.#.#.#.X.X.#.#.#.#.#.X.o.` Y U U m = & & %                           ",
"                            ; ; 1 t r r a ! -.#.#.<.e.e.e.e.e.e.e.e.e.e.e.e.e.e.e.e. .a r r r 1 ; ;                             ",
"                                  o & % = Q -.#.#.e.n.n.n.n.i.i.n.n.n.i.n.i.n.n.i.n.:.= % % -                                   ",
"                                  - & & & Q -.#.#.e.n.i.i.n.n.n.n.i.i.i.n.n.n.n.i.n.:.= & & -                                   ",
"                                  o & & = Q o.X.#.e.n.i.i.i.i.n.i.i.n.n.n.n.n.i.n.M.:.= & & -                                   ",
"                                  3 5 5 5 ( 1.1.1.r.n.n.i.p.N.N.a.N.p.n.n.n.z.t.k.k.| ; & & -                                   ",
"                          - - - < n I D G s.m.n.n.n.i.n.i.N.A.F.F.A.N.i.n.n.>.A A S r & & % .                                   ",
"                          % & & > m G F A s.n.i.i.i.n.n.i.N.A.F.F.F.N.n.n.n.>.G G U p % & & -                                   ",
"                          % & & = m I I A s.n.i.n.i.n.n.i.N.A.F.F.F.N.n.n.i.>.G G U e & & & -                                   ",
"                          % & & = m S G S w.i.n.n.i.p.p.i.N.G.G.G.G.N.n.n.i.:.2.2.3.e - - - $                                   ",
"        $ ; ; ;           % & & 1 g.k.k.k.b.i.n.i.N.Z.C.C.L.E.W.W.E.S.n.i.n.G 1 5 5 1                 , & & ;                   ",
"        O % & %           % & & 3 c.i.n.n.i.n.n.i.B.F.F.F.Y.^.(.(./.K.i.i.n.c % % % &                 ; & & & -                 ",
"        O % & %           % & & 3 c.i.i.i.i.n.n.i.B.F.F.F.Y./.(.(./.K.i.i.n.v % & & &                 ; & & & -                 ",
"        + & & & :         & & & 3 c.i.i.n.n.i.i.i.B.F.F.F.Y./.(.(./.K.i.n.n.b % & & -                 ; & & & -                 ",
"        + & & & - ; ; ; y z k k B x.i.i.i.N.V.V.V.L.R.R.R.!./.(.(./.K.i.i.n.| e r a q ; ; , ; ; ; ; ; & & & & -                 ",
"        + & & & & & & & 6 q.-.-.<.b.n.i.i.V.F.F.F.T.(.(.(.(.(.(.(./.K.i.i.i.>.D F U e & & & & & & & & & & & & -                 ",
"        + & & & % & & % 6 #.X.#.<.b.n.i.i.V.F.F.D.T.(.(.(.(.(.(.(./.K.i.i.n.>.D G U e & & & & & & & & & & & & -                 ",
"        + % & & % % % % 6 #.#.#.<.b.n.i.i.V.F.D.D.T.(.(.(.(.(.(.(./.K.i.i.n.>.G G L e % % % % % % % % % & & & -                 ",
"        + & & & 5 p p u h #.-.#.<.b.n.i.i.V.F.D.D.T.(.(.(.(.(.(.(./.K.i.i.i.,.( ( ( V p p p p p p p i = & & & -                 ",
"        O & & % l 0.#.#.q.-.#.#.<.b.n.i.i.V.F.D.D.T.(.(.(.(.(.(.(./.K.i.n.i.e.-.-.o.-.#.#.#.#.#.#.#.7.6 & & & -                 ",
"        O % & & k -.-.-.#.#.#.#.<.b.n.i.i.V.F.D.D.T.(.(.(.(.(.(.(./.K.i.n.i.e.X.X.#.-.-.o.#.#.-.-.-.#.6 & & & -                 ",
"        O & & % j -.o.-.#.X.#.#.<.b.n.i.i.V.F.D.D.T.(.(.(.(.(.(.(./.K.i.i.n.e.X.#.#.#.#.#.#.-.-.-.-.#.6 & & & -                 ",
"        # o o . g 5.~ 5.[ o.X.#.<.b.n.i.i.V.F.D.D.T.(.(.(./.~.~.~.Q.J.i.n.n.e.#.-.#.#.#.#.#.#.#.#.#.#.6 & & & -                 ",
"                1 = = = u q.o.#.<.b.n.i.i.V.F.D.D.T.(.(.(.!.I.P.P.P.N.i.n.n.e.#.-.#.#.#.#.#.#.#.#.#.#.6 & & & -                 ",
"                - % & % 6 7.#.X.<.b.n.i.i.V.F.D.D.T.(.(.(.W.G.D.D.A.a.i.n.n.e.#.-.#.#.#.#.#.#.#.#.#.#.6 & & & -                 ",
"                - & & & 6 { #.X.<.b.n.i.i.V.F.D.D.T.(.(.(.W.G.D.F.A.N.n.n.n.e.#.#.#.#.#.#.#.#.#.#.#.#.6 & & & -                 ",
"                - & & & 6 +.-.o.<.b.n.i.i.V.F.D.D.T.(.(.(.W.G.D.F.F.N.i.i.n.e.o.o.o.-.#.#.#.#.#.#.#.{ 6 % % % -                 ",
"                - & & % 9 l.x.y.y.n.n.n.i.V.F.D.D.T.(.(.(.W.G.F.F.A.N.i.i.n.u.y.x.x.e.X.#.-.[ u 6 6 6                           ",
"                - & & % 0 b.i.n.n.i.i.i.i.V.F.D.D.T.(.(.(.W.G.F.F.F.N.i.n.n.n.n.n.n.h.o.#.-.~ = % % %                           ",
"                - & & & 0 b.i.i.i.n.n.i.i.V.F.D.D.T.(.(.(.W.G.F.D.F.N.i.i.i.i.i.i.n.r.o.#.#.~ = & & %                           ",
"                - % & % 0 m.n.n.n.n.i.i.i.V.F.D.D.T./././.E.G.F.D.F.N.i.i.i.n.n.n.n.h.-.-.0.5.= & & %                           ",
"                  o - o q S K E } b.i.i.i.V.F.D.D.H.T.T.T.U.F.F.F.F.Z.V.V.V.f.Y K K N j j j g < o o -                           ",
"                          % % % 3 c.n.i.i.V.F.D.F.F.F.F.F.F.F.F.F.F.F.F.F.F.H % % % % % % % .                                   ",
"                          % & & 5 c.i.i.i.V.F.D.F.F.F.F.F.F.F.F.F.F.F.F.F.F.H % & & & & & & -                                   ",
"                          % & & 5 c.M.n.p.V.D.D.D.D.D.D.D.D.D.D.D.D.D.D.D.F.H % & & & & & & o                                   ",
"                          $ + O 2 8.d.d.d.j.v.v.v.v.v.v.v.v.v.v.v.v.v.v.v.v.x X + + + + + + #                                   ",
"                                  @ = = = = = = = = = = = = = = = = = = = =                                                     ",
"                                  o & & & & & & & & & & & & & & & & & & & &                                                     ",
"                                  o & & & & & & & & & & & & & & & & & & & &                                                     ",
"                                  o & & & & & & & & & & & & & & & & & & & &                                                     "
};
