/* XPM */
static char *rcp75406656075447520[] = {
/* columns rows colors chars-per-pixel */
"64 64 182 2 ",
"   c None",
".  c #9F0607",
"X  c #9E060A",
"o  c #970A0C",
"O  c #99090C",
"+  c #9E140D",
"@  c #950D12",
"#  c #9B0A12",
"$  c #A60204",
"%  c #A90103",
"&  c #A50E05",
"*  c #AB0C06",
"=  c #A30509",
"-  c #A9040A",
";  c #A60E09",
":  c #AB0D09",
">  c #B00D06",
",  c #AC1007",
"<  c #A7100A",
"1  c #AE140B",
"2  c #AD1B0C",
"3  c #B2150A",
"4  c #B2190B",
"5  c #BD1A0B",
"6  c #A51A10",
"7  c #A91910",
"8  c #AE210A",
"9  c #B6210F",
"0  c #B9220F",
"q  c #BB2C0E",
"w  c #B9300D",
"e  c #B52010",
"r  c #B92511",
"t  c #B62912",
"y  c #BD2C13",
"u  c #B53013",
"i  c #BE3213",
"p  c #C12E12",
"a  c #C33314",
"s  c #CC3A17",
"d  c #C53B1A",
"f  c #D53D16",
"g  c #D63D18",
"h  c #CC461C",
"j  c #CD4B1D",
"k  c #C94A16",
"l  c #D84617",
"z  c #D14D1D",
"x  c #D4421E",
"c  c #CD5617",
"v  c #CC5915",
"b  c #C2541C",
"n  c #CF551C",
"m  c #CE531B",
"M  c #C55D1A",
"N  c #DC5616",
"B  c #D05319",
"V  c #D1541B",
"C  c #D0531F",
"Z  c #D1521E",
"A  c #D1541C",
"S  c #D0551E",
"D  c #D2531C",
"F  c #D95518",
"G  c #DB551C",
"H  c #DD581C",
"J  c #DC581B",
"K  c #D55216",
"L  c #E14917",
"P  c #E44B1C",
"I  c #E4541D",
"U  c #EF551F",
"Y  c #EE561E",
"T  c #E35B1C",
"R  c #EE591E",
"E  c #EA5C1C",
"W  c #F0571F",
"Q  c #F15F1E",
"!  c #FC5F1E",
"~  c #CD6D1A",
"^  c #D36316",
"/  c #D26218",
"(  c #EF611D",
")  c #FB6516",
"_  c #F1601D",
"`  c #F6611E",
"'  c #FF631B",
"]  c #FD641A",
"[  c #FF641B",
"{  c #FF631C",
"}  c #FF631D",
"|  c #FF631E",
" . c #F8641E",
".. c #FF641C",
"X. c #FD641D",
"o. c #FE631C",
"O. c #FB6D1B",
"+. c #F46D1C",
"@. c #E1751C",
"#. c #E37D1F",
"$. c #FA701A",
"%. c #FA7A1C",
"&. c #F5741C",
"*. c #D24F20",
"=. c #D35320",
"-. c #EC5521",
";. c #F55D21",
":. c #DF7220",
">. c #EC6F20",
",. c #E46A21",
"<. c #F46220",
"1. c #FD6420",
"2. c #F27720",
"3. c #E7831F",
"4. c #EA8A1E",
"5. c #FB831D",
"6. c #FA8D1E",
"7. c #FB9A1F",
"8. c #FFAE1F",
"9. c #FCA41D",
"0. c #FCB11E",
"q. c #FABE1F",
"w. c #DD9224",
"e. c #DF9D24",
"r. c #E78521",
"t. c #E98425",
"y. c #E98528",
"u. c #EC8A27",
"i. c #FB8C20",
"p. c #E99128",
"a. c #EA9F2E",
"s. c #F09421",
"d. c #FA9522",
"f. c #FA9C23",
"g. c #F3962B",
"h. c #F59A29",
"j. c #E9A12B",
"k. c #E3A024",
"l. c #FCA423",
"z. c #FFAD21",
"x. c #FCB223",
"c. c #FBBD21",
"v. c #FCC323",
"b. c #FCCA26",
"n. c #FCC72A",
"m. c #FCC928",
"M. c #FDD225",
"N. c #FCD229",
"B. c #FEDE2B",
"V. c #FACE34",
"C. c #FBC839",
"Z. c #FBD33B",
"A. c #FFE227",
"S. c #FFE229",
"D. c #FDE232",
"F. c #FBE43E",
"G. c #E7A842",
"H. c #E8A843",
"J. c #E7BB6D",
"K. c #E7BC75",
"L. c #FBDD44",
"P. c #FBCE57",
"I. c #FBCF59",
"U. c #FAD75B",
"Y. c #FDE94A",
"T. c #FBE952",
"R. c #FDED5D",
"E. c #FCEE62",
"W. c #FDE66C",
"Q. c #FBEF6A",
"!. c #FCE161",
"~. c #FDE670",
"^. c #FBF274",
"/. c #FCF57A",
"(. c #FCF782",
"). c #FCF788",
"_. c #FEFB8E",
"`. c #FCF885",
"'. c #FDFB91",
"]. c #FEFE9E",
"[. c #FFFEA2",
"{. c #FFFFAB",
/* pixels */
"                                                            - % % =                                                             ",
"                                                            = % % =                                                             ",
"                                                            = % % =                                                             ",
"                                                            = % % =                                                             ",
"                                                    X O O X $ % % =                   o O o @                                   ",
"                                                    % $ % % % % % =                   $ % $ X                                   ",
"                                                    % % % % % % % =                   $ % % X                                   ",
"                                                    $ $ $ % % % % =                   $ % % X                                   ",
"                                            = - = 1 9 9 9 4 % % % =                   $ % % X                                   ",
"                                          - % $ $ 0 =.C C d $ % % =                   $ % % X                                   ",
"                                          - % % % 0 C c n d % % % =                   $ % % X                                   ",
"                                          - % % $ 9 m c C d $ % % =                   $ % % X                                   ",
"                                          1 3 3 1 a H J H h - % % =                 6 1 3 3 7                                   ",
"                          - $ $ $ $ $ $ $ y C m m I X.X.X.R > % % =           $ $ $ r m m m j : $ $ $                           ",
"                          $ % % % % % % % y C m c T [ { X.R > % % =         - % % % r C C n j : % % $                           ",
"                          $ % % % $ % % $ y C m m T X.[ X.W * % % =         - % % $ r C c C j : % % $                           ",
"                          : * * * * * * * a G F G E { [ X.R 4 * * ;         , * * * y C c c j * % % $                           ",
"                  = X X 2 j j j z -.U U U ;. . . .] { { X.Q z j j h 2 X X X i j j j j C c c j * % % $                           ",
"                - % % % 3 m V c F  .[ X.X.X.' { ' X.{ { { ( V c c m 4 % % % i C n n c n c c j * % % $                           ",
"                = % % % 3 m c m F <.{ { X.X.X.' ' { X.[ { _ B c c m 4 % % % i n c c c c c c j * % % %                           ",
"                X $ $ $ 1 z m B N <.{ { { [ [ [ [ X.[ [ X._ K c B z 4 $ - $ a C B B c =.C C j : $ $ -                           ",
"          - - - 1 p y y s E E E E { { X.[ %.i.i.6.%.' { {  .R E E E I P P P I E E E G t r r t 6                                 ",
"        O $ % $ 9 =.C n H { X.X.X.' ' X.[ i.z.z.z.6.{ { ' { X.X.X.X.X.X.X.1.X.X.{ 1.P - % $ X                                   ",
"        O % % % 9 C c c J { { { X.[ { { ' i.z.z.z.i.{ { [ ' { X.{ { ' [ { { { [ { X.P - % % X                                   ",
"        o % % % 9 C B m J [ [ X.X.{ { { [ 6.8.z.z.6.' { ' ' { ' ' { ' ' { ' { { X.X.P - % % X                                   ",
"        O % % % p T T T E X.{ { ] %.5.5.5.7.z.z.z.9.d.d.d.d.5.5.5.5.5.5.5.5.$.' ' X.P - % % X                                   ",
"        O % % % g 1.[ X.X.[ { { $.l.z.z.8.z.z.z.z.v.S.S.S.N.0.8.z.z.z.z.z.z.5.{ ' [ P - $ % =                                   ",
"        O % % $ g 1.' { { ' { { $.l.z.8.8.8.8.8.8.v.S.A.S.N.0.z.z.8.8.8.8.8.5.{ [ [ P - $ % =                                   ",
"        O % % % f X.' X.{ { { { $.l.z.8.z.8.8.8.8.v.S.S.S.M.8.z.8.8.z.z.8.8.5.{ ' [ P $ $ % =                                   ",
"        O % % % s <.Q (  .{ { { $.l.z.8.8.x.c.c.c.V.T.T.T.L.c.c.q.c.0.z.z.z.6.%.%.%.T 4 4 4 2                                   ",
"        o $ % $ 0 D B B N X.[ ' $.l.8.8.8.b.B.B.B.R.].[.[./.D.S.S.B.c.8.8.8.z.z.z.l.3.m C m h < - = =                           ",
"        O $ % $ e C c m G { X.' O.l.8.8.8.b.S.S.S.R.{.{.{.(.D.S.S.S.c.z.8.z.8.8.8.z.r.c B c j * % % $                           ",
"        o $ % % 9 C c c F { { { $.l.8.8.8.b.S.S.A.R.{.{.{.(.D.S.S.S.c.8.z.z.z.8.8.z.r.m C m j * % % $                           ",
"        @ = = . e *.m C G  .X.{ O.f.z.z.z.n.B.S.B.E.{.{.{.`.F.D.D.D.c.0.0.0.8.z.8.z.4.v c v j , $ % $                           ",
"                < 3 4 3 r G J J T &.%.%.%.f.c.c.c.U.{.{.{.[.).(.(./.L.N.N.N.c.z.8.8.l.s.s.s.u.k d d d 1 % % -                   ",
"                = $ $ $ 3 j c m F  .' ' ) 6.z.8.8.P.{.{.{.{.{.{.{.[.T.S.S.S.v.8.z.8.8.z.z.z.l.^ C C C 3 % % % =                 ",
"                = % % % 3 m n c F  .{ X.[ i.z.8.8.I.{.{.{.{.{.{.{.[.T.A.S.S.v.8.8.8.8.8.8.8.l./ m c m 3 % % $ -                 ",
"                = $ % % 3 m n C G  .[ { [ i.z.8.8.I.{.{.{.{.{.{.{.[.T.S.S.S.v.8.8.8.8.8.8.8.l.^ m c m 3 % % $ -                 ",
"                        1 r 0 0 r ;.X.X.[ i.z.8.8.C.R.R.R.^.[.{.{.[.T.S.S.S.v.8.8.8.8.8.8.8.z.4.4.4.r.9 $ % % -                 ",
"                          $ % $ * -.X.X.[ i.z.8.8.v.A.S.A.T.].{.{.[.T.S.S.S.v.8.8.8.8.8.8.8.8.z.z.8.l.q $ % % -                 ",
"                          $ % % * U [ ' [ i.z.8.8.v.S.S.S.T.[.{.{.[.T.S.S.S.v.8.8.8.8.z.8.8.z.8.8.8.l.q % % % -                 ",
"                          $ % % : U [ [ ) 6.z.8.8.v.S.S.S.T.[.{.{.[.T.S.A.S.v.8.8.8.8.z.z.8.z.z.z.z.l.q % % % =                 ",
"                          $ % % , >.5.5.5.l.v.v.v.Z.E.E.E./.[.{.{.[.T.S.S.S.M.v.v.v.c.8.z.8.l.#.@.@.:.t - - -                   ",
"                          $ % $ 2 g.z.z.z.m.S.S.S.R.[.{.{.[.{.{.{.[.T.S.S.S.S.S.S.S.b.8.z.8.h.8 $ $ -                           ",
"                          $ % % 4 h.8.8.8.b.S.S.S.R.{.{.{.{.{.{.{.[.T.S.S.S.S.A.A.S.b.8.z.8.h.2 % % $                           ",
"                          $ % $ 2 h.8.8.8.b.S.S.A.R.{.{.{.{.{.{.{.[.T.A.S.S.S.A.S.S.b.8.z.8.h.2 % % %                           ",
"                          5 5 5 i h.8.8.8.V.F.F.F.Q.{.{.{.{.{.{.{.[.T.S.S.S.S.S.S.S.b.8.8.8.h.2 % % %                           ",
"                - % % % 5 ;. .;.+.l.8.z.x.!._.'.'.].{.{.{.{.{.{.{.[.T.S.S.S.S.S.A.S.b.8.8.8.h.2 % % $                           ",
"                = $ % % 5 ! ' { $.l.8.z.x.W.{.{.{.{.{.{.{.{.{.{.{.[.T.S.S.S.S.S.A.S.b.8.8.8.h.2 % % $                           ",
"                = % % $ 5 { [ { $.l.z.8.x.~.{.{.{.{.{.{.{.{.{.{.{.[.T.S.S.S.S.S.A.S.b.8.8.8.h.2 % % $                           ",
"                . % % % 5 { X.' $.l.z.8.x.W.[.[.[.[.{.{.{.{.{.{.{.[.T.A.S.S.S.S.A.S.m.l.l.l.g.2 $ $ $                           ",
"                = % % % 5 { ' ' $.l.z.z.z.Z.Y.Y.Y.^.{.{.{.{.{.{.{.[.T.A.A.S.S.A.S.S.k.w q q u                                   ",
"                = % % % 5 { X.{ O.l.z.8.8.b.S.A.A.R.{.{.{.{.{.{.{.[.T.S.S.S.S.S.S.S.w.% % $ X                                   ",
"                = % % % 5 ! [ ' $.l.8.8.8.b.A.A.A.R.{.{.{.{.{.{.{.[.T.S.S.S.S.S.S.S.w.$ % % =                                   ",
"                = $ % $ 5 1.X.X.&.l.z.z.z.m.S.S.S.R.[.[.[.[.{.{.{.[.T.S.S.A.S.D.S.D.w.$ % % X                                   ",
"                  X = X 4 f f f l 2.5.5.5.l.v.v.v.Z.R.R.R.^.[.{.{.[.T.S.S.S.e.~ ~ ~ b ; = =                                     ",
"                          $ % $ * U [ ' ) 6.8.8.8.v.S.S.S.T.].{.{.[.T.S.S.S.M $ $ $ -                                           ",
"                          $ % % > U X.{ [ i.z.8.z.v.S.S.S.T.[.{.{.].T.S.S.S.M $ % % =                                           ",
"                          $ % % * U X.X.[ i.z.8.z.v.S.S.A.T.[.{.{.].T.S.S.S.M $ % % -                                           ",
"                          # O O + x P P L ,.y.t.t.p.j.a.j.H.J.K.K.J.G.j.j.j.b X O O                                             ",
"                                  X $ - - * * * & * * * * * & & & & * * * *                                                     ",
"                                  X % % % % % % % % % % % % % % % % % % % %                                                     ",
"                                  X % % % % % % % % % % % % % % % % % % % %                                                     ",
"                                  = % % % % % % % % % % % % % % % % % % % %                                                     "
};
