/* XPM */
static char *rcp61884084075501754[] = {
/* columns rows colors chars-per-pixel */
"64 64 171 2 ",
"   c None",
".  c #9E0506",
"X  c #9D0807",
"o  c #9E060A",
"O  c #9A090D",
"+  c #9E1009",
"@  c #9A0D12",
"#  c #A60104",
"$  c #A90103",
"%  c #A40C05",
"&  c #AB0C06",
"*  c #A3060A",
"=  c #AB0508",
"-  c #A20D0D",
";  c #AA0D09",
":  c #AA170E",
">  c #A11D0D",
",  c #AE1B0B",
"<  c #B1150A",
"1  c #B11A0C",
"2  c #BD190C",
"3  c #B21C10",
"4  c #B6200F",
"5  c #B72010",
"6  c #BA2511",
"7  c #BE3113",
"8  c #BE3812",
"9  c #C0230E",
"0  c #C52710",
"q  c #C32810",
"w  c #C03112",
"e  c #C83011",
"r  c #C53814",
"t  c #CF3E16",
"y  c #C33619",
"u  c #C63C19",
"i  c #C83C19",
"p  c #C4491D",
"a  c #CD4A1D",
"s  c #D24D1C",
"d  c #CF5215",
"f  c #C0551F",
"g  c #CE541B",
"h  c #CF501C",
"j  c #CE531C",
"k  c #CE551C",
"l  c #CE551D",
"z  c #CE531C",
"x  c #C55D1A",
"c  c #D35816",
"v  c #D0531A",
"b  c #D0541B",
"n  c #D7551B",
"m  c #D65619",
"M  c #D0531D",
"N  c #D1531E",
"B  c #D3521F",
"V  c #D0551C",
"C  c #D7561C",
"Z  c #D0541C",
"A  c #DA561A",
"S  c #DC571B",
"D  c #DE571B",
"F  c #DD551C",
"G  c #DA581B",
"H  c #E34D1A",
"J  c #E1511D",
"K  c #EF551F",
"L  c #EE551F",
"P  c #E35B18",
"I  c #E65A1D",
"U  c #E55B1B",
"Y  c #EB5D1C",
"T  c #EA5D1B",
"R  c #FB5E1E",
"E  c #CF631A",
"W  c #CD6D1A",
"Q  c #D36216",
"!  c #DF6517",
"~  c #D6601A",
"^  c #E5631E",
"/  c #E0681E",
"(  c #FF631B",
")  c #FB6518",
"_  c #FD6419",
"`  c #FD641A",
"'  c #FF641B",
"]  c #F9621F",
"[  c #FA621F",
"{  c #FD631D",
"}  c #FD621D",
"|  c #FF631C",
" . c #FF631D",
".. c #FE631C",
"X. c #FE631F",
"o. c #FC611E",
"O. c #FA651E",
"+. c #FF641D",
"@. c #FE641C",
"#. c #FC641E",
"$. c #FE631C",
"%. c #F66D1C",
"&. c #FB6D1A",
"*. c #E1741E",
"=. c #E57E1F",
"-. c #F7711A",
";. c #F9701A",
":. c #F4791D",
">. c #FA7A1C",
",. c #CE4920",
"<. c #E35420",
"1. c #E85520",
"2. c #F55D21",
"3. c #F95E21",
"4. c #DE752A",
"5. c #FA6321",
"6. c #FA6120",
"7. c #E17320",
"8. c #E7861E",
"9. c #E8851E",
"0. c #FC821D",
"q. c #F0881F",
"w. c #FB8D1E",
"e. c #FC901F",
"r. c #FFAE1E",
"t. c #FDB21E",
"y. c #DF9D24",
"u. c #EA8527",
"i. c #FA8621",
"p. c #FB8D20",
"a. c #EC9A25",
"s. c #E89429",
"d. c #EA9F2E",
"f. c #FC9722",
"g. c #F79D26",
"h. c #FD9823",
"j. c #F5992A",
"k. c #E9A12B",
"l. c #FCA323",
"z. c #FFAD21",
"x. c #FFB021",
"c. c #FBBC22",
"v. c #FDC423",
"b. c #FCCA26",
"n. c #FDCA2A",
"m. c #FDD327",
"M. c #FED429",
"N. c #FEDA2C",
"B. c #F7C33E",
"V. c #FCD53E",
"C. c #FFE227",
"Z. c #FFE229",
"A. c #FDE232",
"S. c #FEE63C",
"D. c #E7A842",
"F. c #E8A843",
"G. c #E7BB6D",
"H. c #E7BC75",
"J. c #F5C54A",
"K. c #FBDD44",
"L. c #F9DA4F",
"P. c #FAE340",
"I. c #FBE953",
"U. c #FDEE5E",
"Y. c #FCEE63",
"T. c #FAF275",
"R. c #FCF37A",
"E. c #FCF783",
"W. c #FFFE9F",
"Q. c #FEFEA2",
"!. c #FFFEAB",
/* pixels */
"                                                                                      # $ $ X                                   ",
"                                                                                      # $ $ *                                   ",
"                                                                                      # $ $ *                                   ",
"                                                                                      # $ $ o                                   ",
"                                                                                      # $ $ # O O O O                           ",
"                                                                                      $ $ $ $ $ $ # #                           ",
"                                                                                      # # $ $ $ $ $ #                           ",
"                                                                                      # $ # # # # # #                           ",
"                                    * * * * * * *                             * * o : 5 4 2 4 4 4 4 4 - * * *                   ",
"                                  o $ $ $ $ $ $ $ =                         = $ $ # 6 M M h M M M M s < $ $ # *                 ",
"                                  o $ $ $ $ $ $ $ =                         = $ $ $ 6 V g g g g g g g < $ $ $ *                 ",
"                                  o $ $ $ $ $ $ $ $                         = $ $ # 6 M h h g g g g g < $ $ $ *                 ",
"                                  : < < < < < < < 1                         = $ $ # 6 D D D A D D D A < $ $ $ *                 ",
"                          * # # ; a g g h h h h M 7 # $ $ =                 = $ $ # 0 5.+.| | | | | ] 2 $ $ $ *                 ",
"                          # $ $ & a b g g g g g b w $ $ $ $                 = $ $ # q | +.| | | | | | 2 $ $ $ *                 ",
"                          # $ $ & a g g g g g g g 7 $ $ # $                   $ $ # 0 | +.| | | | | | 2 $ $ # *                 ",
"                          # $ $ & s A A m m m m C r & & & ;                 < & & & e | +.| | | | | | 9 & & ; -                 ",
"                          # $ # & 1.] 5.] ] ] ] ] I a a a y * * * * * * o o 7 a a a <.+.| | | | | | | F a a ,.5 o o * @         ",
"                          # $ $ & K ' | | | +.+.+.Y k k k u $ $ $ $ $ $ $ $ 7 V g g I +.( +.| | | | | D k k k 4 $ $ $ O         ",
"                          # $ $ & K +.| ( | | | +.Y g h V u # $ $ $ $ $ $ $ w k g v U | ( +.| | | | | G h h V 4 # $ $ O         ",
"                          # $ $ & K +.+.| ' ' ' ' T v v b u % # # # # # # # 7 g g d P ] ' ' ) | | | | A h h M 4 # $ # O         ",
"                          # $ $ & K +.| ' >.p.p.w.:.Y Y T ^ 7.*.*.*.*.*.*.7.=.8.8.9.q.p.w.w.i.&.' | | G h h h 4 # $ $ O         ",
"                          # $ $ & K +.| ' p.z.z.z.p.+.+.| >.z.x.z.z.z.x.x.z.z.x.z.z.z.z.z.z.l.-.' | | G h h h 4 # $ $ O         ",
"                          # $ $ & K +.| ' p.z.z.z.w.' ' ( >.z.r.r.r.r.r.z.z.z.r.r.r.r.r.z.z.l.;.| | | G h h h 4 # $ $ O         ",
"                          # $ $ & K +.+.' w.z.z.x.w.( | ( >.z.z.z.z.z.z.z.r.z.z.z.r.r.z.r.z.l.&.| ' | G k V V 4 # $ $ O         ",
"                          # $ $ & J Y Y T :.p.e.w.w.0.0.0.w.r.r.r.r.c.v.v.v.v.v.v.v.c.r.r.r.l.;.| ' | t 7 7 7 1 = = =           ",
"                          # $ $ & a k g v T | ' ( 0.z.z.z.z.r.z.z.t.M.Z.C.Z.Z.Z.Z.Z.b.r.r.r.l.;.| | | 2 # $ # *                 ",
"                          $ $ $ & a k h g T | | | 0.z.r.r.z.z.z.z.t.m.Z.Z.Z.Z.Z.Z.Z.b.r.r.r.l.;.| | | 2 $ $ $ *                 ",
"                          $ $ # & a k V v T +.| ( 0.z.r.r.r.r.r.r.r.m.Z.Z.Z.Z.Z.C.Z.b.r.r.r.l.;.| | | 2 $ $ $ *                 ",
"                          = $ $ ; y u u i L +.+.( 0.z.z.r.t.c.c.c.c.K.I.I.I.S.C.C.Z.b.r.r.r.l.;.| | | 2 $ $ $ *                 ",
"                                  * $ # % H +.+.( 0.r.z.r.c.N.Z.Z.A.R.W.Q.W.U.C.C.Z.b.r.r.r.l.&.| ' | 2 $ $ $ *                 ",
"                                  * $ $ = H +.| ( 0.z.z.r.c.Z.Z.Z.A.E.!.!.!.U.C.C.Z.b.r.r.r.l.&.| ' | 2 $ $ $ *                 ",
"                                  * $ $ = H ' | ( 0.r.r.r.c.Z.Z.C.A.E.!.!.!.U.C.C.Z.b.r.r.r.l.;.| ' | 2 $ $ $ *                 ",
"                                  * $ $ = H &.) ) 0.z.z.z.c.A.A.A.P.E.!.!.!.U.C.C.Z.b.r.r.r.l.-.| +.5.2 $ $ $ *                 ",
"                                  o $ $ # / h.f.f.l.z.r.r.B.R.E.E.E.Q.!.!.!.U.C.C.Z.b.r.r.z.l.! F D F < $ $ # *                 ",
"                                  o $ $ # 7.z.z.z.z.r.r.r.J.Q.!.!.!.!.!.!.!.U.C.Z.Z.b.r.z.r.l.Q g g g < $ $ $ *                 ",
"                                  o $ $ # *.z.r.z.z.r.r.r.J.Q.!.!.!.!.!.!.!.U.Z.Z.Z.b.r.z.r.l.Q g g h < $ $ $ *                 ",
"                                  o $ $ # *.z.r.z.z.z.r.r.J.Q.!.!.!.!.!.!.Q.U.Z.Z.Z.b.r.z.z.l.~ M V h < $ $ # *                 ",
"                                  o $ $ # *.z.r.z.c.b.b.b.L.Q.!.!.Q.R.U.U.U.V.v.v.v.c.r.z.r.g.8 4 4 6 3                         ",
"                                  o $ $ # *.z.r.z.v.Z.Z.Z.I.Q.!.!.Q.I.C.C.Z.v.r.r.r.z.z.r.r.j., # # $                           ",
"                                  * $ $ # *.x.r.r.v.Z.Z.C.I.Q.!.!.Q.I.C.Z.Z.v.r.r.r.r.r.r.z.j.1 $ $ $                           ",
"                                  . # # % *.t.r.r.v.Z.Z.Z.I.Q.!.!.Q.I.C.Z.Z.v.r.r.r.r.r.r.r.j., $ $ $                           ",
"                                  p a a z a.v.v.v.V.Y.Y.Y.R.Q.!.!.Q.I.Z.Z.Z.v.r.r.r.r.r.r.r.j., $ $ $                           ",
"                          * $ # , j.z.z.z.n.Z.Z.C.U.Q.!.!.Q.!.!.!.Q.I.Z.Z.Z.v.r.r.r.r.r.r.r.j., $ $ $                           ",
"                          # $ # 1 j.r.r.r.b.Z.Z.Z.U.!.!.!.!.!.!.!.Q.I.Z.Z.Z.v.r.r.r.r.r.r.r.j., $ $ $                           ",
"                          # $ $ 1 j.r.r.r.b.Z.Z.C.U.!.!.!.!.!.!.!.Q.I.C.Z.Z.v.r.r.r.r.r.r.r.j., # $ #                           ",
"                          # $ $ , j.z.z.r.b.Z.Z.C.U.!.!.!.!.!.!.!.Q.I.C.C.Z.v.t.t.t.x.z.z.r.g.7 2 2 2                           ",
"                          # $ $ , j.r.z.r.b.Z.C.C.U.!.!.!.!.!.!.!.Q.I.C.Z.Z.N.M.N.N.v.r.r.r.l.%.3.] 2.2 $ $ $ $ $ $ $ -         ",
"                          # $ $ , j.r.z.r.b.Z.C.C.U.!.!.!.!.!.!.!.Q.I.Z.Z.Z.Z.Z.C.Z.b.r.r.r.l.;.( +.5.2 $ $ $ $ $ $ $ O         ",
"                          # $ $ , j.r.z.r.b.Z.C.C.U.!.!.!.!.!.!.!.Q.I.Z.C.Z.Z.Z.Z.Z.b.r.z.z.l.;.| +.| 2 $ $ $ $ # $ $ O         ",
"                          # $ $ , j.r.z.r.b.Z.C.C.U.!.!.!.!.!.!.!.Q.I.Z.Z.Z.Z.Z.Z.Z.b.r.r.r.l.%.R | R 2 # $ $ # # # # O         ",
"                          # $ $ , j.r.z.r.b.Z.C.C.U.!.!.!.!.!.!.!.Q.I.C.C.Z.Z.C.Z.Z.b.r.z.r.g.w 2 2 2 & $ $ $ *                 ",
"                          # $ $ , j.r.z.r.b.Z.C.C.U.!.!.!.!.!.!.!.Q.I.Z.Z.Z.Z.Z.Z.Z.b.r.r.r.j., $ $ # $ $ # # *                 ",
"                          # $ $ , j.r.z.r.b.Z.C.C.U.!.!.!.!.!.!.!.Q.I.Z.Z.Z.Z.Z.Z.Z.b.r.r.r.j., # $ $ $ # $ $ *                 ",
"                          # $ $ , j.r.z.r.b.Z.C.C.U.Q.Q.Q.Q.!.!.!.Q.I.Z.Z.C.Z.A.Z.A.n.z.z.z.j.1 # $ $ $ # $ = *                 ",
"                          # $ $ , j.r.z.r.b.Z.C.C.S.U.U.U.T.Q.!.!.Q.I.Z.Z.Z.y.W W W E c c c k : * * * * * * *                   ",
"                          # $ $ , j.z.r.r.b.Z.C.Z.Z.Z.Z.Z.I.W.!.!.Q.I.Z.Z.Z.x # # # # # # # X                                   ",
"                          # $ $ 1 j.r.r.r.b.Z.C.Z.Z.Z.Z.Z.I.Q.!.!.W.I.Z.Z.Z.x # $ $ $ $ $ $ *                                   ",
"                          # $ $ 1 j.x.z.t.b.C.C.C.C.C.C.C.I.Q.!.!.W.I.C.C.Z.x # $ $ $ $ $ $ *                                   ",
"                          @ O O > 4.u.u.u.s.k.k.k.k.k.d.k.F.G.H.H.G.D.k.k.k.f O O O O O O O @                                   ",
"                                  + & & & & & & & % & & & & % % % % & & & &                                                     ",
"                                  o $ $ $ $ $ $ $ $ $ $ $ $ $ $ $ $ $ $ $ $                                                     ",
"                                  o $ $ $ $ $ $ $ $ $ $ $ $ $ $ $ $ $ $ $ $                                                     ",
"                                  * $ $ $ $ $ $ $ $ $ $ $ $ $ $ $ $ $ $ $ $                                                     "
};
