/* XPM */
static char *rcp81647460075526713[] = {
/* columns rows colors chars-per-pixel */
"64 64 174 2 ",
"   c None",
".  c #97060A",
"X  c #9E0609",
"o  c #97090C",
"O  c #9B090C",
"+  c #9E1D0D",
"@  c #9A0C12",
"#  c #A60104",
"$  c #A90003",
"%  c #A50E05",
"&  c #AA0C06",
"*  c #A2050A",
"=  c #AA0409",
"-  c #A20B0A",
";  c #AA0C0A",
":  c #AA1006",
">  c #A6120B",
",  c #AE140B",
"<  c #AE1B0B",
"1  c #B2150A",
"2  c #B8170C",
"3  c #B21A0C",
"4  c #BD190B",
"5  c #A40910",
"6  c #B71F10",
"7  c #B6210F",
"8  c #B8220E",
"9  c #B62412",
"0  c #B92610",
"q  c #BD2E14",
"w  c #BE3112",
"e  c #C0260D",
"r  c #C22C13",
"t  c #C13215",
"y  c #CE3B16",
"u  c #CC3C1A",
"i  c #D53C16",
"p  c #D03819",
"a  c #BE541F",
"s  c #C94814",
"d  c #CE461C",
"f  c #CD4A1D",
"g  c #D44D16",
"h  c #D14318",
"j  c #D34F1A",
"k  c #CF531C",
"l  c #CE511D",
"z  c #CF551C",
"x  c #CF551E",
"c  c #CD561C",
"v  c #CE531B",
"b  c #C55E1A",
"n  c #D15616",
"m  c #D25916",
"M  c #D1531B",
"N  c #D2531A",
"B  c #D75319",
"V  c #D0541B",
"C  c #D7551A",
"Z  c #D2511E",
"A  c #D0551C",
"S  c #D2551E",
"D  c #D0541E",
"F  c #D2531C",
"G  c #D8521A",
"H  c #D8541B",
"J  c #DA551D",
"K  c #DB561B",
"L  c #DB581B",
"P  c #E34C1A",
"I  c #E44C19",
"U  c #E34D1D",
"Y  c #E54D1C",
"T  c #E2561C",
"R  c #EE551E",
"E  c #E3591B",
"W  c #E35B1B",
"Q  c #E45A19",
"!  c #E35B1C",
"~  c #E55A1D",
"^  c #E55A1E",
"/  c #E35A1C",
"(  c #E95D1B",
")  c #E85A1E",
"_  c #EC581F",
"`  c #E95D1C",
"'  c #E95D1C",
"]  c #EA5B1A",
"[  c #F15E1C",
"{  c #F15C1E",
"}  c #FC5F1E",
"|  c #EE6A1E",
" . c #F7631F",
".. c #F7641E",
"X. c #F3601E",
"o. c #FF631B",
"O. c #FF641B",
"+. c #FA631D",
"@. c #FC601C",
"#. c #FF631C",
"$. c #FF631D",
"%. c #FF621C",
"&. c #FF631E",
"*. c #FC601F",
"=. c #FD651D",
"-. c #FE641C",
";. c #FF641C",
":. c #FF641D",
">. c #FF651D",
",. c #FF641E",
"<. c #FE661E",
"1. c #FE631C",
"2. c #F66D1C",
"3. c #FB6D1C",
"4. c #FA711A",
"5. c #F9791B",
"6. c #CE4A21",
"7. c #D15220",
"8. c #D95120",
"9. c #EE5622",
"0. c #EF5B21",
"q. c #F45E21",
"w. c #DD742A",
"e. c #FC6020",
"r. c #FD6320",
"t. c #EF7D25",
"y. c #FC821E",
"u. c #FA8D1F",
"i. c #F8961D",
"p. c #FFAD1F",
"a. c #FDB11E",
"s. c #FABE1F",
"d. c #EA8527",
"f. c #FB8B21",
"g. c #E09221",
"h. c #E89429",
"j. c #EA9F2E",
"k. c #FB9E20",
"l. c #F59A2A",
"z. c #E9A12B",
"x. c #FDA322",
"c. c #FFAD21",
"v. c #FDB122",
"b. c #FBBC21",
"n. c #FDC323",
"m. c #FCCB26",
"M. c #FED526",
"N. c #FEDA27",
"B. c #FDD229",
"V. c #FFDE2C",
"C. c #FFE227",
"Z. c #FFE229",
"A. c #FDE333",
"S. c #FDE53A",
"D. c #E7A842",
"F. c #E8A843",
"G. c #E7BB6D",
"H. c #E7BC75",
"J. c #FCDC46",
"K. c #FAE642",
"L. c #FBE944",
"P. c #FBEB4E",
"I. c #FBEA52",
"U. c #FCEE5E",
"Y. c #FBEE64",
"T. c #FAEF68",
"R. c #FAF16E",
"E. c #FDF374",
"W. c #FDF67B",
"Q. c #FDF782",
"!. c #FEFB94",
"~. c #FEFE9E",
"^. c #FEFEA1",
"/. c #FEFFAB",
/* pixels */
"                                                                                                                                ",
"                                                                                                                                ",
"                                                                                                                                ",
"                                                                                                                                ",
"                                                                                                                                ",
"                                                                                                                                ",
"                                                                                                                                ",
"                                                                                                                                ",
"                                    * * 5                                             * * * * * * * *                           ",
"                                  X $ $ *                                             # $ $ $ $ $ $ #                           ",
"                                  X $ $ #                                             * $ # $ $ $ $ #                           ",
"                                  X $ $ #                                             # $ $ # $ # $ #                           ",
"                                  * $ $ #                                             = # = * $ $ $ $                           ",
"                          * # # # $ # $ #                                                     $ $ $ # # # $ # *                 ",
"                          # $ $ # $ $ $ #                                                     $ $ $ $ $ $ $ $ *                 ",
"                          # $ $ # $ $ $ #                                                     $ # $ $ $ $ $ $ *                 ",
"                          # $ $ $ & & & ;                                                     ; & & & # $ $ $ *                 ",
"                          # $ # & u f f 6.9 X X *                             * * * * * * X - u f f f 1 $ $ $ *                 ",
"                          # $ $ & f z z x 0 # $ $ =                         = $ $ $ $ $ $ $ & f x x v 1 $ $ $ *                 ",
"                          # $ $ & f z z D 0 # $ $ =                         = $ $ $ $ $ $ # & d x x v 1 $ $ $ *                 ",
"                          # $ # & f M M Z 0 # # # =                         # # $ # $ $ # # : h M z v 1 $ $ $ *                 ",
"                  = = * , q q q t ^ ` ` ` h q q q 6 $ = = = = = = = = = = * 9 q q q y U P I Y _ ` ( ) 2 $ $ $ *                 ",
"                * $ $ $ 1 Z D D J ..-.-.-.^ x x D t $ $ $ $ $ $ $ $ $ $ $ # t D D M ) -.-.-.-.-.-.-.e.4 $ $ $ *                 ",
"                * # $ $ 1 v v z C +.%.%.-.^ v z x w $ $ $ $ $ $ $ $ $ $ $ $ t x v z ^ -.%.%.O.-.%.%.%.4 $ $ $ *                 ",
"                X $ $ $ 1 v z v H  .%.%.-.^ v z V w # # # # # # # # # # # # w x z v ^ -.%.%.o.%.%.O.%.4 $ $ $ *                 ",
"                * $ $ $ 2 T W Q ] +.%.-.-.[ W W ! G s s s s s s s s s s s s B W W W [ -.%.%.%.%.-.-.%.4 $ $ $ *                 ",
"                * $ $ $ 4 +.-.-.-.%.%.%.O.%.%.-.%.y.c.c.c.c.c.c.c.c.c.c.c.c.y.%.-.-.O.%.-.-.%.%.%.%.%.4 $ $ $ *                 ",
"                * $ $ $ 4 %.-.%.%.%.%.%.o.%.-.-.o.y.c.c.c.c.c.c.c.p.p.p.p.p.y.%.-.%.%.-.-.%.%.%.%.%.} 4 # $ # *                 ",
"                * $ $ $ 4 e.O.%.%.o.o.%.%.o.o.%.%.y.p.p.p.p.p.c.p.p.c.c.p.p.y.%.o.%.%.%.%.%.%.%.%.%.%.4 # $ # *                 ",
"                * $ $ # 2 0.X.X.X.%.%.%.%.3.5.5.5.i.b.b.b.b.b.b.s.b.a.c.c.c.u.5.5.5.3.O.%.O.-.%.%.%.%.r , 3 3 >                 ",
"                * $ $ # 1 j V M K +.%.%.O.f.c.c.c.n.Z.V.V.V.Z.Z.Z.V.b.p.p.p.c.c.c.c.f.O.%.%.%.%.%.%.%.J Z v 7.9 X * * @         ",
"                * $ $ $ 1 v z z H +.-.-.O.f.c.p.p.n.Z.Z.C.C.C.Z.Z.Z.b.c.p.c.p.p.c.c.u.O.%.-.%.%.%.%.%.L v z 7.7 $ $ $ O         ",
"                * $ $ $ 1 v M z C +.%.-.O.f.c.p.p.n.Z.Z.Z.C.Z.Z.Z.Z.b.p.c.c.c.p.p.c.u.O.%.-.%.%.%.%.%.L v z Z 3 $ $ $ O         ",
"                5 * * * < f v Z 8.r.%.-.O.f.c.p.p.n.Z.Z.Z.Z.A.A.A.A.b.a.a.a.p.c.p.c.u.O.%.-.%.%.%.%.%.K M n M 8 # $ $ O         ",
"                          3 3 3 8 { -.O.O.f.c.p.p.n.Z.C.C.L.W.Q.Q.W.J.B.B.B.b.c.p.c.u.O.%.-.%.%.%.%.%. .q.[ X.p $ $ $ O         ",
"                          # # $ & R -.O.O.f.c.c.p.n.Z.Z.Z.I.~././.^.I.C.Z.Z.n.p.p.c.u.O.%.-.O.%.%.%.%.-.%.%.-.i # $ $ O         ",
"                          # $ $ & R -.O.O.f.c.p.c.n.C.Z.Z.I.^././.^.I.C.Z.Z.n.c.p.c.u.O.%.%.%.%.O.%.O.O.%.o.-.i # $ $ O         ",
"                          # $ $ & R O.o.O.f.c.p.c.n.Z.Z.Z.I.~././.~.P.Z.Z.Z.n.p.p.c.u.O.O.O.O.%.O.O.%.%.-.-.-.i $ $ $ O         ",
"                          # $ $ , t.u.u.u.k.c.p.c.n.Z.Z.Z.S.U.U.U.Y.R.E.E.E.J.m.m.m.v.u.u.u.f.3.%.%.%.( W ! ^ r # $ $ O         ",
"                          # $ $ < l.c.p.p.p.p.c.c.n.Z.Z.Z.C.C.C.C.A.Q./././.U.C.C.C.m.c.c.c.x.4.%.%.%.H v v Z 7 # $ $ O         ",
"                          # $ $ < l.p.p.c.p.p.p.c.n.Z.Z.Z.Z.Z.C.C.A.Q./././.U.C.Z.Z.m.p.p.p.x.4.%.-.%.J v x v 7 # $ $ O         ",
"                          # $ $ < l.p.c.p.p.p.p.p.n.Z.Z.Z.C.Z.Z.Z.A.Q./././.U.C.Z.Z.m.p.p.p.x.4.%.%.%.L Z x 7.7 # $ $ O         ",
"                          # $ $ < l.p.c.p.p.p.p.p.n.Z.Z.C.A.U.Y.Y.T.!./././.U.C.C.Z.m.p.p.p.x.4.%.%.%.y q q r , * * *           ",
"                          # $ $ < l.p.c.p.p.p.p.p.n.C.C.Z.P.~.^./.^.^./././.U.C.C.Z.m.p.p.p.x.4.%.%.%.4 # # $ *                 ",
"                          # $ $ < l.p.c.p.p.p.p.p.n.Z.Z.Z.I.^./././././././.U.C.C.Z.m.p.p.p.x.4.%.%.%.4 $ $ $ *                 ",
"                          # $ # < l.p.c.p.p.p.p.p.n.Z.C.Z.I.~./././././././.U.C.C.Z.m.p.p.p.x.4.%.%.} 4 $ $ $ *                 ",
"                          4 2 2 w l.p.p.p.p.p.p.p.n.Z.Z.C.I.~./././.~.!.!.!.I.Z.C.Z.m.p.p.p.x.4.%.%.%.4 $ $ $ *                 ",
"                ; $ $ $ 4 q. .q.2.x.p.c.c.p.p.p.p.n.Z.Z.C.I.^././.^.Y.K.K.K.A.Z.C.Z.m.p.p.p.x.4.%.%.%.4 $ $ $ *                 ",
"                * # $ $ 4 } o.%.4.x.p.c.c.p.p.p.p.n.Z.Z.C.I.^././.^.I.C.C.C.C.Z.C.Z.m.p.p.p.x.4.%.%.%.4 $ $ $ *                 ",
"                * $ $ # 4 %.O.%.4.x.c.p.p.p.p.p.p.n.Z.Z.C.I.^././.^.I.Z.Z.Z.Z.Z.Z.Z.m.p.p.p.x.4.%.o.%.4 $ $ $ *                 ",
"                * $ $ $ 4 %.-.o.4.x.c.p.p.p.p.p.p.n.Z.Z.C.I.^././.^.I.C.Z.Z.Z.Z.Z.Z.m.p.c.c.x.2.} %.} 4 # # # *                 ",
"                * $ $ $ 4 %.o.o.4.x.c.p.p.n.M.M.M.N.Z.Z.C.I.^././.^.I.C.Z.Z.m.b.b.b.k.5.5.5.| e 4 4 4                           ",
"                * $ $ $ 4 %.-.%.4.x.p.p.p.m.Z.C.C.Z.Z.Z.C.I.^././.^.I.Z.Z.Z.n.p.p.c.u.o.%.%.R & # # #                           ",
"                * $ $ $ 4 } O.%.4.x.p.c.p.m.Z.C.Z.Z.Z.Z.C.I.^././.^.I.Z.Z.Z.n.p.c.c.u.O.%.%.R & $ $ #                           ",
"                * # $ # 4 e.-.r.4.x.c.c.p.m.Z.C.Z.Z.Z.Z.C.I.^././.^.I.C.Z.Z.n.c.c.c.f.-.-.r.9.& $ $ #                           ",
"                  * * X < i i i g x.p.p.p.m.Z.C.Z.Z.Z.Z.C.I.^././.^.I.C.Z.Z.g.n m m g i i i u > X * *                           ",
"                          # $ # < l.c.p.p.m.Z.C.Z.Z.Z.Z.Z.I.~././.^.I.C.Z.Z.b # # # # # # # X                                   ",
"                          # $ $ 3 l.p.p.p.m.Z.C.Z.Z.Z.Z.Z.I.^././.~.I.Z.Z.Z.b # $ $ $ $ $ $ *                                   ",
"                          # $ $ 3 l.v.c.a.m.C.C.C.C.C.C.C.I.^././.~.I.C.C.Z.b # $ $ $ $ $ $ *                                   ",
"                          @ O o + w.d.d.d.h.z.z.z.z.z.j.z.F.G.H.H.G.D.z.z.z.a . O O O O O O @                                   ",
"                                  O & & & & & & & & & & & & % % % % & & & &                                                     ",
"                                  X $ $ $ $ $ $ $ $ $ $ $ $ $ $ $ $ $ $ $ $                                                     ",
"                                  X $ $ $ $ $ $ $ $ $ $ $ $ $ $ $ $ $ $ $ $                                                     ",
"                                  X $ $ $ $ $ $ $ $ $ $ $ $ $ $ $ $ $ $ $ $                                                     "
};
