/* XPM */
static char *rcp9312844075456816[] = {
/* columns rows colors chars-per-pixel */
"64 64 176 2 ",
"   c None",
".  c #9E0807",
"X  c #9E060A",
"o  c #97090C",
"O  c #9B090C",
"+  c #9C140D",
"@  c #9A0C11",
"#  c #A60204",
"$  c #A90103",
"%  c #A60D04",
"&  c #AB0C06",
"*  c #A2060A",
"=  c #A9040A",
"-  c #A50D0B",
";  c #AC0C0A",
":  c #B00307",
">  c #B00C06",
",  c #AC1206",
"<  c #A7120A",
"1  c #AE150E",
"2  c #AE1B0C",
"3  c #B2160A",
"4  c #B5190B",
"5  c #BD190B",
"6  c #B6210F",
"7  c #B9230E",
"8  c #BB2D0E",
"9  c #BA300D",
"0  c #B52512",
"q  c #B92311",
"w  c #BE2D14",
"e  c #B63113",
"r  c #BF3012",
"t  c #C42B11",
"y  c #C43214",
"u  c #C53F17",
"i  c #CB371A",
"p  c #C53C19",
"a  c #D43916",
"s  c #C34215",
"d  c #C94716",
"f  c #C74813",
"g  c #CA4815",
"h  c #C7401E",
"j  c #CC431A",
"k  c #C2481C",
"l  c #CD4A1D",
"z  c #D4431C",
"x  c #D04A1E",
"c  c #DC4B1E",
"v  c #CD5416",
"b  c #CE531B",
"n  c #D05717",
"m  c #D25A16",
"M  c #DC5816",
"N  c #D2541C",
"B  c #DC551B",
"V  c #DD581A",
"C  c #E2471B",
"Z  c #E34C1C",
"A  c #E34A1B",
"S  c #E15B17",
"D  c #E1541D",
"F  c #EE561E",
"G  c #EE551E",
"H  c #E35A1A",
"J  c #EA5C1C",
"K  c #F0561E",
"L  c #F15B1B",
"P  c #FC5F1E",
"I  c #D36216",
"U  c #D46219",
"Y  c #DF741C",
"T  c #E06516",
"R  c #E3641C",
"E  c #E3631B",
"W  c #F86716",
"Q  c #FF631B",
"!  c #FD641A",
"~  c #FE641A",
"^  c #F9621F",
"/  c #FF631C",
"(  c #FF631D",
")  c #FE621E",
"_  c #FF651C",
"`  c #FF641D",
"'  c #FF661E",
"]  c #FE631C",
"[  c #F76F1B",
"{  c #E1751C",
"}  c #E0781E",
"|  c #F4711D",
" . c #FB741C",
".. c #F97A1A",
"X. c #D15020",
"o. c #ED5522",
"O. c #F05521",
"+. c #F75F20",
"@. c #F65E21",
"#. c #F95E21",
"$. c #E36120",
"%. c #FB6221",
"&. c #E27320",
"*. c #F07521",
"=. c #E7851F",
"-. c #E5841E",
";. c #EA851F",
":. c #FC821E",
">. c #FC821D",
",. c #FA8D1F",
"<. c #FA941B",
"1. c #FB9C1E",
"2. c #FFAC1F",
"3. c #FFAD1F",
"4. c #FFAD1E",
"5. c #FFAE1E",
"6. c #FFAD1E",
"7. c #FCBC1F",
"8. c #E78420",
"9. c #E78520",
"0. c #E98527",
"q. c #E78920",
"w. c #E98D27",
"e. c #EA8629",
"r. c #FD8220",
"t. c #F38A21",
"y. c #FB8B20",
"u. c #FA8B22",
"i. c #F98B21",
"p. c #E99F2E",
"a. c #F59927",
"s. c #FA9E23",
"d. c #F3952B",
"f. c #F59929",
"g. c #EAA12C",
"h. c #FBA324",
"j. c #FFAB20",
"k. c #FFAD20",
"l. c #FFAF21",
"z. c #FFAD22",
"x. c #FFAE22",
"c. c #FFAE24",
"v. c #FFAD21",
"b. c #FFAF28",
"n. c #FFB221",
"m. c #FCBC21",
"M. c #F9A235",
"N. c #FABF31",
"B. c #FDC323",
"V. c #FCCA26",
"C. c #FCC529",
"Z. c #FCD124",
"A. c #FFDF2B",
"S. c #FCC431",
"D. c #F9CE36",
"F. c #FFE227",
"G. c #FFE229",
"H. c #FCE332",
"J. c #FBCB42",
"K. c #F6C549",
"L. c #F6CE4E",
"P. c #FBCB48",
"I. c #FBCE50",
"U. c #FACF5A",
"Y. c #FAD059",
"T. c #FBE641",
"R. c #FBEA4E",
"E. c #FBE952",
"W. c #FBEC5B",
"Q. c #FAEC66",
"!. c #FCF374",
"~. c #FCF683",
"^. c #FEFC95",
"/. c #FEFC9C",
"(. c #FFFEA1",
"). c #FFFEAB",
/* pixels */
"                                                                                      # $ $ *                                   ",
"                                                                                      # $ $ *                                   ",
"                                                                                      # $ $ *                                   ",
"                                                                                      # $ $ *                                   ",
"                                                                                      # $ $ *                                   ",
"                                                                                      $ $ $ X                                   ",
"                                                                                      # $ $ *                                   ",
"                                                                                      # $ $ *                                   ",
"                                                                      = * * * * * * * $ $ $ *                                   ",
"                                                                    = $ $ $ $ $ $ $ $ $ $ $ *                                   ",
"                                                                    = $ $ $ $ $ $ $ $ $ $ $ *                                   ",
"                                                                    $ $ $ $ $ $ $ $ $ $ $ $ *                                   ",
"                                                                    1 3 3 3 3 3 3 3 & $ $ $ *                                   ",
"                                                    $ # # # # $ $ $ p N b b b b b N w $ $ $ *                                   ",
"                                                    $ $ $ $ $ $ $ $ u b b b b b b N w $ $ $ *                                   ",
"                                                    $ $ $ $ $ $ $ $ p b b b b b b N w $ $ $ *                                   ",
"                                                    & & & & & & & , j B B B B B B B y $ $ $ *                                   ",
"                                  @ * * X * * * * 0 l l l c o.F F K @.^ ^ ^ ^ ^ ^ %.c $ $ $ *         = * X *                   ",
"                                  * $ $ $ $ $ $ $ 7 N b b V %.' ' ' ' ) ) ' ' ' ) ' Z $ $ $ *         : $ $ $ *                 ",
"                                  X $ $ $ $ $ $ $ 7 N b b V ) ) ) ' ' ' ) ) ) ) ) ' A = $ $ *         = $ $ $ *                 ",
"                                  X $ $ $ $ $ $ $ 7 v b v M ^ ! ! ! ! ! ! ! ! Q ) ' A = $ $ *         = $ $ # *                 ",
"                          = * * - w w w r z Z Z A R =.8.=.;.y.y.y.y.y.i.y.y. .Q ) ' Z = $ $ *         = $ $ $ = = * =           ",
"                          $ $ $ & x b N N J ' ' ) >.c.k.k.k.k.k.k.k.k.k.k.k.>.Q Q ' A = $ $ *         = $ $ $ $ $ $ $ O         ",
"                          $ $ $ & l b b b J ' Q ) >.k.3.3.k.k.3.3.3.3.k.3.3.>.) ! ' Z $ $ $ *         = $ $ $ $ $ $ $ o         ",
"                          # $ $ & l b b b J ) ) ) >.k.3.3.k.k.3.3.3.3.3.2.j.>.) ) ' A $ $ $ X         $ $ $ $ $ $ $ $ o         ",
"                        1 0 7 7 w B H H S | r.>.>.1.B.B.B.B.B.B.B.C.P.U.Y.U.M.>.>.>.R 7 q 7 0         q 7 7 q ; $ $ $ .         ",
"                = $ $ $ 3 b b b B ^ ) ) ! ,.k.k.k.B.G.G.G.G.F.G.G.H.~.).).).U.3.3.k.=.b N N l ; $ $ $ u b N N 7 $ $ $ o         ",
"                * $ $ $ 3 b b b B ^ ' ) ! ,.k.3.3.B.G.F.G.G.F.F.F.H.~.).).).U.2.3.k.=.v b N l ; $ $ $ u b b b 7 $ $ $ o         ",
"                * $ $ $ 3 b b b B ^ Q Q ! ,.k.3.3.B.G.G.G.F.F.G.F.H.~.).).).U.3.k.c.=.v b b l & $ $ $ u b b b 7 $ $ $ o         ",
"                * $ $ $ 3 V V V H | ......s.m.m.m.V.G.G.F.H.R.E.E.E.!.~.~.~.P.3.3.k.;.M V V B 7 4 4 4 d b b b 7 $ $ $ o         ",
"                * $ $ $ 5 %.' ' [ s.z.j.j.C.G.G.G.F.G.G.F.R.^.(.(./.E.H.H.H.B.3.3.k.i.^ ) ' ^ #.@.#.@.B b b N q $ $ # o         ",
"                * $ $ $ 5 ) ! Q  .h.k.3.3.V.G.G.G.F.G.G.F.E.(.).).(.E.F.F.G.B.3.3.k.,.! ) ' ) ) ) ) ) V b b N q $ $ $ o         ",
"                * $ $ $ 5 P Q )  .h.3.3.3.V.G.F.G.F.G.G.F.E.(.).).(.E.G.G.G.B.3.3.k.,.! ) ' ) ) ) ) ) V b b b 7 $ $ $ o         ",
"                * $ $ $ 5 %.^ %.| h.3.3.3.V.A.G.A.G.G.G.F.E.(.).).(.E.G.G.G.B.3.3.k.,.! ) ' ) ) ) ) ) B b b X.7 # * * @         ",
"                * $ $ $ 3 V V V T h.3.3.k.n.m.m.m.V.G.G.F.E.(.).).(.E.G.G.G.B.3.3.k.,.! ) ' ) ) ) ) ) t 3 4 4 <                 ",
"                * $ $ $ 3 b b b I h.3.3.k.3.3.k.3.B.G.G.F.E.(.).).(.E.G.G.G.B.3.3.k.,.! ) ' ! ) ) ) ) 5 $ $ $ *                 ",
"                * $ $ $ 3 b b b U h.3.3.3.3.k.k.3.B.G.G.G.E.(.).).(.E.G.G.G.B.3.3.k.y.! ) ! Q ) ! ) ) 5 $ $ $ *                 ",
"                = # $ $ 3 b b b U h.3.k.k.k.3.k.j.B.G.G.G.E.(.).).(.E.G.G.G.B.3.3.k.,.W ) Q ! ' ! %.%.5 $ $ $ *                 ",
"                        1 q 7 7 8 *.>.>.>.1.k.k.3.J.!.!.!.~.(.).).(.E.G.G.G.B.3.3.k.s.,.,.,.y.E H H D 3 $ $ $ *                 ",
"                          # $ $ & F ! ) ! y.k.3.3.Y.).).).).).).).(.E.G.G.G.B.3.3.3.k.k.3.k.h.I b b b 3 $ $ $ *                 ",
"                          # $ $ & F ' ) ! y.k.3.2.U.).).).).).).).(.E.G.G.G.B.3.3.k.k.3.3.k.h.I b b b 3 $ $ $ *                 ",
"                          # $ $ & o.' ' ! ,.k.3.3.U.).).).).).).).(.E.G.F.G.B.3.3.3.3.k.k.3.h.U b N N 3 $ $ $ =                 ",
"                          # $ $ & D J J J t.k.3.3.U.).).).).).).).(.E.G.G.G.Z.B.B.B.m.3.k.3.s.s w w w 1 = = *                   ",
"                          # $ $ & l b b v =.k.3.3.U.).).).).).).).(.E.G.G.G.G.G.G.G.V.3.k.k.f.2 $ $ $                           ",
"                          # $ $ & l b b b 8.k.3.3.U.).).).).).).).(.E.G.G.G.G.F.F.G.V.3.k.3.a.2 $ $ $                           ",
"                          # $ $ & l N b b =.k.k.3.U.).).).).).).).(.E.F.G.G.G.F.G.G.V.3.k.3.f.2 $ $ $                           ",
"                          * X X - h l l l -.k.k.3.I.^.^.^./.).).).(.E.G.G.G.G.G.G.G.V.3.3.3.f.2 $ $ #                           ",
"                                  - & & , } k.3.3.S.T.T.T.Q.(.).).(.E.G.G.G.G.G.F.G.V.3.3.3.f.2 $ $ #                           ",
"                                  X $ $ $ &.k.3.3.B.F.F.F.E.(.).).(.E.G.G.G.G.G.F.G.V.3.3.3.f.2 $ $ #                           ",
"                                  X $ $ $ &.n.3.3.B.G.G.F.R.(.).).(.E.G.G.G.G.G.F.G.V.3.3.3.f.2 $ $ #                           ",
"                                  X $ $ $ &.k.j.j.B.G.G.A.E.(.).).(.E.F.G.G.G.G.F.G.C.j.h.j.d.2 $ $ $                           ",
"                                  * $ $ % D  . . .<.m.m.m.L.(.).).(.E.F.G.G.V.7.m.m.q.9 8 8 e                                   ",
"                                  * $ $ $ A ! Q ) >.k.3.4.K.(.).).(.E.G.G.G.B.k.k.k.Y # $ $ *                                   ",
"                                  * $ $ $ A ! ) ) >.k.k.k.K.(.).).(.R.G.G.G.B.3.3.k.{ $ $ $ *                                   ",
"                                  . $ $ % Z ' ) Q >.k.k.3.K./.(.(./.E.G.G.G.B.k.k.b.&.$ $ $ .                                   ",
"                            - - 1 i a a a L ' ! Q >.k.3.3.N.W.W.W.W.D.B.B.B.-.n m m g - * *                                     ",
"                          # $ # & O.' ' ' ' ) ! Q >.3.k.k.m.G.G.G.A.7.4.3.k.f # $ $ $                                           ",
"                          $ $ $ > F ' ) ) ' ' ' ) >.k.k.3.7.A.G.F.A.m.3.k.k.g $ $ $ *                                           ",
"                          # $ $ & F ' ' ' ' ' ' ' >.n.k.3.m.G.G.G.G.m.3.k.n.g # # $ =                                           ",
"                          @ o o + z C A C C C C C $.e.0.0.w.p.g.g.p.w.0.0.e.k o O o                                             ",
"                                  . $ $ $ $ $ $ $ % % % % % % % % % % % % &                                                     ",
"                                  X $ $ $ $ $ $ $ $ $ $ $ $ $ $ $ $ $ $ $ $                                                     ",
"                                  X $ $ $ $ $ $ $ $ $ $ $ $ $ $ $ $ $ $ $ $                                                     ",
"                                  X $ $ $ $ $ $ $ $ $ $ $ $ $ $ $ $ $ $ $ $                                                     "
};
