/* XPM */
static char *rcp81202972075522910[] = {
/* columns rows colors chars-per-pixel */
"64 64 176 2 ",
"   c None",
".  c #9D0907",
"X  c #9D0608",
"o  c #9B090D",
"O  c #9B0B12",
"+  c #A60103",
"@  c #A90103",
"#  c #A50A06",
"$  c #A90B05",
"%  c #A4050A",
"&  c #AA0309",
"*  c #A1090D",
"=  c #AB0B09",
"-  c #B00308",
";  c #A3120A",
":  c #AD130D",
">  c #A41C0E",
",  c #AD1D0A",
"<  c #B2160A",
"1  c #B1190C",
"2  c #BE190B",
"3  c #B31910",
"4  c #B6210F",
"5  c #B8230F",
"6  c #AD2014",
"7  c #B42411",
"8  c #BC2613",
"9  c #BD2F15",
"0  c #BE2D15",
"q  c #BD2C12",
"w  c #BA3312",
"e  c #C0260D",
"r  c #C62811",
"t  c #C02E17",
"y  c #C22D13",
"u  c #CB2911",
"i  c #CB2A10",
"p  c #CB2A11",
"a  c #CC2910",
"s  c #CD2F12",
"d  c #CE2B11",
"f  c #C23112",
"g  c #C23316",
"h  c #C13416",
"j  c #C03114",
"k  c #CE3B16",
"l  c #C13419",
"z  c #C53D1C",
"x  c #C93A1C",
"c  c #CC3A18",
"v  c #D53C16",
"b  c #D53C19",
"n  c #C44216",
"m  c #CA4714",
"M  c #C74813",
"N  c #CA4815",
"B  c #C8411B",
"V  c #CB461B",
"C  c #CB471C",
"Z  c #CD471F",
"A  c #C94418",
"S  c #C4491C",
"D  c #CB481E",
"F  c #CF4F1F",
"G  c #D44D16",
"H  c #CB551A",
"J  c #CF541B",
"K  c #CD541B",
"L  c #CB511C",
"P  c #CE501D",
"I  c #CE511E",
"U  c #CF521F",
"Y  c #CF531C",
"T  c #CF551C",
"R  c #CF561D",
"E  c #CF561E",
"W  c #CE531C",
"Q  c #D15517",
"!  c #D25916",
"~  c #D1531B",
"^  c #D3531A",
"/  c #D0541B",
"(  c #D7541A",
")  c #D0531D",
"_  c #D1521E",
"`  c #D0541C",
"'  c #D1541E",
"]  c #D2531C",
"[  c #DC521D",
"{  c #DD571B",
"}  c #DB581B",
"|  c #DC581B",
" . c #E0521D",
".. c #E2561D",
"X. c #EE551E",
"o. c #E35B1B",
"O. c #E3591C",
"+. c #E45A1C",
"@. c #E45A1C",
"#. c #EB5D1C",
"$. c #F15E1E",
"%. c #FC5F1E",
"&. c #DB6E16",
"*. c #DB6C1A",
"=. c #EE6A1E",
"-. c #FC6717",
";. c #F96816",
":. c #F2601F",
">. c #F7621F",
",. c #F0601D",
"<. c #FF651B",
"1. c #FF631E",
"2. c #FD621E",
"3. c #FF641C",
"4. c #FF641E",
"5. c #FF641F",
"6. c #FF651E",
"7. c #FE631C",
"8. c #F76D1C",
"9. c #FB6D1A",
"0. c #F0761C",
"q. c #FA711A",
"w. c #F9791B",
"e. c #D15121",
"r. c #D05220",
"t. c #D25420",
"y. c #EE5622",
"u. c #DF762A",
"i. c #F76120",
"p. c #FC6421",
"a. c #E1841D",
"s. c #FA831D",
"d. c #F7881C",
"f. c #F98C1F",
"g. c #FB931E",
"h. c #FFAE1E",
"j. c #FDB11E",
"k. c #E98527",
"l. c #E98428",
"z. c #FB8C23",
"x. c #E99029",
"c. c #E8982A",
"v. c #FB9722",
"b. c #FC9B24",
"n. c #F69A2B",
"m. c #E9A12B",
"M. c #FDA323",
"N. c #FFAD21",
"B. c #FDA728",
"V. c #FDB221",
"C. c #FCBC23",
"Z. c #FCC323",
"A. c #FCCA26",
"S. c #FDD327",
"D. c #FDD329",
"F. c #FEDC2A",
"G. c #FAD43A",
"H. c #FFE227",
"J. c #FFE229",
"K. c #FDE333",
"L. c #FBE63D",
"P. c #FCDC46",
"I. c #FBE742",
"U. c #FBE44C",
"Y. c #FBE849",
"T. c #FBEA52",
"R. c #FDEE5E",
"E. c #FCF36E",
"W. c #FDF374",
"Q. c #FCF67E",
"!. c #FCF781",
"~. c #FDF98A",
"^. c #FEFC96",
"/. c #FEFC98",
"(. c #FEFEA2",
"). c #FFFEAB",
/* pixels */
"                                                            % @ @ @ @ @ + @ @ @ @ @ %                                           ",
"                                                            % @ @ @ @ @ @ @ @ @ @ @ &                                           ",
"                                                            % @ @ @ + + @ + @ @ @ @ %                                           ",
"                                                            # @ + + + @ @ @ @ @ @ @ %                                           ",
"                                                    o o o > z B B x = @ @ @ &                                                   ",
"                                                    @ + + 1 U J R e.1 @ @ @                                                     ",
"                                                    @ @ @ 1 U ~ ] U < @ @ @                                                     ",
"                                                    @ @ @ 1 e.R R U 1 + + @                                                     ",
"                                            % % % % @ @ + = t h j l 6 o o *                             % % % % % % %           ",
"                                          % @ + @ @ @ @ + @ + + @ %                                   & @ @ @ @ @ @ @ O         ",
"                                          @ @ @ @ @ @ @ @ @ + @ @ %                                   & @ @ @ @ + @ + o         ",
"                                          & @ @ @ @ @ @ @ @ @ @ @ %                                   - @ + @ @ @ @ @ o         ",
"                                            @ @ & & & & & & @ & & &                                   & @ @ @ + & & &           ",
"                                                                                              @ @ @ + + @ @ @ %                 ",
"                                                                                              @ @ @ @ @ @ @ @ %                 ",
"                                                                                              @ @ @ @ @ @ @ @ %                 ",
"                                                                                              @ @ @ @ @ @ @ @ %                 ",
"                          * % % *                                                             & @ @ @ @ @ @ @ %                 ",
"                          + @ @ @                                                             & @ @ @ @ @ @ @ %                 ",
"                          + @ @ &                                                             & @ @ @ @ @ @ @ %                 ",
"                          + @ + @                                                             @ + + @ @ @ @ @ %                 ",
"                  & & & : 0 0 0 8 # @ @ &                   & & & & & & & & & & & & & & & & # 8 0 0 0 = @ @ @ %                 ",
"                % @ @ @ < ] ' R D $ @ @ +                   % @ @ @ @ @ @ @ @ @ @ @ @ @ @ @ $ Z R ' U < @ @ @ %                 ",
"                % + @ @ < U U ] C $ @ @ +                   % @ @ @ @ @ @ @ @ @ @ @ @ @ @ @ $ C R J U < @ @ @ %                 ",
"                X @ @ @ < U J ~ A $ + + +                   % @ @ @ + + + + + + + + + + + + $ C J H L < @ @ + %                 ",
"                % @ @ @ < ..o.o.[ 8 5 5 7 7               3 8 5 5 5 r u u d u u u u u d u u s  .+.+.+.j 5 5 5 :                 ",
"                % @ @ @ 2 7.2.<.>.( ' J ' 8 @ @ @ @ @ @ @ 1 e./ ] ~ :.2.2.7.2.2.2.2.2.2.2.2.2.<.2.7.7.} ] ] ] 5 + @ @ o         ",
"                % @ @ @ 2 7.2.2.i.( J ~ ] 8 + @ @ @ @ @ + 1 U U U / :.2.7.7.7.7.7.7.2.2.7.7.7.<.<.7.7.{ U U ] 5 + @ @ o         ",
"                % @ @ @ 2 7.2.2.i.( W U R 7 + + + @ + + + < F W U Q $.7.7.<.7.7.<.7.7.7.7.7.7.7.7.7.7.} H J ] 5 + @ @ o         ",
"                % @ @ @ 2 7.2.2.2.o.{ { { A w w w w w w w n *.&.&.&.0.w.w.w.9.7.7.7.9.w.w.w.w.<.7.<.2.@.{ { { 8 + @ @ o         ",
"                % @ @ @ 2 7.<.<.7.2.2.2.-.z.B.B.B.B.B.B.B.B.N.N.B.B.N.N.N.B.s.<.7.<.s.B.N.N.b.9.7.<.7.7.2.2.p.b + @ @ o         ",
"                % @ @ @ 2 7.2.2.7.7.7.7.<.f.N.N.h.h.N.N.N.N.N.N.N.N.N.h.N.N.s.7.7.<.d.N.h.h.M.q.7.7.7.7.7.7.2.v @ @ @ o         ",
"                % @ @ @ 2 7.2.2.2.7.7.7.7.z.N.h.h.N.N.N.N.N.N.N.N.N.N.h.h.N.s.7.7.7.d.N.h.h.M.q.7.7.7.2.7.7.2.v @ @ @ o         ",
"                % @ @ @ 2 7.2.7.<.<.-.-.-.g.N.h.h.h.j.j.j.j.j.j.j.j.j.j.V.V.d.-.-.-.d.N.h.h.M.q.7.7.7.2.7.7.2.v @ @ @ o         ",
"                % @ @ @ 2 7.2.7.9.z.v.v.v.M.N.N.h.C.D.S.S.S.S.S.S.S.S.S.S.S.N.v.v.v.M.h.N.h.M.q.7.7.7.2.7.7.2.v @ @ @ o         ",
"                % @ @ + 2 7.2.7.q.M.N.N.N.h.h.N.h.Z.J.J.J.J.J.J.J.J.J.J.J.H.Z.N.h.N.N.h.N.N.M.q.7.7.7.<.7.7.2.v + @ @ o         ",
"                % @ @ @ 2 7.2.7.q.M.N.h.h.h.N.N.h.Z.J.J.J.J.J.J.J.J.J.J.J.J.Z.h.h.h.h.h.h.N.M.q.7.7.7.7.7.7.2.v + @ @ o         ",
"                % + + + 2 %.2.7.q.M.N.h.N.N.h.h.h.Z.J.J.J.J.J.J.J.J.H.H.J.J.Z.h.h.h.h.N.h.h.M.q.7.7.7.7.2.2.2.v @ @ @ o         ",
"              & 1 j j w v 7.2.7.q.M.N.h.h.C.A.A.A.P.W.W.W.W.W.W.W.E.I.H.J.J.S.A.A.A.C.h.N.N.M.q.7.7.7.#.o.+.+.y + @ @ o         ",
"        o @ @ @ 5 t./ / { 2.7.7.q.M.N.h.h.A.J.J.J.R.).).).).).).).(.T.J.J.J.J.J.J.J.A.h.N.N.M.q.7.7.7.} W U ] 5 + @ @ o         ",
"        o @ @ @ 5 U R J } 7.7.7.q.M.N.h.h.A.J.J.H.R.).).).).).).).(.T.H.J.J.J.H.J.J.A.h.N.h.M.q.7.7.7.} W R U 5 + @ @ o         ",
"        o @ @ @ 5 ] W W { 2.<.7.q.M.N.h.h.A.J.H.H.R.).).).).).).).(.T.H.J.J.J.J.J.J.A.h.h.h.M.q.7.7.7.| ] R e.5 + @ @ o         ",
"        o @ @ @ y +.@.+.#.7.7.7.q.M.N.h.h.A.J.H.H.R.).).).).).).).(.T.J.J.J.J.J.H.J.A.h.h.h.M.q.7.7.7.k 0 9 t : % % %           ",
"        o @ @ @ b p.2.2.2.7.7.7.q.M.N.h.h.A.J.H.H.R.).).).).).).).(.T.J.J.J.J.J.H.J.A.h.h.h.M.q.7.7.7.2 + + @ %                 ",
"        o @ @ @ v 2.7.7.7.7.7.7.q.M.N.h.h.A.J.H.H.R.).).).).).).).(.T.J.J.J.J.J.H.J.A.h.h.h.M.q.7.7.7.2 @ @ @ *                 ",
"        o @ @ @ v 2.2.<.7.2.7.7.q.M.N.h.h.A.J.H.H.R.).).).).).).).(.T.J.J.J.J.J.J.J.A.h.h.h.M.q.7.7.%.2 @ @ @ %                 ",
"        o @ @ @ v 2.<.7.7.7.7.7.q.M.N.h.h.A.J.H.H.R.).).).).^.^./.~.Y.J.J.J.F.F.F.F.Z.h.N.h.M.q.7.7.7.2 @ @ @ %                 ",
"        o @ @ @ v 2.7.7.7.7.7.7.q.M.N.h.h.A.J.H.H.R.).).).~.U.I.I.L.J.H.J.J.A.j.j.V.V.h.h.h.M.q.7.7.7.2 @ @ @ %                 ",
"        o @ @ @ v 2.7.7.7.7.7.7.q.M.N.h.h.A.J.H.H.R.).).).!.K.H.H.H.H.H.J.J.Z.h.N.N.N.h.h.N.M.q.7.7.7.2 @ @ @ %                 ",
"        o @ @ @ v 2.<.7.7.7.7.7.q.M.N.h.h.A.J.H.H.R.).).).!.K.H.J.H.J.J.J.J.Z.h.h.h.h.h.h.N.M.q.7.<.7.2 @ @ @ %                 ",
"        o + + + b 7.7.7.7.7.7.7.q.M.N.h.h.A.J.H.H.R.).).).!.K.J.J.H.J.H.J.J.Z.h.h.N.N.N.N.N.M.8.%.7.%.2 + @ + %                 ",
"                3 2 2 2 d 7.7.7.q.M.N.h.h.A.J.J.H.R.).).).!.K.J.J.J.J.H.J.J.Z.h.h.N.g.w.w.w.=.e 2 2 2                           ",
"                % @ @ @ 2 p.2.7.q.M.h.h.h.A.J.J.J.R.).).).!.K.J.J.J.J.J.J.J.Z.N.N.N.f.<.7.7.X.= + + @                           ",
"                % @ @ @ 2 %.<.7.q.M.h.N.h.A.J.H.H.R.).).).!.K.J.J.J.J.J.J.J.Z.h.h.N.f.<.7.7.X.= @ @ +                           ",
"                % + @ + 2 p.2.p.q.B.N.N.h.A.J.J.J.R.).).).Q.K.J.J.J.J.J.J.J.Z.N.N.N.z.2.2.p.y.= @ @ +                           ",
"                  * % X 1 v v v G M.h.h.N.C.Z.Z.Z.G.R.R.R.U.Z.Z.Z.Z.Z.Z.Z.Z.a.! ! ! G v v v c ; % % %                           ",
"                          + @ + , n.N.h.N.h.h.h.h.Z.J.J.J.D.j.h.h.h.h.h.h.N.M + + + + + + + .                                   ",
"                          @ @ @ 1 n.h.h.N.N.N.N.N.Z.J.J.J.D.j.N.N.N.N.N.N.N.m @ @ @ @ @ @ @ %                                   ",
"                          + @ @ 1 n.V.N.N.j.j.j.h.Z.J.J.J.D.j.h.h.j.j.N.h.V.N + + @ @ @ @ @ %                                   ",
"                          O o o > u.k.k.l.l.l.l.k.x.m.m.m.c.k.k.l.l.l.l.k.l.S X o o o o o o O                                   ",
"                                  ; $ $ # # $ $ $ $ $ $ $ $ $ $ $ $ $ $ $ $                                                     ",
"                                  % @ @ @ @ @ @ @ @ @ @ @ @ @ @ @ @ @ @ @ @                                                     ",
"                                  % @ @ @ @ @ @ @ @ @ @ @ @ @ @ @ @ @ @ @ @                                                     ",
"                                  % @ @ @ @ @ @ @ @ @ @ @ @ @ @ @ @ @ @ @ @                                                     "
};
