/* XPM */
static char *rcp65169056075510561[] = {
/* columns rows colors chars-per-pixel */
"64 64 172 2 ",
"   c None",
".  c #9D0807",
"X  c #9E060A",
"o  c #9A090C",
"O  c #9F1009",
"+  c #960E13",
"@  c #9A0B12",
"#  c #A60104",
"$  c #A90103",
"%  c #A50E05",
"&  c #AB0C06",
"*  c #A2050A",
"=  c #AA0509",
"-  c #A20A0D",
";  c #AD0E08",
":  c #B1050A",
">  c #B10A09",
",  c #AD1106",
"<  c #AD140B",
"1  c #A21E0D",
"2  c #AD1B0B",
"3  c #B1150A",
"4  c #B8170A",
"5  c #B21A0C",
"6  c #BD1A0C",
"7  c #A71B11",
"8  c #AB1A10",
"9  c #B31F10",
"0  c #B7200F",
"q  c #BA270E",
"w  c #BA2C0E",
"e  c #B52212",
"r  c #B92511",
"t  c #BF2E15",
"y  c #BE3114",
"u  c #C3220E",
"i  c #C12A0F",
"p  c #C42311",
"a  c #C32911",
"s  c #C33214",
"d  c #C93517",
"f  c #C43619",
"g  c #C53B1A",
"h  c #CC3919",
"j  c #D93617",
"k  c #D63C17",
"l  c #DB3B16",
"z  c #D83C19",
"x  c #C94814",
"c  c #CF401B",
"v  c #CD4A1D",
"b  c #DC431A",
"n  c #D34D1C",
"m  c #DF4F18",
"M  c #CE5416",
"N  c #CF5917",
"B  c #CE521B",
"V  c #CE541B",
"C  c #CD551A",
"Z  c #CE521D",
"A  c #CF551C",
"S  c #CD541C",
"D  c #CE541B",
"F  c #C55D1A",
"G  c #D35816",
"H  c #D7561B",
"J  c #D1531E",
"K  c #D2541C",
"L  c #D95519",
"P  c #D9541B",
"I  c #D15818",
"U  c #DC581A",
"Y  c #E44C1C",
"T  c #E94C1A",
"R  c #E05617",
"E  c #E1561E",
"W  c #EE551E",
"Q  c #E45A1C",
"!  c #E45A1B",
"~  c #EB5D1C",
"^  c #F0561E",
"/  c #F3581F",
"(  c #FB5E1E",
")  c #CF631A",
"_  c #CD6D1A",
"`  c #D56718",
"'  c #DD6A1E",
"]  c #EB651B",
"[  c #FA6517",
"{  c #F6631E",
"}  c #FF631B",
"|  c #FF631A",
" . c #FF641B",
".. c #F9631F",
"X. c #FF631C",
"o. c #FF631D",
"O. c #FD621E",
"+. c #FF641D",
"@. c #FE641E",
"#. c #FE631C",
"$. c #FA6A1A",
"%. c #E1741F",
"&. c #E27A1E",
"*. c #FA711A",
"=. c #F27D1E",
"-. c #CD4720",
";. c #C05520",
":. c #D25321",
">. c #EF5620",
",. c #F55E21",
"<. c #FC5F21",
"1. c #DF762A",
"2. c #F36221",
"3. c #F86320",
"4. c #FD6221",
"5. c #E7861E",
"6. c #E8861D",
"7. c #FC821D",
"8. c #F0881E",
"9. c #FA8D1E",
"0. c #FD9C1F",
"q. c #FFAD1F",
"w. c #FDB11E",
"e. c #FABE1F",
"r. c #DF9D24",
"t. c #EA8527",
"y. c #F68C24",
"u. c #FB8B20",
"i. c #E89429",
"p. c #FB9622",
"a. c #FD9B22",
"s. c #F69A2B",
"d. c #E9A12B",
"f. c #FDA423",
"g. c #FFAE21",
"h. c #FDA629",
"j. c #FEB021",
"k. c #FBBC22",
"l. c #FDC323",
"z. c #FCCA26",
"x. c #FDCA2B",
"c. c #FDD426",
"v. c #FDDB27",
"b. c #FDD229",
"n. c #FEDA2C",
"m. c #FDDF36",
"M. c #FFE227",
"N. c #FFE229",
"B. c #FDE232",
"V. c #FCE53B",
"C. c #E7A842",
"Z. c #E8AC4A",
"A. c #E7BB6D",
"S. c #E7BC74",
"D. c #FBCB42",
"F. c #FBDD45",
"G. c #FBCF59",
"H. c #FAD356",
"J. c #FAD059",
"K. c #FCE847",
"L. c #FBEA52",
"P. c #FDED5F",
"I. c #FEF061",
"U. c #FCF06B",
"Y. c #FCF273",
"T. c #FCF57A",
"R. c #FCF782",
"E. c #FEF789",
"W. c #FDF88A",
"Q. c #FEFE9E",
"!. c #FFFEA1",
"~. c #FFFFAB",
/* pixels */
"                                          = $ $ $ =                                                                             ",
"                                          = $ $ $ =                                                                             ",
"                                          = $ $ $ =                                                                             ",
"                                          # $ $ $ =                                                                             ",
"                                  + o o o # $ $ $ =                           o o o                                             ",
"                                  X $ $ # # $ $ $ =                         = # $ $ =                                           ",
"                                  X # $ $ $ $ $ $ =                         = $ $ $ #                                           ",
"                                  X # # # $ $ $ $ =                         = # $ # *                                           ",
"                          - * X - 9 0 6 e ; $ $ $ =                           @ o o o X * *                                     ",
"                          # $ # ; v J Z :.r # $ $ =                                   * $ $ o                                   ",
"                          # $ $ ; v V V A r # $ $ =                                   # $ $ X                                   ",
"                          # $ $ & v V B J r # $ $ $                                   # $ $ X                                   ",
"                          3 3 3 5 P U U U s 3 3 3 5                                 7 < 3 3 8                                   ",
"                - # # # 3 v B B H { O.O.+.! Z Z Z s # $ $ =                   # # # r Z B B v ; # # *                           ",
"                * $ $ $ 3 B V V H ..+.O.+.! B V A s $ $ $ $                 = $ $ $ r J B V v ; $ $ #                           ",
"                X $ $ $ 3 B A B H 3.O.} +.! B A V y $ $ $ $                 = $ $ $ r A Z V v ; $ $ #                           ",
"                * $ $ $ 3 P P P R ..O.} +.~ P P P s $ $ $ $                 = $ $ # r P P P n 5 & & &                           ",
"                * $ $ $ 6 ,...3...O.} O.O.O.......k $ $ $ $                 = $ $ # a 2...3.2.n v v -.8 X X X                   ",
"                * $ $ $ 6 O.} O.O.}  .O.O.}  .} +.l $ $ $ $                 = $ $ # a O.} O...H V V Z 3 # $ $ *                 ",
"                * $ $ # 6 ( } O.} O.O.O.O.} } O.+.l $ $ $ $                 = $ $ # a 4.+.} ..H V V Z 3 $ $ $ *                 ",
"                * $ $ $ 6 3.+.+.+.O.O.O.} } } +.+.l # # # #                 = # $ # a 4.+.+...H K V Z 3 $ $ # *                 ",
"                * $ $ $ 4 Q ! ! ~ O.O.O.} O.} } +.Y t t t e = = = = = = = = e t t t b O.+.+...H B V Z 3 $ $ $ *                 ",
"                * $ $ $ 3 B B B P .. .} } O.O.O.O.~ J J J g $ $ $ $ $ $ $ # s J J J ! +.+.+...H B V Z 3 $ $ $ *                 ",
"                * $ $ $ 3 Z V V P ..} O.+.O.O.O.O.~ V B A g $ $ $ $ $ $ $ $ s A J B ! +.}  ...H B V Z 3 $ $ $ *                 ",
"                = $ $ $ 3 J K V P ..} O.+.O.O.O.O.~ B B K g # # # # # # # # y A V Z ! +.O. ...H J A Z 3 $ $ $ *                 ",
"                  = = = 5 y y y d ,.+.O. .*.7.7.7.=.&.&.&.' x x x x x x x x P ! Q Q ! ~ ~ ~ ! d y y s 5 = * =                   ",
"                          # $ # ; W +.O. .u.g.g.q.g.g.g.g.g.g.g.g.g.g.g.g.g.7.O.+.+.~ K J V v & $ $ #                           ",
"                          # $ # ; W +.O. .u.g.q.q.g.q.q.q.g.g.g.g.q.q.q.g.g.7.O.O.+.~ V V V v ; $ $ #                           ",
"                          # $ $ ; W +.O. .u.g.q.q.g.g.q.q.q.q.g.q.q.g.g.q.q.7.O.+.+.~ V V V v ; # $ #                           ",
"                          # $ $ ; W +.O. .u.g.q.q.q.q.g.q.w.k.k.e.k.w.g.g.q.7.O. .+.W g g g f & # # =                           ",
"        + * * *           # $ $ ; W +.O. .u.g.q.q.q.q.g.q.k.n.N.N.n.k.q.g.g.7.}  .+.Y % $ # X                   * * * +         ",
"        o # $ # -         # $ $ ; W  .O. .u.g.q.q.q.g.g.q.k.N.N.N.N.k.g.g.g.7.} O.+.Y = $ $ *                 o # $ $ o         ",
"        o $ $ # o         $ $ $ ; W +.O. .u.g.q.q.g.g.g.q.k.N.N.N.N.k.q.q.g.7.} O.O.Y = $ $ *                 - # $ $ o         ",
"        o $ $ $ -         = $ # , ^ +.+. .u.g.q.q.q.w.w.q.k.m.B.B.B.k.w.j.j.7.[ [ $.m = $ $ *                 - # $ $ o         ",
"        o # # $ # $ = $ < g g g c ,.+.+. .u.g.q.q.k.b.c.c.F.T.R.R.T.F.b.c.c.g.p.p.p.' = $ $ *         : * $ # # $ $ $ o         ",
"        o $ $ $ $ $ $ $ 3 J A V P ..O.+. .u.g.g.q.l.N.N.N.L.Q.~.~.!.L.M.N.N.l.g.q.j.%.$ $ $ *         = $ $ $ $ $ $ $ o         ",
"        o $ $ $ $ $ $ $ 3 K V V H ..+.O. .u.g.q.g.l.N.N.N.L.!.~.~.!.L.M.N.N.l.q.q.j.%.$ $ $ X         = $ $ $ $ $ $ $ o         ",
"        o $ $ $ # $ $ # < n V V H .. . .[ u.g.q.g.l.N.N.N.L.!.~.~.!.L.N.N.N.l.q.q.g.%.# $ $ X         = $ $ $ # $ $ $ o         ",
"        o $ $ $ p l l l b ~ ~ ~ ] u.9.9.9.a.g.q.q.D.Y.Y.Y.E.~.~.~.!.L.N.N.N.l.q.q.g.&.y y y y < = = > j l l l p $ $ $ o         ",
"        o $ $ # z +.+.+.+.+.+.} *.f.g.g.g.q.q.g.q.J.~.~.~.~.~.~.~.!.L.N.N.N.l.q.q.g.6.V :.A v ; $ $ = T +.+.+.z # $ $ o         ",
"        o $ $ # k +.+.+.+.O.O.} *.f.q.q.g.q.q.q.q.G.~.~.~.~.~.~.~.!.L.N.N.N.l.q.q.g.5.M Z V v ; $ $ = T +. .+.k # $ $ o         ",
"        o $ $ $ k +.} O.O.O.O.O.*.f.g.q.q.q.q.q.q.G.~.~.~.~.~.~.~.Q.L.N.N.N.l.q.q.g.6.M Z K v & # # $ T +.+.4.k # $ $ o         ",
"        o $ $ $ k +.} O.O.O.O.O.*.f.g.q.q.q.q.q.q.G.~.~.~.Q.T.Y.Y.U.V.N.N.N.l.q.q.g.8.Q ! ! E s a i a b Y Y Y d * = = +         ",
"        o $ $ $ k +.} O.O.O.O.O.*.f.g.q.q.q.q.q.q.G.~.~.~.R.B.N.N.N.M.N.N.N.l.q.q.g.u...+.+.+.4.4.+...6 $ $ $ %                 ",
"        o $ $ $ k +.} O.} } } } *.f.g.q.q.q.q.q.q.G.~.~.~.R.B.N.M.M.N.N.N.N.l.q.q.g.9. .} O.O.+.+. .O.6 $ $ # X                 ",
"        o $ $ $ k +. .+.+.} } } *.f.g.q.q.q.q.q.q.G.~.~.~.R.B.N.N.N.N.M.N.N.l.q.q.g.9. .O.O.O.O.+.O.O.6 # $ $ *                 ",
"        + X X . h >.W W / } } O.*.f.g.q.q.w.w.w.w.H.~.~.~.R.B.N.N.N.N.N.N.N.l.q.q.g.9. .O.+.O.O.O.O.O.6 # $ $ *                 ",
"                < ; ; & u 4. .} *.f.g.g.q.l.v.v.v.P.~.~.~.R.B.M.N.N.N.N.N.N.l.q.q.g.9. .O.+.O.O.O.O.O.6 $ $ $ *                 ",
"                * # $ # 6 <.O.} *.f.g.q.q.z.N.M.M.P.~.~.~.R.B.M.N.N.N.N.N.N.l.q.q.g.9. .O.+.O.O.O.O.O.6 $ $ $ *                 ",
"                * $ $ $ 6 ( O.} *.f.g.q.q.z.N.N.N.P.~.~.~.R.B.M.N.N.N.N.N.N.l.q.q.g.9. .O.O.O.O.O.O.O.6 $ $ $ *                 ",
"                = $ $ $ 6 ..+. .*.f.g.q.q.z.N.N.N.P.~.~.~.R.V.N.N.N.N.N.N.N.l.q.w.j.9.[  .+. .O.O.O.( 6 # # # *                 ",
"                * $ $ # q p.a.0.0.g.g.g.q.z.N.N.M.P.~.~.~.!.W.W.E.R.K.M.M.N.v.c.c.c.k.0.a.0.y.a 6 6 6                           ",
"                * $ $ # w f.q.g.g.q.q.q.q.z.N.M.M.P.~.~.~.~.~.~.~.!.L.N.N.N.N.N.N.N.z.q.q.w.s.2 $ $ #                           ",
"                * $ $ $ w f.q.q.q.g.g.q.q.z.N.M.M.P.~.~.~.~.~.~.~.!.L.N.N.N.N.N.N.N.z.q.q.q.s.2 # $ #                           ",
"                * # $ # w h.g.g.g.g.q.q.q.z.N.M.M.P.~.~.~.~.~.~.~.!.L.N.N.M.N.B.N.B.x.g.g.g.s.5 # $ $                           ",
"                  * * * e N G I ` f.q.q.q.z.N.M.M.P.~.~.~.~.~.~.~.!.L.N.N.N.r._ _ _ ) G G G A 2 * * *                           ",
"                          # # # 2 s.g.q.q.z.N.M.M.P.~.~.~.~.~.~.~.!.L.N.N.N.F # # # # # # # .                                   ",
"                          $ $ $ 5 s.q.q.q.z.N.M.M.P.~.~.~.~.~.~.~.Q.L.N.N.N.F # $ $ $ $ $ $ *                                   ",
"                          # $ $ 5 s.j.g.w.z.M.M.M.I.~.~.~.~.~.~.~.Q.L.M.M.N.F # $ $ $ $ $ $ X                                   ",
"                          @ o o 1 1.t.t.t.i.d.d.d.Z.S.S.S.S.S.S.S.A.C.d.d.d.;.o o o o o o o +                                   ",
"                                  O & & & & & & & % % % % % % % % % & & & &                                                     ",
"                                  X $ $ $ $ $ $ $ $ $ $ $ $ $ $ $ $ $ $ $ $                                                     ",
"                                  X $ $ $ $ $ $ $ $ $ $ $ $ $ $ $ $ $ $ $ $                                                     ",
"                                  * $ $ $ $ $ $ $ $ $ $ $ $ $ $ $ $ $ $ $ $                                                     "
};
