/* XPM */
static char *result[] = {
/* columns rows colors chars-per-pixel */
"64 64 256 2 ",
"   c black",
".  c #010101",
"X  c #020202",
"o  c gray1",
"O  c #040404",
"+  c gray2",
"@  c #060606",
"#  c #070707",
"$  c gray3",
"%  c #090909",
"&  c gray4",
"*  c #0B0B0B",
"=  c #0C0C0C",
"-  c gray5",
";  c #0E0E0E",
":  c gray6",
">  c #101010",
",  c #111111",
"<  c gray7",
"1  c #131313",
"2  c gray8",
"3  c #151515",
"4  c #161616",
"5  c gray9",
"6  c #181818",
"7  c #191919",
"8  c gray10",
"9  c #1B1B1B",
"0  c gray11",
"q  c #1D1D1D",
"w  c #1E1E1E",
"e  c gray12",
"r  c #202020",
"t  c gray13",
"y  c #222222",
"u  c #232323",
"i  c gray14",
"p  c #252525",
"a  c gray15",
"s  c #272727",
"d  c #282828",
"f  c gray16",
"g  c #2A2A2A",
"h  c gray17",
"j  c #2C2C2C",
"k  c #2D2D2D",
"l  c gray18",
"z  c #2F2F2F",
"x  c gray19",
"c  c #313131",
"v  c #323232",
"b  c gray20",
"n  c #343434",
"m  c #353535",
"M  c gray21",
"N  c #373737",
"B  c gray22",
"V  c #393939",
"C  c #3A3A3A",
"Z  c gray23",
"A  c #3C3C3C",
"S  c gray24",
"D  c #3E3E3E",
"F  c #3F3F3F",
"G  c gray25",
"H  c #414141",
"J  c gray26",
"K  c #434343",
"L  c #444444",
"P  c gray27",
"I  c #464646",
"U  c gray28",
"Y  c #484848",
"T  c #494949",
"R  c gray29",
"E  c #4B4B4B",
"W  c #4C4C4C",
"Q  c gray30",
"!  c #4E4E4E",
"~  c gray31",
"^  c #505050",
"/  c #515151",
"(  c gray32",
")  c #535353",
"_  c gray33",
"`  c #555555",
"'  c #565656",
"]  c gray34",
"[  c #585858",
"{  c gray35",
"}  c #5A5A5A",
"|  c #5B5B5B",
" . c gray36",
".. c #5D5D5D",
"X. c gray37",
"o. c #5F5F5F",
"O. c #606060",
"+. c gray38",
"@. c #626262",
"#. c gray39",
"$. c #646464",
"%. c #656565",
"&. c gray40",
"*. c #676767",
"=. c #686868",
"-. c DimGray",
";. c #6A6A6A",
":. c gray42",
">. c #6C6C6C",
",. c #6D6D6D",
"<. c gray43",
"1. c #6F6F6F",
"2. c gray44",
"3. c #717171",
"4. c #727272",
"5. c gray45",
"6. c #747474",
"7. c gray46",
"8. c #767676",
"9. c #777777",
"0. c gray47",
"q. c #797979",
"w. c gray48",
"e. c #7B7B7B",
"r. c #7C7C7C",
"t. c gray49",
"y. c #7E7E7E",
"u. c gray50",
"i. c #808080",
"p. c #818181",
"a. c gray51",
"s. c #838383",
"d. c #848484",
"f. c gray52",
"g. c #868686",
"h. c gray53",
"j. c #888888",
"k. c #898989",
"l. c gray54",
"z. c #8B8B8B",
"x. c gray55",
"c. c #8D8D8D",
"v. c #8E8E8E",
"b. c gray56",
"n. c #909090",
"m. c gray57",
"M. c #929292",
"N. c #939393",
"B. c gray58",
"V. c #959595",
"C. c gray59",
"Z. c #979797",
"A. c #989898",
"S. c gray60",
"D. c #9A9A9A",
"F. c #9B9B9B",
"G. c gray61",
"H. c #9D9D9D",
"J. c gray62",
"K. c #9F9F9F",
"L. c #A0A0A0",
"P. c gray63",
"I. c #A2A2A2",
"U. c gray64",
"Y. c #A4A4A4",
"T. c #A5A5A5",
"R. c gray65",
"E. c #A7A7A7",
"W. c gray66",
"Q. c #A9A9A9",
"!. c #AAAAAA",
"~. c gray67",
"^. c #ACACAC",
"/. c gray68",
"(. c #AEAEAE",
"). c #AFAFAF",
"_. c gray69",
"`. c #B1B1B1",
"'. c #B2B2B2",
"]. c gray70",
"[. c #B4B4B4",
"{. c gray71",
"}. c #B6B6B6",
"|. c #B7B7B7",
" X c gray72",
".X c #B9B9B9",
"XX c gray73",
"oX c #BBBBBB",
"OX c #BCBCBC",
"+X c gray74",
"@X c gray",
"#X c gray75",
"$X c #C0C0C0",
"%X c #C1C1C1",
"&X c gray76",
"*X c #C3C3C3",
"=X c gray77",
"-X c #C5C5C5",
";X c #C6C6C6",
":X c gray78",
">X c #C8C8C8",
",X c gray79",
"<X c #CACACA",
"1X c #CBCBCB",
"2X c gray80",
"3X c #CDCDCD",
"4X c #CECECE",
"5X c gray81",
"6X c #D0D0D0",
"7X c gray82",
"8X c #D2D2D2",
"9X c LightGray",
"0X c gray83",
"qX c #D5D5D5",
"wX c gray84",
"eX c #D7D7D7",
"rX c #D8D8D8",
"tX c gray85",
"yX c #DADADA",
"uX c gray86",
"iX c gainsboro",
"pX c #DDDDDD",
"aX c gray87",
"sX c #DFDFDF",
"dX c gray88",
"fX c #E1E1E1",
"gX c #E2E2E2",
"hX c gray89",
"jX c #E4E4E4",
"kX c gray90",
"lX c #E6E6E6",
"zX c #E7E7E7",
"xX c gray91",
"cX c #E9E9E9",
"vX c #EAEAEA",
"bX c gray92",
"nX c #ECECEC",
"mX c gray93",
"MX c #EEEEEE",
"NX c #EFEFEF",
"BX c gray94",
"VX c #F1F1F1",
"CX c gray95",
"ZX c #F3F3F3",
"AX c #F4F4F4",
"SX c gray96",
"DX c #F6F6F6",
"FX c gray97",
"GX c #F8F8F8",
"HX c #F9F9F9",
"JX c gray98",
"KX c #FBFBFB",
"LX c gray99",
"PX c #FDFDFD",
"IX c #FEFEFE",
"UX c white",
/* pixels */
"f d u y p p d f s p z g a s h k j g g a k g j g d g h y q t t s v l f f g g h l f h l f s p g z d s d k k g j x z x k z x j p d ",
"i t 9 7 0 i p 9 y f x l k j g u y v l g z x z h u i p r 6 p j d y r r y d p d k l g l j k k g j i y k h a t u u e w i k c f s g ",
"p a u s a i l k k v n x c j g s p x k g z c j a i y p f g k x c c l d l c l h d u p k k l k j z g u i u j l z k f f g d h d d d ",
"j h d f j g s y d j k a j f i d k l h f d z s d f f j l n h i i u d a d a d h a y d j a d f d f h h u a j z k j f f p a d g h a ",
"g c k l z f d d d p r e u p r u u y i u 8 q w 4 w y s x c g u q w k k d i g k c h d i q 9 0 q t t y y q 0 9 1 3 6 6 9 i u r t 0 ",
"f f u t 9 4 7 0 a p s k j a u w 9 9 q r e a j y q t g l s 0 4 8 q i i d g s p p t u a i s p y p a p q u 0 7 1 > 5 8 4 q t e w 8 ",
"d e e i q 0 8 q s d a z n z g p i u 5 q t i k k s p g w e 7 8 < 5 7 7 e t s f h e y i r w e u 0 f x x h i q 0 q 9 9 7 y e y g s ",
"j f d j a s t d u r i u a l z h g v g h h x x g g p u e k g a p h s g l v N b b h f j h u p f t z x b z s p g f h g j d i a a v ",
"c g 9 0 q q e q g y k l k k h g t f g x c z l f g f t e q 0 y s y u s s d t 9 p 8 e i d k l l z g p l v v s p a s p s f a f p x ",
"g f d k b h f h v s h c j p a h h k v v c v z u s i y i g x m b z g s i t r y a d z l z n n m v x a f z g d a g j s l k g g z b ",
"h l j c z g h k l k x j f s 9 g x j c v z x h a s f l x c z v h n c h l j a h g z x x j b b v x l d d z x v x x l k x d h l v v ",
"k z g g i h g 9 8 9 6 t g i r j b l l d u a p p k k f h k c v b d r i i t 9 p f v n m c g u s c j l c c m M n z x l a u r t d x ",
"i f h p p a a e y p u r 3 3 9 r a w e w p t 8 w t s i s a u s f k y e d e 5 0 0 r s h u 5 0 u q w i f d f p l j l x g t t t w q ",
"e q 5 5 4 w j f f k c l d u d d g l s w f g g a i r d f q 1 > 8 f d z z d s f l l g k f y p s p y i y u i e 7 4 w f a s g l h p ",
"d d s y g v c z f g x v c k g h a p p j x b k j f a f s a i g f g d w e w i f l a i s d f a y h l k t a f p y e t u d j f d d s ",
"7 r e q s f i i h g c v k f u a y t g g f d l j p u 0 e t s g s j x x g u f u i u a d e y r u k z g d a i y u j s d x k d y a p ",
"t i e y d y w 6 f h z j j f h l h s f s i r g h k u e u d f i e y a v z k l l i h c k l c x j s g f p i a u w r w y e r a y 0 8 ",
"g h s a c M k i p d y r 0 p i f h v v c j d u p p i h a d g c b j d j s t 9 w q s f z c c c j u i f g c m l l k b v i y s r p r ",
"l f r 9 p s f j g j x g i x c v m z f z c k a j c b k d t e g g j k j z z p i a f d v c d j z k z l b l l h s s d j j h k x g i ",
"z g i u d j a k a t r i a u u p p q 8 e 0 8 5 e g l a s p u s a k x l l h a g l l x b a 8 9 u w u r h a a a u i r t u u e i 0 i ",
"y r t q r u i f g j j h d w i i p y t u y s u t d g y w 9 7 0 e i d g p t y p p g c n c y w p 9 u a i q 5 w t 9 d s p y s d a h ",
"t s d q r p f d g k b k k d h k f s k k z k c h j f t f p t w d f d d a s j d i a f p u i t y d k h f d a c j d g k j f k v v b ",
"s g z d h f h d p f p a l c h h h g h z n z d j c g i c l h d j k g s g k z x h j d u p a i k v k s j k a k v m v z j s j v z c ",
"r 0 t w y e a j j z k j g u i f k h d g c l p d h g r i p p i q u p t j l l j l j f h g a p j p a k z i w e s f r e g f g z c x ",
"a a a p d j h a u t s d u i t j b b h x v l y u y d r f f s h d z h p g k g s k h k l k s a d i t p s u p j z h f a a d k x M l ",
"z j f f g k j j f g l g i t a j l z c x l z d t e g f h j h i i f f t d h j d g j k z l k j l h d y a j k x v v z x h z x k x l ",
"y f u y h s e d i i d z j s k c l j p a r r q r t d x M b j g d p f r e q y f c z g f p r 0 e t t q t g z l k h g s u e w a g f ",
"x l d r u y w 9 y 0 9 8 5 6 6 4 0 y y f p r t q t j n x h 8 e q r w i g j c x j k z b l g i w r r 0 w p r 7 2 7 9 0 7 6 e y u u ",
"j p w e 0 q e i f h z c z l i r a y q q t l x k h h g s q 3 4 2 0 r p y d j d s r w i s e y s p l k z z f p q w i y y z v c c x ",
"s w k c h g g a p h d j j k j g j g a d h c c c x c f a j d f s h y p x z m m v g z k g u t a 8 k b x d d h l j z j l z g z g v ",
"x d f j g s d a g j j d f h k g l v c x k k h p y r 9 w i i j l l s j v l b N b g h s a f k k r y u y w q r i f l l z v y d s k ",
"h u 9 t g h y f j f x l k l j i j c v c m x g p t p p i s j c z g s g f h d f s j x x l h j j h g t g c k h f f s i y f a g l c ",
"7 i d x z k l n l z c h d l x k k z b b m b v p w y i k v b c z m x g j f u g g f g b v M B b l c k z h h v b n v c c l p j j f ",
"p s u p k g f g j x b j j a y d l z x g x n v z i i k n c l h f l c k l p d g s d g l x n z x l c c g j z m n B v k h d f s g l ",
"f d s s f c s a j d u r f y s j x k g y d j h f d p y a l c c c g d f f p p g f a p e h u w i s g p f g j g g h r q 9 9 u p d h ",
"p u u k s d f a d f l f p y u s j k h g s p d q t t y s z l s t t r y d h d h j h a g v k f 9 w r e u r p w t q 8 q y 9 w s g d ",
"0 2 i j t 7 i f s l l h f f g l b x j h y y r e d p u s x h u 1 1 6 7 w y i d f x v b l j j u t p f l k s t h j y 0 r r p s k k ",
"f w u f d f d f a s y 0 y r i p a i r p a g r t g s s a g i d i f s u y y f g l g h k f g h j z g k c j j c z z b x k c n x d f ",
"j e 4 q q a w 7 u a g j j a a s i y r s f f u a f j k w 0 7 w y d s i t f h h g e q 9 t d f f d g j h x v k t d j f y h f r w e ",
"i y e d d g u y i d x l k s a s l v v m b z z x h l k s f c z h f a t t p f l g f h v c z M b x b l x x n x p h j a s h a 0 e i ",
"y c k d h d z N x h x g g 9 8 i d f n M c l z k d g x k k d f g c n l g u r y y t a x x c n m M N l d h c v x x n z c M b x z j ",
"x m x p r s s i f s g k x s g k d d b m x h k l k l M b k d h z z j x c f i g k k x b z l k k x M n k j b m b z z x j j x g y i ",
"j z x x h j r r t 9 r i r 8 r p a s k g i d d y a d c c k j c v c h g x i d h z b M m M k a i p a e e r a d y r e y r r r s t t ",
"j a p p t y r a s h v x f p a f k g f a p h k p s g s s d u e t a a i s s d g j h f c b h d u s u a h l g f y u y p s f j j z z ",
"g i s t t y p g g j c x c z h l N l p f h g l c k g f s d y i p p y u h j g g h h g h l t r h g g k c k k c b l j f l z l j j z ",
"p a g f a g z h i j j d d f j l c x h j l k h d f f i a l j h l j p s f g h l j j j g l a a h f p d k j x c b x k x j j l m c h ",
"a w r w e i y a s v l h l a d t i a u u z j d j s u s s a r w y u t a y s f k l k i j l j l f s i a k h x d y e i y q e l l b v ",
"6 4 q w y p g h d g h s g a k d g k j s h l d y a f i y u a f d j x s u a j c x x g h z z c l h g d h z h i t a h j h a h f x x ",
"r a f j f g z z z h j h f d d l z k d p i k k s a f s l j l k g v m x x h h x h d x j j h j x l l j s f h k x c x x j j l n v h ",
"z d i h h j d f g i u f g y g v b l c u 8 a d p i y i a r r e y i k z l d a l x k k j f s p i s j j u r f x k h i f i g g j g d ",
"c t t i r s f u t 7 w i w 2 8 y a d z j t u t e d g l l f u q e t j f j l g x l m v b l k g a g g u 9 9 i t 7 9 w e t s a h l f ",
"h p u 4 5 7 9 i s l z x k f w i k h p p s z l k x x z k s w 4 0 t t u s g j g g f l b c k c c k h h j z f u 9 e p h k k j k c j ",
"t g x u t w i z d s j b b b g d z f d k g z v v c l c k l h h u t t a p j M x h g x m n a s l f j c j f j z l k l c v v k v z j ",
"a g h e r j h c d d f j v l z x g k c x x h h d f f l i d c n c b f d e y f h c l v x k h l k h h h r r p j h d l l z l j j p t ",
"p q u y a k p h h c l v v k j g h x h g v z p s y a k p f f g l j p y u d d l v z g j z k z k h g u s k f g g g f a p u i f h z ",
"y u f h h k j g f l j k l j k s g k k z z h p y i p u a j h l b N v f l l z x l z g s g p u f f a i d l l l n b c c l h p p l v ",
"j f i g j g h k l v v a d d k z v x c x c z f p i g h m x d p a b x f z z k b x d j h g k h h k g p g k l v n b v l a g s d k k ",
"x d i s d l s f k s t r p i h x x d z h g h g d i i p k s s i g h f a p a s k f a d h x k f s h z j c x s p f j s s u i p s a i ",
"z f f k k k d p f s u p r w t y a t a u p u p w q i s d a f f f k x f s g j s f f p s k l g e r t y s h i q 8 4 5 3 8 y r t a f ",
"t q i u r w w u f k b v z h s g j j h d q w r w r i i y r h w < 2 9 8 w t s a g a f a d h a w 0 u p l z u a t e w 5 0 y s g l z ",
"9 t j d y 9 w g i f i f j u u f j g j g d f z z g d s a k d s w i p w t i z v M c g l l u y a f f l m v h d v z l p a i s y a k ",
"3 p k r s g d g w u y u s a a t l b h s p d f w f i s d q 6 e l c d h g z b x c y 8 u 9 w d p i t f d c c x l k b N c k c p p s ",
"a p p w d d w e q a j f j k j i k l i h k z d g g g c s q e t g u q t a c z m c h g f f z b x j j h h c c j p f k f d a d p x z ",
"k h g k k d s g u g j j j i p i g f i j x g p i l z f a z m M n x l p s h l n z j f k z c n V n x k h i u a d h z x m v h 3 e e "
};
