/* XPM */
static char *rcp104962232144525280[] = {
/* columns rows colors chars-per-pixel */
"64 64 173 2 ",
"   c None",
".  c black",
"X  c #030000",
"o  c #050000",
"O  c #060000",
"+  c #070000",
"@  c #080000",
"#  c #090000",
"$  c #170000",
"%  c #190000",
"&  c #1A0000",
"*  c #1B0000",
"=  c #1C0000",
"-  c #1D0000",
";  c #1E0000",
":  c #1F0000",
">  c #220000",
",  c #230000",
"<  c #240000",
"1  c #250000",
"2  c #300000",
"3  c #330000",
"4  c #350000",
"5  c #360000",
"6  c #370000",
"7  c #380000",
"8  c #390000",
"9  c #3A0000",
"0  c #3B0000",
"q  c #3C0000",
"w  c #3D0000",
"e  c #3E0000",
"r  c #3F0000",
"t  c #400000",
"y  c #410000",
"u  c #500000",
"i  c #520000",
"p  c #530000",
"a  c #5C0000",
"s  c #5F0000",
"d  c #610000",
"f  c #620000",
"g  c #630000",
"h  c #660000",
"j  c #670000",
"k  c #680000",
"l  c #690000",
"z  c #6C0000",
"x  c #6D0000",
"c  c #6E0000",
"v  c #6F0000",
"b  c #710000",
"n  c #760000",
"m  c #780000",
"M  c #8A0000",
"N  c #8B0000",
"B  c #8C0000",
"V  c #8D0000",
"C  c #8F0000",
"Z  c #900000",
"A  c #910000",
"S  c #920000",
"D  c #930000",
"F  c #940000",
"G  c #950000",
"H  c #960000",
"J  c #970000",
"K  c #990000",
"L  c #9E0000",
"P  c #9F0000",
"I  c #A00000",
"U  c #A10000",
"Y  c #A40000",
"T  c #A60000",
"R  c #A70000",
"E  c #A80000",
"W  c #AA0000",
"Q  c #AB0000",
"!  c #B60000",
"~  c #B70000",
"^  c #B80000",
"/  c #BA0000",
"(  c #BB0000",
")  c #BC0000",
"_  c #BE0000",
"`  c #BF0000",
"'  c #C00000",
"]  c #C30000",
"[  c #CF0000",
"{  c #D50000",
"}  c #D70000",
"|  c #D90000",
" . c #DA0000",
".. c #DB0000",
"X. c #DC0000",
"o. c #DD0000",
"O. c #DE0000",
"+. c #DF0000",
"@. c #E00000",
"#. c #E20000",
"$. c #E30000",
"%. c #E40000",
"&. c #E50000",
"*. c #E60000",
"=. c #E70000",
"-. c #E80000",
";. c #F00000",
":. c #F10000",
">. c #F20000",
",. c #F30000",
"<. c #F40000",
"1. c #F50000",
"2. c #F60000",
"3. c #F70000",
"4. c #F80000",
"5. c #F90000",
"6. c #FB0000",
"7. c #FC0000",
"8. c #FD0000",
"9. c #FE0000",
"0. c red",
"q. c #FE0101",
"w. c #FE0202",
"e. c #FE0404",
"r. c #FE0505",
"t. c #FE0A0A",
"y. c #FE1515",
"u. c #FE1B1B",
"i. c #FE1C1C",
"p. c #FE1D1D",
"a. c #FE1F1F",
"s. c #FE2121",
"d. c #FE2424",
"f. c #FE2828",
"g. c #FE2929",
"h. c #FE2A2A",
"j. c #FE3030",
"k. c #FE3333",
"l. c #FE3A3A",
"z. c #FE4040",
"x. c #FE4747",
"c. c #FE4B4B",
"v. c #FE6868",
"b. c #FE7878",
"n. c #FF7B7B",
"m. c #FE8181",
"M. c #FE8585",
"N. c #FF8686",
"B. c #FF8989",
"V. c #FF8C8C",
"C. c #FF9595",
"Z. c #FF9696",
"A. c #FF9797",
"S. c #FF9898",
"D. c #FF9999",
"F. c #FF9B9B",
"G. c #FFB1B1",
"H. c #FFB3B3",
"J. c #FFCDCD",
"K. c #FFE0E0",
"L. c #FFE2E2",
"P. c #FFE4E4",
"I. c #FFE6E6",
"U. c #FFE9E9",
"Y. c #FFEBEB",
"T. c #FFEEEE",
"R. c #FFEFEF",
"E. c #FFF1F1",
"W. c #FFF3F3",
"Q. c #FFF7F7",
"!. c #FFF9F9",
"~. c #FFFDFD",
"^. c white",
/* pixels */
"                                                                                                                                ",
"                                                                                                                                ",
"                                                                                                                                ",
"                                                                                                                                ",
"                                                                                                                                ",
"                                                                                                                                ",
"                                                                                                                                ",
"                                                                                                                                ",
"                                                                                                                                ",
"                        . . . . . . . . . . . . . . .                     . . . . . . . . . . . . . . .                         ",
"                        . . . . . . . . . . . . . . .                     . . . . . . . . . . . . . . .                         ",
"                        . . . . . . . . . . . . . . .                     . . . . . . . . . . . . . . .                         ",
"                  . . = S P P P P P P P P P P P P I c . . .         . . . c I P P P P P P P P P P P I c . . .                   ",
"                . . . = $.0.0.0.0.0.0.0.0.0.0.0.0.0.F . . .         . . . K 0.0.0.0.0.0.0.0.0.0.0.0.0.S . . .                   ",
"                . . . = +.0.0.0.0.0.0.0.0.0.0.0.0.0.F . . .         . . . F 0.0.0.0.0.0.0.0.0.0.0.0.0.S . . .                   ",
"                > 1 > r %.0.0.r.d.f.f.f.f.f.f.t.0.0.Y 1 1 1         1 1 1 Y 0.0.0.0.0.0.0.0.0.0.0.0.0.I 1 1 1                   ",
"          . . . B -.%.%.5.0.0.p.J.Y.Y.Y.Y.Y.L.l.0.0.,.%.%.+.r . . r +.%.%.2.0.0.0.0.0.0.0.0.0.0.0.0.0.,.%.%.| 0 . . .           ",
"          . . . F 0.0.0.0.0.0.p.L.^.^.^.^.^.Q.z.0.0.0.0.0.2.r . . t 2.0.0.0.0.0.0.0.0.0.0.0.0.0.0.0.0.0.0.0.2.0 . . .           ",
"          . . . F 0.0.0.0.0.0.u.L.^.^.^.^.^.!.z.0.0.0.0.0.2.0 . . r 2.0.0.0.0.0.0.0.0.0.0.0.0.0.0.0.0.0.0.0.,.0 . . .           ",
"          . . . F 0.0.0.x.b.b.B.R.^.^.J.N.N.m.s.0.0.0.0.0.5.F b b F 5.0.0.0.0.0.0.0.0.0.0.0.0.0.0.0.0.0.0.0.,.0 . . .           ",
"          . . . F 0.0.0.D.^.^.^.^.^.^.A.0.0.0.0.0.0.0.0.0.0.0.0.0.0.0.0.0.0.0.0.0.0.0.0.0.0.0.0.0.0.0.0.0.0.,.0 . . .           ",
"          . . . F 0.0.0.A.^.^.^.^.^.^.A.0.0.0.0.0.0.0.0.0.0.0.0.0.0.0.0.0.0.0.0.0.0.0.0.0.0.0.0.0.0.0.0.0.0.,.0 . . .           ",
"          . . . F 0.0.0.A.^.^.^.E.R.E.V.0.0.0.0.0.0.0.0.0.0.0.0.0.0.0.0.0.0.0.0.0.0.0.0.0.0.0.0.0.0.0.0.0.0.,.0 . . .           ",
"          . . . F 0.0.0.A.^.^.P.c.j.j.p.0.0.0.0.0.0.0.0.0.0.0.0.0.0.0.0.0.0.0.0.0.0.0.0.0.0.0.0.0.0.0.0.0.0.,.0 . . .           ",
"          . . . F 0.0.0.A.^.^.L.p.0.0.0.0.0.0.0.0.0.0.0.0.0.0.0.0.0.0.0.0.0.0.0.0.0.0.0.0.0.0.0.0.0.0.0.0.0.,.0 . . .           ",
"          . . . F 0.0.0.D.^.^.P.p.0.0.0.0.0.0.0.0.0.0.0.0.0.0.0.0.0.0.0.0.0.0.0.0.0.0.0.0.0.0.0.0.0.0.0.0.0.,.0 . . .           ",
"          . . . F 0.0.0.v.H.H.D.y.0.0.0.0.0.0.0.0.0.0.0.0.0.0.0.0.0.0.0.0.0.0.0.0.0.0.0.0.0.0.0.0.0.0.0.0.0.,.0 . . .           ",
"          . . . F 0.0.0.0.r.r.r.0.0.0.0.0.0.0.0.0.0.0.0.0.0.0.0.0.0.0.0.0.0.0.0.0.0.0.0.0.0.0.0.0.0.0.0.0.0.,.0 . . .           ",
"          . . . F 0.0.0.0.0.0.0.0.0.0.0.0.0.0.0.0.0.0.0.0.0.0.0.0.0.0.0.0.0.0.0.0.0.0.0.0.0.0.0.0.0.0.0.0.0.,.0 . . .           ",
"          . . . S 2.,.,.0.0.0.0.0.0.0.0.0.0.0.0.0.0.0.0.0.0.0.0.0.0.0.0.0.0.0.0.0.0.0.0.0.0.0.0.0.0.0.5.,.,.-.0 . . .           ",
"                3 0 0 i %.0.0.0.0.0.0.0.0.0.0.0.0.0.0.0.0.0.0.0.0.0.0.0.0.0.0.0.0.0.0.0.0.0.0.0.0.0.0.E 0 0 0                   ",
"                . . . & +.0.0.0.0.0.0.0.0.0.0.0.0.0.0.0.0.0.0.0.0.0.0.0.0.0.0.0.0.0.0.0.0.0.0.0.0.0.0.B . . .                   ",
"                . . . = $.0.0.0.0.0.0.0.0.0.0.0.0.0.0.0.0.0.0.0.0.0.0.0.0.0.0.0.0.0.0.0.0.0.0.0.0.0.0.S . . .                   ",
"                  . . = E / ~ { 0.0.0.0.0.0.0.0.0.0.0.0.0.0.0.0.0.0.0.0.0.0.0.0.0.0.0.0.0.0.0.2.' / / m . . .                   ",
"                        + + . c 0.0.0.0.0.0.0.0.0.0.0.0.0.0.0.0.0.0.0.0.0.0.0.0.0.0.0.0.0.0.0.+.> + + +                         ",
"                        . . . k 0.0.0.0.0.0.0.0.0.0.0.0.0.0.0.0.0.0.0.0.0.0.0.0.0.0.0.0.0.0.0.+.= . . .                         ",
"                        . . . k 0.0.0.0.0.0.0.0.0.0.0.0.0.0.0.0.0.0.0.0.0.0.0.0.0.0.0.0.0.0.0.+.= . . .                         ",
"                              r d d j { 0.0.0.0.0.0.0.0.0.0.0.0.0.0.0.0.0.0.0.0.0.0.0.0.I s d s                                 ",
"                                . . + _ 0.0.0.0.0.0.0.0.0.0.0.0.0.0.0.0.0.0.0.0.0.0.0.0.d . . .                                 ",
"                                . . # ' 0.0.0.0.0.0.0.0.0.0.0.0.0.0.0.0.0.0.0.0.0.0.0.0.j . . .                                 ",
"                                . . # E +.| $.0.0.0.0.0.0.0.0.0.0.0.0.0.0.0.0.0.2.| | | s . . .                                 ",
"                                      & & $ i 2.0.0.0.0.0.0.0.0.0.0.0.0.0.0.0.0.' > & &                                         ",
"                                      . . . r 2.0.0.0.0.0.0.0.0.0.0.0.0.0.0.0.0._ + . .                                         ",
"                                      . . . t 5.0.0.0.0.0.0.0.0.0.0.0.0.0.0.0.0._ # . .                                         ",
"                                        . . 5 M B B [ 0.0.0.0.0.0.0.0.0.5.E M B n # . .                                         ",
"                                              . . . F 0.0.0.0.0.0.0.0.0.2.r . . .                                               ",
"                                              . . . F 0.0.0.0.0.0.0.0.0.2.r . . .                                               ",
"                                              . . . S 2.,.,.0.0.0.5.,.,.-.r . . .                                               ",
"                                                    3 0 5 i %.0.0.E 5 5 5                                                       ",
"                                                    . . . = $.0.0.S . . .                                                       ",
"                                                    . . . = $.0.0.F . . .                                                       ",
"                                                      . . = Y ~ ~ m . . .                                                       ",
"                                                            + + + +                                                             ",
"                                                            . . . .                                                             ",
"                                                            . . . .                                                             ",
"                                                                                                                                ",
"                                                                                                                                ",
"                                                                                                                                ",
"                                                                                                                                ",
"                                                                                                                                ",
"                                                                                                                                ",
"                                                                                                                                ",
"                                                                                                                                ",
"                                                                                                                                "
};
