/* XPM */
static char *rcp21521960045640851[] = {
/* columns rows colors chars-per-pixel */
"64 64 46 1 ",
"  c None",
". c gray12",
"X c #202020",
"o c gray13",
"O c #222222",
"+ c #232323",
"@ c gray14",
"# c #252525",
"$ c gray15",
"% c #272727",
"& c #282828",
"* c gray16",
"= c #2A2A2A",
"- c gray17",
"; c #2C2C2C",
": c #2D2D2D",
"> c gray18",
", c #2F2F2F",
"< c gray19",
"1 c #313131",
"2 c #323232",
"3 c gray20",
"4 c #343434",
"5 c #353535",
"6 c gray21",
"7 c #373737",
"8 c gray22",
"9 c #393939",
"0 c #3A3A3A",
"q c gray23",
"w c #3C3C3C",
"e c #3E3E3E",
"r c #3F3F3F",
"t c gray25",
"y c #414141",
"u c gray26",
"i c #434343",
"p c #444444",
"a c gray27",
"s c #464646",
"d c gray28",
"f c gray38",
"g c gray44",
"h c #717171",
"j c #9B9B9B",
"k c #AFAFAF",
/* pixels */
"                                                                ",
"                                                                ",
"                           :------:::                           ",
"                         :#OOOOOOO-::-::                        ",
"                        :-O#1111:OO-::::--                      ",
"                       :-O#8uuuuu1OO-::-#-:                     ",
"                       #O-essssssu1O-:--##-                     ",
"                      :#-48esss84u8#-:--:                       ",
"                      :-1e88euufgs8#-::--                       ",
"                      :488uu88ejks4#-:-##                       ",
"                   4888esu8uu4eggu4#-:---                       ",
"                  4usssssse4ssu44u8#-:-##                       ",
"                 4ussssssse4ssssss8#--#--                       ",
"                1ussuuuusu84uusssu4###-##                       ",
"                4us88888844444uus8#OO-#-                        ",
"               4u8841111:8sssu44u4OOO#-                         ",
"               1u41    #O:ssssue1#OO#-                          ",
"               14       OO:8884#OOOO-#                          ",
"               1        OOO###OOOOOO##                          ",
"                        OOOOO..OOOOOOO                          ",
"                       -#OOOOOOOOOOOO#                          ",
"                       #-#OOOO##OOOO##                          ",
"                       ---###O#######-                          ",
"                       ---#--#O#-#-#-#-                         ",
"                       -###-##O#-#-#-#-                         ",
"                       :---#-#O-------:                         ",
"                       :-----#O--------                         ",
"                       :---#-OO-#-#---#                         ",
"                       :::::-O#-::::::::                        ",
"                       :::::-O-::::::::::                       ",
"                       ::-::-OO-:::::::::                       ",
"                       ::::--OO-:::::::::                       ",
"                       ::::::-O-::-:::::::                      ",
"                       ::::::-O-::-:--::::                      ",
"                       ::::::-O-::::::::::                      ",
"                      :::::::-O-::::::::::                      ",
"                      :::::::-O-::::::::::                      ",
"                      ::::::--O-:::::::::::                     ",
"                      ::::::--O-:::::-::::::                    ",
"                      ::::::-##-::::-:::::::                    ",
"                      ::::::-O#-::::--:::::::                   ",
"                      :::--:-OO--::::::::::::                   ",
"                      ::::::-#O--::::::::::::                   ",
"                      :::::::-O-::::::::::::::                  ",
"                     :-::::::-O-::::::::::::::                  ",
"                     :--:::::-O-:::::-::::::::                  ",
"                     :::--:::-O-:-:::-:::::::::::               ",
"                    ::-:--::-OO-::::::::::::::::::              ",
"                  :::::##-::-.O-:::::::::--:::---::             ",
"                 :::::###::-O.O-::::::::-##::-###-:             ",
"                 ::::#O#-::-O.O-::#-::::-##::-# O##-            ",
"                :::###O-::-#O.O-::-#-::::--#::-   #-            ",
"                ::#  ---::-O..O-:::#-:::::-#::::   #            ",
"                ::   ::::-#O..O#-::##-::::-#:::::               ",
"                :   ::::-#O....O#--#O#--::-#-###:               ",
"                    :::-#  .....#-#O  #-::--   ##               ",
"                     ::-    O..  -#    #-:::                    ",
"                             O.         ---:                    ",
"                                          #                     ",
"                                                                ",
"                                                                ",
"                                                                ",
"                                                                ",
"                                                                "
};
