/* XPM */
static char *rcp55604044175921892[] = {
/* columns rows colors chars-per-pixel */
"64 64 48 1 ",
"  c None",
". c gray12",
"X c #202020",
"o c gray13",
"O c #222222",
"+ c #232323",
"@ c gray14",
"# c #252525",
"$ c gray15",
"% c #272727",
"& c #282828",
"* c gray16",
"= c #2A2A2A",
"- c gray17",
"; c #2C2C2C",
": c #2D2D2D",
"> c gray18",
", c #2F2F2F",
"< c gray19",
"1 c #313131",
"2 c #323232",
"3 c gray20",
"4 c #343434",
"5 c #353535",
"6 c gray21",
"7 c #373737",
"8 c gray22",
"9 c #393939",
"0 c #3A3A3A",
"q c gray23",
"w c #3C3C3C",
"e c gray24",
"r c #3E3E3E",
"t c #3F3F3F",
"y c gray25",
"u c #414141",
"i c gray26",
"p c #434343",
"a c #444444",
"s c gray27",
"d c #464646",
"f c gray28",
"g c gray31",
"h c gray35",
"j c #808080",
"k c #818181",
"l c gray60",
"z c #B1B1B1",
/* pixels */
"                                                                ",
"                                                                ",
"                                                                ",
"                                                                ",
"                                                                ",
"                           ;;;;;;;;;;                           ",
"                        ;--;;-#######--                         ",
"                      ;;;;;;-#o-;;;;oo-;                        ",
"                     ;---;;-#o;rpprr6#o-;                       ",
"                     -##-;;-o;rddddddq#o-                       ",
"                       ;;;;-#qdqrdddpr6##;                      ",
"                       --;;-#qphgpdpq6r3-;                      ",
"                       ##-;-#6dzlrqqppq633                      ",
"                       -----#6pkkr6ppqrdr6666                   ",
"                       ##-;-#qpqqpddqrddddddp6                  ",
"                       --#;-#qdddddd6rdddddddp6                 ",
"                       ##-###qdddddd6rddddddddp3                ",
"                        -#-oo-qdddq6336qqqqqrdp6                ",
"                        ;-#oo#qp66rppp6333336qrr6               ",
"                         ;#ooo-6rpdddd3o#    36p3               ",
"                          -#ooo#;qrrr3#o       63               ",
"                          ##ooooo#---ooo        3               ",
"                          ooooooo..ooooo                        ",
"                          #oooooooooooo#-                       ",
"                          -#ooooo#oooo#--                       ",
"                          #-######o###---                       ",
"                         --#-#-#-o#-#-#--                       ",
"                         -#-#-#-#o##-#-##                       ",
"                         ;---#-#-o#-----;                       ",
"                         -----;--o-;----;                       ",
"                         --#-#-#-oo-#---;                       ",
"                        ;;;-;-;--oo-;;;;;                       ",
"                        ;;;;;;;;;-o-;;;;;                       ",
"                       ;;;;;;;;;-oo-;;;;;                       ",
"                       ;;;;;;;;;-oo-;;;;;                       ",
"                       ;;;;;;;;;-o-;;;;;;                       ",
"                      ;;;;;;;;;;-o-;;;;;;                       ",
"                      ;;;;;;;;;;-o-;;;;;;                       ",
"                      ;;;;;;;;;;-o-;;;;;;;                      ",
"                      ;;;;;;;;;;-o-;;;;;;;                      ",
"                     ;;;;;;;;;;;-o-;;;;;;;                      ",
"                    ;;;;;;;;;;;;-o-;;;;;;;                      ",
"                    ;;;;;;;;;;;;-##-;;;;;;                      ",
"                   ;;;;;;;;;;;;;;-o-;;;;;;                      ",
"                   ;;;;;;;;;;;;;-oo-;;;;;;                      ",
"                   ;;;;;;;;;;;;;-o#-;;;;;;                      ",
"                  ;;;;;;;;;;;;;;-o-;;;;;;;                      ",
"                  ;;;;;;;;;;;;;;-o-;;;;;;;;                     ",
"                  ;;;;;;;;;;;;;;-o-;;;;;;;;                     ",
"                 ;;;;;;;;;;;;;;;-o-;;;;;;;;                     ",
"                ;;;;;;;;;;;;;;;;-oo-;;--;;;;                    ",
"              ;;;;;;;;;;;;;;;;;;-o.-;;-#-;;;;                   ",
"             ;;;-#-#-;;;;;;;;;;;-o.#-;;##;;;;;                  ",
"            ;;-####--;--;;;;--;;-o.o-;;-#-;;;;;                 ",
"            -##  o#-;;##;;;-#-;;-o.o#-;;-#;;;;;                 ",
"            -    --;;-#-;;;-#;;;-o..o-;;-###-;;;                ",
"                 ;;;-#-;;;;-#;;-#o..o#-;;-###-;;                ",
"                ;---##-;;;-##--#o....o#-;;;  #;;                ",
"                -##o#-;;;--#o#-o.....oo#-;;                     ",
"                #   ;;;---   #-# ...   #-;;                     ",
"                    ;--##    #-# oo      ;                      ",
"                    ;##       ;                                 ",
"                                                                ",
"                                                                "
};
