/* XPM */
static char *rcp92609504175928192[] = {
/* columns rows colors chars-per-pixel */
"64 64 46 1 ",
"  c None",
". c gray12",
"X c #202020",
"o c gray13",
"O c #222222",
"+ c #232323",
"@ c gray14",
"# c #252525",
"$ c gray15",
"% c #272727",
"& c #282828",
"* c gray16",
"= c #2A2A2A",
"- c gray17",
"; c #2C2C2C",
": c #2D2D2D",
"> c gray18",
", c #2F2F2F",
"< c gray19",
"1 c #313131",
"2 c #323232",
"3 c gray20",
"4 c #343434",
"5 c #353535",
"6 c gray21",
"7 c #373737",
"8 c gray22",
"9 c #393939",
"0 c #3A3A3A",
"q c gray23",
"w c #3C3C3C",
"e c #3E3E3E",
"r c #3F3F3F",
"t c gray25",
"y c #414141",
"u c gray26",
"i c #434343",
"p c #444444",
"a c gray27",
"s c #464646",
"d c gray28",
"f c #5B5B5B",
"g c DimGray",
"h c #767676",
"j c #9B9B9B",
"k c gray69",
/* pixels */
"                                                                ",
"                                                                ",
"                                                                ",
"                           :********:                           ",
"                        :**::*$++++++*:                         ",
"                      :*::::*++:<:<:$+*:                        ",
"                     :*$*::*++<ttttt8$+*:                       ",
"                     *$$*::*+<tssssss8$+$                       ",
"                       ::::*$8t88sssrr6$$:                      ",
"                       **::*$8sgfttr88r<*:                      ",
"                       $$*:*$6skjr88tt886<                      ",
"                       ***:*$6thhr6tt8rsr6666                   ",
"                       $$*:*$8t66tss6rsssssst6                  ",
"                       **$**$8ssssss6rssssssst6                 ",
"                       $$*$$$6tssstt68sssssssst<                ",
"                        *$*++$8sst66<6688888rst6                ",
"                         *$++$8t66ttts8:<<<<688t6               ",
"                          *+++$<rtssss<+$    <6t<               ",
"                          $*++++*8888:$+       6<               ",
"                          $$+++++$$$$+++        <               ",
"                          +++++++..+++++                        ",
"                          $++++++++++++$*                       ",
"                          *$+++++$++++$**                       ",
"                          **$$$$$$+$$$***                       ",
"                         **$*$**$+$***$**                       ",
"                         *$*$*$*$+$$*$*$*                       ",
"                         :*******+$*****:                       ",
"                         ********+$*****:                       ",
"                         **$*$*$*++*****:                       ",
"                        ::::::::*++*:::::                       ",
"                        :::::::::*+*:::::                       ",
"                       :::::::::*++*:::::                       ",
"                       :::::::::*++*:::::                       ",
"                       :::::::::*+*::::::                       ",
"                      ::::::::*:*+*::::::                       ",
"                      ::::::::::*+*::::::                       ",
"                      :::::::*::*+*:::::::                      ",
"                      ::::::::::*+*:::::::                      ",
"                     :::::::::::*+*:::::::                      ",
"                    ::::::::::::*+*:::::::                      ",
"                    :::::*::::::*$$*::::::                      ",
"                   ::::::::::*:::$+*::::::                      ",
"                   :::::::::::::*++*::::::                      ",
"                   :::::::::::::*+$*::::::                      ",
"                  ::::::::::::::*+*:::::::                      ",
"                  ::*:::::::::::*+*::::::::                     ",
"                  :::::::::::*::*+*::::::::                     ",
"                 ::::::::::*::::*+*:::**:::                     ",
"               :::::::::::::::::*++*::**::::                    ",
"             :::::::::::::::::::*+.*::*$*::::                   ",
"             :::*$*$*:::::::::::*+.+*::$$::::::                 ",
"            ::*$$+$**:**::::*$::*+.+*::*$*:::::                 ",
"            *$$  +**:***:::*$*::*+.+$*::*$::::::                ",
"            :    **:***::::*$:::*+..+*::**$**:::                ",
"                ::::$*:::::*$::*$+..+$*::** $*::                ",
"               ::*$$$*::::*$$**$+....+$*:::   ::                ",
"               :*$$$$*:::*$$$$*++...++$$*::                     ",
"               :$   :::**$   $$$ ..+    *::                     ",
"                    :**$$    $$$ .+      :                      ",
"                     $$       :  +                              ",
"                                                                ",
"                                                                ",
"                                                                ",
"                                                                "
};
