/* XPM */
static char *rcp104247560045628983[] = {
/* columns rows colors chars-per-pixel */
"64 64 48 1 ",
"  c None",
". c gray12",
"X c #202020",
"o c gray13",
"O c #222222",
"+ c #232323",
"@ c gray14",
"# c #252525",
"$ c gray15",
"% c #272727",
"& c #282828",
"* c gray16",
"= c #2A2A2A",
"- c gray17",
"; c #2C2C2C",
": c #2D2D2D",
"> c gray18",
", c #2F2F2F",
"< c gray19",
"1 c #313131",
"2 c #323232",
"3 c gray20",
"4 c #343434",
"5 c #353535",
"6 c gray21",
"7 c #373737",
"8 c gray22",
"9 c #393939",
"0 c #3A3A3A",
"q c gray23",
"w c #3C3C3C",
"e c gray24",
"r c #3E3E3E",
"t c #3F3F3F",
"y c gray25",
"u c #414141",
"i c gray26",
"p c #434343",
"a c #444444",
"s c gray27",
"d c #464646",
"f c gray28",
"g c #555555",
"h c gray38",
"j c #7B7B7B",
"k c #7C7C7C",
"l c #9A9A9A",
"z c #B1B1B1",
/* pixels */
"                                                                ",
"                                                                ",
"                                                                ",
"                                                                ",
"                           :::------:                           ",
"                         :-@@@@@@@-::-:-                        ",
"                        :-OO:::::OO-::----                      ",
"                       :-O@7yyyyw:OO-:--@-:                     ",
"                       @O@0ffffffw:O-::-@@-                     ",
"                      :@@7wyfff00f0@-::::                       ",
"                      :@1w00yfyghy0@-::--                       ",
"                      :170yy00wlzf7@-:-@@                       ",
"                   7777wfw0yy7wjky7@-:---                       ",
"                  7yffffffw7ffy77y0@-:-@@                       ",
"                 7yfffffffw7ffffff0@--@--                       ",
"                1yffffffffw7yfffff0@@@-@@                       ",
"                7yfw0000007170yff0@OO-@-                        ",
"               7yw07111110yyyy77y0@OO@-                         ",
"               1y71    @O1ffffyw7@OOO-:                         ",
"               17       O@1www0-@OOO-@                          ",
"               1        OOO@@@@OOOOO@@                          ",
"                        OOOOO..OOOOOOO                          ",
"                       -@OOOOOOOOOOOO@                          ",
"                       --@OOOO@OOOOO@-                          ",
"                       ---@@@O@@@@@@--                          ",
"                       --@-@-@O@@-@-@--                         ",
"                       @@-@-@@O@-@-@-@-                         ",
"                       :-----@O-@-@---:                         ",
"                       :----:@O--------                         ",
"                       :---@-OO-@-@-@--                         ",
"                       :::::-OO-::::::::                        ",
"                       :::::-O-:::::::::                        ",
"                       :::::-OO-::---::::                       ",
"                       :::::-OO-::---::::                       ",
"                       ::::::-O-:::::::::                       ",
"                       ::::::-O-::::::::::                      ",
"                       ::::::-O-::::::::::                      ",
"                      ::::::--O-::::::::::                      ",
"                      :::::::-O-:::::--:::                      ",
"                      ::::::--O-:::::::::::                     ",
"                      :::-:::-O-::::::::::::                    ",
"                      ::::::-@@-:::-::::::::                    ",
"                      ::--::-O-:::--:::::::::                   ",
"                      :::-::-OO-::::::-::::::                   ",
"                      ::::::-@O-:::-:::::::::                   ",
"                      :::::::-O-::::::::::::::                  ",
"                     ::::::::-O-::::::::::::::                  ",
"                     ::::::::-O-::::::::::::::                  ",
"                     ::::::::-O-:::::::::::::::                 ",
"                    ::::--::-OO-::::::::-:::::::                ",
"                   ::::-@-::-.O-:-::::--:---::::::              ",
"                  :::::@@::-@.O-:-:::::::-:-@-@-:::             ",
"                 :::::-@-::-O.O-::@-::::--:-@@O@@-::            ",
"                 :::::@-::-@O.O-::-@-:::-@:---O  @@-            ",
"                :::-@@--::-O..O-:::@-:::---::--    -            ",
"                ::-@ @-::-@O..O@-::@-:--:-@-::::                ",
"                ::   :::-@O....O@--@@-:::-@@---:                ",
"                     ::-@OO.....O-@O@@-:::-@OO@-                ",
"                     ::-@   ... @-@   @--:::                    ",
"                      :      O. @-@    @@--:                    ",
"                              O  :       @@:                    ",
"                                                                ",
"                                                                ",
"                                                                "
};
