/* XPM */
static char *rcp103246004050045643[] = {
/* columns rows colors chars-per-pixel */
"64 64 48 1 ",
"  c None",
". c gray12",
"X c #202020",
"o c gray13",
"O c #222222",
"+ c #232323",
"@ c gray14",
"# c #252525",
"$ c gray15",
"% c #272727",
"& c #282828",
"* c gray16",
"= c #2A2A2A",
"- c gray17",
"; c #2C2C2C",
": c #2D2D2D",
"> c gray18",
", c #2F2F2F",
"< c gray19",
"1 c #313131",
"2 c #323232",
"3 c gray20",
"4 c #343434",
"5 c #353535",
"6 c gray21",
"7 c #373737",
"8 c gray22",
"9 c #393939",
"0 c #3A3A3A",
"q c gray23",
"w c #3C3C3C",
"e c gray24",
"r c #3E3E3E",
"t c #3F3F3F",
"y c gray25",
"u c #414141",
"i c gray26",
"p c #434343",
"a c #444444",
"s c gray27",
"d c #464646",
"f c gray28",
"g c gray31",
"h c gray35",
"j c #808080",
"k c #818181",
"l c gray60",
"z c #B1B1B1",
/* pixels */
"                                                                ",
"                                                                ",
"                                                                ",
"                                                                ",
"                                                                ",
"                           ;;;;;;;;&;                           ",
"                         ;&@@@@@@@&;;&&;                        ",
"                        ;&OO;;;;&O@&;;;;&&                      ",
"                       ;&O@4wyyyw;O@&;;&&&;                     ",
"                       &O@9ffffffw;O&;;&@@&                     ",
"                      ;@@4wyfffw9f9@&;;;;                       ",
"                      ;&1w49yfyghy9@&;;&&                       ",
"                      1149yy99wlzf4@&;&@@                       ",
"                   4444wfw9yy4wjjy4@&;&&&                       ",
"                  4yffffffw9ffy99yw@&;&@@                       ",
"                 4yfffffffw4ffffffw@&;@&&                       ",
"                1yffffffffw4ffffff9@@@&&@                       ",
"                4yfw9999991149fff9&OO&@&                        ",
"               4ww94111119yyyw44y9@OO@&;                        ",
"               1y41    @O1ffffyw4&OOO@;                         ",
"               14       O@1www9;@OOO@@                          ",
"               1        OOO&&&@OO@OO@@                          ",
"                        OOOOO..OO@OOOO                          ",
"                       &@OOOOOOOOOOOO@                          ",
"                       &&@OOOO@@OOOO@&                          ",
"                       &&&@@@O@@@@@@&@                          ",
"                       &&@&@&@O&@&&&&&&                         ",
"                       @@&@&@@O@&@&&&&&                         ",
"                       ;&&&&&@O&&&&&&&;                         ",
"                       ;&&&&;&O;&;&;&&&                         ",
"                       ;&&&@&OO&&&@&@&&                         ",
"                       ;;;;;&OO&&;&;&;;;                        ",
"                       ;;;;;&O&;;;;;;;;;                        ",
"                       ;;;;;&OO&;;;;;;;;;                       ",
"                       ;;;;;&OO&;;;;;;;;;                       ",
"                       ;;;;;;&O&;;;;;;;;;                       ",
"                       ;;;;;;&O&;;;;;;;;;;                      ",
"                       ;;;;;;&O&;;;;;;;;;;                      ",
"                      ;;;;;;;&O&;;;;;;;;;;                      ",
"                      ;;;;;;;&O&;;;;;;;;;;                      ",
"                      ;;;;;;;&O&;;;;;;;;;;;                     ",
"                      ;;;;;;;&O&;;;;;;;;;;;;                    ",
"                      ;;;;;;&@@&;;;;;;;;;;;;                    ",
"                      ;;;;;;&O&;;;;;;;;;;;;;;                   ",
"                      ;;;;;;&OO;;;;;;;;;;;;;;                   ",
"                      ;;;;;;&@O;;;;;;;;;;;;;;                   ",
"                      ;;;;;;;&O&;;;;;;;;;;;;;;                  ",
"                     ;;;;;;;;&O&;;;;;;;;;;;;;;                  ",
"                     ;;;;;;;;&O&;;;;;;;;;;;;;;;;                ",
"                    ;;;;;;;;;&O&;;;;;;;;;;;;;;;;;;              ",
"                   ;;;;;&&;;&OO&;;;;;;;;;;;;;;;;;;;;            ",
"                 ;;;;;;&@&;;&.O&;;;;;;;;&&;;&@&@@&;;            ",
"                ;;;;;&@@@;;&@.O&;;;;;;;;&&&;&&@O @@@            ",
"               ;;;;&@@@&&;;&O.O&;;&&;;;;;&@;;&&                 ",
"              ;;;&@@ &;;;;&@O.O&;;&@&;;;;&&&;;;;;               ",
"              ;;;@ &;;;;;&@O..O&;&&@&;;;;;&@&;;;;;              ",
"                   ;;;;&&@OO..O@@@@@@&&;;;&@@&&&&&              ",
"                    ;&&@@@O.....@OOO@@&&&;;;&@@@@@              ",
"                     @@    O..O @@@     &&&;;                   ",
"                                          &;;                   ",
"                                           ;                    ",
"                                                                ",
"                                                                ",
"                                                                "
};
