/* XPM */
static char *rcp18565748175946906[] = {
/* columns rows colors chars-per-pixel */
"64 64 48 1 ",
"  c None",
". c gray12",
"X c #202020",
"o c gray13",
"O c #222222",
"+ c #232323",
"@ c gray14",
"# c #252525",
"$ c gray15",
"% c #272727",
"& c #282828",
"* c gray16",
"= c #2A2A2A",
"- c gray17",
"; c #2C2C2C",
": c #2D2D2D",
"> c gray18",
", c #2F2F2F",
"< c gray19",
"1 c #313131",
"2 c #323232",
"3 c gray20",
"4 c #343434",
"5 c #353535",
"6 c gray21",
"7 c #373737",
"8 c gray22",
"9 c #393939",
"0 c #3A3A3A",
"q c gray23",
"w c #3C3C3C",
"e c gray24",
"r c #3E3E3E",
"t c #3F3F3F",
"y c gray25",
"u c #414141",
"i c gray26",
"p c #434343",
"a c #444444",
"s c gray27",
"d c #464646",
"f c gray28",
"g c #555555",
"h c gray38",
"j c #7B7B7B",
"k c #7C7C7C",
"l c #9A9A9A",
"z c #B1B1B1",
/* pixels */
"                                                                ",
"                                                                ",
"                                                                ",
"                                                                ",
"                           ::::::::::                           ",
"                        :::::-%%%%%%%-:                         ",
"                      --::::-oo:::::oo--                        ",
"                     :-%-::-oo:tpppp4%o-:                       ",
"                     -%%-:-%o:tddddddq%o-                       ",
"                       :::-%%qdqqdddpt4%%:                      ",
"                       --::-%qphgpdpqqt3-:                      ",
"                       %%-:-%4dzltqqppq433                      ",
"                       -%%:-%4pkjt4ppqtdt4444                   ",
"                       %%---%qp44pdd4tddddddp4                  ",
"                       -%%--%qdddddd4tdddddddp4                 ",
"                       %%-%%%qdddddp4tddddddddp3                ",
"                        -%-oo%qddpq434qqqqqqtdp4                ",
"                         -%oo%qp44ppppq:33334qtp4               ",
"                         :-oo.%4tpdddd3o%    34p3               ",
"                          %-ooo%-qttt3%oo      43               ",
"                          -%ooooo%%%%oo%-       3               ",
"                          %oooooo..oooo%%                       ",
"                          %o%oooooooooo%-                       ",
"                          -%%oooo%oooo%%-                       ",
"                         -%-%%%%%%o%%%%%-                       ",
"                         --%-%%%%o%-%-%%-                       ",
"                         -%-%%%%%o%%-%-%%                       ",
"                         :---%-%-o%-----:                       ",
"                         --------o%:----:                       ",
"                        %--%-%-%-oo-%---:                       ",
"                        ::::::::-oo-:::::                       ",
"                       ::::::::::-o-:::::                       ",
"                       :::::::::-oo-:::::                       ",
"                       :::::::::-oo-:::::                       ",
"                      ::::::::::-o-::::::                       ",
"                      ::::::---:-o-::::::                       ",
"                      ::::::::::-o-:::::::                      ",
"                      :::::::-::-o-:::::::                      ",
"                     :::::::::::-o-:::-:::                      ",
"                    ::::::::::::-o-:::-:::                      ",
"                    ::::::::::::-o--::::::                      ",
"                    ::::::::::::-%%-::::::                      ",
"                   ::::::::::::::-o-::::::                      ",
"                   :::::-::::-::-o.-::::::                      ",
"                   :::::-::::--:-o%-::::::                      ",
"                  ::::::::::::-:-o-:::::::                      ",
"                  ::::-:::::::::-o-::::::::                     ",
"           %    :--:::-:::::::::-o-::::::::                     ",
"           oo ::::::::::::::::::-o-:::::::::     %              ",
"            %---::::::::::::::::-oo-::--::::-:  %o              ",
"             %%%%-%--:--::::::::-o.--:-%-:::-:-%oo              ",
"             oo o%-%----:::::-%--o.%---%%%%%-%%oo               ",
"             ooo --%-%%-::::-%%--o.o-----%o%%ooo                ",
"             oooo-:%%o%-:::-%oo%-o.o%-:-:-ooo                   ",
"             %ooo%-%oo%-:::-ooo%-o..o%%%%%oo                    ",
"               ooo%%ooo%%%%%oooo%o..ooooooo                     ",
"                 %%%%oooo%%%%%%o.....o%%%%                      ",
"                      %%         ooo                            ",
"                                                                ",
"                                                                ",
"                                                                ",
"                                                                ",
"                                                                ",
"                                                                "
};
