/* XPM */
static char *rcp67727592045648859[] = {
/* columns rows colors chars-per-pixel */
"64 64 47 1 ",
"  c None",
". c gray12",
"X c #202020",
"o c gray13",
"O c #222222",
"+ c #232323",
"@ c gray14",
"# c #252525",
"$ c gray15",
"% c #272727",
"& c #282828",
"* c gray16",
"= c #2A2A2A",
"- c gray17",
"; c #2C2C2C",
": c #2D2D2D",
"> c gray18",
", c #2F2F2F",
"< c gray19",
"1 c #313131",
"2 c #323232",
"3 c gray20",
"4 c #343434",
"5 c #353535",
"6 c gray21",
"7 c #373737",
"8 c gray22",
"9 c #393939",
"0 c #3A3A3A",
"q c gray23",
"w c #3C3C3C",
"e c gray24",
"r c #3E3E3E",
"t c #3F3F3F",
"y c gray25",
"u c #414141",
"i c gray26",
"p c #434343",
"a c #444444",
"s c gray27",
"d c #464646",
"f c gray28",
"g c #676767",
"h c #6A6A6A",
"j c #797979",
"k c #9B9B9B",
"l c gray68",
/* pixels */
"                                                                ",
"                           ========::                           ",
"                         :#ooooooo=::=::                        ",
"                        :=o#33333oo=::::==                      ",
"                       :=o=eiiiii3oo=::=#=:                     ",
"                       #o=eddddddi3o=::==#=                     ",
"                      :#=qqeddd44iq#=::::                       ",
"                      :=3qeqeiigjd4#=::==                       ",
"                      :4qqiiq4ekli4#=:=#=                       ",
"                   qqqqidiqiiqihhi4#=:===                       ",
"                  qidddddde4ddi44iq#=:=##                       ",
"                 qiddddddde4ddddddq#==#==                       ",
"                3iddiiiiiiq4iidddi4###=##                       ",
"                4iiq4qqqq4444qiidq#oo=#=                        ",
"               4iqq4333::4dddi44i4ooo#=                         ",
"               3i43    oo:idddie3#oo#=                          ",
"               34       oo=qqq4#oo##==                          ",
"               3        oooo##oooo####                          ",
"                        ooooo..ooooo#o                          ",
"                       =#oooooooooooo#                          ",
"                       #=#oooo=#oooo##                          ",
"                       ==####o#=#=###=                          ",
"                       ===#=##o#=#=#=#=                         ",
"                       =####=#o##=#=##=                         ",
"                       :=====#o=======:                         ",
"                       :=====#o========                         ",
"                       :=====oo=#======                         ",
"                       :::::=o#==:::::::                        ",
"                       :::::=o=::::::::::                       ",
"                       :::::=oo=:::::::::                       ",
"                       :::::=oo=:::::::::                       ",
"                       ::::::=o=::::::::::                      ",
"                       ::::::=o=::::::::::                      ",
"                       ::::::=o=::::==::::                      ",
"                      :::::::=o=::::::::::                      ",
"                      :::::::=o=::::::::::                      ",
"                      :::::::=o=:::::::::::                     ",
"                      ::::::==o=::::::::::::                    ",
"                      ::::::=##::::::=::::::                    ",
"                      ::::::=o#=:::::::::::::                   ",
"                      ::::::=oo=:::::::::::::                   ",
"                      ::::::=#o=:::::::::::::                   ",
"                      :::::::=o=::::::::::::::                  ",
"                     ::::::::=o=::::=:::::::::                  ",
"                     ::::::::=o==:::::::::::::::                ",
"                    ::::==::=#o==:::::::::::::::::              ",
"                  :::::===::=oo=::::::::==:::=:==::             ",
"                 ::::==##:::=.o=::::::::=#=:=#=##=::            ",
"                :::==###=::=o.o=::=::::::=#::=## #=:            ",
"                ::=###===::=o.o=:=#=:::::=#:::=    #            ",
"                ::#  :::::=oo.o=::=#=::::==#::::                ",
"                ::  :::::=#o..o=:::#=:::::=##::::               ",
"                :   :::=##oo..oo#=###=::::== ###=               ",
"                    ::=#o  .....o##o #=:::::    #               ",
"                     :=     o..  ##    ==:::                    ",
"                             oo          ==:                    ",
"                                          =                     ",
"                                                                ",
"                                                                ",
"                                                                ",
"                                                                ",
"                                                                ",
"                                                                ",
"                                                                "
};
