/* XPM */
static char *rcp76563740153530611[] = {
/* columns rows colors chars-per-pixel */
"64 64 135 2 ",
"   c None",
".  c #071E2F",
"X  c #081C2B",
"o  c #071F30",
"O  c #08202F",
"+  c #0A2234",
"@  c #0B263A",
"#  c #0C293E",
"$  c #0D2C42",
"%  c #0D314B",
"&  c #0F3752",
"*  c #0F3A56",
"=  c #0F3B59",
"-  c #103955",
";  c #103C59",
":  c #12405F",
">  c #124263",
",  c #15466C",
"<  c #15486F",
"1  c #154A71",
"2  c #184F76",
"3  c #174F79",
"4  c #184F78",
"5  c #17517A",
"6  c #19537D",
"7  c #195682",
"8  c #1A5986",
"9  c #1B5D8C",
"0  c #1C5F90",
"q  c #1C6294",
"w  c #1D659A",
"e  c #1D689C",
"r  c #1F6BA1",
"t  c #216DA4",
"y  c #216FA8",
"u  c #2170A7",
"i  c #2373AD",
"p  c #2978AF",
"a  c #2376B1",
"s  c #2877B1",
"d  c #2479B5",
"f  c #287AB7",
"g  c #287AB7",
"h  c #2379B8",
"j  c #2379B9",
"k  c #247BB8",
"l  c #247CBC",
"z  c #247DBC",
"x  c #277EBC",
"c  c #257BBA",
"v  c #287CB9",
"b  c #2985C5",
"n  c #2984C6",
"m  c #2987CB",
"M  c #2A86CA",
"N  c #2987C9",
"B  c #298ACD",
"V  c #2A89CE",
"C  c #298ACE",
"Z  c #2A8ACE",
"A  c #2A8AD0",
"S  c #2B8AD0",
"D  c #2A8BD0",
"F  c #2A8AD1",
"G  c #2A8BD1",
"H  c #2B8BD3",
"J  c #2A8CD2",
"K  c #2A8DD3",
"L  c #2B8DD3",
"P  c #2E8ED2",
"I  c #2A8DD4",
"U  c #2B8DD4",
"Y  c #2B8DD5",
"T  c #2A8ED5",
"R  c #2B8ED6",
"E  c #2B8FD7",
"W  c #2C8DD4",
"Q  c #2C8ED4",
"!  c #2D8FD4",
"~  c #2C8ED6",
"^  c #2B8DD4",
"/  c #2C8FD8",
"(  c #2C90D7",
")  c #2C91D9",
"_  c #2F91D8",
"`  c #2E91D9",
"'  c #2E92D8",
"]  c #2C91DA",
"[  c #2E91DA",
"{  c #2D92DA",
"}  c #2D92DB",
"|  c #2E92DA",
" . c #2D93DC",
".. c #2F93DD",
"X. c #2C94DE",
"o. c #2D92DB",
"O. c #3393D6",
"+. c #3794D6",
"@. c #3795D6",
"#. c #3795D7",
"$. c #3192D8",
"%. c #3091DA",
"&. c #3292DA",
"*. c #3194D8",
"=. c #3194DB",
"-. c #3195DB",
";. c #3294DA",
":. c #3394DA",
">. c #3294DB",
",. c #3295DB",
"<. c #3595D8",
"1. c #3796D9",
"2. c #3696DA",
"3. c #3796DA",
"4. c #3796DB",
"5. c #3295DC",
"6. c #3597DE",
"7. c #3194DB",
"8. c #3698DA",
"9. c #2E96E0",
"0. c #2E96E1",
"q. c #2E96E2",
"w. c #2F96E2",
"e. c #2E95E1",
"r. c #2E99E7",
"t. c #2F99E5",
"y. c #2F9CEA",
"u. c #2F9CEA",
"i. c #309AE7",
"p. c #389AE0",
"a. c #309BE9",
"s. c #309BEA",
"d. c #309CEA",
"f. c #309CEB",
"g. c #309DEC",
/* pixels */
"                                                                                                                                ",
"                                                                                                                                ",
"                                                                                                                                ",
"                                                                                                                                ",
"                                                                                                                                ",
"                                                                              +.                                                ",
"                                                          i i i i i a         <.                                                ",
"                                                  <.  f i i i i i i i i                                                         ",
"                                                >. . .A d a a i i i i i i s                                                     ",
"                                              >./ r.y.a.) R V a y u i i i i     <.                                              ",
"                                            >.A z J X.d.d.y.) a 9 9 t i i i i   <.                                              ",
"                                          >.P d i h A A R a.d.A q 7 9 t i i i i   <.                                            ",
"                                        >.>.  i i i u q q M 9.a.M 9 7 9 t i i i   =.=.                                          ",
"                                      5.>.  s i i t 9 7 7 9 e 9.9.w 7 7 9 u i i   ) =.                                          ",
"                                      6.    i i u 9 7 7 7 7 9 n ) n 8 6 8 t i i a A )                                           ",
"                                    p.      i i t 8 7 7 7 7 6 3 8 d 5 1 6 9 u i i z ~                                           ",
"                                            i u 9 7 7 7 7 6 1 , , 1 , , 6 8 t i a M ( =.                                        ",
"                                            i t 8 7 7 7 6 1 , , , > ; ; > 5 8 t i h R )                                         ",
"                                          s u 9 7 7 7 7 6 < , , ; ; ; ; ; > 6 9 t a R )                                         ",
"                                        a i t 8 7 7 7 7 6 < , , ; ; = ; ; ; 2 8 t a J )                                         ",
"                                        i u 9 7 7 7 7 6 1 , , ; ; ; ; ; ; ; > 7 t a J )                                         ",
"                              +.        i u 8 7 7 7 7 6 < , , ; ; ; ; ; ; ; ; 6 9 i R )                                         ",
"                              O.        i t 8 7 7 7 6 1 , , , ; ; ; ; - - - ; 6 8 u J )                                         ",
"                              <.        u 9 7 9 7 7 6 < , , , ; = ; = $ $ $ % 6 7 q A )                                         ",
"                                      a u 8 9 z 9 7 6 < , , , ; ; ; & $ $ $ % 1 6 9 V )                                         ",
"                                      i t 8 e ~ 9 7 6 < , , = = ; - $ $ $ $ # % 6 9 V R v                                       ",
"                                      u 9 9 ~ ~ 9 6 1 , , , = = ; - $ $ $ @ . @ 2 9 A 9.h                                       ",
"                                      i t e ~ e 7 6 1 , , , ; = ; & $ $ # o X + 2 q R 9.h                                       ",
"                                      i a A X.9 7 6 1 , , , ; ; - $ $ $ @ X X + 7 M r.) d                                       ",
"                                    a i d r.9.0 7 6 1 , , , ; ; - $ $ # X X X + 7 J y.R d                                       ",
"                                    a i l t.M 9 7 6 1 , , , ; ; - $ $ # X X X + 7 J y.R d                                       ",
"                                    a a J 9.e 7 7 6 1 , , , ; ; - $ $ # X X X + 7 R y.R d                                       ",
"                                      d ) X.9 7 7 6 1 , , , ; ; - $ $ # X X X + 7 X.u.J d                                       ",
"                                      h r.9.9 7 7 6 1 , , , ; ; = $ $ # X X X + 7 9.r.h a                                       ",
"                                      h r.X.9 7 7 6 1 , , , ; ; = $ $ $ @ X X + 9 9.) a i                                       ",
"                                    f d r.R 9 7 7 6 1 , , , ; ; = $ $ $ # O X $ m y.V a a                                       ",
"                                    Z h r.J 9 7 7 6 1 , , , ; ; = $ $ $ $ # # > X.9.r u a                                       ",
"                                      z r.J 9 7 7 6 1 , , , ; ; = & $ $ $ # & d  .V i i a                                       ",
"                                      ) y.J 9 7 7 6 1 , , , ; ; ; = $ $ $ $ $ ; 8 q u i a                                       ",
"                                      X.y.A 9 7 7 6 1 , , , ; ; ; = = & $ $ $ % 6 9 u i a                                       ",
"                                       . .V 9 7 7 6 < , , , ; ; ; ; ; ; - - - ; 7 t i i                                         ",
"                                      ) ) V 9 7 7 6 < , , , > ; ; ; ; ; ; ; ; > 7 u i i                                         ",
"                                      ) ) V 9 7 7 6 1 , , , , ; ; ; ; ; ; ; ; 4 8 t i i                                         ",
"                                       .) V q 7 7 7 6 < , , , ; ; ; = ; = ; : 6 9 y i                                           ",
"                                       .) J u 8 7 7 7 1 , , , , ; ; = ; ; > 6 8 t i i     5.                                    ",
"                                      5.) R i 9 7 7 7 6 1 , , , ; ; ; - ; 6 7 8 t i a   5.)                                     ",
"                                        ) R a t 8 7 7 7 6 < , , , > ; ; > 6 7 9 y i   5.) =.                                    ",
"                                        ) R a u 9 7 7 7 7 1 , , , , > > 5 7 8 t i d ~ ) )                                       ",
"                                        ) R a i t 8 7 7 7 6 < , , , 1 6 7 7 9 u a V ) )  .                                      ",
"                                        ) R a i u 9 7 7 9 9 1 < < 1 6 7 7 9 t i h R ) =.5.                                      ",
"                                        ) R d i i t 8 9 R ) q 7 8 7 7 8 9 t a h A ) )                                           ",
"                                        ) ) V a i u 9 9 m y.) r z q 8 t u d V R ) ) )                                           ",
"                                        >.) ~ d i i t 9 e A d.9. .M r M z J 9.i.o.) 5.                                          ",
"                                          >.    i i i y y d X. .y.y.r.y.y.g.u.y.) >.                                            ",
"                                          =.5.  i i i i i i d h R 9.u.u.g.y.9.) >.                                              ",
"                                          5.)       i i i i i i d A )  .X. .) >.                                                ",
"                                            =.>.      i i i i i i d V =.  >.                                                    ",
"                                            >.>.      i i i i i i i d                                                           ",
"                                                8.            p                                                                 ",
"                                                +.                                                                              ",
"                                                                                                                                ",
"                                                                                                                                ",
"                                                                                                                                ",
"                                                                                                                                "
};
