/* XPM */
static char *rcp67565240153515790[] = {
/* columns rows colors chars-per-pixel */
"64 64 146 2 ",
"   c None",
".  c #071F2F",
"X  c #081C2A",
"o  c #0A2334",
"O  c #0B273B",
"+  c #0C293E",
"@  c #0D2C42",
"#  c #0D2E48",
"$  c #0D3047",
"%  c #0E314A",
"&  c #0F3751",
"*  c #0F3955",
"=  c #0F3B58",
"-  c #103752",
";  c #103955",
":  c #103C5A",
">  c #134365",
",  c #15466C",
"<  c #15486F",
"1  c #18496D",
"2  c #154971",
"3  c #184F76",
"4  c #175077",
"5  c #185077",
"6  c #17507A",
"7  c #19547D",
"8  c #1A5782",
"9  c #1A5A86",
"0  c #1B5C8B",
"q  c #1C608F",
"w  c #1D6294",
"e  c #1D6699",
"r  c #1E689D",
"t  c #1F6AA2",
"y  c #216EA5",
"u  c #216FA9",
"i  c #2570A7",
"p  c #2373AD",
"a  c #2877AF",
"s  c #2777B1",
"d  c #2476B2",
"f  c #2876B0",
"g  c #2877B1",
"h  c #2578B3",
"j  c #2778B2",
"k  c #2379B7",
"l  c #237AB7",
"z  c #277AB6",
"x  c #2479B5",
"c  c #297AB3",
"v  c #2379B8",
"b  c #237AB9",
"n  c #237AB8",
"m  c #247AB8",
"M  c #247CBA",
"N  c #257CBB",
"B  c #2780BF",
"V  c #2981C2",
"C  c #2884C7",
"Z  c #2985C7",
"A  c #2986C8",
"S  c #2A86C8",
"D  c #2987CB",
"F  c #2A87CB",
"G  c #2987CA",
"H  c #2888CD",
"J  c #2989CD",
"K  c #2A88CD",
"L  c #2989CF",
"P  c #2A89CF",
"I  c #2B8ACF",
"U  c #2A89CE",
"Y  c #2B8AD0",
"T  c #2A8BD0",
"R  c #2A8BD1",
"E  c #2A8CD1",
"W  c #2B8DD3",
"Q  c #2A8DD5",
"!  c #2A8ED4",
"~  c #2B8ED4",
"^  c #2B8ED5",
"/  c #2B8FD5",
"(  c #2C8ED5",
")  c #2D8ED5",
"_  c #2C8FD5",
"`  c #2E8FD5",
"'  c #2B8DD3",
"]  c #2B91D7",
"[  c #2E91D7",
"{  c #2B91D8",
"}  c #2B90D9",
"|  c #2B91D9",
" . c #2B90DB",
".. c #2B91DB",
"X. c #2C90D9",
"o. c #2D90D9",
"O. c #2C91D9",
"+. c #2D91D9",
"@. c #2E92D9",
"#. c #2C91DA",
"$. c #2D91DA",
"%. c #2F92DA",
"&. c #2E92DB",
"*. c #2D92DC",
"=. c #2C93DC",
"-. c #2D93DC",
";. c #2E93DC",
":. c #2D95DE",
">. c #2D95DF",
",. c #2D93DB",
"<. c #3193D7",
"1. c #3093DA",
"2. c #3093DB",
"3. c #3094DB",
"4. c #3294DA",
"5. c #3395DB",
"6. c #3495DB",
"7. c #3195DC",
"8. c #3196DD",
"9. c #3496DC",
"0. c #3295DC",
"q. c #2D95E0",
"w. c #2E95E1",
"e. c #2E95E2",
"r. c #2D96E2",
"t. c #2E96E2",
"y. c #2D96E1",
"u. c #2E98E5",
"i. c #2F9AE7",
"p. c #2F9BE7",
"a. c #2F99E6",
"s. c #2F9AE8",
"d. c #2F9BE9",
"f. c #2E9BEA",
"g. c #2F9BEA",
"h. c #2E9DEA",
"j. c #2F9DEC",
"k. c #2F9CE9",
"l. c #3397E0",
"z. c #3398E0",
"x. c #309CE9",
"c. c #309CEB",
"v. c #309CEB",
"b. c #32A0EE",
"n. c #35A3F3",
"m. c #39A6F3",
/* pixels */
"                                                                                                                                ",
"                                                                                                                                ",
"                                                                                                                                ",
"                                                                                                                                ",
"                                                  6.3.3.3.3.1.9.                                                                ",
"                                                3.O.O.O.O.O.O.O.3.                                                              ",
"                                                8.;.;.;.^ O.O.O.O.) V                                                           ",
"                                                        M I ^ | O.O.T x                                                         ",
"                                                      s p d n T O.;.) d s                                                       ",
"                                                  j p p p p p k I p.p.m p s                                                     ",
"                                                s p p p p p p y e I f.) k p p p                                                 ",
"                                              a p p p p i i y 0 8 e t.j.^ d p p                                                 ",
"                                              p p p p y 0 9 9 8 8 0 S x.p.n p p s                                               ",
"                                              p p p y 0 8 8 8 8 8 8 w I f.T p p p                                               ",
"                                            a p p y 0 8 8 8 8 8 8 8 8 e t.^ e u p a                                             ",
"                                            p p y 0 8 8 8 8 8 8 7 2 7 0 t.t.r u p p                                             ",
"                                            p i 0 0 0 8 8 8 7 2 2 , < 6 Z f.I p p p                                             ",
"                                          s p p e S S 0 8 7 2 , , , , , 8 ;.S w i p f                                           ",
"                                          p d I ^ p.) 0 7 2 , , , , : : < T e 9 y p p   z.                                      ",
"                                        s p k | h.| e 8 7 < , , , : : ; , I w 8 9 y p   8.                                      ",
"                                        p d T f.| e 8 7 2 , , , : = = ; > j 9 8 8 0 i   1.1.                                    ",
"                                      s p n | t.e 8 8 7 < , , , : : : : : > > 7 8 0 i   O.O.                                    ",
"                                      p d E x.>.0 8 7 2 , , , > : : : ; ; ; : 5 9 y p   O.O.                                    ",
"                                      p d ^ f.I 0 8 7 2 , , , : : : * # @ @ % 5 9 y p j ^ O.                                    ",
"                                      p d ] >.e 8 8 7 2 , , , : : ; @ @ @ @ % 5 8 0 y d E O.                                    ",
"                                    j p m t.S 0 8 7 2 , , , , : ; & @ @ @ @ @ 5 8 9 u d E O.                                    ",
"                                      j ^ t.e 8 8 7 2 , , , , : ; @ @ @ @ O O < 8 9 y d E O.                                    ",
"                                      N p.t.0 8 8 7 2 , , , : = ; @ @ @ O . X + 5 9 i n E O.                                    ",
"                                      ;.x.) 0 8 8 7 2 , , , : : ; @ @ + . X X o 3 9 p T O.O.                                    ",
"                                      b.t.e 8 8 8 7 2 , , , : : ; @ @ + . X X o 3 9 p ^ O.8.                                    ",
"                                    l.x.I 0 8 8 8 7 2 , , , : : ; @ @ + . X X o 3 9 p E O.                                      ",
"                                    8.p.k 9 8 8 8 7 2 , , , : : * @ @ + . X X + 5 9 p E ;.                                      ",
"                                    8.t.p 9 8 8 8 7 2 , , , : : ; @ @ + . X o 1 8 9 p E ;.                                      ",
"                                    O.E p 9 8 8 8 7 2 , , , : : ; @ @ + . X o 3 8 9 d ^ ;.                                      ",
"                                  3.` k u 9 8 8 8 7 2 , , , : : ; @ @ + . X o 3 8 0 S O.O.                                      ",
"                                  >.E d y 9 8 8 8 7 2 , , , : : : - @ @ O . o 4 8 0 I O.>.                                      ",
"                                    ) d y 9 8 8 8 8 2 , , , : : : ; @ @ @ + @ 5 8 w E O.                                        ",
"                                  8.^ d y 9 8 8 8 8 2 , , , : : : * @ @ @ @ % 5 0 S p.]                                         ",
"                                  O.^ d y 9 8 8 8 7 2 , , , : : : * @ @ @ @ $ 5 q >.p.m c                                       ",
"                                  O.^ d i 0 8 8 8 7 2 , , , : : : : & @ @ @ % 5 0 >.^ k                                         ",
"                                  O.^ d p y 9 8 8 7 2 , , , : : : : ; ; ; ; : 7 e ;.n p                                         ",
"                                  O.^ x p i 0 0 8 7 2 , , , > : : : : : : : > 9 ^ >.x p                                         ",
"                                  ;.O.  p y w N e 0 7 2 , , , : : : : : : : 6 e ;.N p p                                         ",
"                                    8.  p y w I >.) 0 2 , , , : : : : : : : 9 ) >.k p p                                         ",
"                                    8.    i w Z >.>.0 7 < , , > : : : : : > w ;.N p p                                           ",
"                                    8.    p y e E >.e 8 < , , , > : : : : 9 ^ ;.d p p                                           ",
"                                    8.    p u w Z h.^ 0 2 , , , , , , : : 8 B t i p s                                           ",
"                                    8.    p i 0 e t.t.0 7 2 , , , , , > : > 0 y p p                                             ",
"                                    9.    j p y w T t.e 8 7 < , , , < 2 5 8 y p p p                                             ",
"                                            p u w k t.S 0 7 2 , < 2 7 7 8 0 i p p p                                             ",
"                                              p i d | >.e 8 7 2 7 7 8 9 0 y p p p f                                             ",
"                                              f p d E f.O.w 8 8 8 8 9 y i p p p                                                 ",
"                                                p p k O.p.I w 8 8 9 0 u p p p s                                                 ",
"                                                s p d T | p.D q 0 y y p p p p           m.                                      ",
"                                                  s p d k E t.x p p p p p p p         m.n.                                      ",
"                                                    s p p x ) ) T k p p p s   9.                                                ",
"                                                      p p d ^ O.O.T x k     8.O.6.                                              ",
"                                                      s p s ` O.O.O.) ) O.;.O.<.                                                ",
"                                                              6.O.O.O.O.O.O.1.                                                  ",
"                                                                6.O.O.] ] 3.                                                    ",
"                                                                                                                                ",
"                                                                                                                                ",
"                                                                                                                                ",
"                                                                                                                                "
};
