/* XPM */
static char *rcp47045232153518237[] = {
/* columns rows colors chars-per-pixel */
"64 64 140 2 ",
"   c None",
".  c #081C2B",
"X  c #071F30",
"o  c #0A2334",
"O  c #0C273B",
"+  c #0C293E",
"@  c #0D2C42",
"#  c #0E324C",
"$  c #0F3752",
"%  c #0F3955",
"&  c #0F3B58",
"*  c #103651",
"=  c #103955",
"-  c #103C5A",
";  c #134264",
":  c #15466C",
">  c #15486E",
",  c #18496E",
"<  c #154971",
"1  c #184F76",
"2  c #175077",
"3  c #185077",
"4  c #175179",
"5  c #19547D",
"6  c #1A5682",
"7  c #1A5986",
"8  c #1B5C8B",
"9  c #1C5F90",
"0  c #1D6294",
"q  c #1D6599",
"w  c #1E699F",
"e  c #1F6BA3",
"r  c #216DA4",
"t  c #216FA8",
"y  c #2373AD",
"u  c #2476B2",
"i  c #2877B1",
"p  c #2479B5",
"a  c #267BB9",
"s  c #2479B9",
"d  c #237CBC",
"f  c #247BB9",
"g  c #287CB8",
"h  c #297FBE",
"j  c #2A7EBE",
"k  c #277FC1",
"l  c #2985C7",
"z  c #2987C9",
"x  c #2886CA",
"c  c #2987CB",
"v  c #2986CA",
"b  c #2789CD",
"n  c #2988CC",
"m  c #2989CD",
"M  c #2988CE",
"N  c #2A89CE",
"B  c #2A8ACF",
"V  c #2988CC",
"C  c #2A8AD0",
"Z  c #2A8CD3",
"A  c #2A8DD3",
"S  c #2B8DD3",
"D  c #2D8DD1",
"F  c #2C8CD2",
"G  c #2C8DD3",
"H  c #2A8DD4",
"J  c #2A8DD5",
"K  c #2B8DD5",
"L  c #2B8ED5",
"P  c #2B8ED6",
"I  c #2B8FD6",
"U  c #2B8ED7",
"Y  c #2B8FD7",
"T  c #2D8ED5",
"R  c #2E8ED5",
"E  c #2D8ED6",
"W  c #2C8FD6",
"Q  c #2B8DD4",
"!  c #2C90D7",
"~  c #2C90D7",
"^  c #2B91D9",
"/  c #2A90DA",
"(  c #2B92DA",
")  c #2C90D9",
"_  c #2C91D9",
"`  c #2E91D8",
"'  c #2F91D8",
"]  c #2E91D9",
"[  c #2C91DA",
"{  c #2D91DA",
"}  c #2D92DA",
"|  c #2E92DA",
" . c #2F93DA",
".. c #2E93DB",
"X. c #2F93DB",
"o. c #2C93DD",
"O. c #2D93DD",
"+. c #2C93DE",
"@. c #2E94DF",
"#. c #2D92DB",
"$. c #3894D5",
"%. c #3091D9",
"&. c #3092D9",
"*. c #3193DA",
"=. c #3095DB",
"-. c #3596DB",
";. c #3194DD",
":. c #3294DC",
">. c #3394DC",
",. c #3295DE",
"<. c #3196DE",
"1. c #3596DD",
"2. c #3596DF",
"3. c #3194DB",
"4. c #3896D9",
"5. c #3996DB",
"6. c #2C95E0",
"7. c #2D95E0",
"8. c #2D95E1",
"9. c #2E96E1",
"0. c #2D96E2",
"q. c #2E97E3",
"w. c #2E96E1",
"e. c #2E99E5",
"r. c #2D99E6",
"t. c #2F99E7",
"y. c #2E9AE7",
"u. c #2F9AE7",
"i. c #2D9BE9",
"p. c #2F9BE9",
"a. c #2F9BEA",
"s. c #2E9BEB",
"d. c #2E9CEB",
"f. c #2F9CEB",
"g. c #2F9CEC",
"h. c #2F9CEA",
"j. c #3098E4",
"k. c #309AE8",
"l. c #309AE8",
"z. c #3DA5ED",
/* pixels */
"                                                                                                                                ",
"                                                                                                                                ",
"                                                                                                                                ",
"                                                            4.                                                                  ",
"                                                  4.-.1.*.X.X.*.*.<.                                                            ",
"                                                        <.X.X.X.X.X.*.                                                          ",
"                                                              X.X.X.X.                                                          ",
"                                                          i u B J X.X.T j                                                       ",
"                                                    i y y y y u p C X.X.T                                                       ",
"                                                  i y y y y y y y f J / J g                                                     ",
"                                                i y y y y y y y y u T +.J u y                                                   ",
"                                                y y y y r 8 8 r r 8 q O./ u y y                                                 ",
"                                              i y y r 8 7 6 6 7 7 6 8 T t.d y y                                                 ",
"                                              y y y 8 6 6 6 6 6 6 6 6 q ! q.a y i                                               ",
"                                              y y r 7 6 6 6 6 6 5 5 6 6 q q.J y y y                                             ",
"                                            i y r 8 8 8 6 6 6 6 < < 5 6 8 q.q.r y y                                             ",
"                                          i y y 0 q T F 8 6 6 5 > > 5 6 8 J s.B u y                                             ",
"                                        i y y p c J t.b 8 5 < > : : < 4 8 A f.J u y i                                           ",
"                                        y y u B +.t.B 0 6 < : : : : : ; 7 c s.J u y y                                           ",
"                                        y y p / s.J 0 6 5 > : : : ; - - 3 q q.J y y y     1.                                    ",
"                                        y u A f.f.c 8 5 < : : : - - & - - 7 +.c 0 y y     <.                                    ",
"                                      i y f j.g.B 0 6 5 > : : : - - - - - > B q 7 r y y   <.                                    ",
"                                      y p J t.B 0 6 5 < : : : : - - - = = ; a 8 6 8 y y   <.                                    ",
"                                      p F k.J 0 6 6 5 < : : : - - & - * @ # 5 6 6 7 r i F X.                                    ",
"                                      a q.s.l 8 6 6 5 < : : : - - - $ @ @ @ # 1 6 6 8 y A X.                                    ",
"                                      k t.J 0 6 6 6 5 < : : : - - = @ @ @ @ + # 2 7 r u A X.*.                                  ",
"                                      X.t.c 8 6 6 5 < : : : : - - $ @ @ @ O . o 2 7 t u A X.X.                                  ",
"                                    <.+.X.q 6 6 6 5 < : : : - & = @ @ @ O . . o 1 7 t u J X.X.                                  ",
"                                    X.J i 7 6 6 6 5 < : : : - - = @ @ + X . . o 1 7 r u J X.<.                                  ",
"                                  <./ C y 7 6 6 6 5 < : : : - - = @ @ + . . . o 1 6 8 y J X.                                    ",
"                                  X.J f y 7 6 6 6 5 < : : : - - = @ @ + . . . o 1 6 8 y J X.                                    ",
"                                  X.J u r 7 6 6 6 5 < : : : - - % @ @ + . . . + 4 7 r f J X.                                    ",
"                                <.X.C u r 7 6 6 6 5 < : : : - - % @ @ + . . o , 6 7 y C X.X.                                    ",
"                                *.J p y r 7 6 6 6 5 < : : : - - % @ @ + . . o 1 6 7 y A X.X.                                    ",
"                                *.J u y t 7 6 6 6 5 < : : : - - % @ @ + . . o 1 6 7 y A X.<.                                    ",
"                                X.+.  y t 7 6 6 6 5 < : : : - - = @ @ @ O . o 3 6 7 y A X.                                      ",
"                                *.+.  y t 7 6 6 6 5 < : : : - - - $ @ @ @ + @ 4 6 7 u J X.                                      ",
"                                  <.  y t 7 6 6 6 6 < : : : - - - % @ @ @ @ # 4 6 8 ! +.<.                                      ",
"                                  <.  y t 7 6 6 6 6 < : : : - - - % @ @ @ @ # 4 6 q O.O.                                        ",
"                                  <.  y y 8 6 7 6 5 < : : : - - - % @ @ @ # 1 6 8 c s.O.                                        ",
"                                  <.    y r 0 g q 6 5 < : : ; - - - = = = - 5 6 8 O.f.O.                                        ",
"                                  <.    y r 0 C T 8 5 < : : : - - - - - - - 5 6 q q.+.T                                         ",
"                                  <.    y r 0 A O.9 5 < : : : - - - - - - ; 5 8 T s.J j                                         ",
"                                  1.    y r 0 F q.q 6 5 > : : ; - - - - - 3 6 q q.F g                                           ",
"                                        i y 0 c k.c 8 5 > : : : - & - - ; 5 q J q.a y                                           ",
"                                          y r w O.q.9 5 < : : : ; - - - 2 q X.t.g y y                                           ",
"                                          y y y / O.0 6 5 > : : : : : ; 7 / g.q.p y y                                           ",
"                                          u y u A O.8 6 5 < : : : : > 4 8 q.O.a y y i                                           ",
"                                            y y a X.q 6 6 5 < : : : < 5 8 c e y y y                                             ",
"                                            y y p q.T 8 6 6 5 < > < 5 6 6 0 r y y                                               ",
"                                              y u J q.q 6 6 6 6 5 5 6 6 7 r y y y                                               ",
"                                              y y a q.B 0 6 6 6 6 6 7 7 8 y y y y                                               ",
"                                              i y u J t.c 8 6 6 6 8 r t t y y y                                                 ",
"                                                y y f O.J 0 7 7 8 r y y y y y i                                                 ",
"                                                  y y d X.p y y t y y y y i                                                     ",
"                                                  i y u J q.A f y y y y y                                                       ",
"                                                    y y p T X.C u y y y y           z.                                          ",
"                                                          k J J f u u u   <.X.*.                                                ",
"                                                          *.X.X.J J J T X.X.X.*.                                                ",
"                                                            *.X.X.X.X.X.X.X.*.                                                  ",
"                                                                *.X.X.X.*.                                                      ",
"                                                                  $.                                                            ",
"                                                                                                                                ",
"                                                                                                                                "
};
