/* XPM */
static char *ff95271b52424881e10a740c97d3059fytyDsDpT6G7fTurS[] = {
/* columns rows colors chars-per-pixel */
"64 64 142 2 ",
"   c None",
".  c #071C2B",
"X  c #081E2C",
"o  c #08202F",
"O  c #072031",
"+  c #092335",
"@  c #09253A",
"#  c #0D2A3E",
"$  c #0D2D43",
"%  c #0D2F48",
"&  c #0F324C",
"*  c #0E3651",
"=  c #113753",
"-  c #123956",
";  c #123C5B",
":  c #134263",
">  c #15476A",
",  c #15496E",
"<  c #164B71",
"1  c #1A4F74",
"2  c #195077",
"3  c #1A537C",
"4  c #1A5782",
"5  c #1B5984",
"6  c #1B5D8B",
"7  c #1C5F90",
"8  c #1C608F",
"9  c #1C6294",
"0  c #1D669A",
"q  c #1C689E",
"w  c #1E6DA4",
"e  c #216EA5",
"r  c #2774A7",
"t  c #2B73A5",
"y  c #2374AC",
"u  c #2974AA",
"i  c #2E79AE",
"p  c #2275B0",
"a  c #2977B1",
"s  c #2479B4",
"d  c #2A7BB4",
"f  c #247CBB",
"g  c #2A7EBA",
"h  c #2880C0",
"j  c #2B87CA",
"k  c #2C89CB",
"l  c #2A89CD",
"z  c #2B8ACC",
"x  c #2A8ACE",
"c  c #2C89CD",
"v  c #2D89CC",
"b  c #2D8BCE",
"n  c #2B89CC",
"m  c #348DCC",
"M  c #3D8FC9",
"N  c #3C8FCC",
"B  c #3B8FCD",
"V  c #3A90CE",
"C  c #3890CF",
"Z  c #2B8CD1",
"A  c #2B8DD1",
"S  c #2B8DD3",
"D  c #2C8CD3",
"F  c #2B8ED5",
"G  c #2B8FD5",
"H  c #2D8FD6",
"J  c #2C8FD7",
"K  c #2E8FD6",
"L  c #2C8ED5",
"P  c #2C8FD8",
"I  c #318ED1",
"U  c #318ED0",
"Y  c #308FD3",
"T  c #2B90D7",
"R  c #2C90D6",
"E  c #2C90D7",
"W  c #2E91D7",
"Q  c #2C90D7",
"!  c #2B90D8",
"~  c #2B90D9",
"^  c #2B91DA",
"/  c #2C92D9",
"(  c #2D92D9",
")  c #2F93D8",
"_  c #2E93D9",
"`  c #2C91DA",
"'  c #2D91DA",
"]  c #2D92DA",
"[  c #2D93DA",
"{  c #2E93DA",
"}  c #2E92DB",
"|  c #2E93DB",
" . c #2F93DB",
".. c #2B92DC",
"X. c #2C93DC",
"o. c #2D93DC",
"O. c #2C93DD",
"+. c #2D93DD",
"@. c #2E93DD",
"#. c #2D93DF",
"$. c #2D96DF",
"%. c #2D93DB",
"&. c #3790D0",
"*. c #3391D5",
"=. c #3391D6",
"-. c #3391D7",
";. c #3092D7",
":. c #3292D7",
">. c #3491D4",
",. c #3890D0",
"<. c #3890D1",
"1. c #3890D0",
"2. c #3192D9",
"3. c #3092DA",
"4. c #3093DB",
"5. c #3093DA",
"6. c #2E95E0",
"7. c #2D97E1",
"8. c #2D96E2",
"9. c #2E97E2",
"0. c #2F97E2",
"q. c #2D97E4",
"w. c #2E97E1",
"e. c #2D9BE7",
"r. c #2F9BE7",
"t. c #2E99E4",
"y. c #2F9BE9",
"u. c #2E9CEA",
"i. c #2F9DEB",
"p. c #2F9EED",
"a. c #2F9EEE",
"s. c #2F9EEB",
"d. c #3098E1",
"f. c #309AE4",
"g. c #309CE8",
"h. c #309DEB",
"j. c #309DEC",
"k. c #309EEC",
"l. c #309CEA",
"z. c #30A1F1",
"x. c #408EC7",
"c. c #489AD6",
/* pixels */
"                                                                                                                                ",
"                                                                                                                                ",
"                                                                                                                                ",
"                                                            N                                                                   ",
"                                                  M <.<.2.) ) ) 2.*.                                                            ",
"                                                        *.2.@.) @.) C                                                           ",
"                                                              *.@.@.*.                                                          ",
"                                                          t i A E @.@.U i                                                       ",
"                                                    y y y y y s f A ) ) U                                                       ",
"                                                  t p p p p p y p f ..@.J i                                                     ",
"                                                u y y p y y y p y p ) 8.E s t                                                   ",
"                                                y y y y e 6 6 e e 6 q 8.) s y u                                                 ",
"                                              t y y e 6 5 4 4 6 6 4 6 E r.f y y                                                 ",
"                                              u y y 6 4 4 4 4 4 4 4 5 0 ) 8.f y t                                               ",
"                                              y y e 5 4 4 4 4 4 4 4 4 5 q 8.J p y t                                             ",
"                                            u y e 6 6 6 5 4 4 4 < < 4 4 9 8.d.w y y                                             ",
"                                          t p y 9 0 ! T 6 4 4 3 < < 3 4 6 J k.A s y                                             ",
"                                        t y y f k E i.x 6 3 < , , , < 3 6 J p.) s y t                                           ",
"                                        y p s D 8.y.c 9 4 < , , , , > : 6 k k.) s y u                                           ",
"                                        y p f @.g.! 9 4 3 < , , , > ; ; 3 0 q.) p p u     x.                                    ",
"                                        r s J p.k.j 6 3 < , , , ; ; ; ; : 5 #.x 9 y u     &.                                    ",
"                                      t y f r.k.c 0 4 3 , , , > ; ; ; ; - < c q 5 e y t   <.                                    ",
"                                      u f J g.x 9 4 4 < , , , > ; ; ; ; - : g 6 4 6 y y   <.                                    ",
"                                      a J i.! 0 5 4 4 < , , , ; ; ; ; = % & 3 5 4 6 e s U *.                                    ",
"                                      d r.i.j 6 4 4 4 < , < > ; ; ; - % $ $ & 1 4 5 9 p E )                                     ",
"                                      g r.! 9 5 4 5 3 < , , > ; ; - % $ $ $ # & 3 5 w s T @.C                                   ",
"                                      *.i.x 6 4 4 4 < , , , > ; - = % $ $ # O @ 3 6 y s J @.*.                                  ",
"                                    &.#.2.0 5 4 4 4 < , , , ; ; - % $ $ # o . + 2 6 y s J @.*.                                  ",
"                                    ) ) s 5 4 4 4 4 < , , > ; ; - % $ # o . . + 2 5 e s J @.B                                   ",
"                                  B 2.D y 5 4 4 4 4 < , , > ; ; - % $ # X X . + 3 4 6 p P )                                     ",
"                                  *.J f y 6 4 4 4 4 < , , > ; ; - % $ # X X . + 3 4 6 y J 2.                                    ",
"                                  *.J s y 6 4 4 4 4 < , , > ; ; - % $ # X X X # 3 6 e f ! )                                     ",
"                                *.@.D s y 6 4 4 4 3 < , , > ; ; - % $ # X . + < 4 6 y J @.2.                                    ",
"                                2.! f p y 6 4 4 4 3 < , , > ; ; - % $ # X . + 3 5 6 p P @.2.                                    ",
"                                2.) i y y 6 4 4 4 4 < , , > ; ; - % $ # O . + 3 5 6 p J 2.&.                                    ",
"                                2.)   u y 6 4 4 4 4 < , , > ; ; - % $ $ # O @ 2 4 5 p ) *.                                      ",
"                                &.*.  u y 6 4 4 4 4 < , , > ; ; ; = % $ $ # % 3 4 6 s ! *.                                      ",
"                                  &.  u y 6 4 4 4 4 < , , > ; ; ; - % $ $ $ & 3 4 7 ) #.&.                                      ",
"                                  &.  u y 6 4 4 5 4 < , , > ; ; ; - % $ # # * 3 5 0 w.4.                                        ",
"                                  &.  u y 6 5 6 5 4 < , , , ; ; ; - % % $ & 1 4 6 k i.4.                                        ",
"                                  &.    y e 9 h 9 5 3 < , , > ; ; ; - - - ; 3 4 8 #.p.#.                                        ",
"                                  C     y y 9 D E 9 4 < , , > ; ; ; ; ; ; ; 3 5 q w.8.J                                         ",
"                                  C     y y 9 D 8.8 3 < , , , ; ; ; ; ; ; : 3 6 ) g.D d                                         ",
"                                  N     y y 9 J w.0 4 3 < , , > ; ; ; ; ; 3 4 0 w.! d                                           ",
"                                        t y 9 k i.x 6 3 < , , , ; ; ; ; : 3 0 ) 8.f u                                           ",
"                                          y e w r.8.9 4 < , , , > ; ; ; 3 0 ) i.f p u                                           ",
"                                          u p p @.8.9 4 3 , , , , > > : 6 E z.8.s p u                                           ",
"                                          u p s J 8.8 4 4 < , , , , < 3 9 r.#.f y p t                                           ",
"                                            y y f O.0 5 4 3 < , , , < 4 9 k e y y u                                             ",
"                                            t y f f.) 6 4 4 3 < < < 3 4 5 9 y y u                                               ",
"                                              u s T 8.0 4 4 4 4 4 4 4 4 5 e y y u                                               ",
"                                              u y f r.x 9 4 4 5 4 4 6 5 6 y p y t                                               ",
"                                              t y s T l.j 6 4 4 4 6 e y y y p y                                                 ",
"                                                t y f 8.J 9 5 6 6 e y y p y u u                                                 ",
"                                                  y p f #.f p y y y p p y t                                                     ",
"                                                  u y s J w.J f p y y p u                                                       ",
"                                                    t u d J O.D s y y y t           c.                                          ",
"                                                          g ) ) f s s s   <.*.&.                                                ",
"                                                          m ) @.E J J T ) @.) &.                                                ",
"                                                            *.2.@.@.@.@.@.) &.                                                  ",
"                                                                *.2.*.*.C                                                       ",
"                                                                  B                                                             ",
"                                                                                                                                ",
"                                                                                                                                "
};
