/* XPM */
static char *rcp17882232153525660[] = {
/* columns rows colors chars-per-pixel */
"64 64 139 2 ",
"   c None",
".  c #081C2B",
"X  c #092234",
"o  c #0C273C",
"O  c #0C293D",
"+  c #0D2B42",
"@  c #0E314A",
"#  c #0F3651",
"$  c #0F3955",
"%  c #0F3C5A",
"&  c #103652",
"*  c #103A55",
"=  c #103C5A",
"-  c #113F60",
";  c #134264",
":  c #15466C",
">  c #15486E",
",  c #154971",
"<  c #185077",
"1  c #16507B",
"2  c #19547D",
"3  c #195682",
"4  c #1A5986",
"5  c #1B5D8B",
"6  c #1C5F90",
"7  c #1C608F",
"8  c #1D6394",
"9  c #1D6599",
"0  c #20699E",
"q  c #216DA5",
"w  c #216FA8",
"e  c #2370A7",
"r  c #2273AD",
"t  c #2476B2",
"y  c #2877B2",
"u  c #2479B6",
"i  c #287BB6",
"p  c #257BBA",
"a  c #297CB9",
"s  c #257FC1",
"d  c #2580C1",
"f  c #2884C6",
"g  c #2884C4",
"h  c #2986C9",
"j  c #2A87C9",
"k  c #2987CB",
"l  c #2A89CE",
"z  c #298ACF",
"x  c #2A8ACF",
"c  c #2B8ACF",
"v  c #2A89CC",
"b  c #2A8BD1",
"n  c #2A8BD2",
"m  c #2B8BD2",
"M  c #2A8CD1",
"N  c #2A8CD2",
"B  c #2A8CD3",
"V  c #2A8DD3",
"C  c #2B8DD3",
"Z  c #2A8DD4",
"A  c #2B8DD4",
"S  c #2B8DD5",
"D  c #2B8ED4",
"F  c #2A8ED5",
"G  c #2B8FD7",
"H  c #2C8CD5",
"J  c #2C8ED4",
"K  c #2C8ED5",
"L  c #2D8FD5",
"P  c #2E8ED4",
"I  c #2C8FD7",
"U  c #2B8DD4",
"Y  c #2C8FD8",
"T  c #2E90D5",
"R  c #2E91D7",
"E  c #2C90D6",
"W  c #2B93DB",
"Q  c #2C91D9",
"!  c #2D91D9",
"~  c #2E92D9",
"^  c #2C92DA",
"/  c #2D92DB",
"(  c #2F92DA",
")  c #2F93DA",
"_  c #2F93DB",
"`  c #2C93DC",
"'  c #2E93DC",
"]  c #2D92DE",
"[  c #2F94DC",
"{  c #2F94DD",
"}  c #2D94DE",
"|  c #2D93DB",
" . c #3293D5",
".. c #3193D8",
"X. c #3192DB",
"o. c #3193DB",
"O. c #3395D9",
"+. c #3194DA",
"@. c #3095DA",
"#. c #3394DB",
"$. c #3395DB",
"%. c #3093DC",
"&. c #3094DC",
"*. c #3194DC",
"=. c #3195DC",
"-. c #3194DD",
";. c #3294DC",
":. c #3295DD",
">. c #3296DD",
",. c #3096DF",
"<. c #3397DE",
"1. c #3397DF",
"2. c #3597DC",
"3. c #3597DD",
"4. c #3496DE",
"5. c #3295DB",
"6. c #3895D8",
"7. c #3798DC",
"8. c #2E96E0",
"9. c #2E97E3",
"0. c #2E98E5",
"q. c #2E99E6",
"w. c #2E9AE6",
"e. c #2F99E5",
"r. c #2F9BEA",
"t. c #2F9CE9",
"y. c #2F9CEA",
"u. c #2F9DEA",
"i. c #2F9CEB",
"p. c #2F9DEB",
"a. c #2F9BEA",
"s. c #3096E0",
"d. c #3096E0",
"f. c #3199E4",
"g. c #3099E6",
"h. c #309BE9",
"j. c #309CEA",
"k. c #319DEC",
"l. c #309CEB",
/* pixels */
"                                                                                                                                ",
"                                                                                                                                ",
"                                                                                                                                ",
"                                                                                                                                ",
"                                                                      7.O.                                                      ",
"                                                                        O.                                                      ",
"                                                            y r r r r   ,.O.                                                    ",
"                                                        y r r r r r r     ^ o.                                                  ",
"                                                    y r r r r r r r r r   J T                                                   ",
"                                                  y r r r r r r r r r r r p G O.                                                ",
"                                                y r r r r w w w w e r r r t G ^                                                 ",
"                                                r t t t q 5 4 4 4 5 q r r t z ^ O.                                              ",
"                                              a u z V h 9 5 3 3 3 3 5 q r r u G o.                                              ",
"                                            ,.G G ] ] ^ V h 9 3 3 3 3 5 q r t J o.                                              ",
"                                            ,.t.t.t.t.t.t.t.J 5 3 3 3 3 5 w t G ^ O.                                            ",
"                                        ,.f.j.0.G V V b b b f 4 2 2 2 2 4 q t G ^ ^                                             ",
"                                        J s z u 8 5 5 5 5 4 1 > > > > , 2 4 q z 0.s.                                            ",
"                                      ,.z t t q 4 3 3 3 2 , : : : : : : ; 2 4 9 8.j.2.                                          ",
"                                    ,.G u r e 5 3 3 3 3 2 > : : : : ; = = 2 3 5 G t.,.                                          ",
"                                    %.J t r q 4 3 3 3 3 , : : : : = % % = ; < 5 b r.}                                           ",
"                                  ,.]   y e 5 3 3 3 3 2 > : : : = = = = = = ; 4 V r.}                                           ",
"                                  ^ ^   r w 4 3 3 3 2 , : : : = % = = = = = = 4 V r.}                                           ",
"                                  ^ T y r w 4 3 3 3 2 > : : : = * = = % % * = 4 V t.^                                           ",
"                                  ,.  r r w 4 3 3 3 2 , : : : = = = = & + + * 4 V t.J i                                         ",
"                                  ,.  r r q 4 3 3 3 2 > : : : = = % # + + + @ 3 } k.b u                                         ",
"                                2.    r e 5 3 3 3 3 2 > : : : = = % + + + + + = ^ h.p r                                         ",
"                                2.    r w 4 3 3 3 2 , : : : % % * # + + + + o & ^ 0.t r                                         ",
"                                      r w 4 3 3 3 2 , : : : = * * + + + + o . + J G 9 e y                                       ",
"                                      r w 4 3 3 3 2 , : : : = * * + + + o . . + J V 8 q t                                       ",
"                                    y r w 4 4 3 3 2 , : : : = = * + + O . . . + J m 8 w t                                       ",
"                                    y r q 6 a 5 3 2 , : : : = = * + + O . . . O g G r r t                                       ",
"                                    t e 5 5 g 5 3 2 , : : : = = * + + O . . . . # u t r t                                       ",
"                              6.    y w 4 8 f 5 3 2 , : : : = = * + + O . . . . X 3 e r t                                       ",
"                              O.      q 8 h ^ 6 3 2 , : : : = = * + + O . . . . o 2 e r t                                       ",
"                              2.      e 8 V } 6 3 2 , : : : = = * + + + o . . X > 4 q r r   2.                                  ",
"                                      e 9 V } 5 3 2 , : : : = = = & + + + o . X < 3 5 w r   ,.                                  ",
"                                      r r G } 7 3 2 , : : : = = = % + O O O O + 2 3 4 q y   ,.                                  ",
"                                      r t Y } 7 3 2 , : : : = = = % + + + + + @ 2 3 5 e   s.^                                   ",
"                                      r t Y } 7 3 2 , : : : = = = = # + + + + @ 2 5 q r   ] ^                                   ",
"                                      r t J } 5 3 2 , : : : ; = * = = % + + @ , 4 0 r t J ^ ^                                   ",
"                                      r t G } 5 3 2 , : : : : = * = = = * * = 2 3 6 e u G ^ ,.                                  ",
"                                      y t G } 7 3 3 2 , : : : = = = = = = = = 2 4 q y b ^ ^                                     ",
"                                        u G } 7 3 3 2 > : : : ; = = = = = = ; 2 4 q y G ^ ^                                     ",
"                                        u G } 7 3 3 2 , : : : : = = = = = = < 3 5 e u V ^ ,.                                    ",
"                                        u V } 5 3 3 3 2 > : : : = = = = = = 2 4 q t z ^ ^                                       ",
"                                        t u ^ 9 3 3 3 2 , : : : : = = = = ; 2 5 e u G ^ ,.                                      ",
"                                        y u 0.k 5 3 3 3 2 , : : : ; = = - 2 4 q u b ^ ^                                         ",
"                                          p 0.} 5 3 3 3 3 2 , : : : ; ; 2 4 q t V ] ^ ,.                                        ",
"                                          a G } 5 3 3 3 3 3 , : : : , 2 3 8 f d 0.r.}                                           ",
"                                            p ^ 9 4 3 3 3 3 2 , > , 2 5 9 k } f.r.} O.                                          ",
"                                            p G k q 4 3 3 3 3 4 5 5 9 h G t.p.j.} O.                                            ",
"                                             .^ G r 5 3 3 3 5 f m V 8.k.j.p.t.} ,.                                              ",
"                                              o.G t q 5 3 3 5 k 8.0.r.0.^ J ^ O.                                                ",
"                                              O.G t r q 5 4 5 r u u u u u u v                                                   ",
"                                              ,.G u r r e q e r r r r r r r i                                                   ",
"                                                ^ b u r r r r r r r r r r y                                                     ",
"                                                O.^   r r r r r r r r r r                                                       ",
"                                                  o.J u r r r r r r r                                                           ",
"                                                  o.^ T         r r                                                             ",
"                                                  O.^ ^ } ,.                                                                    ",
"                                                    O.^ ^ ^ O.                                                                  ",
"                                                        ,.^ ..                                                                  ",
"                                                                                                                                ",
"                                                                                                                                "
};
