/* XPM */
static char *rcp57004008153522998[] = {
/* columns rows colors chars-per-pixel */
"64 64 145 2 ",
"   c None",
".  c #071A29",
"X  c #081C2A",
"o  c #071F30",
"O  c #091F30",
"+  c #092334",
"@  c #0B273B",
"#  c #0C293D",
"$  c #0D2C42",
"%  c #0E334D",
"&  c #0F3752",
"*  c #0F3955",
"=  c #0F3B59",
"-  c #103752",
";  c #103A56",
":  c #103C5A",
">  c #134264",
",  c #15466C",
"<  c #15486F",
"1  c #154971",
"2  c #184F76",
"3  c #185077",
"4  c #175178",
"5  c #19547D",
"6  c #1A5682",
"7  c #1B5A86",
"8  c #1B5D8B",
"9  c #1B5F90",
"0  c #1C608F",
"q  c #1D6294",
"w  c #1D6699",
"e  c #1E689D",
"r  c #206A9F",
"t  c #1F6BA2",
"y  c #216EA5",
"u  c #216FA8",
"i  c #2373AD",
"p  c #2876AE",
"a  c #2476B2",
"s  c #2478B6",
"d  c #2979B0",
"f  c #247BBA",
"g  c #287CB8",
"h  c #297EBC",
"j  c #2A81BF",
"k  c #2780C0",
"l  c #2885C7",
"z  c #2983C4",
"x  c #2885C8",
"c  c #2986C9",
"v  c #2987CA",
"b  c #2A86CA",
"n  c #2986C9",
"m  c #2A88CA",
"M  c #2A8ACF",
"N  c #2C8ACE",
"B  c #2A8AD0",
"V  c #2A8BD1",
"C  c #2B8CD0",
"Z  c #2B8CD2",
"A  c #2B8CD3",
"S  c #2B8DD3",
"D  c #2C8DD3",
"F  c #2A8DD4",
"G  c #2A8ED5",
"H  c #2B8ED5",
"J  c #2B8ED6",
"K  c #2B8FD6",
"L  c #2B8FD7",
"P  c #2C8ED4",
"I  c #2D8ED5",
"U  c #2D8FD5",
"Y  c #2C8ED6",
"T  c #2C8FD6",
"R  c #2C8FD7",
"E  c #2F8FD6",
"W  c #2B8DD3",
"Q  c #2B8FD9",
"!  c #2B90D7",
"~  c #2C90D6",
"^  c #2C90D7",
"/  c #2C90D7",
"(  c #2B92DA",
")  c #2C90D8",
"_  c #2C90D9",
"`  c #2C91D9",
"'  c #2E91D9",
"]  c #2D92D9",
"[  c #2F92D9",
"{  c #2F93D9",
"}  c #2C91DA",
"|  c #2E91DA",
" . c #2C92DA",
".. c #2E92DB",
"X. c #2F92DB",
"o. c #2E93DB",
"O. c #2C92DC",
"+. c #2D93DC",
"@. c #2C94DE",
"#. c #2D94DE",
"$. c #2D94DF",
"%. c #2D95DF",
"&. c #2E95DF",
"*. c #2D92DB",
"=. c #3290D4",
"-. c #3093D8",
";. c #3193D9",
":. c #3093DA",
">. c #3193DA",
",. c #3093DB",
"<. c #3193DB",
"1. c #3493DB",
"2. c #3194DA",
"3. c #3095DA",
"4. c #3294DA",
"5. c #3395DA",
"6. c #3494D9",
"7. c #3696DB",
"8. c #3194DC",
"9. c #3195DC",
"0. c #3295DD",
"q. c #3195DE",
"w. c #3294DB",
"e. c #3B9ADB",
"r. c #2C95E0",
"t. c #2D95E0",
"y. c #2D96E1",
"u. c #2E97E3",
"i. c #2E96E2",
"p. c #2F99E7",
"a. c #2F98E4",
"s. c #2F9BE8",
"d. c #2F9BEA",
"f. c #2E9DEA",
"g. c #2F9DEB",
"h. c #2F9EEC",
"j. c #2F9BE9",
"k. c #3299E3",
"l. c #309CEA",
"z. c #319CEA",
"x. c #309CEB",
"c. c #379FEC",
"v. c #319DEB",
"b. c #36A2EE",
"n. c #37A3F1",
/* pixels */
"                                                                                                                                ",
"                                                                e.                                                              ",
"                                                                  7.                                                            ",
"                                                                  7.8.                                                          ",
"                                                                    4.,.8.                                                      ",
"                                                                      4.X.                                                      ",
"                                                          a i i i p     X.,.                                                    ",
"                                                        i i i i i i i   Y X.,.                                                  ",
"                                                    a i i i i i i i i i s H X.                                                  ",
"                                                  a i i i i i i i i i i a H X.4.                                                ",
"                                                i i i i i y 9 y u u u i a M X.X.                                                ",
"                                              p i i i y 8 7 6 7 7 7 8 u i s H X.1.                                              ",
"                                              i i a i q 6 6 6 6 6 6 7 y i a M X.,.                                              ",
"                                            a a s B Y v w 8 7 6 6 6 6 8 y i f ^ ,.                                              ",
"                                            f B ! &.x.d.u.D 8 6 6 6 6 6 7 9 l a.^ j                                             ",
"                                            ,.d.f.h.x.u.&.v 8 6 6 5 5 6 6 6 w u.&.Y                                             ",
"                                          c.x.f.u.&.A v q 7 5 1 < < 1 5 6 6 8 H d.,.                                            ",
"                                        8.+.+.A l q 8 8 6 1 < , , , , 1 4 6 6 w u.^ g                                           ",
"                                      8.H X.m q 8 6 6 6 5 < , , , , , > > 4 5 8 &.Y s                                           ",
"                                      Y f v i 7 6 6 6 6 1 , , , , > : : : > 5 q &.H s                                           ",
"                                    8.Y a i 8 6 6 6 6 5 < , , , , : = = ; : 2 8 &.Y s                                           ",
"                                    X.B a y 7 6 6 6 6 1 , , , , : : : : : : : 7 &.Y a i                                         ",
"                                  8.Y f i u 7 6 6 6 5 < , , , , : : ; * * ; * < ( ! a i                                         ",
"                                  X.X.  i u 7 6 6 6 5 1 , , , , : : ; - $ $ $ > X.Y i i i                                       ",
"                                  X.H s i y 7 6 6 6 5 1 , , , : : ; ; $ $ $ $ : ^ A q y i                                       ",
"                                4.X.Y a i 8 6 6 6 6 5 1 , , , : : : & $ $ $ @ - ^ A q y a                                       ",
"                                X.X.  i y 7 6 6 6 5 1 , , , = = : * $ $ $ @ X $ Y A q y i                                       ",
"                                X.+.  i y 7 6 6 6 5 1 , , , = = = & $ $ # o . $ D ^ i i i                                       ",
"                                X.8.  i y 7 6 6 6 5 1 , , , : : * $ $ $ @ X . # s v i i i     7.                                ",
"                                7.    i u 7 6 6 6 5 1 , , , : : * $ $ # X X . X $ 6 q i i     ,.                                ",
"                                    a i y 7 6 6 6 5 1 , , , : : * $ $ # X . . X @ 5 r i i     ,.                                ",
"                                    a i u 7 7 6 6 5 1 , , , : : * $ $ # X . . + < 6 8 u i   8.X.                                ",
"                                    i i y q f 8 6 5 1 , , , : : ; $ $ # X . . + 3 6 7 y i   X.X.                                ",
"                                    a i y q D w 6 5 1 , , , : : * $ $ # X X . + 2 6 7 y i   +.,.                                ",
"                                      i y q X.k 7 5 1 , , , : : ; $ $ $ @ X . + 2 6 8 u a D X.                                  ",
"                                7.    i y q Y t 7 5 1 , , , : : : - $ $ # O X + 2 7 y i s H X.                                  ",
"                                4.    i u e &.v 8 5 1 , , , : : : * $ $ $ # # $ 4 7 u a M X.X.                                  ",
"                                4.    i a M d.A 8 5 1 , , , : : : * $ $ $ $ $ % 4 7 y a H X.X.                                  ",
"                                7.    i a A f.H 8 5 1 , , , : : : : & $ $ $ $ 2 6 7 y a H X.X.                                  ",
"                                      i i s a.&.9 5 1 , , , > : : : : * $ $ % 4 6 7 u a H X.4.                                  ",
"                                      a i a X.u.9 5 1 , , , , : : : ; ; ; ; : 5 6 8 i s H X.                                    ",
"                                        i a Q &.9 6 5 1 , , , : : ; * : : : > 5 7 y a B X.4.                                    ",
"                                        i a Q &.9 6 5 < , , , > : ; : : : : 3 6 7 u s H X.                                      ",
"                                        i a Q &.9 6 5 1 , , , , : : : : : : 5 6 8 i A X.X.                                      ",
"                                        i a Q &.9 6 6 5 1 , , , > : : : : : 5 8 y f u.+.8.                                      ",
"                                          s A &.9 6 6 6 5 1 , , , : : : : : 5 r s u.x.8.                                        ",
"                                          i s X.w 6 6 6 6 5 < , , , , > : > 5 w A d.8.                                          ",
"                                          s s u.v 8 6 6 6 6 1 , , , , 1 4 7 w X.d.+.X.                                          ",
"                                          N f a.H 8 6 6 6 6 5 < , < 1 5 w X.u.v.f.X.4.                                          ",
"                                            f a.&.8 6 6 6 6 5 1 1 5 8 w X.v.x.&.X.4.                                            ",
"                                            g H &.w 6 6 6 6 6 6 5 q ^ u.x.d.+.Y 4.                                              ",
"                                              h H v 0 6 6 6 6 6 8 D u.X.B f v f                                                 ",
"                                              =.X.A i   7 6 6 6 q z t i a i a i d                                               ",
"                                                X.H s a y 8 7 8 y i i i i i i i                                                 ",
"                                                ,.X.B a i i u u i i i i i i a                                                   ",
"                                                4.X.H a i i i i i i i i i i                                                     ",
"                                                  X.u.f i i i i i i i i i                                                       ",
"                                                  8.d.l.  i i i i i i i                                                         ",
"                                                    k.x.n.  i i                                                                 ",
"                                                      k.x.n.                                                                    ",
"                                                        k.v.b.b.                                                                ",
"                                                            k.z.8.,.7.                                                          ",
"                                                              8.X.,.                                                            ",
"                                                                                                                                "
};
