/* XPM */
static char *result[] = {
/* columns rows colors chars-per-pixel */
"64 64 169 2 ",
"   c #1D0C2D",
".  c #1F0E30",
"X  c #1F1334",
"o  c #210D2D",
"O  c #241233",
"+  c #2A1737",
"@  c #241639",
"#  c #251A3B",
"$  c #2C1C3C",
"%  c #301C3E",
"&  c #29203F",
"*  c #2E1F41",
"=  c #321E41",
"-  c #2B2242",
";  c #332346",
":  c #312648",
">  c #342C4D",
",  c #3B2D4E",
"<  c #34314F",
"1  c #39304F",
"2  c #362F50",
"3  c #3B2E51",
"4  c #373353",
"5  c #3B3253",
"6  c #3C3D5B",
"7  c #402F53",
"8  c #413658",
"9  c #443D5E",
"0  c #443F61",
"q  c #493F61",
"w  c #3E4661",
"e  c #3C4860",
"r  c #43425E",
"t  c #444462",
"y  c #494565",
"u  c #444965",
"i  c #484966",
"p  c #434E69",
"a  c #4B4C6A",
"s  c #514C6D",
"d  c #45516D",
"f  c #4C526E",
"g  c #51516F",
"h  c #59506F",
"j  c #564F70",
"k  c #4D5572",
"l  c #4D5B75",
"z  c #4F5E7B",
"x  c #535473",
"c  c #5A5475",
"v  c #525976",
"b  c #585874",
"n  c #555C7A",
"m  c #5A5B7A",
"M  c #4D627B",
"N  c #53627C",
"B  c #5A637E",
"V  c #4F6781",
"C  c #556580",
"Z  c #5B6682",
"A  c #546A83",
"S  c #5B6B84",
"D  c #576F89",
"F  c #5F6E89",
"G  c #577086",
"H  c #5C728B",
"J  c #616584",
"K  c #616E89",
"L  c #686F89",
"P  c #62738C",
"I  c #6B748D",
"U  c #6A798E",
"Y  c #637691",
"T  c #6D7491",
"R  c #637B91",
"E  c #6C7B94",
"W  c #6E7D99",
"Q  c #737693",
"!  c #737A94",
"~  c #7B7D94",
"^  c #727D9A",
"/  c #7C7E9A",
"(  c #817C9D",
")  c #678096",
"_  c #6B8296",
"`  c #6D839B",
"'  c #6F899E",
"]  c #708096",
"[  c #73849C",
"{  c #7B829D",
"}  c #7386A2",
"|  c #7F84A1",
" . c #738CA3",
".. c #7C8BA4",
"X. c #7F8CA8",
"o. c #7992A6",
"O. c #7692A8",
"+. c #7C93AA",
"@. c #7D9BB1",
"#. c #7EA1B5",
"$. c #83839D",
"%. c #89839D",
"&. c #8383A1",
"*. c #8882A3",
"=. c #8389A4",
"-. c #8B8AA4",
";. c #8A8EAB",
":. c #9087A6",
">. c #928BA6",
",. c #938CA9",
"<. c #8190A5",
"1. c #8394AE",
"2. c #8A93AD",
"3. c #869AAE",
"4. c #9391AE",
"5. c #8597B0",
"6. c #8F96B3",
"7. c #849DB4",
"8. c #8B9CB4",
"9. c #869FB8",
"0. c #8B9EB8",
"q. c #9A97B2",
"w. c #949FB4",
"e. c #9C9EB5",
"r. c #909FBC",
"t. c #9C9CB8",
"y. c #A09CBA",
"u. c #86A2B4",
"i. c #8AA1B6",
"p. c #86A3BA",
"a. c #8BA4BB",
"s. c #86A9BC",
"d. c #8CAABE",
"f. c #94A2B7",
"g. c #9BA2B7",
"h. c #94A5BB",
"j. c #9BA5BC",
"k. c #94A9BD",
"l. c #9CA9BE",
"z. c #A3A4BC",
"x. c #A9A5BC",
"c. c #A3A9BE",
"v. c #AAA9BE",
"b. c #B1A4BE",
"n. c #8EA6C1",
"m. c #8EACC2",
"M. c #92A7C4",
"N. c #9CA5C1",
"B. c #94ABC4",
"V. c #9BACC4",
"C. c #97AFC9",
"Z. c #9AAEC8",
"A. c #93B2C7",
"S. c #99B2C6",
"D. c #95B4CA",
"F. c #9AB4CB",
"G. c #95BACD",
"H. c #98B9CC",
"J. c #9CBBD2",
"K. c #A5A7C2",
"L. c #A2AAC2",
"P. c #ABACC4",
"I. c #AAAFC8",
"U. c #B2ACC4",
"Y. c #BCAECB",
"T. c #A2B2CC",
"R. c #AEBAD2",
"E. c #B5B9D3",
"W. c None",
/* pixels */
"W.W.W.W.W.W.W.W.W.W.W.W.W.W.W.W.W.W.W.W.W.W.W.W.W.W.W.W.W.W.W.W.W.W.W.W.W.W.W.W.W.W.W.W.W.W.W.W.W.W.W.W.W.W.W.W.W.W.W.W.W.W.W.W.",
"W.W.W.W.W.W.W.W.W.W.W.W.W.W.W.W.W.W.W.W.W.W.W.W.W.W.W.W.W.W.W.W.W.W.W.W.W.W.W.W.W.W.W.W.W.W.W.W.W.W.W.W.W.W.W.W.W.W.W.W.W.W.W.W.",
"W.W.W.W.W.W.W.W.W.W.W.W.W.W.W.W.W.W.W.W.W.W.W.W.W.W.W.W.W.W.W.W.W.W.W.W.W.W.W.W.W.W.W.W.W.W.W.W.W.W.W.W.W.W.W.W.W.W.W.W.W.W.W.W.",
"W.W.W.W.W.W.W.W.W.W.W.W.W.W.W.W.W.W.W.W.W.W.W.W.W.W.W.W.W.W.Y.W.W.W.W.W.W.W.W.W.W.W.W.W.W.W.W.W.W.W.W.W.W.W.W.W.W.W.W.W.W.W.W.W.",
"W.W.W.W.W.W.W.W.W.W.W.W.W.W.W.W.W.W.W.W.W.W.W.W.W.W.W.W.x.v.w.g.L.I.W.W.W.W.W.W.W.W.W.W.W.W.W.W.W.W.W.W.W.W.W.W.W.W.W.W.W.W.W.W.",
"W.W.W.W.W.W.W.W.W.W.W.W.W.W.W.W.W.W.W.W.W.W.W.W.W.W.W.W.K.j.j.h.0.0.P.W.W.W.W.W.W.W.W.W.W.W.W.W.W.W.W.W.W.W.W.W.W.W.W.W.W.W.W.W.",
"W.W.W.W.W.W.W.W.W.W.W.W.W.W.W.W.W.W.W.W.W.W.W.W.W.W.W.W.W.W.R.V.M.a.K.W.W.W.W.W.W.W.W.W.W.W.W.W.W.W.W.W.W.W.W.W.W.W.W.W.W.W.W.W.",
"W.W.W.W.W.W.W.W.W.W.W.W.W.W.W.W.W.W.W.W.W.W.W.W.W.W.W.W.W.=...8.p.M.0.j.q.W.W.W.W.W.W.W.W.W.W.W.W.W.W.W.W.W.W.W.W.W.W.W.W.W.W.W.",
"W.W.W.W.W.W.W.W.W.W.W.W.W.W.W.W.W.W.W.W.W.W.W.W.W.W.-.$./ W W W } 9.M.M.g.W.W.W.W.W.W.W.W.W.W.W.W.W.W.W.W.W.W.W.W.W.W.W.W.W.W.W.",
"W.W.W.W.W.W.W.W.W.W.W.W.W.W.W.W.W.W.W.W.W.W.W.W.W.,.! ! ^ ^ W W ^ W C.p.i.3.W.W.W.W.W.W.W.W.W.W.W.W.W.W.W.W.W.W.W.W.W.W.W.W.W.W.",
"W.W.W.W.W.W.W.W.W.W.W.W.W.W.W.W.W.W.W.W.W.W.W.W.,.Q ! ] E Y Y ^ ^ } 9.n.d._ -.W.W.W.W.W.W.W.W.W.W.W.W.W.W.W.W.W.W.W.W.W.W.W.W.W.",
"W.W.W.W.W.W.W.W.W.W.W.W.W.W.W.W.W.W.W.W.W.W.W.W.( Q ^ W F C C T T Z V A.s.` ] %.W.W.W.W.W.W.W.W.W.W.W.W.W.W.W.W.W.W.W.W.W.W.W.W.",
"W.W.W.W.W.W.W.W.W.W.W.W.W.W.W.W.W.W.W.W.W.W.W.W.~ { K B Z k j C x v S p.C. .[ / W.W.W.W.W.W.W.W.W.W.W.W.W.W.W.W.W.W.W.W.W.W.W.W.",
"W.W.W.W.W.W.W.W.W.W.W.W.W.W.W.W.W.W.W.W.W.W.W.$.Q ] N f v s j c x v k C M.M.^ } ;.W.W.W.W.W.W.W.W.W.W.W.W.W.W.W.W.W.W.W.W.W.W.W.",
"W.W.W.W.W.W.W.W.W.W.W.W.W.W.W.W.W.W.W.W.W.W.W.%.] K N l k x c c v f v z K V.5.W E 4.W.W.W.W.W.W.W.W.W.W.W.W.W.W.W.W.W.W.W.W.W.W.",
"W.W.W.W.W.W.W.W.W.W.W.W.W.W.W.W.W.W.W.W.W.W.-.U U M M N k m x j w p k k n V.C.H ! { W.W.W.W.W.W.W.W.W.W.W.W.W.W.W.W.W.W.W.W.W.W.",
"W.W.W.W.W.W.W.W.W.W.W.W.W.W.W.W.W.W.W.W.W.-.^ E A A a.0.B x j j t t a c N u.D.#.` / W.W.W.W.W.W.W.W.W.W.W.W.W.W.W.W.W.W.W.W.W.W.",
"W.W.W.W.W.W.W.W.W.W.W.W.W.W.W.W.W.W.W.W.W.Q E } 9.p.F.6.B f a y t y s a C p.G.s.` ^ ,.W.W.W.W.W.W.W.W.W.W.W.W.W.W.W.W.W.W.W.W.W.",
"W.W.W.W.W.W.W.W.W.W.W.W.W.W.W.W.W.W.W.W.&.Q ` 9.B.B.5.K f u t t 0 0 9 6 v o.A.m. .Q ( W.W.W.W.W.W.W.W.W.W.W.W.W.W.W.W.W.W.W.W.W.",
"W.W.W.W.W.W.W.W.W.W.W.W.W.W.W.W.W.W.W.W.&.E } n.C.9.F d a i y t y 0 8 6 a F n.s.W W *.W.W.W.W.W.W.W.W.W.W.W.W.W.W.W.W.W.W.W.W.W.",
"W.W.W.W.W.W.W.W.W.W.W.W.W.W.W.W.W.W.W.W.| [ 9.F.J.X.N k k t y 0 2 5 > 5 6 l C.5.Z Q / W.W.b.W.W.W.W.W.W.W.W.W.W.W.W.W.W.W.W.W.W.",
"W.W.W.W.W.W.W.W.W.W.W.W.W.W.W.W.W.W.W.-.U  .C.F.X.Y k k i 6 0 0 5 5 3 3 2 t 5.Z v T Q 4.W.v.W.W.W.W.W.W.W.W.W.W.W.W.W.W.W.W.W.W.",
"W.W.W.W.W.W.W.W.W.W.W.W.W.W.W.W.W.W.W.{ [ a.F.@.C v d a t 0 y 0 : , 3 3 2 w / Z v J Q ^ E.z.W.W.W.W.W.W.W.W.W.W.W.W.W.W.W.W.W.W.",
"W.W.W.W.W.W.W.W.W.W.W.W.W.W.W.W.W.W.W.=.8.A.p.D l v k p 0 y 0 5 5 , 7 , - - c k x c T / f.v.W.W.W.W.W.W.W.W.W.W.W.W.W.W.W.W.W.W.",
"W.W.W.W.W.W.W.W.W.W.W.W.W.W.W.W.W.W.W.=.S.H.@.M l v v r t t 0 4 4 3 , % $ $ > i x m n E w.l.W.W.W.W.W.W.W.W.W.W.W.W.W.W.W.W.W.W.",
"W.W.W.W.W.W.W.W.W.W.W.W.W.W.W.W.W.W.W.<.k.a.H l k g f u t t q 5 5 > ; % % $ & : a m T } 8.f.P.W.W.W.W.W.W.W.W.W.W.W.W.W.W.W.W.W.",
"W.W.W.W.W.W.W.W.W.W.W.W.W.W.W.W.W.W.W.k.H.+.l f v g a r y t q 3 5 : * + % # X X s v ^ ' i.h.z.W.W.W.W.W.W.W.W.W.W.W.W.W.W.W.W.W.",
"W.W.W.W.W.W.W.W.W.W.W.W.W.W.W.W.W.W.P.k.p.G l v b g p r y 0 8 3 3 - * $ + O   @ j b R ` i.f.z.W.W.W.W.W.W.W.W.W.W.W.W.W.W.W.W.W.",
"W.W.W.W.W.W.W.W.W.W.W.W.W.W.W.W.W.W.g.i.' l v x b g u e t r 8 3 > & % + O o   @ a b P ' a.f.P.W.W.W.W.W.W.W.W.W.W.W.W.W.W.W.W.W.",
"W.W.W.W.W.W.W.W.W.W.W.W.W.W.W.W.W.v.l.3._ N x x h h u e e r 3 3 1 & & $ O o   O s v N ) a.l.W.W.W.W.W.W.W.W.W.W.W.W.W.W.W.W.W.W.",
"W.W.W.W.W.W.W.W.W.W.W.W.W.W.W.W.W.g.i.[ P N g b h b e e e t 3 7 1 & % % O o o @ s b M ) 9.V.W.W.W.W.W.W.W.W.W.W.W.W.W.W.W.W.W.W.",
"W.W.W.W.W.W.W.W.W.W.W.W.W.W.W.W.W.L.3.[ _ l h h h b u e e t 3 7 1 & $ $ o o o # s v R  .7.j.W.W.W.W.W.W.W.W.W.W.W.W.W.W.W.W.W.W.",
"W.W.W.W.W.W.W.W.W.W.W.W.W.W.W.W.z.k.3.' R N c j x x t u e r 1 5 1 & * % o   . y x l E s.i.L.W.W.W.W.W.W.W.W.W.W.W.W.W.W.W.W.W.W.",
"W.W.W.W.W.W.W.W.W.W.W.W.W.W.W.W.L.9.' ) R N k x x x u t u r 5 1 1 - $ % O o @ s x l ) u.a.j.W.W.W.W.W.W.W.W.W.W.W.W.W.W.W.W.W.W.",
"W.W.W.W.W.W.W.W.W.W.W.W.W.W.W.W.K.8...` R z f c x x t t e r 1 1 , - $ + + . @ s x N ` 7.k.P.W.W.W.W.W.W.W.W.W.W.W.W.W.W.W.W.W.W.",
"W.W.W.W.W.W.W.W.W.W.W.W.W.W.W.W.z.j.T...R l c c x x y u r r 1 7 > : $ $ + . @ a x l ) a.h.W.W.W.W.W.W.W.W.W.W.W.W.W.W.W.W.W.W.W.",
"W.W.W.W.W.W.W.W.W.W.W.W.W.W.W.W.v.L.W...E l m c x x y y t y , , 2 > * * * + * j n z  .a.N.W.W.W.W.W.W.W.W.W.W.W.W.W.W.W.W.W.W.W.",
"W.W.W.W.W.W.W.W.W.W.W.W.W.W.W.W.W.P.W./ ! k b c x x y t r t 5 , 3 > * - * + = s v N a.f.I.W.W.W.W.W.W.W.W.W.W.W.W.W.W.W.W.W.W.W.",
"W.W.W.W.W.W.W.W.W.W.W.W.W.W.W.W.W.P.W.$.T n c c k x y y t y 5 , 3 3 * # @ = 2 s d H V.N.W.W.W.W.W.W.W.W.W.W.W.W.W.W.W.W.W.W.W.W.",
"W.W.W.W.W.W.W.W.W.W.W.W.W.W.W.W.W.U.W.-.I B v m k v t 0 r y 5 , 3 3 * * * : 0 C C 5.Z.L.W.W.W.W.W.W.W.W.W.W.W.W.W.W.W.W.W.W.W.W.",
"W.W.W.W.W.W.W.W.W.W.W.W.W.W.W.W.W.U.W.W.{ P J =.D l j y y w 9 1 3 3 3 > 2 6 j k V h.T.K.W.W.W.W.W.W.W.W.W.W.W.W.W.W.W.W.W.W.W.W.",
"W.W.W.W.W.W.W.W.W.W.W.W.W.W.W.W.W.W.W.W.$.I Z 6.9.C v t t y t 5 3 , 4 2 4 > a n Y M.N.y.W.W.W.W.W.W.W.W.W.W.W.W.W.W.W.W.W.W.W.W.",
"W.W.W.W.W.W.W.W.W.W.W.W.W.W.W.W.W.W.W.W.%.! Z 8.D.z v 0 w t t 4 3 5 2 > 4 w k z 0.Z.6.t.W.W.W.W.W.W.W.W.W.W.W.W.W.W.W.W.W.W.W.W.",
"W.W.W.W.W.W.W.W.W.W.W.W.W.W.W.W.W.W.W.W.$.I B 0.M.D z a p y t 9 2 5 > 4 4 p z F Z.r.;.W.W.W.W.W.W.W.W.W.W.W.W.W.W.W.W.W.W.W.W.W.",
"W.W.W.W.W.W.W.W.W.W.W.W.W.W.W.W.W.W.W.W.-.I P 3.D.@.C x a r r y 5 4 3 5 6 e H p.M.=.( W.W.W.W.W.W.W.W.W.W.W.W.W.W.W.W.W.W.W.W.W.",
"W.W.W.W.W.W.W.W.W.W.W.W.W.W.W.W.W.W.W.W.W.=.I H B.C.v k i r r y t 5 8 5 f Y p.J.} W ( W.W.W.W.W.W.W.W.W.W.W.W.W.W.W.W.W.W.W.W.W.",
"W.W.W.W.W.W.W.W.W.W.W.W.W.W.W.W.W.W.W.W.W.{ E ` s.B.N x h i r r t 0 9 5 n 0.J.m.} ^ ( W.W.W.W.W.W.W.W.W.W.W.W.W.W.W.W.W.W.W.W.W.",
"W.W.W.W.W.W.W.W.W.W.W.W.W.W.W.W.W.W.W.W.W.-.^ W p.n.Z v x t u r t y q j Z Z.a.O.W ^ ,.W.W.W.W.W.W.W.W.W.W.W.W.W.W.W.W.W.W.W.W.W.",
"W.W.W.W.W.W.W.W.W.W.W.W.W.W.W.W.W.W.W.W.W.W.^ [  .n.F v x x t r r y r g B 3.P _ ! -.W.W.W.W.W.W.W.W.W.W.W.W.W.W.W.W.W.W.W.W.W.W.",
"W.W.W.W.W.W.W.W.W.W.W.W.W.W.W.W.W.W.W.W.W.W.;.E } C.0.N k k v u r s g l l B L ! %.W.W.W.W.W.W.W.W.W.W.W.W.W.W.W.W.W.W.W.W.W.W.W.",
"W.W.W.W.W.W.W.W.W.W.W.W.W.W.W.W.W.W.W.W.W.W.W.&.] p.C.D k d v k b g f M N U [ Q $.W.W.W.W.W.W.W.W.W.W.W.W.W.W.W.W.W.W.W.W.W.W.W.",
"W.W.W.W.W.W.W.W.W.W.W.W.W.W.W.W.W.W.W.W.W.W.W.$.^ ..n.5.H l x c b f M l M ] ! ~ >.W.W.W.W.W.W.W.W.W.W.W.W.W.W.W.W.W.W.W.W.W.W.W.",
"W.W.W.W.W.W.W.W.W.W.W.W.W.W.W.W.W.W.W.W.W.W.W.,.! ! u.H.O.N k k k B _ R P ^ T / W.W.W.W.W.W.W.W.W.W.W.W.W.W.W.W.W.W.W.W.W.W.W.W.",
"W.W.W.W.W.W.W.W.W.W.W.W.W.W.W.W.W.W.W.W.W.W.W.W.4.U  .d.s.N n n N K E ] | T =.-.W.W.W.W.W.W.W.W.W.W.W.W.W.W.W.W.W.W.W.W.W.W.W.W.",
"W.W.W.W.W.W.W.W.W.W.W.W.W.W.W.W.W.W.W.W.W.W.W.W.W.~ ] o.d.' E ! ^ ^ ^ ! ! =.W.W.W.W.W.W.W.W.W.W.W.W.W.W.W.W.W.W.W.W.W.W.W.W.W.W.",
"W.W.W.W.W.W.W.W.W.W.W.W.W.W.W.W.W.W.W.W.W.W.W.W.W.>.~ U p.F.9.} ^ T ^ / / W.W.W.W.W.W.W.W.W.W.W.W.W.W.W.W.W.W.W.W.W.W.W.W.W.W.W.",
"W.W.W.W.W.W.W.W.W.W.W.W.W.W.W.W.W.W.W.W.W.W.W.W.W.W.$.-.=.8.h.9.} E E ! 2.W.W.W.W.W.W.W.W.W.W.W.W.W.W.W.W.W.W.W.W.W.W.W.W.W.W.W.",
"W.W.W.W.W.W.W.W.W.W.W.W.W.W.W.W.W.W.W.W.W.W.W.W.W.W.W.W.W.6.a.p. .) [ +.V.K.x.b.W.W.W.W.W.W.W.W.W.W.W.W.W.W.W.W.W.W.W.W.W.W.W.W.",
"W.W.W.W.W.W.W.W.W.W.W.W.W.W.W.W.W.W.W.W.W.W.W.W.W.W.W.W.W.t.h.d.@.#.s.u.S.e.t.x.W.W.W.W.W.W.W.W.W.W.W.W.W.W.W.W.W.W.W.W.W.W.W.W.",
"W.W.W.W.W.W.W.W.W.W.W.W.W.W.W.W.W.W.W.W.W.W.W.W.W.W.W.W.W.W.I.k.m.m.s.a.f.g.v.W.W.W.W.W.W.W.W.W.W.W.W.W.W.W.W.W.W.W.W.W.W.W.W.W.",
"W.W.W.W.W.W.W.W.W.W.W.W.W.W.W.W.W.W.W.W.W.W.W.W.W.W.W.W.W.W.W.W.k.k.l.l.z.W.W.W.W.W.W.W.W.W.W.W.W.W.W.W.W.W.W.W.W.W.W.W.W.W.W.W.",
"W.W.W.W.W.W.W.W.W.W.W.W.W.W.W.W.W.W.W.W.W.W.W.W.W.W.W.W.W.W.W.W.W.v.W.W.W.W.W.W.W.W.W.W.W.W.W.W.W.W.W.W.W.W.W.W.W.W.W.W.W.W.W.W.",
"W.W.W.W.W.W.W.W.W.W.W.W.W.W.W.W.W.W.W.W.W.W.W.W.W.W.W.W.W.W.W.W.W.W.W.W.W.W.W.W.W.W.W.W.W.W.W.W.W.W.W.W.W.W.W.W.W.W.W.W.W.W.W.W.",
"W.W.W.W.W.W.W.W.W.W.W.W.W.W.W.W.W.W.W.W.W.W.W.W.W.W.W.W.W.W.W.W.W.W.W.W.W.W.W.W.W.W.W.W.W.W.W.W.W.W.W.W.W.W.W.W.W.W.W.W.W.W.W.W."
};
