/* XPM */
static char *rcp45925980153528150[] = {
/* columns rows colors chars-per-pixel */
"64 64 139 2 ",
"   c None",
".  c #081B27",
"X  c #081D2B",
"o  c #092334",
"O  c #0B263A",
"+  c #0C293E",
"@  c #0D2C42",
"#  c #0E2F48",
"$  c #0D3149",
"%  c #0F3752",
"&  c #0F3A55",
"*  c #0F3C59",
"=  c #103752",
"-  c #103955",
";  c #103C59",
":  c #134263",
">  c #15466C",
",  c #15486F",
"<  c #154971",
"1  c #194F77",
"2  c #184F78",
"3  c #175077",
"4  c #185077",
"5  c #19547D",
"6  c #1A5682",
"7  c #1A5986",
"8  c #1B5D8B",
"9  c #1C5F90",
"0  c #1C608F",
"q  c #1D6294",
"w  c #1E6599",
"e  c #1E6A9E",
"r  c #216DA4",
"t  c #216FA8",
"y  c #2170A7",
"u  c #2373AD",
"i  c #2476B2",
"p  c #2877B0",
"a  c #2479B6",
"s  c #297AB3",
"d  c #257CBA",
"f  c #297EBD",
"g  c #2980BF",
"h  c #2782C3",
"j  c #2580C1",
"k  c #2883C6",
"l  c #2983C5",
"z  c #2985C8",
"x  c #2A86C9",
"c  c #2986CA",
"v  c #2A87CA",
"b  c #2986CA",
"n  c #2A88CC",
"m  c #2A8ACF",
"M  c #2B8ACF",
"N  c #2A89CE",
"B  c #2A8BD1",
"V  c #2A8BD2",
"C  c #298CD1",
"Z  c #298CD2",
"A  c #2A8CD2",
"S  c #2D8DD2",
"D  c #2D8ED3",
"F  c #2C8FD3",
"G  c #298DD4",
"H  c #2A8DD4",
"J  c #2B8DD4",
"K  c #2B8DD5",
"L  c #2A8ED5",
"P  c #2B8ED5",
"I  c #2C8DD5",
"U  c #2C8ED5",
"Y  c #2D8FD7",
"T  c #2B8DD3",
"R  c #2C8FD8",
"E  c #2B90D8",
"W  c #2B90D9",
"Q  c #2C90D8",
"!  c #2C90D9",
"~  c #2C91D9",
"^  c #2E92D8",
"/  c #2E92D9",
"(  c #2F92D9",
")  c #2C91DA",
"_  c #2D91DA",
"`  c #2D93DB",
"'  c #2F92DA",
"]  c #2E92DB",
"[  c #2F92DB",
"{  c #2F94DB",
"}  c #2D94DD",
"|  c #2E94DD",
" . c #2D93DB",
".. c #3093D9",
"X. c #3393D9",
"o. c #3092DA",
"O. c #3093DA",
"+. c #3093DB",
"@. c #3394D8",
"#. c #3394D9",
"$. c #3194DB",
"%. c #3294DB",
"&. c #3394DB",
"*. c #3796D8",
"=. c #3095DC",
"-. c #3095DD",
";. c #3294DC",
":. c #3395DC",
">. c #3096DD",
",. c #3296DC",
"<. c #3296DD",
"1. c #3196DE",
"2. c #3397DE",
"3. c #3597DC",
"4. c #3596DD",
"5. c #3295DC",
"6. c #3599DF",
"7. c #3498DF",
"8. c #2E96E0",
"9. c #2E96E1",
"0. c #2D97E2",
"q. c #2F97E4",
"w. c #2E97E1",
"e. c #2E98E5",
"r. c #2F99E6",
"t. c #2F9AE8",
"y. c #2F9BE9",
"u. c #2E9BEA",
"i. c #2F9BEA",
"p. c #2E9CEA",
"a. c #2F9CEA",
"s. c #2F9DEB",
"d. c #3396E0",
"f. c #3398E3",
"g. c #3A9AE1",
"h. c #309CEA",
"j. c #309DEC",
"k. c #309DED",
"l. c #309DEC",
/* pixels */
"                                                                                                                                ",
"                                                                                                                                ",
"                                                                        ,.                                                      ",
"                                                                        4.                                                      ",
"                                                                                                                                ",
"                                                                          4.                                                    ",
"                                                        u u u u u p       ,.&.                                                  ",
"                                                    p u u u u u u u u       &.                                                  ",
"                                                    u u u u u u u u u u p   ,.,.                                                ",
"                                                  d u u i u u u y u u u u     ) &.                                              ",
"                                                g v d d v u t r 9 r u u u u   ) X.                                              ",
"                                              &.Y ) W q.Y w 7 7 6 8 r u u u a Y X.                                              ",
"                                          ,.) ) y.a.a.k.y.n w 8 6 6 8 r u u i n ) ,.                                            ",
"                                          ) ) J J A B J y.h.9.v 8 6 6 8 r u u a J X.                                            ",
"                                        X.D n a y q 8 q v J 9.) 8 5 5 6 8 r u i Y ) &.                                          ",
"                                        D d i y 8 6 6 6 8 8 q f 7 < < 5 6 8 t i J ) )                                           ",
"                                      ,.D i u r 7 6 6 6 5 < , 2 , > > < 5 7 r i n ) X.                                          ",
"                                    ,.,.  u y 8 6 6 6 6 5 , > > > > > : : 5 7 r f J )                                           ",
"                                    ,.  p u r 7 6 6 6 5 < > > > > ; * ; ; : 5 8 j W )                                           ",
"                                    6.  p u r 7 6 6 6 5 , > > > ; ; * * ; ; 1 6 q B {                                           ",
"                                  g.      y 8 6 6 6 5 < > > > * ; ; ; ; ; ; : 5 8 A r.k                                         ",
"                                        p t 7 6 6 6 5 < > > > ; ; ; ; ; ; ; ; 5 8 A y.)                                         ",
"                                        u r 7 6 6 6 5 , > > > ; ; ; ; * * - ; 2 8 A y.|                                         ",
"                                      p y 8 6 6 6 5 < > > > > ; ; ; ; = @ @ @ ; 7 A a.|                                         ",
"                                      u r 7 6 6 6 5 , > > > > ; * * % @ @ @ @ $ 7 A a.|                                         ",
"                              3.      u r 7 6 6 6 5 , > > > ; * ; - @ @ @ @ @ # 7 A a.|                                         ",
"                              &.      u t 7 6 6 6 5 , > > > * * ; - @ @ @ @ + @ 6 J a.|                                         ",
"                              &.      u r 7 7 6 6 5 , > > > ; * ; % @ @ @ + X O 8 9.k.J d                                       ",
"                              &.      y 8 8 f q 6 5 < > > > ; ; - @ @ @ O X . + f s.r.d u                                       ",
"                              &.    p t 7 q n f 8 5 < > > > ; ; - @ @ + X . . + v s.r.a u                                       ",
"                              3.    p r 9 k n q 6 5 < > > > ; ; - @ @ + X . . @ Y k.) i u                                       ",
"                                    p t q B A 8 6 5 < > > > ; ; * @ @ + X . . @ ) h.n i u                                       ",
"                                      u u Y | 0 6 5 < > > > ; ; - @ @ + X . . @ h A e y i                                       ",
"                                      u i R | 0 6 5 < > > > ; ; - @ @ + X . . X ; d u u i                                       ",
"                                      u i R | 0 6 5 < > > > ; ; - @ @ @ O X . o , 8 y u i                                       ",
"                                    s u i R | q 6 5 < > > > ; ; ; = @ @ @ O X o 4 7 y u i                                       ",
"                                      u a W | q 6 5 < > > > ; ; ; * @ + + + + @ 4 7 t u p                                       ",
"                                      d n { | 0 6 5 < > > > ; ; ; * @ @ @ @ @ $ 5 7 r u                                         ",
"                                      d n { | 0 6 5 < > > > > ; - ; % @ @ @ + $ 5 6 9 y     f.                                  ",
"                                      u a W | 0 6 5 < > > > > ; ; ; ; - = @ @ $ 5 7 r u     ,.                                  ",
"                                      u a r.9.8 6 5 , > > > > ; ; ; ; ; ; - - ; 5 8 y u   ,.)                                   ",
"                                      a a r.9.8 6 5 < > > > > ; ; ; ; ; ; ; ; 5 7 r u i Y ) &.                                  ",
"                                      D d r.9.0 6 6 5 , > > > ; ; ; ; ; ; ; : 5 7 r u d J )                                     ",
"                                        d r.9.0 6 6 6 < > > > > ; ; ; ; ; ; 4 6 7 t a B ) {                                     ",
"                                        d r.| 8 6 6 6 5 , > > > ; * ; ; ; ; 5 6 8 u n ) ) ,.                                    ",
"                                        f r.J 8 6 6 6 5 , > > > ; ; ; ; ; ; 5 7 r u d J )                                       ",
"                                          { { 8 6 6 6 6 < > > > > : ; ; ; : 5 8 y d n ) {                                       ",
"                                          k { w 7 6 6 6 5 , > > > > > : 3 6 8 r d B ) ) ,.                                      ",
"                                          ) r.v r 7 6 6 6 < > > > , < 5 7 r y a B ) ) &.                                        ",
"                                          | 9.f y 8 6 6 6 5 < , < 5 6 8 7 u i A | r.|                                           ",
"                                          { ) B i r 8 6 6 6 7 8 8 8 q f e v j r.a.h.6.                                          ",
"                                          &.) J i u r 7 6 8 k | | J A ) J r.y.h.| ,.                                            ",
"                                            ) A i u t 8 7 8 k ) r.a.k.k.k.s.h.| ,.                                              ",
"                                            ,.J a u u y r 8 q u d J r.y.r.{ ) &.                                                ",
"                                              X.A a u u u y t y u i a a d Y ,.                                                  ",
"                                              X.)   u u u u u u u u u u p                                                       ",
"                                              X.)     u u u u u u u u u                                                         ",
"                                              3.) &.    u u u u u u u u                                                         ",
"                                                &.) ,.                                                                          ",
"                                                  &.) d.                                                                        ",
"                                                    &.{ ,.4.                                                                    ",
"                                                          3.                                                                    ",
"                                                                                                                                ",
"                                                                                                                                "
};
