/* XPM */
static char *rcp44848024153535227[] = {
/* columns rows colors chars-per-pixel */
"64 64 138 2 ",
"   c None",
".  c #081D2B",
"X  c #0A2234",
"o  c #0B263A",
"O  c #0C293E",
"+  c #0D2C43",
"@  c #0E304A",
"#  c #0F3753",
"$  c #0F3955",
"%  c #0F3C59",
"&  c #103753",
"*  c #103955",
"=  c #103C5A",
"-  c #124365",
";  c #15466C",
":  c #15496E",
">  c #154A71",
",  c #194F76",
"<  c #195077",
"1  c #175079",
"2  c #19537D",
"3  c #1A5682",
"4  c #1A5986",
"5  c #1B5D8B",
"6  c #1C5F91",
"7  c #1D6395",
"8  c #1D6699",
"9  c #1E689E",
"0  c #206A9F",
"q  c #1F6CA3",
"w  c #216EA5",
"e  c #216FA9",
"r  c #2170A7",
"t  c #2373AD",
"y  c #2877AF",
"u  c #2476B1",
"i  c #2877B1",
"p  c #2578B4",
"a  c #2479B7",
"s  c #2379B6",
"d  c #287AB1",
"f  c #237BB9",
"g  c #2579B8",
"h  c #247BB8",
"j  c #257BB9",
"k  c #257DBA",
"l  c #247DBE",
"z  c #247BBA",
"x  c #2982C3",
"c  c #2886C8",
"v  c #2986C8",
"b  c #2887C9",
"n  c #2987C9",
"m  c #2A86C9",
"M  c #2987CC",
"N  c #2986CA",
"B  c #2A89CE",
"V  c #2989CD",
"C  c #298BD0",
"Z  c #298BD1",
"A  c #2A8AD0",
"S  c #2A8BD0",
"D  c #2A8BD1",
"F  c #2A8DD3",
"G  c #2B8DD3",
"H  c #2E8ED3",
"J  c #2B8DD4",
"K  c #2B8ED4",
"L  c #2B8ED6",
"P  c #2C8FD5",
"I  c #2C8ED6",
"U  c #2C8FD6",
"Y  c #2D8FD6",
"T  c #2B8DD4",
"R  c #2B8ED8",
"E  c #2B90D6",
"W  c #2C90D7",
"Q  c #2E91D7",
"!  c #2B91DA",
"~  c #2C90D9",
"^  c #2C91D9",
"/  c #2D91D9",
"(  c #2F92D9",
")  c #2C91DA",
"_  c #2D91DA",
"`  c #2D92DA",
"'  c #2E92DA",
"]  c #2E92DB",
"[  c #2C92DC",
"{  c #2D93DC",
"}  c #2E93DD",
"|  c #2C94DD",
" . c #2D95DE",
".. c #2E94DF",
"X. c #2D92DB",
"o. c #3093D9",
"O. c #3093DA",
"+. c #3093DB",
"@. c #3194DB",
"#. c #3095DB",
"$. c #3394DB",
"%. c #3396DB",
"&. c #3495DA",
"*. c #3495DB",
"=. c #3496DB",
"-. c #3093DC",
";. c #3094DC",
":. c #3095DC",
">. c #3195DC",
",. c #3195DD",
"<. c #3496DC",
"1. c #3294DA",
"2. c #3898DB",
"3. c #3899DF",
"4. c #2D95E0",
"5. c #2D96E0",
"6. c #2D96E2",
"7. c #2E96E2",
"8. c #2E97E3",
"9. c #2E96E2",
"0. c #2F98E3",
"q. c #2E99E5",
"w. c #2F99E6",
"e. c #2F9AE6",
"r. c #2F9AE7",
"t. c #2E99E5",
"y. c #2F9BE8",
"u. c #2F9CEA",
"i. c #2E9DEB",
"p. c #2F9DEB",
"a. c #2F9BEA",
"s. c #3097E2",
"d. c #3298E0",
"f. c #309BEA",
"g. c #309BE9",
"h. c #34A0EF",
"j. c #37A3F0",
"k. c #39A5F1",
/* pixels */
"                                                                                                                                ",
"                                                                                                                                ",
"                                                                                                                                ",
"                                                                                                                                ",
"                                                    %.+.;.-.+.=.                                                                ",
"                                              =.+.=.+.~ P ~ ~ ~ %.                                                              ",
"                                            =.} ;.      k S ~ ~ ~ G p i                                                         ",
"                                            3.        i t a S ~ ~ K a t t                                                       ",
"                                                      t t t a S ~ } S u t i                                                     ",
"                                                    i t t r r u V w.~ a t t                                                     ",
"                                                i u t t w 5 4 4 8 7.p.G u t t                                                   ",
"                                              i t t e w 5 3 3 3 5 N p.0.p t t                                                   ",
"                                              t t w 5 4 3 3 3 3 3 7 K w.z t t i                                                 ",
"                                              t r 5 3 3 3 3 3 3 3 5 N w.G t t t i                                               ",
"                                            y t w 4 3 3 3 3 3 3 3 3 7 K  .q w t t                                               ",
"                                            t w 5 3 3 3 3 3 3 2 > 2 4 N w.N 7 w t i                                             ",
"                                          i r 5 3 3 3 3 3 3 2 > ; : > 7  .N 5 w t t t   <.                                      ",
"                                  2.      t w 4 5 5 4 3 3 > : ; ; ; ; , h 7 3 5 r t t   %.                                      ",
"                                        t t r 8 E P 5 3 2 : ; ; ; ; = = - 2 3 4 w t t   ;.                                      ",
"                                        t t u S p.W 5 2 > ; ; ; ; = = = = - 2 4 w t t   ;.                                      ",
"                                        t t h w.7.8 3 2 : ; ; ; = = = = = = 2 3 5 r t   ;.                                      ",
"                                        i a K f.M 5 3 2 : ; ; - = = = = = = 2 3 4 r t   ;.                                      ",
"                                        a S y.W 7 3 2 > ; ; ; = = = = = = = = 2 4 r t   %.                                      ",
"                                      i p ! 7.8 3 3 2 : ; ; ; = = = $ + + + @ 2 4 w t a P %.                                    ",
"                                      t a 7.P 5 3 3 2 : ; ; ; = = = + + + + @ 2 3 5 w u K ~                                     ",
"                                      t l } 8 3 3 3 2 : ; ; - = = $ + + + O + 2 3 4 w u G ~                                     ",
"                                      h 7. .5 3 3 3 2 : ; ; % = = # + O o . o < 3 4 w u K ~                                     ",
"                                    i a w.V 5 3 3 2 > ; ; ; = % = + + O . . X : 3 4 w u K ~                                     ",
"                                    i l } 8 3 3 3 2 : ; ; ; = % = + + O . . . O 2 4 w u G ~                                     ",
"                                      f. .5 3 3 3 2 > ; ; ; = = = + + O . . . X , 4 w a G ~                                     ",
"                                    d.y.V 5 3 3 3 2 > ; ; ; = = = + + O . . . X , 4 t V ~ ~                                     ",
"                                    7.7.8 3 3 3 3 2 > ; ; ; = = = + + O . . . X , 4 r K ~ ~                                     ",
"                                    7.7.5 3 3 3 3 2 > ; ; ; = = = + + O . . . O 2 3 7 S } ;.                                    ",
"                                    h.7.5 3 3 3 3 2 > ; ; ; = = $ + + O . . X : 3 3 8 }  .                                      ",
"                                    h.7.7 3 3 3 3 2 > ; ; ; = = $ + + O . . X , 3 5 N y. .                                      ",
"                                    s.8.r 4 3 3 3 3 > ; ; ; = = = # + + o . X , 3 5 G p. .                                      ",
"                                     .w.t 4 3 3 3 3 > ; ; ; = % = = + O O O + 2 3 8 7.y.~                                       ",
"                                     .8.u 5 3 3 3 3 > ; ; ; = = = $ + + + + @ 2 5 M p.~ x                                       ",
"                                     .} u w 4 3 3 2 > ; ; ; = = = = + + + O @ 2 5  .y.P                                         ",
"                                    P z t e 4 3 3 2 > ; ; ; = = = = & + + + @ 2 8 7.K h                                         ",
"                                  ;.P p t r 4 3 3 3 > ; ; ; - = = = = = = $ = 6 W 8.h t                                         ",
"                                  ~ ~   t r 4 3 3 3 2 : ; ; ; = = = = = = = 4 V f.~ i t                                         ",
"                                  ~ ~   t w 5 3 3 3 3 > ; ; ; = = = % = = > v p.p.S i                                           ",
"                                  ~ ~   t t w 4 3 3 3 2 : ; ; - = = % = - p w.p.! z t                                           ",
"                                  ~ ~   t t e 5 5 3 3 2 : ; ; ; = = = = = 1 P y.V u t                                           ",
"                                  ~ ~   i t t t x 8 3 2 > ; ; ; = = = = = 2 7 x 9 r t                                           ",
"                                  ~ ~     t t p ~ G 5 3 2 > ; ; ; = = = = 2 3 7 w t t                                           ",
"                                  ~ ~     i t r q ~ 8 3 3 2 : ; ; - = = - 2 5 w t t i                                           ",
"                                  ~ ~       t t u  .K 5 3 2 : ; ; ; - - 2 4 w t t t                                             ",
"                                  %.~       t t t l ~ 8 3 2 > ; ; > 2 2 3 4 w t t y                                             ",
"                                    %.      t t t u K K 8 3 2 > > 2 3 3 4 5 r t t         k.                                    ",
"                                    =.      i t t t z w.P 7 3 3 2 3 3 5 w e t t i       j.h.                                    ",
"                                              i t t u K f.V 8 0 5 4 5 w t t t t         k.                                      ",
"                                                t t t h w.p.V u e w w t t t t       <.                                          ",
"                                                  i t u K y.~ z u u t t u p       <.;.                                          ",
"                                                    i t a ~ y.w.R S h a S K ~  . .=.                                            ",
"                                                      t u G 7.y.} ~ K K ~ ~ ~ ~ %.                                              ",
"                                                        d   %.~ ~ ~ ~ ~ ~ ! +.                                                  ",
"                                                              %.~ ~ ~ ~ ~ ~                                                     ",
"                                                                  =.+.+.W +.                                                    ",
"                                                                                                                                ",
"                                                                                                                                ",
"                                                                                                                                ",
"                                                                                                                                "
};
