/* XPM */
static char *rcp6086720153520619[] = {
/* columns rows colors chars-per-pixel */
"64 64 148 2 ",
"   c None",
".  c #081C2B",
"X  c #071F30",
"o  c #092335",
"O  c #0B273B",
"+  c #0C293E",
"@  c #0D2C42",
"#  c #0D2F48",
"$  c #0D3047",
"%  c #0D3149",
"&  c #0F3651",
"*  c #0F3955",
"=  c #0F3B58",
"-  c #103752",
";  c #103955",
":  c #103C5A",
">  c #12405F",
",  c #134264",
"<  c #15466C",
"1  c #15486E",
"2  c #154971",
"3  c #184F76",
"4  c #175077",
"5  c #185076",
"6  c #19547D",
"7  c #1A5682",
"8  c #1A5986",
"9  c #1B5C8B",
"0  c #1C5F90",
"q  c #1C608F",
"w  c #1C6294",
"e  c #1E669A",
"r  c #1E689E",
"t  c #21699D",
"y  c #1F6DA5",
"u  c #216DA5",
"i  c #216FA8",
"p  c #2170A7",
"a  c #2373AD",
"s  c #2476B2",
"d  c #2877B0",
"f  c #2479B5",
"g  c #2879B4",
"h  c #247BBA",
"j  c #297FBD",
"k  c #2881C2",
"l  c #2884C6",
"z  c #2984C6",
"x  c #2885C7",
"c  c #2983C4",
"v  c #2886C8",
"b  c #2986C8",
"n  c #2987C8",
"m  c #2886C9",
"M  c #2986C9",
"N  c #2887C9",
"B  c #2987C9",
"V  c #2987CA",
"C  c #2988CB",
"Z  c #2A88CB",
"A  c #2988CC",
"S  c #2989CC",
"D  c #2988CD",
"F  c #2B88CC",
"G  c #2989CF",
"H  c #2A89CE",
"J  c #2A8ACF",
"K  c #2989CD",
"L  c #308BCE",
"P  c #2A8AD0",
"I  c #2B8DD1",
"U  c #2A8CD2",
"Y  c #2A8CD3",
"T  c #2B8DD3",
"R  c #2B8DD4",
"E  c #2B8DD5",
"W  c #2A8ED4",
"Q  c #2B8ED5",
"!  c #2B8ED6",
"~  c #2B8FD7",
"^  c #2C8FD6",
"/  c #2B8DD3",
"(  c #2F91D7",
")  c #2D90D6",
"_  c #2B90D9",
"`  c #2B91D9",
"'  c #2C91D8",
"]  c #2C90D9",
"[  c #2C91D9",
"{  c #2E90D8",
"}  c #2F91D8",
"|  c #2E92D8",
" . c #2E92D9",
".. c #2F92D9",
"X. c #2C91DA",
"o. c #2C92DB",
"O. c #2E92DA",
"+. c #2F93DA",
"@. c #2E92DB",
"#. c #2B92DD",
"$. c #2B94DE",
"%. c #2C94DE",
"&. c #2C94DF",
"*. c #2D94DF",
"=. c #2D92DA",
"-. c #3392D6",
";. c #3092D9",
":. c #3192D9",
">. c #3393D8",
",. c #3093DA",
"<. c #3094D9",
"1. c #3394D8",
"2. c #3195DA",
"3. c #3194DB",
"4. c #3095DB",
"5. c #3294DA",
"6. c #3294DB",
"7. c #3295DB",
"8. c #3494DA",
"9. c #3596DB",
"0. c #3295DC",
"q. c #3196DE",
"w. c #3697DF",
"e. c #3294DB",
"r. c #3398DE",
"t. c #3898DD",
"y. c #2D95E0",
"u. c #2E95E0",
"i. c #2E94E1",
"p. c #2D96E1",
"a. c #2F97E0",
"s. c #2E97E3",
"d. c #2D96E1",
"f. c #2E98E4",
"g. c #2F99E5",
"h. c #2E99E6",
"j. c #2E9AE7",
"k. c #2F9AE7",
"l. c #2E9BE7",
"z. c #2F9BE7",
"x. c #2E99E5",
"c. c #2F9BE9",
"v. c #2F9CEA",
"b. c #3397E1",
"n. c #3498E2",
"m. c #309BE8",
"M. c #319DEB",
"N. c #42A4EC",
/* pixels */
"                                                                                                                                ",
"                                                                                                                                ",
"                                                      9.                                                                        ",
"                                                      7.9.;...;.7.                                                              ",
"                                                          0.......7.                                                            ",
"                                                              7..._ ..7.                                                        ",
"                                                                ) ......                                                        ",
"                                                      a a a a s A E ....7.                                                      ",
"                                                      a a a a a s h E ....                                                      ",
"                                                    s a a a a a a s A ....;.                                                    ",
"                                                  s a a a a a p a a f A ..Q j                                                   ",
"                                                  a a a p i u 9 u i u e &.m.A g                                                 ",
"                                                a a i u 9 8 8 7 8 8 8 9 A f.h a                                                 ",
"                                              s a i 9 8 7 7 7 7 7 7 7 7 e a.I s a                                               ",
"                                          d a a a u q 9 9 7 7 7 7 7 7 7 9 a.#.f a                                               ",
"                                          a a a u e n I z 9 7 6 7 6 7 7 9 E c.I s a                                             ",
"                                          a a p r A f.f.n 9 6 2 1 2 6 7 7 e a.E s a a                                           ",
"                                          s s f P f.&.n 9 2 1 < < < 1 2 6 9 &.E a a a                                           ",
"                                        a s A ..f.&.n w 2 < < < < < , : , 9 a.I r p a                                           ",
"                                        a s _ f.$.n w 6 2 < < < < , : : : 8 &...k s a a                                         ",
"                                        f h a.&.n w 7 6 1 < < < < : = = : < C E y p a a                                         ",
"                                        ..f.f.n w 7 6 2 < < < < < : : : ; : 7 ..A a a a     w.                                  ",
"                                        a.f.A w 7 7 6 2 < < < < : : : * * > a C z e p a     7.                                  ",
"                                      0.f.E w 7 7 7 6 2 < < < , : : ; - @ # , < 9 u p a     ..;.                                ",
"                                    7.....z 9 7 7 7 6 2 < < < : : ; ; @ @ @ @ ; 7 t 0 p   7._ ..                                ",
"                                    ....A w 7 7 7 7 6 1 < < < : : : & @ + + + & 6 8 8 u   .._ ..                                ",
"                                    ..P s 8 7 7 7 6 2 < < < < : : * @ @ O . o < 7 7 8 u f Q ....                                ",
"                                  0.E f u 8 7 7 7 6 1 < < < : = ; & @ + X . . + 4 7 9 p f E ....                                ",
"                                  ..I s i 8 7 7 7 6 2 < < < : : ; @ @ + . . . o 3 8 u s A ....7.                                ",
"                                  ..E s i 8 7 7 7 6 2 < < < : : ; @ @ + . . . + 5 8 i s P ....                                  ",
"                                  ..P s i 8 7 7 7 6 2 < < < : : ; @ @ + . . o 1 7 8 u a h E ..                                  ",
"                                  Q f a i 8 7 7 7 6 2 < < < : : ; @ @ + . . o 3 7 7 9 a A ....                                  ",
"                                  / s a i 8 7 7 7 6 2 < < < : : ; @ @ + . . o 3 7 7 8 a I ....                                  ",
"                                  / s a i 8 7 7 7 6 2 < < < : : ; @ @ + . . o 3 7 7 9 a I ..0.                                  ",
"                                  / f a i 8 7 7 7 6 2 < < < : : ; @ @ + . . o 3 7 8 u f E ..                                    ",
"                                  0.  a i 8 7 7 7 6 2 < < < : : ; @ @ @ O . o 3 7 8 a A ....                                    ",
"                                  r.  a i 8 8 7 7 6 2 < < < : : : - @ @ @ + @ 6 7 8 a I ....                                    ",
"                                      a u w h 9 7 6 2 < < < : = : * @ @ @ @ $ 6 7 9 a E ..7.                                    ",
"                                      a u w c e 7 6 2 < < < : : : * @ @ @ @ % 6 8 u s E &.                                      ",
"                                  t.  a p e A z 9 6 2 < < < , : : : - @ @ @ % 6 8 a h f.M.                                      ",
"                                      a a a C P w 7 6 2 < < < : : : : ; ; ; : 6 9 n f.M.n.                                      ",
"                                      a a p r *.A 9 6 2 < < < : : : : : : : 6 7 9 E v.M.                                        ",
"                                        a u w a.a.9 6 2 < < < , : : = = : : 6 7 e a.v.b.                                        ",
"                                        a u w E a.0 7 6 2 < < < : : : : = : 6 w A c.a.                                          ",
"                                        a u w A a.e 7 7 6 1 < < , : : : : , 8 A c.*.)                                           ",
"                                        s a p h f.Q 9 7 7 2 < < < : : : : 6 e a.M.I h                                           ",
"                                          a a f f.a.0 7 7 6 1 < < < , : , w ) f.E f a                                           ",
"                                          s a f f.E 9 7 7 6 2 < < < < 1 8 A f.h s a s                                           ",
"                                            a f f.&.9 7 7 7 6 1 < < 2 6 e a.a.f a a                                             ",
"                                            a s _ a.e 7 7 7 6 2 1 2 6 9 / a.h a a a                                             ",
"                                              g I c.A w 7 7 7 6 6 6 7 9 c h a a a g                                             ",
"                                              s h a.c.n 9 7 7 7 7 7 7 8 w p a a                                                 ",
"                                                a h f.E w 8 7 7 7 8 9 u p a a a                                                 ",
"                                                s f &.f.f y 9 8 9 u i a a a a a                                                 ",
"                                                L f h a.E f i i i a a a a a s                                                   ",
"                                                    f I ..P f a a a a a s                                                       ",
"                                                      k E ..A s a a a s                                                         ",
"                                                      -.....E f a a a   9.        N.                                            ",
"                                                        0.....P f       0.                                                      ",
"                                                          7..._ Q   0.....9.                                                    ",
"                                                            ;...........;.                                                      ",
"                                                                ;.....                                                          ",
"                                                                  1.                                                            ",
"                                                                                                                                "
};
