/* XPM */
static char *rcp52043604153532882[] = {
/* columns rows colors chars-per-pixel */
"64 64 143 2 ",
"   c None",
".  c #081C2B",
"X  c #081F30",
"o  c #0A2334",
"O  c #0B263B",
"+  c #0C293E",
"@  c #0D2C42",
"#  c #0E2F48",
"$  c #0E324B",
"%  c #0F3753",
"&  c #0F3955",
"*  c #0F3B58",
"=  c #103956",
"-  c #103C59",
";  c #103F60",
":  c #124263",
">  c #15466C",
",  c #15486F",
"<  c #154971",
"1  c #184F75",
"2  c #175077",
"3  c #195077",
"4  c #17517B",
"5  c #19547D",
"6  c #1A5682",
"7  c #1A5986",
"8  c #1B5D8C",
"9  c #1C5F90",
"0  c #1C608F",
"q  c #1D6294",
"w  c #1E669A",
"e  c #1D689E",
"r  c #21689C",
"t  c #1F6BA2",
"y  c #216DA4",
"u  c #216FA8",
"i  c #2170A7",
"p  c #2373AD",
"a  c #2875AE",
"s  c #2475B0",
"d  c #2676B0",
"f  c #2677B0",
"g  c #2776B1",
"h  c #2577B4",
"j  c #2376B2",
"k  c #2877B0",
"l  c #2778B1",
"z  c #2478B3",
"x  c #2678B2",
"c  c #2379B7",
"v  c #2479B7",
"b  c #2479B5",
"n  c #257CBA",
"m  c #267CBB",
"M  c #277EBC",
"N  c #247CBB",
"B  c #287EBC",
"V  c #2680C0",
"C  c #2985C7",
"Z  c #2984C6",
"A  c #2985C8",
"S  c #2A87CB",
"D  c #2987CB",
"F  c #2989CC",
"G  c #2A89CE",
"H  c #2A89CF",
"J  c #2B89CF",
"K  c #2A89CE",
"L  c #2A8AD0",
"P  c #2B8AD0",
"I  c #2A8BD1",
"U  c #2B8BD1",
"Y  c #2A8BD2",
"T  c #2A8DD3",
"R  c #2B8DD3",
"E  c #2A8ED3",
"W  c #2B8CD4",
"Q  c #2B8ED5",
"!  c #2A8ED6",
"~  c #2B8FD7",
"^  c #2D8DD4",
"/  c #2C8ED5",
"(  c #2E8FD4",
")  c #2C8FD6",
"_  c #2B8DD4",
"`  c #2C90D7",
"'  c #2B90D9",
"]  c #2B92DB",
"[  c #2C90D9",
"{  c #2C91D9",
"}  c #2D91D9",
"|  c #2F91D9",
" . c #2F92D8",
".. c #2C90DA",
"X. c #2C91DA",
"o. c #2D93DA",
"O. c #2E92DA",
"+. c #2E93DA",
"@. c #2E93DB",
"#. c #2C92DC",
"$. c #2C93DD",
"%. c #2D93DD",
"&. c #2E93DC",
"*. c #2F94DC",
"=. c #2D94DF",
"-. c #2E94DF",
";. c #2E95DF",
":. c #2D93DB",
">. c #3193D9",
",. c #3093DA",
"<. c #3093DB",
"1. c #3193DB",
"2. c #3293DA",
"3. c #3194D9",
"4. c #3295DA",
"5. c #3495D9",
"6. c #3495DA",
"7. c #3395DC",
"8. c #3296DD",
"9. c #3195DE",
"0. c #3196DE",
"q. c #3396DE",
"w. c #3595DC",
"e. c #3294DA",
"r. c #3498DF",
"t. c #3598DE",
"y. c #3A99DD",
"u. c #2E96E3",
"i. c #2E96E2",
"p. c #2F98E6",
"a. c #2E99E5",
"s. c #2E9BE8",
"d. c #2F9AE9",
"f. c #2F9BE9",
"g. c #2E9CE9",
"h. c #2F9CEA",
"j. c #2F9CEB",
"k. c #2F9CEA",
"l. c #3397E0",
"z. c #309BEA",
"x. c #309CEA",
"c. c #319DEC",
"v. c #38A3EE",
/* pixels */
"                                                                                                                                ",
"                                                                                                                                ",
"                                                                                                                                ",
"                                                                                                                                ",
"                                                                                                                                ",
"                                                  7.,.,.4.                                                                      ",
"                                              6.} } } } $.( m h p p f                                                           ",
"                                            6.} } } ( $.p.$.~ H j p p p                                                         ",
"                                            ,.$.7.  m P ' s.x.} v j p p f           y.                                          ",
"                                          7.7.    f p j c ~ h.s.} H j p p                                                       ",
"                                        r.7.      p p i i j P z.h.} c p p p p                                                   ",
"                                                  p p i 8 7 q S h.h.P p u p p p                                                 ",
"                                                p p i y 7 6 6 q H h.~ w 8 u p p f                                               ",
"                                              l p y 8 7 6 6 6 6 q } s.S 9 y p p p     6.                                        ",
"                                              p i 8 6 6 6 6 6 5 5 w i.~ 8 8 i p p a   ,.                                        ",
"                                            p p y 7 6 6 6 6 5 < , 4 ~ $.8 7 y p p p   4.                                        ",
"                                            p y 8 6 6 6 6 5 < > > > 6 m 8 6 8 y p p   4.                                        ",
"                                          l i 8 6 6 6 6 5 < > > > > > 1 4 6 6 8 i p   ,.                                        ",
"                                6.        f y 7 6 6 6 6 5 , > > > > - - : 2 6 7 y p   } -.                                      ",
"                                w.        p y 7 8 6 6 6 < > > > > - - - - : 5 7 u p l ~ }                                       ",
"                                        f i 8 q M 8 6 5 , > > > - - - - - - 4 7 y p j T }                                       ",
"                                        p u q C P 8 6 5 , > > > - - - = = - : 5 8 y j T }                                       ",
"                                        p u e -.( 8 5 < > > > - - - - = = * - 4 7 y j T }                                       ",
"                                      f p j H -.w 6 5 , > > > - - - % @ @ @ - 5 7 y j T }                                       ",
"                                      p p c ' -.8 6 5 , > > > - - = @ @ @ @ , 5 7 y j T }                                       ",
"                                      p j P s.( 8 6 5 , > > > - - = @ @ @ @ $ 4 7 y j T } ,.                                    ",
"                                      p j ' i.w 6 6 5 , > > - * = % @ @ @ O O , 6 8 p ( } }                                     ",
"                                      p v p.( 8 6 6 4 < > > - * = @ @ @ + X . + 3 7 i ~ } 4.                                    ",
"                                    f f T -.w 6 6 5 < > > > - - = @ @ @ O . . o 1 6 q H }                                       ",
"                                    s j ' -.8 6 6 5 , > > > - - = @ @ + . . . o 1 6 q P }                                       ",
"                                    f h p.i.0 6 6 5 < > > > - - = @ @ + . . . o 1 8 B ( -.                                      ",
"                                      M p.` 8 6 6 5 < > > > - - = @ @ + . . . o 1 7 e T x.                                      ",
"                                      } i.w 6 6 6 5 < > > > - - = @ @ + . . . o 1 8 C $.x.                                      ",
"                                      u.-.8 6 6 6 5 < > > > - - = @ @ + . . . + 1 8 P s.i.                                      ",
"                                      c.-.0 6 6 6 5 < > > > - - * @ @ + . . o , 5 8 T s.}                                       ",
"                                    l.c.i.8 6 6 6 5 < > > > - - * @ @ @ O . o 2 6 8 -.s.M                                       ",
"                                    -.c.i.8 6 6 6 6 < > > > - - - % @ @ @ + @ 4 6 w a.p.v                                       ",
"                                    -.c.-.8 6 6 6 6 < > > > - - - = @ @ @ @ $ 4 q H h.~ v                                       ",
"                                    -.h.~ q 6 6 6 5 < > > > - - - = % @ @ @ # 6 C h.a.m                                         ",
"                                    -.s.' i 7 6 6 5 < > > > - - - - * % @ @ $ 8 ( s.T f                                         ",
"                                    w.c.p.p 7 6 6 5 < > > > - - - - - - = = < C h.p.v p                                         ",
"                                      i.-.p 8 6 6 5 , > > > - - - - - - * : l -.p.H j p                                         ",
"                                      ( c p y 7 6 5 < > > > : - - - - - - - 7 w V e i p                                         ",
"                                      ( j p y 7 6 6 5 , > > > - - - - - - - 4 6 8 y p p                                         ",
"                                      ( j p u 8 6 6 6 < > > > > - - - - - - 5 6 8 i p p                                         ",
"                                      ( v p p y 7 6 6 5 , > > > : - - - - - 5 7 y p p                                           ",
"                                      $.H j p i 7 6 6 6 < > > > > - - = - 4 6 7 u p p                                           ",
"                                      -.^ j p i 8 6 8 6 5 , > > > : - - : 5 6 8 u p p                                           ",
"                                      7.  f p p y q V w 5 < > > > > ; : 4 6 8 y p p f     v.                                    ",
"                                      7.    p p i q ~ ' w 5 < > , < 4 5 6 7 y p p p       v.                                    ",
"                                      7.    k p p y t $.( 8 4 < 5 5 6 6 6 8 i p p                                               ",
"                                      } 4.    p p i i M $.w 8 6 6 7 6 7 8 y p p l     6.                                        ",
"                                      } 4.      p p p z $.~ C q 7 r 8 y y p p l   4.} }                                         ",
"                                      7.        p p p p M p.s.H e p i j p p c P } } } ,.                                        ",
"                                      r.        p p p p j ~ h.j.i.~ M S v c P } } 7.                                            ",
"                                                  p p p p c ~ s.j.j.p.$.~ ~ } } 4.                                              ",
"                                                      p p p c ~ i.h.j.s.$.' ' }                                                 ",
"                                                        p p f ^ } $.$.$.} ' } 4.                                                ",
"                                                          k     4.} ,.,.,.,.                                                    ",
"                                                                                                                                ",
"                                                                                                                                ",
"                                                                                                                                ",
"                                                                                                                                ",
"                                                                                                                                "
};
