/* XPM */
static char *f97f0e8a13f84d05e161f3fd3dbae87aPnIFLxATyOpHrlAE[] = {
/* columns rows colors chars-per-pixel */
"64 64 198 2 ",
"   c None",
".  c #060507",
"X  c #060608",
"o  c #0A060A",
"O  c #0B0B0C",
"+  c #080709",
"@  c #110A0E",
"#  c #0B0C10",
"$  c #170E14",
"%  c #141415",
"&  c #1A1315",
"*  c #161817",
"=  c #16161C",
"-  c #2F0F1A",
";  c #230D18",
":  c #2E111C",
">  c #221819",
",  c #281A1C",
"<  c #33121D",
"1  c #39111E",
"2  c #1B1A23",
"3  c #2E1929",
"4  c #361521",
"5  c #3A1B32",
"6  c #292A27",
"7  c #262629",
"8  c #3B2727",
"9  c #3A2827",
"0  c #30262B",
"q  c #2A2836",
"w  c #362737",
"e  c #2E313F",
"r  c #353432",
"t  c #4B1629",
"y  c #431928",
"u  c #5A1A2F",
"i  c #5A1B30",
"p  c #6B1E39",
"a  c #7E1F3F",
"s  c #4E242E",
"d  c #492C2D",
"f  c #49312E",
"g  c #572838",
"h  c #41393C",
"j  c #4B3534",
"k  c #5C3D3E",
"l  c #533737",
"z  c #482B3F",
"x  c #652C3B",
"c  c #7D203E",
"v  c #312E40",
"b  c #2E3241",
"n  c #333344",
"m  c #3A3649",
"M  c #422F44",
"N  c #433446",
"B  c #4E3F56",
"V  c #542D42",
"C  c #69244E",
"Z  c #75214B",
"A  c #792652",
"S  c #7D2C58",
"D  c #763259",
"F  c #3D4255",
"G  c #3F4459",
"H  c #434446",
"J  c #4E4F4F",
"K  c #564B46",
"L  c #45455B",
"P  c #4E445A",
"I  c #4A4957",
"U  c #58554F",
"Y  c #6D4948",
"T  c #625048",
"R  c #6E5D52",
"E  c #714557",
"W  c #77665A",
"Q  c #4C4B63",
"!  c #554D67",
"~  c #4D526C",
"^  c #585764",
"/  c #565F7C",
"(  c #5C5C7A",
")  c #545571",
"_  c #724C78",
"`  c #615E7C",
"'  c #6C5C70",
"]  c #785168",
"[  c #69666A",
"{  c #6E6E71",
"}  c #64677D",
"|  c #6B6A7D",
" . c #776D70",
".. c #8D2545",
"X. c #98294C",
"o. c #853449",
"O. c #853848",
"+. c #88395C",
"@. c #992753",
"#. c #A2294F",
"$. c #B62E5B",
"%. c #B72D5A",
"&. c #A63258",
"*. c #BF3562",
"=. c #C42F5E",
"-. c #C2315E",
";. c #CC3162",
":. c #D03866",
">. c #8E4B53",
",. c #8A5C5A",
"<. c #875F59",
"1. c #934D56",
"2. c #94645F",
"3. c #905E60",
"4. c #B8486A",
"5. c #BD5267",
"6. c #A24F7C",
"7. c #AA4168",
"8. c #9F6262",
"9. c #B37771",
"0. c #BC7A75",
"q. c #B57C74",
"w. c #A76E75",
"e. c #CA4568",
"r. c #D4456B",
"t. c #D74B6F",
"y. c #DC5975",
"u. c #C9546F",
"i. c #C76974",
"p. c #D56B7A",
"a. c #DA667A",
"s. c #CA7C7B",
"d. c #C37977",
"f. c #E06A7D",
"g. c #988A7C",
"h. c #98907F",
"j. c #C4867E",
"k. c #635F80",
"l. c #6A5F83",
"z. c #5C6684",
"x. c #626283",
"c. c #6B6A8C",
"v. c #686887",
"b. c #736B8E",
"n. c #767589",
"m. c #696E90",
"M. c #6B7295",
"N. c #6E7599",
"B. c #6F789C",
"V. c #717496",
"C. c #73799E",
"Z. c #777796",
"A. c #757CA2",
"S. c #787DA6",
"D. c #B87482",
"F. c #E97B86",
"G. c #E67D87",
"H. c #7680A6",
"J. c #7B84AC",
"K. c #7D87B1",
"L. c #7F89B3",
"P. c #8B8C93",
"I. c #81809A",
"U. c #858792",
"Y. c #918F9F",
"T. c #93939C",
"R. c #AE9F8A",
"E. c #A89A86",
"W. c #B7A28E",
"Q. c #8185AD",
"!. c #8487A4",
"~. c #9494A8",
"^. c #818DB6",
"/. c #828EB9",
"(. c #888EB6",
"). c #9E9EB0",
"_. c #A89EAD",
"`. c #AC9FB0",
"'. c #BE98A8",
"]. c #AFA0AB",
"[. c #ADAEBC",
"{. c #A3A4B8",
"}. c #AEB0BC",
"|. c #B2B5BF",
" X c #DF8385",
".X c #D78081",
"XX c #C58987",
"oX c #EB858B",
"OX c #E8938E",
"+X c #E49993",
"@X c #F7A298",
"#X c #EE94A0",
"$X c #C4ADBF",
"%X c #AEB2C6",
"&X c #B2B4C0",
"*X c #B8BBC9",
"=X c #BEC1CA",
"-X c #C1C7D9",
/* pixels */
"                                                                                                                                ",
"                                                                                                                                ",
"                                                                                                                                ",
"                                                                                                                                ",
"                                                                                                                                ",
"                                                                                                                                ",
"                                                                                                                                ",
"                                                                                                                                ",
"                                                                                                                                ",
"                                                                                                                                ",
"                                                                                                                                ",
"                                                                                                                                ",
"                                                                                                                                ",
"                                                                                                                                ",
"                                                                                                                                ",
"                                                                                                                                ",
"                                                                                                                                ",
"                                                              8 9 9 9                                                           ",
"                                                            l j. X Xd.d < < :                                                   ",
"                                                          > d.oXr.:.r.p.e.-.X.4                                                 ",
"                                                          > s.r.;.;.;.t.G.*.;...@                                               ",
"                                                          > s.r.;.$.$.e.D.+.$.X.@                                               ",
"                                                          > s.r.&.Z A 6.b.l.D p @                                               ",
"                                                          > 8.u.A C _ Q.^.J.( q O                                               ",
"                                                            , 3.] _ Q././././.M.e                                               ",
"                                                              2 C.^.^.^.L.N.v.^.M.b                                             ",
"                                                              F J./.^./.J.( I z./.M.n                                           ",
"                                                            F H./.^.^./.J.I.].V x././ O                                         ",
"                                                          F H././.^.^.^.K.!.$Xw.e ^./ X H H X                                   ",
"                                          k x u :       G H.^.^.^./.^.^./.J.!.Y.L S./ 7 { {                                     ",
"                                        u 5.r.=.1     G H./.^.^.L.A.^./.L.J.{.[.{.!.( L H .                                     ",
"                                      o t p 5.a.o.: n A./.^.A.^.^.C.C.m.~ ` n.-X*X~.I.' W J X                                   ",
"                                        . t 5.f.o.B m.L./.^.N.) J.J.c.I.^ n n } %X~.n.E #Xg.X                                   ",
"                                        Y i.r.a N B./.^./.^.Q.] Q V.~.*X_.w v ^ {.n.7 ; x k                                     ",
"                                      i 5.a.o.P M.L.^.A.K.(.'.+X,.I |.=X`.C 5 e e q                                             ",
"                                    Y i.r.a P H./.^.^.A.m.L Y p.OX2.[ &X`.S @.u o                                               ",
"                                  . 2.@X>.M N./.^.^.^.^.C.L m x  Xp.,.[ T.g ;.%.p                                               ",
"                                  . 2.@Xl ~ ^.^.^.^.^.^.L.c.) 0 0.O.0.r U.y #.c ..O                                             ",
"                                  . O.y.s / /.^.^.^.^.^.L.x.m h.j.f 9.h U.y ..s 1.@                                             ",
"                                  . >.F.g / /.^.^.^.^.L.N.` I U T E.j.h P.> k W.w.@                                             ",
"                                  o O.y.s / /.^.^.^.^.V.x.k.` ! | U K P.T.% 6 K j                                               ",
"                                  o c ;.t Q J.^.^.L.N.x.k.k.v.).|.P.P.}.| %                                                     ",
"                                  o c ;.Z 3 ) c.c.b.l.` ` ` v.&X=X-X&XZ.( m #                                                   ",
"                                    4 p C 3 P N +.4.7.z Q n ` [.*X}.| n ! 7 $ & & & &                                           ",
"                                      $ ; <.XXj..XoXF.&.w L ` n.Z.} w X.4.0.0.9.q.q.<.O                                         ",
"                                        O h.W R.R W.p.$.4 Q ( ( ( Q : %.e.OX0.R R.W g.O                                         ",
"                                        + 6 * 6 % 6 4 - @ = 2 2 2 = @ < < 8 , % 6 * 6 O                                         ",
"                                                                                                                                ",
"                                                                                                                                ",
"                                                                                                                                ",
"                                                                                                                                ",
"                                                                                                                                ",
"                                                                                                                                ",
"                                                                                                                                ",
"                                                                                                                                ",
"                                                                                                                                ",
"                                                                                                                                ",
"                                                                                                                                ",
"                                                                                                                                ",
"                                                                                                                                ",
"                                                                                                                                ",
"                                                                                                                                ",
"                                                                                                                                ",
"                                                                                                                                "
};
