/* XPM */
static char *rcp33086472172358074[] = {
/* columns rows colors chars-per-pixel */
"64 64 175 2 ",
"   c None",
".  c #010001",
"X  c #0A0506",
"o  c #0E0807",
"O  c #0B0708",
"+  c #0C0A0A",
"@  c #120D0D",
"#  c #180E0E",
"$  c #170F10",
"%  c #161313",
"&  c #1B1313",
"*  c #1E1B1B",
"=  c #2A1416",
"-  c #231C1C",
";  c #29191B",
":  c #331D1E",
">  c #2E1E21",
",  c #351F21",
"<  c #242122",
"1  c #2B2425",
"2  c #2F2929",
"3  c #342224",
"4  c #3B2021",
"5  c #302E2F",
"6  c #3B2E2F",
"7  c #373031",
"8  c #3A3435",
"9  c #41292C",
"0  c #4B2C2E",
"q  c #4F2E31",
"w  c #433334",
"e  c #4A3234",
"r  c #493739",
"t  c #433B3D",
"y  c #503436",
"u  c #523B3C",
"i  c #5B3B3D",
"p  c #5E3F43",
"a  c #4B4445",
"s  c #4C4949",
"d  c #5A4546",
"f  c #534D4E",
"g  c #584F50",
"h  c #5D5254",
"j  c #595658",
"k  c #5D5859",
"l  c #565555",
"z  c #6A4649",
"x  c #6A4B4F",
"c  c #624145",
"v  c #714A4E",
"b  c #7A4A4E",
"n  c #714D53",
"m  c #675558",
"M  c #6A5759",
"N  c #655A5C",
"B  c #6B5A5D",
"V  c #795A5B",
"C  c #6A5F61",
"Z  c #765F62",
"A  c #795D61",
"S  c #6D6163",
"D  c #6D6B6B",
"F  c #786467",
"G  c #716769",
"H  c #746D6D",
"J  c #786769",
"K  c #7E6F71",
"L  c #7E7474",
"P  c #7F7678",
"I  c #7C7879",
"U  c #8D4145",
"Y  c #994F54",
"T  c #835257",
"R  c #84585C",
"E  c #8A595E",
"W  c #995158",
"Q  c #8C5F65",
"!  c #935C61",
"~  c #A05C63",
"^  c #8B686B",
"/  c #8B676B",
"(  c #9F6065",
")  c #936369",
"_  c #9C6268",
"`  c #936F73",
"'  c #857779",
"]  c #857B7D",
"[  c #987A7D",
"{  c #A9676C",
"}  c #A7696E",
"|  c #A86A73",
" . c #B36E76",
".. c #B86F74",
"X. c #B47075",
"o. c #B47279",
"O. c #BC737B",
"+. c #B97D82",
"@. c #8F898B",
"#. c #8C8284",
"$. c #958B8C",
"%. c #998D8F",
"&. c #998F91",
"*. c #939091",
"=. c #999797",
"-. c #9B9A9A",
";. c #A6868A",
":. c #B28D90",
">. c #BE8E93",
",. c #A19396",
"<. c #AB9195",
"1. c #A79798",
"2. c #A89A9C",
"3. c #B49294",
"4. c #BC999E",
"5. c #A3A1A1",
"6. c #ADA0A2",
"7. c #AAA9A9",
"8. c #B0A0A1",
"9. c #BBA2A4",
"0. c #BDA6A8",
"q. c #BCACAE",
"w. c #B5AAAC",
"e. c #BEAEB1",
"r. c #BFB1B3",
"t. c #BFBDBC",
"y. c #CD999E",
"u. c #CD9DA3",
"i. c #D09CA2",
"p. c #DB9FA3",
"a. c #C8AAAC",
"s. c #D4A0A7",
"d. c #D9A3A8",
"f. c #D9A2A5",
"g. c #D8ADB1",
"h. c #C2B7BA",
"j. c #C3BFBE",
"k. c #CBBCBE",
"l. c #C1B1B4",
"z. c #D5B6B5",
"x. c #D6B9BC",
"c. c #D2BFC2",
"v. c #CDC2C4",
"b. c #C9C7C8",
"n. c #CCCBCB",
"m. c #C3C1C1",
"M. c #D4C3C4",
"N. c #DAC4C7",
"B. c #D3C7CA",
"V. c #D2CCCD",
"C. c #DCCACC",
"Z. c #DECFD1",
"A. c #DDD2D3",
"S. c #E3C3C6",
"D. c #E1CED1",
"F. c #E2D2D4",
"G. c #E6D9DB",
"H. c #EADCDC",
"J. c #EADFE3",
"K. c #E6E3E4",
"L. c #ECE4E5",
"P. c #EBE7E8",
"I. c #EDE9EA",
"U. c #F0E7E9",
"Y. c #F2ECED",
"T. c #F3EEF0",
"R. c #F6F6F6",
"E. c #F8F6F6",
"W. c #F6F8F7",
"Q. c #F9F8F7",
"!. c #F7F7F8",
"~. c #F7F8F8",
"^. c #F9F9F8",
"/. c #FAFAF9",
"(. c #FAFAFA",
/* pixels */
"                                                                                                                                ",
"                                                                                                                                ",
"                                                                                                                                ",
"                                                                                                                                ",
"                                                                                                                                ",
"                                                                                                                                ",
"                                                                                                                                ",
"                                                                                                                                ",
"                                                                                                                                ",
"                                                                                                                                ",
"                                                                                                                                ",
"                                                                                                                                ",
"                            .                                                                                                   ",
"                            . .                                                                                                 ",
"                            t 8                                                                                                 ",
"                          @ <.F .                                                                                               ",
"                          + <.A .                                                                                               ",
"                            m Z B %                                                                                             ",
"                            . B 4.%                                                                                             ",
"                            . M :.*                                                                                             ",
"                              6 d [ r                                                                                           ",
"                                > i.u .                                                                                         ",
"                              . 1 y.u .                                                                                         ",
"                            . . 3 y.u                                                                                           ",
"                          X c Q ^ d w           . . . .                                                                         ",
"                        ; 0 { +./ &         t s s s s s s s s                                                                   ",
"                        , O.O.z o       % % =.R.T.T.T.T.Y.R.7.<                       & & &                                     ",
"                      . , o.y ;     . f b.b.K.^.~.~.~.~.!.^.P.t.5       . . .       < 1.0.' X                                   ",
"                        , O.T e . . . l !.^.^.W.!.!.!.!.!.!.^.I.-.k   % S H S       - >.p.` X                                   ",
"                        3 ! O.T ; X - I !.!.!.!.!.!.!.!.!.!.!.!.^.$.1 $ 9.S.3.#   . # T ! v o                                   ",
"                          # ! O._ & #.G.E.!.!.!.!.!.!.!.!.!.!.!.!.R.5.% 9.f._ @ + + @ % & *                                     ",
"                            3 b } & $.L.Q.W.!.!.!./.I.G.!.!.!.!.W.^.7.% 9.p.~ # @.m.j.t.j.*.O                                   ",
"                              e i @ $.G.L.!.E.!.R.5.w.Z.K.!.W.!.!.^.b.N K V z N A.H.z.R.(.n.D                                   ",
"                                . X $.C.Z.R.W.Q.P.f G e.C.Y.!.!.E.~.R.B.a - a B.R.a.W S.Y.^.P.j                                 ",
"                                  X $.C.Z.R.!.!.!.K.] w k.C.K.E.!.W.!.Y.v.h.B.Y.^.a.U Y x.^.!.K.L o                             ",
"                                  X %.D.C.F.I.^.~.^.V.$.g 6.K.Q.W.!.W.!.Y.Y.R.Q.^.H.z.z.F.J.G.g.3.L %                           ",
"                                  X H $.&.c.G.L.L.L.Y.j.% $.G.I.!.!.!.W.^.~.!.I.P.U.I.Y.G.C.N.u.d.;.+                           ",
"                                    & & 3 8.k.v.C.C.M.2.% $.C.C.Y.R.R.R.!.!.Y.v.k.k.k.k.k.M.C.C.s.) o                           ",
"                                  X n | ) 6 < h N.C.] - O &.C.C.A.A.A.F.F.F.q.7 1 1 1 1 1 C C.C.S.<.@                           ",
"                                    e u i z z x N N t % O &.D.C.C.C.C.M.K N m z & . . .   8 B N N N                             ",
"                                      . # T ..( 4 : > * + P q.M.2.,.,.&.2 . ; E q , 3       . . .                               ",
"                                          o v O.X. .p .   o h r.- X O O       # R o.) &                                         ",
"                                            ; : : : & .   . f l.% X             > : ; X                                         ",
"                                              . . . .       t S p 3 X             . . .                                         ",
"                                                              & Q i = =                                                         ",
"                                                                & v  .} 3                                                       ",
"                                                                  9 0 0                                                         ",
"                                                                    . .                                                         ",
"                                                                                                                                ",
"                                                                                                                                ",
"                                                                                                                                ",
"                                                                                                                                ",
"                                                                                                                                ",
"                                                                                                                                ",
"                                                                                                                                ",
"                                                                                                                                ",
"                                                                                                                                ",
"                                                                                                                                ",
"                                                                                                                                ",
"                                                                                                                                ",
"                                                                                                                                ",
"                                                                                                                                ",
"                                                                                                                                ",
"                                                                                                                                "
};
