/* XPM */
static char *rcp86488216171912593[] = {
/* columns rows colors chars-per-pixel */
"64 64 174 2 ",
"   c None",
".  c #020101",
"X  c #0A0506",
"o  c #090807",
"O  c #0D0708",
"+  c #0D090A",
"@  c #140D0D",
"#  c #180D0E",
"$  c #140F10",
"%  c #1A0F11",
"&  c #161213",
"*  c #1B1213",
"=  c #1E1C1C",
"-  c #200F10",
";  c #2A1416",
":  c #221B1C",
">  c #2A1B1C",
",  c #221516",
"<  c #331D1E",
"1  c #32171B",
"2  c #2E1E20",
"3  c #341E22",
"4  c #262323",
"5  c #2A2525",
"6  c #2D2828",
"7  c #322325",
"8  c #3C2225",
"9  c #372728",
"0  c #3E272B",
"q  c #3B2E2F",
"w  c #363032",
"e  c #3F3D3E",
"r  c #393333",
"t  c #402C2E",
"y  c #492D2F",
"u  c #502E31",
"i  c #403537",
"p  c #4C3134",
"a  c #423639",
"s  c #443C3C",
"d  c #55383A",
"f  c #5A3B3D",
"g  c #523133",
"h  c #5A3E42",
"j  c #623C40",
"k  c #4C4445",
"l  c #4D494A",
"z  c #474545",
"x  c #534243",
"c  c #5F4042",
"v  c #564B4D",
"b  c #524F50",
"n  c #5A4F51",
"m  c #565555",
"M  c #5D5455",
"N  c #6C464B",
"B  c #6A4A4D",
"V  c #72494E",
"C  c #6F4C52",
"Z  c #754F54",
"A  c #685758",
"S  c #665B5D",
"D  c #625154",
"F  c #765053",
"G  c #7A5B5C",
"H  c #6A5F61",
"J  c #6D6062",
"K  c #6B6969",
"L  c #7D6469",
"P  c #726A6B",
"I  c #716163",
"U  c #7E6F71",
"Y  c #7C7879",
"T  c #7D7576",
"R  c #8D4145",
"E  c #994F54",
"W  c #835156",
"Q  c #83555A",
"!  c #8A585E",
"~  c #995158",
"^  c #8D5F65",
"/  c #945D63",
"(  c #A05C63",
")  c #8E6168",
"_  c #966065",
"`  c #956469",
"'  c #9D6168",
"]  c #94686D",
"[  c #806E70",
"{  c #936F72",
"}  c #807274",
"|  c #857778",
" . c #847C7C",
".. c #8D7175",
"X. c #957072",
"o. c #9C7479",
"O. c #9B797B",
"+. c #967579",
"@. c #A06065",
"#. c #A7666E",
"$. c #A86B73",
"%. c #B36E75",
"&. c #B86F74",
"*. c #B6747A",
"=. c #9C7F82",
"-. c #8F898B",
";. c #8C8285",
":. c #958B8D",
">. c #998E8F",
",. c #9B8F91",
"<. c #979796",
"1. c #9B9496",
"2. c #B8878F",
"3. c #BE8E93",
"4. c #A29495",
"5. c #A89A9D",
"6. c #A69A9C",
"7. c #B39194",
"8. c #A3A2A2",
"9. c #ADA0A2",
"0. c #A9A9A9",
"q. c #B0A0A1",
"w. c #BBA2A4",
"e. c #BDA6A8",
"r. c #BAADAE",
"t. c #BCAFB1",
"y. c #BFB1B3",
"u. c #BDBBBB",
"i. c #C19698",
"p. c #DB9FA3",
"a. c #C8AAAC",
"s. c #DAA1A4",
"d. c #D8AEB2",
"f. c #C3BFBE",
"g. c #CBBCBD",
"h. c #C2B3B7",
"j. c #D5B6B5",
"k. c #D9B6B9",
"l. c #CBBBC0",
"z. c #D2BFC2",
"x. c #CCC3C3",
"c. c #C9C6C8",
"v. c #CCCBCB",
"b. c #C3C1C1",
"n. c #D3C2C4",
"m. c #D8C3C7",
"M. c #D2C7CA",
"N. c #D2CCCD",
"B. c #DCCACC",
"V. c #DECFD1",
"C. c #DDD2D3",
"Z. c #E3C4C7",
"A. c #E1CED1",
"S. c #E3D3D5",
"D. c #E6D9DB",
"F. c #EADCDC",
"G. c #EADFE3",
"H. c #E7E5E5",
"J. c #EBE5E5",
"K. c #EEE6E9",
"L. c #EDE9EA",
"P. c #F0E7E9",
"I. c #F2ECEC",
"U. c #F3EEF0",
"Y. c #F6F6F6",
"T. c #F8F6F6",
"R. c #F6F8F7",
"E. c #F9F8F7",
"W. c #F7F7F8",
"Q. c #F7F8F8",
"!. c #F8F8F8",
"~. c #FBFAFA",
"^. c #FAF9F9",
"/. c #F9F9F9",
/* pixels */
"                                                                                                                                ",
"                                                                                                                                ",
"                                                                                                                                ",
"                                                                                                                                ",
"                                                                                                                                ",
"                                                                                                                                ",
"                                                                                                                                ",
"                                                                                                                                ",
"                                                                                                                                ",
"                                                                                                                                ",
"                                                                                                                                ",
"                                                                                                                                ",
"                          . . . .                                                                                               ",
"                            . a L $                                                                                             ",
"                              D +.x 5                                                                                           ",
"                                9 7.x @                                                                                         ",
"                                  7 ..L O                                                                                       ",
"                                  X =.X.X                                                                                       ",
"                                  X O.{ X                                                                                       ",
"                                  X o.{ .                                                                                       ",
"                                  X O.X..                                                                                       ",
"                                  X ] ^ .                                                                                       ",
"                                  , W V X                                                                                       ",
"                                : ] g -                                                                                         ",
"                              t V p 3         . . . . . .                                                                       ",
"                            8 c F %         e l l l l l l l z                                                                   ",
"                          O / N X       & & 1.Y.U.U.U.U.I.Y.8.=                       * * *                                     ",
"                          O / N .   . l c.v.H.!.Q.Q.Q.Q.W.!.H.u.5       . . .       4 6.e.| X                                   ",
"                          O _ N . X . m W.!.!.R.W.W.W.W.W.W.!.L.<.m   & J P H       : 3.p.{ X                                   ",
"                          O Z N > X : Y W.W.W.W.W.W.W.W.W.W.W.Q.!.:.5 $ w.Z.7.@   . # W / V O                                   ",
"                            O h ) * ;.D.T.W.W.W.W.W.W.W.W.W.W.W.W.Y.8.* w.s.' @ O + @ & * *                                     ",
"                              2 > O >.J.E.R.W.W.W.!.L.D.W.W.W.W.R.!.0.& w.p.( # -.b.f.u.f.:.X                                   ",
"                                . X >.D.J.W.T.W.Y.0.t.V.J.W.R.W.W.!.c.S [ G N S C.F.j.Y.~.v.K 5                                 ",
"                                  X >.B.V.Y.R.!.H.b P t.B.I.W.W.W.W.Y.M.k : k M.Y.a.~ Z.I.!.H.s : 4                             ",
"                                  X :.B.V.Y.W.W.W.H. .i g.B.J.T.W.W.W.I.x.h.M.U.!.a.R E k.!.I.2.i.4.$                           ",
"                                  X >.A.B.S.L.!.!.!.N.:.n 9.J.E.R.W.W.W.I.I.Y.E.!.F.j.j.S.G.D.k.s.o.O                           ",
"                                  X P :.,.z.D.J.J.J.I.f.& :.D.L.W.T.T.R.!.R.W.L.K.P.L.I.D.B.B.B.d.o.O                           ",
"                                    * % 7 q.g.x.B.B.m.5.& >.B.B.I.Y.Y.W.W.Y.I.x.l.g.g.g.g.n.B.B.n.4.@                           ",
"                                  X C $.` q 4 M m.B. .: o >.B.B.C.C.C.C.S.S.r.w 5 5 5 5 4 H B.B.} 5                             ",
"                                    p d f N N B S S s & o ,.A.B.B.B.B.n.U S A N * . . .   r S S k                               ",
"                                      . @ W &.@.8 1 > = + T r.n.5.4.6.1.6 . > ! u 1 <       . .                                 ",
"                                          O V *.%.%.j .   O n y.: o + +       # Q %._ *                                         ",
"                                            > < < < * .   . v h.& X             2 < > X                                         ",
"                                              . . . .       a I h 7 X             . . .                                         ",
"                                                              * ^ f ; ;                                                         ",
"                                                                * V %.#.3                                                       ",
"                                                                  0 y y                                                         ",
"                                                                    . .                                                         ",
"                                                                                                                                ",
"                                                                                                                                ",
"                                                                                                                                ",
"                                                                                                                                ",
"                                                                                                                                ",
"                                                                                                                                ",
"                                                                                                                                ",
"                                                                                                                                ",
"                                                                                                                                ",
"                                                                                                                                ",
"                                                                                                                                ",
"                                                                                                                                ",
"                                                                                                                                ",
"                                                                                                                                ",
"                                                                                                                                ",
"                                                                                                                                "
};
