/* XPM */
static char *rcp35565844171915365[] = {
/* columns rows colors chars-per-pixel */
"64 64 174 2 ",
"   c None",
".  c #020101",
"X  c #0A0506",
"o  c #0C0708",
"O  c #0D0909",
"+  c #140D0E",
"@  c #180D0E",
"#  c #140F10",
"$  c #1A0F11",
"%  c #161213",
"&  c #1B1213",
"*  c #1E1C1C",
"=  c #200F10",
"-  c #2A1416",
";  c #221B1C",
":  c #291A1C",
">  c #221516",
",  c #331D1E",
"<  c #2E1E21",
"1  c #351F21",
"2  c #262323",
"3  c #2B2525",
"4  c #2D2728",
"5  c #342426",
"6  c #3C2224",
"7  c #372728",
"8  c #3E272A",
"9  c #3B2E2F",
"0  c #373031",
"q  c #3F3D3E",
"w  c #3A3334",
"e  c #402C2E",
"r  c #492D2F",
"t  c #4F2E31",
"y  c #413537",
"u  c #4C3134",
"i  c #423639",
"p  c #453B3D",
"a  c #55373A",
"s  c #5A3B3D",
"d  c #523133",
"f  c #5C3E42",
"g  c #4B4445",
"h  c #4D494A",
"j  c #474545",
"k  c #534243",
"l  c #5F4042",
"z  c #544D4E",
"x  c #5A4F51",
"c  c #5B5455",
"v  c #555655",
"b  c #6C464A",
"n  c #6B4A4D",
"m  c #724A4E",
"M  c #6F4C52",
"N  c #754F54",
"B  c #615154",
"V  c #685758",
"C  c #665A5D",
"Z  c #765053",
"A  c #795A5B",
"S  c #6B5F61",
"D  c #6D6062",
"F  c #6B6969",
"G  c #716769",
"H  c #7D6569",
"J  c #726C6C",
"K  c #786769",
"L  c #7E6F71",
"P  c #7E7577",
"I  c #7C7879",
"U  c #8D4145",
"Y  c #994F54",
"T  c #835156",
"R  c #83555A",
"E  c #89585E",
"W  c #995158",
"Q  c #8D5F65",
"!  c #945D63",
"~  c #A05C63",
"^  c #8E6168",
"/  c #966064",
"(  c #9F6065",
")  c #94656A",
"_  c #9D6168",
"`  c #94686D",
"'  c #946F72",
"]  c #807274",
"[  c #8E7175",
"{  c #857778",
"}  c #857B7D",
"|  c #937072",
" . c #9A7377",
".. c #9C7479",
"X. c #9C787B",
"o. c #92767B",
"O. c #A7666E",
"+. c #A86B73",
"@. c #B36E76",
"#. c #B86F74",
"$. c #B47075",
"%. c #B8777C",
"&. c #B27479",
"*. c #9C7F82",
"=. c #8F898B",
"-. c #8C8285",
";. c #958B8D",
":. c #998D8E",
">. c #978E90",
",. c #9A8F91",
"<. c #979796",
"1. c #9A9697",
"2. c #B8878F",
"3. c #BE8E93",
"4. c #A29495",
"5. c #A89A9C",
"6. c #B39194",
"7. c #A3A1A2",
"8. c #ADA0A2",
"9. c #A8A9A9",
"0. c #B0A0A1",
"q. c #BBA2A4",
"w. c #BDA6A8",
"e. c #BCACAE",
"r. c #B5AAAC",
"t. c #BEAEB1",
"y. c #BFB1B3",
"u. c #BDBBBB",
"i. c #C19698",
"p. c #DB9FA3",
"a. c #C8AAAC",
"s. c #DAA1A4",
"d. c #D8AEB2",
"f. c #C2B7BA",
"g. c #C3BFBE",
"h. c #CBBCBE",
"j. c #C1B1B4",
"k. c #D5B6B5",
"l. c #D9B6B9",
"z. c #D2BFC2",
"x. c #CDC2C4",
"c. c #C9C7C8",
"v. c #CCCBCB",
"b. c #C3C1C1",
"n. c #D4C2C4",
"m. c #D8C4C7",
"M. c #D3C7CA",
"N. c #D2CCCD",
"B. c #DCCACC",
"V. c #DECFD1",
"C. c #DDD2D3",
"Z. c #E3C4C7",
"A. c #E1CED1",
"S. c #E2D2D4",
"D. c #E6D9DB",
"F. c #EADCDC",
"G. c #EADFE3",
"H. c #E7E5E5",
"J. c #EBE5E5",
"K. c #EEE6E9",
"L. c #EDE9EA",
"P. c #F0E7E9",
"I. c #F2ECED",
"U. c #F3EEF0",
"Y. c #F6F6F6",
"T. c #F8F6F6",
"R. c #F6F8F7",
"E. c #F9F8F7",
"W. c #F7F7F8",
"Q. c #F7F8F8",
"!. c #F9F9F8",
"~. c #FBFAFA",
"^. c #FAF9F9",
"/. c #FAFAFA",
/* pixels */
"                                                                                                                                ",
"                                                                                                                                ",
"                                                                                                                                ",
"                                                                                                                                ",
"                                                                                                                                ",
"                                                                                                                                ",
"                                                                                                                                ",
"                                                                                                                                ",
"                                                                                                                                ",
"                                                                                                                                ",
"                                                                                                                                ",
"                                                                                                                                ",
"                          . . . .                                                                                               ",
"                            . i H #                                                                                             ",
"                              B o.k 3                                                                                           ",
"                                7 6.k +                                                                                         ",
"                                  5 [ H o                                                                                       ",
"                                  X *.| X                                                                                       ",
"                                  X X.| X                                                                                       ",
"                                  X ..' .                                                                                       ",
"                                  X X.| .                                                                                       ",
"                                  X ` Q .                                                                                       ",
"                                  > T m X                                                                                       ",
"                                ; ) d =                                                                                         ",
"                              e m u 1         . . . . . .                                                                       ",
"                            6 l Z $         q h h h h h h h j                                                                   ",
"                          o ! b X       % % 1.Y.U.U.U.U.I.Y.7.*                       & & &                                     ",
"                          o ! b .   . h c.c.H.!.Q.Q.Q.Q.W.!.H.u.3       . . .       2 5.w.{ X                                   ",
"                          o / b . X . v W.!.E.R.W.W.W.W.W.W.!.L.<.c   % D J S       ; 3.p.' X                                   ",
"                          o N b : X ; I W.W.W.W.W.W.W.W.W.W.W.Q.!.;.3 # q.Z.6.+   . @ T ! m o                                   ",
"                            o f ^ & -.D.T.W.W.W.W.W.W.W.W.W.W.W.W.Y.7.& q.s._ + o O + % & &                                     ",
"                              < : o :.J.E.R.W.W.W.~.L.D.W.W.W.W.R.!.9.% q.p.~ @ =.b.g.u.g.;.X                                   ",
"                                . X :.D.J.W.T.W.Y.7.r.V.H.W.R.W.W.!.c.C L A b C C.F.k.Y.~.v.F 3                                 ",
"                                  X :.B.V.Y.R.E.H.z G t.B.I.W.W.T.W.Y.M.g ; g M.Y.a.W Z.I.!.H.p ; 2                             ",
"                                  X ;.B.V.Y.W.W.W.H.} y h.B.H.T.W.R.W.I.x.f.M.I.!.a.U Y l.!.I.2.i.4.#                           ",
"                                  X :.A.B.S.L.!.!.!.N.;.x 8.H.E.R.W.R.W.I.I.Y.E.!.F.k.k.S.G.D.l.s...o                           ",
"                                  X G ;.,.z.D.J.J.J.I.g.% ;.D.L.W.W.W.R.!.Q.W.L.K.P.L.I.D.B.B.B.d. .o                           ",
"                                    & $ 5 0.h.x.B.B.m.5.% :.B.B.I.Y.Y.Y.W.W.I.x.h.h.h.h.h.n.B.B.n.4.+                           ",
"                                  X M +./ 9 2 c m.B.} ; o ,.B.B.C.C.C.S.S.S.e.0 3 3 3 3 2 S B.B.] 3                             ",
"                                    u a s b b n C C p % o ,.A.B.B.B.B.n.L C V b & . . .   w C C g                               ",
"                                      . + T #.( 6 , < * o P e.n.5.4.4.>.4 . : E t 1 5       . .                                 ",
"                                          o m %.$.@.f .   o x y.; X o o       + R &.) &                                         ",
"                                            : , , , & .   . z j.% X             < , : X                                         ",
"                                              . . . .       i D f 5 X             . . .                                         ",
"                                                              & Q s - -                                                         ",
"                                                                & m @.O.1                                                       ",
"                                                                  8 r r                                                         ",
"                                                                    . .                                                         ",
"                                                                                                                                ",
"                                                                                                                                ",
"                                                                                                                                ",
"                                                                                                                                ",
"                                                                                                                                ",
"                                                                                                                                ",
"                                                                                                                                ",
"                                                                                                                                ",
"                                                                                                                                ",
"                                                                                                                                ",
"                                                                                                                                ",
"                                                                                                                                ",
"                                                                                                                                ",
"                                                                                                                                ",
"                                                                                                                                ",
"                                                                                                                                "
};
