/* XPM */
static char *rcp97284220171917926[] = {
/* columns rows colors chars-per-pixel */
"64 64 173 2 ",
"   c None",
".  c #020101",
"X  c #0A0506",
"o  c #0E0807",
"O  c #0C0708",
"+  c #0C0A0A",
"@  c #130C0D",
"#  c #180D0E",
"$  c #170F10",
"%  c #1D0F12",
"&  c #161313",
"*  c #1B1213",
"=  c #1E1C1C",
"-  c #201314",
";  c #2A1416",
":  c #231718",
">  c #231C1C",
",  c #291A1B",
"<  c #331D1E",
"1  c #2E1E21",
"2  c #341F22",
"3  c #262323",
"4  c #2B2425",
"5  c #2D2728",
"6  c #332426",
"7  c #3A2324",
"8  c #3C272A",
"9  c #3D2B2C",
"0  c #362D2E",
"q  c #373031",
"w  c #3B3334",
"e  c #472A2D",
"r  c #492D2F",
"t  c #4C2E31",
"y  c #413537",
"u  c #493135",
"i  c #443638",
"p  c #423C3D",
"a  c #4D3D3F",
"s  c #543537",
"d  c #543638",
"f  c #55383A",
"g  c #5A3B3D",
"h  c #5C3F42",
"j  c #474646",
"k  c #4B4445",
"l  c #4C4849",
"z  c #5E4446",
"x  c #544D4E",
"c  c #5C4F50",
"v  c #555254",
"b  c #5B5455",
"n  c #6B464A",
"m  c #6C4A4E",
"M  c #71494E",
"N  c #6F4C52",
"B  c #7A4D50",
"V  c #605758",
"C  c #685758",
"Z  c #665B5D",
"A  c #795558",
"S  c #7C5A5D",
"D  c #6B5F61",
"F  c #6C6062",
"G  c #6F6768",
"H  c #6B696A",
"J  c #716163",
"K  c #7F6266",
"L  c #716769",
"P  c #756F6F",
"I  c #7E6C6E",
"U  c #7E6F71",
"Y  c #7C7475",
"T  c #8D4145",
"R  c #994F54",
"E  c #825156",
"W  c #89585E",
"Q  c #84575C",
"!  c #995158",
"~  c #8E5F66",
"^  c #955C62",
"/  c #A05C63",
"(  c #9F6065",
")  c #936269",
"_  c #9D6168",
"`  c #886E71",
"'  c #936F74",
"]  c #857678",
"[  c #87797C",
"{  c #A7666E",
"}  c #A86B73",
"|  c #B36E76",
" . c #B86F74",
".. c #AA7176",
"X. c #AB7279",
"o. c #B47075",
"O. c #B8777C",
"+. c #B27479",
"@. c #8F8687",
"#. c #8F898B",
"$. c #948B8D",
"%. c #998C8D",
"&. c #9A8F91",
"*. c #979696",
"=. c #999595",
"-. c #A6868A",
";. c #BD878A",
":. c #BE8E93",
">. c #A39596",
",. c #AA9093",
"<. c #AA9A9C",
"1. c #B49294",
"2. c #A3A1A2",
"3. c #ADA0A2",
"4. c #A8A9A9",
"5. c #B0A0A1",
"6. c #BBA2A4",
"7. c #BDA6A8",
"8. c #BCACAE",
"9. c #B5AAAC",
"0. c #BEAEB1",
"q. c #BFB1B3",
"w. c #BDBBBA",
"e. c #C58E92",
"r. c #C59094",
"t. c #CD9DA3",
"y. c #DB9FA3",
"u. c #C8AAAC",
"i. c #D5A0A7",
"p. c #D9A3A8",
"a. c #D9A2A5",
"s. c #D8ADB1",
"d. c #C2B7BA",
"f. c #C3BFBE",
"g. c #CBBCBE",
"h. c #C1B1B4",
"j. c #D5B6B5",
"k. c #D6B9BC",
"l. c #D2BFC2",
"z. c #CDC2C4",
"x. c #C9C7C8",
"c. c #CCCBCB",
"v. c #C3C1C1",
"b. c #D4C3C4",
"n. c #DAC4C7",
"m. c #D3C7CA",
"M. c #D2CCCD",
"N. c #DCCACC",
"B. c #DECFD1",
"V. c #DDD2D3",
"C. c #E2C3C6",
"Z. c #E1CED1",
"A. c #E2D2D4",
"S. c #E6D9DB",
"D. c #EADCDC",
"F. c #EADFE3",
"G. c #E6E3E4",
"H. c #EBE5E5",
"J. c #EEE6E9",
"K. c #EDE9EA",
"L. c #F0E7E9",
"P. c #F2ECED",
"I. c #F3EEF0",
"U. c #F6F6F6",
"Y. c #F8F6F6",
"T. c #F6F8F7",
"R. c #F9F8F7",
"E. c #F7F7F8",
"W. c #F7F8F8",
"Q. c #F9F8F8",
"!. c #FBFAFA",
"~. c #FAF9F9",
"^. c #FBFBFB",
/* pixels */
"                                                                                                                                ",
"                                                                                                                                ",
"                                                                                                                                ",
"                                                                                                                                ",
"                                                                                                                                ",
"                                                                                                                                ",
"                                                                                                                                ",
"                                                                                                                                ",
"                                                                                                                                ",
"                                  . .                                                                                           ",
"                                  . w a                                                                                         ",
"                                  X [ ` >                                                                                       ",
"                                    * c <.>                                                                                     ",
"                                      0 c K i                                                                                   ",
"                                        * r.z .                                                                                 ",
"                                        - e.z .                                                                                 ",
"                                        - e.z .                                                                                 ",
"                                        - e.z .                                                                                 ",
"                                        * ;.z .                                                                                 ",
"                                        * ..s .                                                                                 ",
"                                        * ..s .                                                                                 ",
"                                      6 h m t                                                                                   ",
"                                    * d ) -                                                                                     ",
"                                  o A B -                                                                                       ",
"                                : m h e       . . . . . .                                                                       ",
"                                : X.8 .     p l l l l l l l j                                                                   ",
"                                : ..9 X & & =.U.I.I.I.I.P.U.2.=                       * * *                                     ",
"                                : ..8 j x.x.G.Q.W.W.W.W.E.Q.H.w.4       . . .       3 >.7.] X                                   ",
"                                : X.7 v E.Q.R.T.E.E.E.E.E.E.Q.K.*.b   & F P D       : :.y.' X                                   ",
"                                * S a Y E.E.E.E.E.E.E.E.E.E.E.W.Q.$.4 $ 6.C.1.#   . # E ^ M o                                   ",
"                                . @ @.S.Y.E.E.E.E.E.E.E.E.E.E.E.E.U.2.& 6.a._ @ + + @ & * *                                     ",
"                                  X %.H.R.T.E.E.E.!.K.S.E.E.E.E.T.Q.4.& 6.y./ # #.v.f.w.f.$.X                                   ",
"                                  X %.S.H.E.Y.E.U.2.9.B.G.E.T.E.E.Q.x.Z I S n Z V.D.j.U.^.c.H                                   ",
"                                  X %.N.B.U.T.R.H.x L 0.N.P.E.E.Y.W.U.m.k > k m.U.u.! C.P.Q.H.v                                 ",
"                                  X %.N.B.U.E.E.E.G.[ y g.N.G.Y.E.T.E.P.z.d.m.P.Q.u.T R k.Q.E.G.Y X                             ",
"                                  X %.Z.N.A.K.Q.W.Q.M.$.c 3.G.R.T.E.T.E.P.P.U.R.Q.D.j.j.A.F.S.s.1.Y &                           ",
"                                  X G $.&.l.S.H.H.H.P.f.& %.S.K.E.E.E.T.Q.W.E.K.J.L.K.P.S.N.n.t.p.-.+                           ",
"                                    * % 6 5.g.z.N.N.b.<.& %.N.N.P.U.U.U.E.E.P.z.g.g.g.g.g.b.N.N.i.) o                           ",
"                                  X N } ) 9 3 b n.N.[ > O &.N.N.V.V.V.A.A.A.8.q 4 4 4 4 3 D N.N.C.,.@                           ",
"                                    u f g n n m Z Z p & O &.Z.N.N.N.N.b.U Z C n * . . .   w Z Z Z V                             ",
"                                      . # E  .( 7 < 1 = + Y 8.b.<.>.>.%.5 . , W t 2 7       . . .                               ",
"                                          o M O.o.| h .   o c q.> X O O       # Q +.) *                                         ",
"                                            , < < < * .   . x h.& X             1 < , X                                         ",
"                                              . . . .       y J h 6 X             . . .                                         ",
"                                                              * ~ g ; ;                                                         ",
"                                                                * M | { 2                                                       ",
"                                                                  8 r r                                                         ",
"                                                                    . .                                                         ",
"                                                                                                                                ",
"                                                                                                                                ",
"                                                                                                                                ",
"                                                                                                                                ",
"                                                                                                                                ",
"                                                                                                                                ",
"                                                                                                                                ",
"                                                                                                                                ",
"                                                                                                                                ",
"                                                                                                                                ",
"                                                                                                                                ",
"                                                                                                                                ",
"                                                                                                                                ",
"                                                                                                                                ",
"                                                                                                                                ",
"                                                                                                                                "
};
