/* XPM */
static char *rcp91761468171920570[] = {
/* columns rows colors chars-per-pixel */
"64 64 172 2 ",
"   c None",
".  c #020101",
"X  c #0A0506",
"o  c #0E0807",
"O  c #0C0708",
"+  c #0C0A0A",
"@  c #140C0D",
"#  c #180D0E",
"$  c #170F10",
"%  c #1D0F12",
"&  c #161313",
"*  c #1B1213",
"=  c #1E1C1C",
"-  c #201314",
";  c #2A1416",
":  c #231718",
">  c #231C1C",
",  c #291A1B",
"<  c #331D1E",
"1  c #2E1E21",
"2  c #341F22",
"3  c #252223",
"4  c #2B2425",
"5  c #2D2728",
"6  c #332425",
"7  c #3A2324",
"8  c #3C272A",
"9  c #362D2F",
"0  c #3D2B2C",
"q  c #373031",
"w  c #3B3334",
"e  c #472A2D",
"r  c #492D2F",
"t  c #4C2E31",
"y  c #413537",
"u  c #493135",
"i  c #443638",
"p  c #423C3D",
"a  c #4D3D3F",
"s  c #543537",
"d  c #553739",
"f  c #5A3B3D",
"g  c #5C3F42",
"h  c #474646",
"j  c #4B4445",
"k  c #4C4849",
"l  c #5E4446",
"z  c #544D4E",
"x  c #5C4F50",
"c  c #555354",
"v  c #5E5456",
"b  c #6B464A",
"n  c #6C4A4E",
"m  c #71494E",
"M  c #6F4C52",
"N  c #7A4D50",
"B  c #605758",
"V  c #685758",
"C  c #665B5D",
"Z  c #795558",
"A  c #7C5A5D",
"S  c #6B5F61",
"D  c #6C6062",
"F  c #6F6768",
"G  c #6B696A",
"H  c #716163",
"J  c #7F6266",
"K  c #716769",
"L  c #756F6E",
"P  c #7E6C6E",
"I  c #7E6F71",
"U  c #7C7475",
"Y  c #8D4145",
"T  c #994F54",
"R  c #835156",
"E  c #89585E",
"W  c #84575C",
"Q  c #995158",
"!  c #8E5F66",
"~  c #955C62",
"^  c #A05C63",
"/  c #9F6065",
"(  c #936269",
")  c #9D6168",
"_  c #886E71",
"`  c #936F74",
"'  c #857778",
"]  c #87797C",
"[  c #A7666E",
"{  c #A86B73",
"}  c #B36E76",
"|  c #B86F74",
" . c #AA7176",
".. c #AB7279",
"X. c #B47075",
"o. c #B8777C",
"O. c #B27479",
"+. c #8F8687",
"@. c #8F898B",
"#. c #948B8D",
"$. c #998C8D",
"%. c #9A8F91",
"&. c #979696",
"*. c #999595",
"=. c #A6868A",
"-. c #BD878A",
";. c #BE8E93",
":. c #A39596",
">. c #AA9093",
",. c #AA9A9C",
"<. c #B49294",
"1. c #A3A1A2",
"2. c #ADA0A2",
"3. c #A8A9A9",
"4. c #B0A0A1",
"5. c #BBA2A4",
"6. c #BDA6A8",
"7. c #BCACAE",
"8. c #B5AAAC",
"9. c #BEAEB1",
"0. c #BFB1B3",
"q. c #BDBBBA",
"w. c #C58E92",
"e. c #C59094",
"r. c #CD9DA3",
"t. c #DB9FA3",
"y. c #C8AAAC",
"u. c #D5A0A7",
"i. c #D9A3A8",
"p. c #D9A2A5",
"a. c #D8ADB1",
"s. c #C2B7BA",
"d. c #C3BFBE",
"f. c #CBBCBE",
"g. c #C1B1B4",
"h. c #D5B6B5",
"j. c #D6B9BC",
"k. c #D2BFC2",
"l. c #CDC2C4",
"z. c #C9C7C8",
"x. c #CCCBCB",
"c. c #C3C1C1",
"v. c #D4C3C4",
"b. c #DAC4C7",
"n. c #D3C7CA",
"m. c #D2CCCD",
"M. c #DCCACC",
"N. c #DECFD1",
"B. c #DDD2D3",
"V. c #E2C3C6",
"C. c #E1CED1",
"Z. c #E2D2D4",
"A. c #E6D9DB",
"S. c #EADCDC",
"D. c #EADFE3",
"F. c #E6E3E4",
"G. c #EBE5E5",
"H. c #EEE6E9",
"J. c #EDE9EA",
"K. c #F0E7E9",
"L. c #F2ECED",
"P. c #F3EEF0",
"I. c #F6F6F6",
"U. c #F8F6F6",
"Y. c #F6F8F7",
"T. c #F9F8F7",
"R. c #F7F7F8",
"E. c #F7F8F8",
"W. c #F9F8F8",
"Q. c #FBFAFA",
"!. c #FAF9F9",
"~. c #FBFBFB",
/* pixels */
"                                                                                                                                ",
"                                                                                                                                ",
"                                                                                                                                ",
"                                                                                                                                ",
"                                                                                                                                ",
"                                                                                                                                ",
"                                                                                                                                ",
"                                                                                                                                ",
"                                                                                                                                ",
"                                  . .                                                                                           ",
"                                  . w a                                                                                         ",
"                                  X ] _ >                                                                                       ",
"                                    * x ,.>                                                                                     ",
"                                      9 x J i                                                                                   ",
"                                        * e.l .                                                                                 ",
"                                        - w.l .                                                                                 ",
"                                        - w.l .                                                                                 ",
"                                        - w.l .                                                                                 ",
"                                        * -.l .                                                                                 ",
"                                        *  .s .                                                                                 ",
"                                        *  .s .                                                                                 ",
"                                      6 g n t                                                                                   ",
"                                    * d ( -                                                                                     ",
"                                  o Z N -                                                                                       ",
"                                : n g e       . . . . . .                                                                       ",
"                                : ..8 .     p k k k k k k k h                                                                   ",
"                                :  .0 X & & *.I.P.P.P.P.L.I.1.=                       * * *                                     ",
"                                :  .8 h z.z.F.W.E.E.E.E.R.W.G.q.3       . . .       3 :.6.' X                                   ",
"                                : ..7 c R.W.T.Y.R.R.R.R.R.R.W.J.&.c   & D L S       : ;.t.` X                                   ",
"                                * A a U R.R.R.R.R.R.R.R.R.R.R.E.W.#.4 $ 5.V.<.#   . # R ~ m O                                   ",
"                                . @ +.A.U.R.R.R.R.R.R.R.R.R.R.R.R.I.1.& 5.p.) @ + + @ & * *                                     ",
"                                  X $.G.T.Y.R.R.R.Q.J.A.R.R.R.R.Y.W.3.& 5.t.^ # @.c.d.q.d.#.X                                   ",
"                                  X $.A.G.R.U.R.I.1.8.N.F.R.Y.R.R.W.z.C P A b C B.S.h.I.~.x.G                                   ",
"                                  X $.M.N.I.Y.T.G.z K 9.M.L.R.R.U.E.I.n.j > j n.I.y.Q V.L.W.G.c                                 ",
"                                  X $.M.N.I.R.R.R.F.] y f.M.F.U.R.Y.R.L.l.s.n.L.W.y.Y T j.W.R.F.U X                             ",
"                                  X $.C.M.Z.J.W.E.W.m.#.x 2.F.T.Y.R.Y.R.L.L.I.T.W.S.h.h.Z.D.A.a.<.U &                           ",
"                                  X F #.%.k.A.G.G.G.L.d.& $.A.J.R.R.R.Y.W.E.R.J.H.K.J.L.A.M.b.r.i.=.+                           ",
"                                    * % 6 4.f.l.M.M.v.,.& $.M.M.L.I.I.I.R.R.L.l.f.f.f.f.f.v.M.M.u.( o                           ",
"                                  X M { ( 0 3 v b.M.] > O %.M.M.B.B.B.Z.Z.Z.7.q 4 4 4 4 3 S M.M.V.>.@                           ",
"                                    u d f b b n C C p & O %.C.M.M.M.M.v.I C V b * . . .   w C C C B                             ",
"                                      . # R | / 7 < 1 = + U 7.v.,.:.:.$.5 . , E t 2 7       . . .                               ",
"                                          o m o.X.} g .   o x 0.> X O O       # W O.( *                                         ",
"                                            , < < < * .   . z g.& X             1 < , X                                         ",
"                                              . . . .       y H g 6 X             . . .                                         ",
"                                                              * ! f ; ;                                                         ",
"                                                                * m } [ 2                                                       ",
"                                                                  8 r r                                                         ",
"                                                                    . .                                                         ",
"                                                                                                                                ",
"                                                                                                                                ",
"                                                                                                                                ",
"                                                                                                                                ",
"                                                                                                                                ",
"                                                                                                                                ",
"                                                                                                                                ",
"                                                                                                                                ",
"                                                                                                                                ",
"                                                                                                                                ",
"                                                                                                                                ",
"                                                                                                                                ",
"                                                                                                                                ",
"                                                                                                                                ",
"                                                                                                                                ",
"                                                                                                                                "
};
