/* XPM */
static char *rcp24925280171923330[] = {
/* columns rows colors chars-per-pixel */
"64 64 185 2 ",
"   c None",
".  c #010001",
"X  c #0A0506",
"o  c #0E0807",
"O  c #0B0708",
"+  c #0C0A0A",
"@  c #140D0D",
"#  c #180D0E",
"$  c #170F10",
"%  c #1D0F12",
"&  c #161313",
"*  c #1B1213",
"=  c #1E1C1C",
"-  c #221516",
";  c #2A1416",
":  c #221B1C",
">  c #2B1B1C",
",  c #331D1E",
"<  c #221E20",
"1  c #2E1E21",
"2  c #341F21",
"3  c #262323",
"4  c #2B2425",
"5  c #2D2728",
"6  c #332325",
"7  c #3B2021",
"8  c #3E272A",
"9  c #34292A",
"0  c #3B2E2F",
"q  c #3B2E30",
"w  c #373031",
"e  c #3B3334",
"r  c #3F3B3C",
"t  c #492D2F",
"y  c #45272B",
"u  c #4F2E31",
"i  c #413537",
"p  c #4C3134",
"a  c #423638",
"s  c #453D3E",
"d  c #55393B",
"f  c #59393C",
"g  c #4D3F40",
"h  c #543D40",
"j  c #5E3F43",
"k  c #4B4445",
"l  c #4C4849",
"z  c #464445",
"x  c #584245",
"c  c #534D4E",
"v  c #574548",
"b  c #5A4F51",
"n  c #565454",
"m  c #5E5456",
"M  c #634547",
"N  c #6B464A",
"B  c #67484C",
"V  c #71494E",
"C  c #6F4C52",
"Z  c #695557",
"A  c #605758",
"S  c #685758",
"D  c #665B5D",
"F  c #6B5A5B",
"G  c #785255",
"H  c #70575A",
"J  c #76595B",
"K  c #7A585B",
"L  c #6B5F61",
"P  c #765F61",
"I  c #6C6062",
"U  c #6F6769",
"Y  c #6B696A",
"T  c #7A6063",
"R  c #716769",
"E  c #756F6F",
"W  c #786769",
"Q  c #7E6F71",
"!  c #7D7374",
"~  c #7C7879",
"^  c #8D4145",
"/  c #994F54",
"(  c #835156",
")  c #89585E",
"_  c #88565B",
"`  c #995158",
"'  c #8E5F66",
"]  c #955C62",
"[  c #A05C63",
"{  c #806266",
"}  c #836668",
"|  c #9F6065",
" . c #946369",
".. c #9B6369",
"X. c #896E70",
"o. c #936F74",
"O. c #857779",
"+. c #857B7D",
"@. c #9D7A7F",
"#. c #977C7C",
"$. c #A6676D",
"%. c #A8676C",
"&. c #A86B73",
"*. c #B36E76",
"=. c #B86F74",
"-. c #A4777C",
";. c #B8777C",
":. c #B37277",
">. c #8F898B",
",. c #8C8286",
"<. c #958C8D",
"1. c #998D8F",
"2. c #9A8F91",
"3. c #979796",
"4. c #989596",
"5. c #A18083",
"6. c #AA888C",
"7. c #BD8387",
"8. c #B2878D",
"9. c #B88A8E",
"0. c #BE8E93",
"q. c #A39596",
"w. c #A89A9C",
"e. c #AA9093",
"r. c #B49294",
"t. c #B39B9F",
"y. c #A3A1A2",
"u. c #ADA0A2",
"i. c #A8A9A9",
"p. c #B0A0A1",
"a. c #BBA2A4",
"s. c #BDA6A8",
"d. c #BCACAE",
"f. c #B5AAAC",
"g. c #BEAEB1",
"h. c #BFB1B3",
"j. c #BDBBBB",
"k. c #C7888D",
"l. c #C28F93",
"z. c #D8989D",
"x. c #CD9DA3",
"c. c #DB9FA3",
"v. c #C8AAAC",
"b. c #D5A0A7",
"n. c #D9A3A8",
"m. c #D9A2A5",
"M. c #D8ADB1",
"N. c #C2B7BA",
"B. c #C3BFBE",
"V. c #CBBCBE",
"C. c #C1B1B4",
"Z. c #D5B6B5",
"A. c #D6B9BC",
"S. c #D2BFC2",
"D. c #CDC2C4",
"F. c #C9C7C8",
"G. c #CCCBCB",
"H. c #C3C1C1",
"J. c #D4C3C4",
"K. c #DAC4C7",
"L. c #D3C7CA",
"P. c #D2CCCD",
"I. c #DCCACC",
"U. c #DECFD1",
"Y. c #DDD2D3",
"T. c #E2C3C6",
"R. c #E1CED1",
"E. c #E2D2D4",
"W. c #E6D9DB",
"Q. c #EADCDC",
"!. c #EADFE3",
"~. c #E6E3E4",
"^. c #ECE5E5",
"/. c #EBE7E9",
"(. c #EDE9EA",
"). c #F0E7E9",
"_. c #F2ECED",
"`. c #F3EEF0",
"'. c #F6F6F6",
"]. c #F8F6F6",
"[. c #F6F8F7",
"{. c #F9F8F7",
"}. c #F7F7F8",
"|. c #F7F8F8",
" X c #FAF9F9",
/* pixels */
"                                                                                                                                ",
"                                                                                                                                ",
"                                                                                                                                ",
"                                                                                                                                ",
"                                                                                                                                ",
"                                                                                                                                ",
"                                                                                                                                ",
"                                                                                                                                ",
"                                                                                                                                ",
"                                                                                                                                ",
"                                                                                                                                ",
"                                                                                                                                ",
"                                        . . . .                                                                                 ",
"                                          . x H O                                                                               ",
"                                            F X.g                                                                               ",
"                                              s t.e @                                                                           ",
"                                                q #.S .                                                                         ",
"                                                @ 9.P .                                                                         ",
"                                                @ 8.J .                                                                         ",
"                                            + + * 6.T .                                                                         ",
"                                      . . . Z 5.@.v a                                                                           ",
"                                    h M M M J } { 9                                                                             ",
"                                  > -.z.l.l.x . .                                                                               ",
"                                4 9.k._ - * -                                                                                   ",
"                                : 7.G y       . . . . . .                                                                       ",
"                              2 p K 9 X     r l l l l l l l z                                                                   ",
"                            . f $.* < 3 & & 4.'.`.`.`.`._.'.y.=                       * * *                                     ",
"                            . d %.@ . c F.G.~.|.|.|.|.|.}.{./.j.3       . . .       3 q.s.O.X                                   ",
"                            . f %.@ . n [.{.{.[.}.}.}.}.}.}.{.(.3.n   & I E L       : 0.c.o.X                                   ",
"                            . f %.@ : ~ }.}.}.}.}.}.}.}.}.}.}.|.{.<.4 $ a.T.r.@   . # ( ] V o                                   ",
"                            . d ..* ,.W.].}.}.}.}.}.}.}.}.}.}.}.}.'.y.* a.m...@ O + @ & * *                                     ",
"                              > > O <.^.{.[.}.}.}. X(.W.}.}.}.}.[.{.i.& a.c.[ # >.H.B.j.B.<.X                                   ",
"                                . X <.W.^.}.].}.'.y.f.U.~.}.[.}.}.{.F.D Q K N D Y.Q.Z.'. XG.Y                                   ",
"                                . X <.I.U.'.[.{./.c R g.I._.}.}.].|.'.L.k : k L.'.v.` T._.{./.n                                 ",
"                                  X <.I.U.'.}.}.}.~.+.i V.I.~.].}.[.}._.D.N.L._.{.v.^ / A.{.}.~.! X                             ",
"                                  X 1.R.I.E.(.{.|.{.P.<.b u.~.{.[.}.[.}._._.'.{.{.Q.Z.Z.E.!.W.M.r.! &                           ",
"                                  O U <.2.S.W.^.^.^._.B.& <.W.(.}.}.}.[.{.|.}.(./.).(._.W.I.K.x.n.6.O                           ",
"                                    * % 6 p.V.D.I.I.J.w.& <.I.I._.'.'.'.}.}._.D.V.V.V.V.V.J.I.I.b. .o                           ",
"                                  X C &. .0 3 m K.I.+.: + 2.I.I.Y.Y.Y.E.E.E.d.w 4 4 4 4 3 L I.I.T.e.@                           ",
"                                    p d f N N B D D s & + 2.R.I.I.I.I.J.Q D S N * . . .   e D D D A                             ",
"                                      . @ ( =.| 7 , 1 = + ! d.J.w.q.q.<.5 . > ) u 2 6       . . .                               ",
"                                          O V ;.*.*.j .   O b h.: X O +       @ _ :. .*                                         ",
"                                            > , , , * .   . c C.& X             1 , > X                                         ",
"                                              . . . .       a I j 6 X             . . .                                         ",
"                                                              * ' f ; ;                                                         ",
"                                                                * V *.%.2                                                       ",
"                                                                  8 t t                                                         ",
"                                                                    . .                                                         ",
"                                                                                                                                ",
"                                                                                                                                ",
"                                                                                                                                ",
"                                                                                                                                ",
"                                                                                                                                ",
"                                                                                                                                ",
"                                                                                                                                ",
"                                                                                                                                ",
"                                                                                                                                ",
"                                                                                                                                ",
"                                                                                                                                ",
"                                                                                                                                ",
"                                                                                                                                ",
"                                                                                                                                ",
"                                                                                                                                ",
"                                                                                                                                "
};
