/* XPM */
static char *rcp77643180171925848[] = {
/* columns rows colors chars-per-pixel */
"64 64 184 2 ",
"   c None",
".  c #010001",
"X  c #0A0506",
"o  c #0E0807",
"O  c #0C0708",
"+  c #0C0A0A",
"@  c #140D0D",
"#  c #180D0E",
"$  c #170F10",
"%  c #1D0F12",
"&  c #161313",
"*  c #1B1213",
"=  c #1E1C1C",
"-  c #221516",
";  c #2A1416",
":  c #221C1C",
">  c #2B1B1C",
",  c #331D1E",
"<  c #2E1E21",
"1  c #341F21",
"2  c #262323",
"3  c #2B2425",
"4  c #2D2728",
"5  c #332325",
"6  c #3B2021",
"7  c #3E272A",
"8  c #34292A",
"9  c #3B2E2F",
"0  c #3B2E30",
"q  c #373031",
"w  c #3B3334",
"e  c #3F3B3C",
"r  c #492D2F",
"t  c #45272A",
"y  c #4F2E31",
"u  c #413537",
"i  c #4C3134",
"p  c #423638",
"a  c #453C3E",
"s  c #55393B",
"d  c #59393C",
"f  c #4D3F40",
"g  c #553D40",
"h  c #5E3F43",
"j  c #4B4445",
"k  c #4C4849",
"l  c #464445",
"z  c #584244",
"x  c #534D4E",
"c  c #574548",
"v  c #5A4F51",
"b  c #565454",
"n  c #5E5456",
"m  c #654447",
"M  c #6B464A",
"N  c #67484C",
"B  c #71494E",
"V  c #6F4C52",
"C  c #695557",
"Z  c #605758",
"A  c #685758",
"S  c #665B5D",
"D  c #6B5A5B",
"F  c #785255",
"G  c #72575A",
"H  c #77585C",
"J  c #7A585B",
"K  c #6B5F61",
"L  c #765F61",
"P  c #6C6062",
"I  c #6F6769",
"U  c #6B696A",
"Y  c #7A6063",
"T  c #716769",
"R  c #756F6F",
"E  c #786769",
"W  c #7E6F71",
"Q  c #7D7374",
"!  c #7C7879",
"~  c #8D4145",
"^  c #994F54",
"/  c #835156",
"(  c #89585E",
")  c #88565B",
"_  c #995158",
"`  c #8E5F66",
"'  c #955C62",
"]  c #A05C63",
"[  c #826467",
"{  c #9F6065",
"}  c #946369",
"|  c #9B6369",
" . c #896E70",
".. c #936F74",
"X. c #857678",
"o. c #857B7D",
"O. c #9D7A7F",
"+. c #977B7C",
"@. c #A6676D",
"#. c #A8676C",
"$. c #A86B73",
"%. c #B36E76",
"&. c #B86F74",
"*. c #A4777C",
"=. c #B8777C",
"-. c #B37277",
";. c #8F898B",
":. c #8C8286",
">. c #958C8D",
",. c #998D8F",
"<. c #9A8F91",
"1. c #979796",
"2. c #989596",
"3. c #A18083",
"4. c #AA888C",
"5. c #B2878D",
"6. c #B9888C",
"7. c #BE8E93",
"8. c #A39596",
"9. c #A89A9C",
"0. c #AA9093",
"q. c #B49294",
"w. c #B39B9F",
"e. c #A3A1A2",
"r. c #ADA0A2",
"t. c #A8A9A9",
"y. c #B0A0A1",
"u. c #BBA2A4",
"i. c #BDA6A8",
"p. c #BCACAE",
"a. c #B5AAAC",
"s. c #BEAEB1",
"d. c #BFB1B3",
"f. c #BDBBBB",
"g. c #C7888D",
"h. c #C28F91",
"j. c #C19095",
"k. c #D7999D",
"l. c #CD9DA3",
"z. c #DB9FA3",
"x. c #C8AAAC",
"c. c #D5A0A7",
"v. c #D9A3A8",
"b. c #D9A2A5",
"n. c #D8ADB1",
"m. c #C2B7BA",
"M. c #C3BFBE",
"N. c #CBBCBE",
"B. c #C1B1B4",
"V. c #D5B6B5",
"C. c #D6B9BC",
"Z. c #D2BFC2",
"A. c #CDC2C4",
"S. c #C9C7C8",
"D. c #CCCBCB",
"F. c #C3C1C1",
"G. c #D4C3C4",
"H. c #DAC4C7",
"J. c #D3C7CA",
"K. c #D2CCCD",
"L. c #DCCACC",
"P. c #DECFD1",
"I. c #DDD2D3",
"U. c #E2C3C6",
"Y. c #E1CED1",
"T. c #E2D2D4",
"R. c #E6D9DB",
"E. c #EADCDC",
"W. c #EADFE3",
"Q. c #E6E3E4",
"!. c #ECE5E5",
"~. c #EBE7E9",
"^. c #EDE9EA",
"/. c #F0E7E9",
"(. c #F2ECED",
"). c #F3EEF0",
"_. c #F6F6F6",
"`. c #F8F6F6",
"'. c #F6F8F7",
"]. c #F9F8F7",
"[. c #F7F7F8",
"{. c #F7F8F8",
"}. c #FAF9F9",
"|. c #FAFAFA",
/* pixels */
"                                                                                                                                ",
"                                                                                                                                ",
"                                                                                                                                ",
"                                                                                                                                ",
"                                                                                                                                ",
"                                                                                                                                ",
"                                                                                                                                ",
"                                                                                                                                ",
"                                                                                                                                ",
"                                                                                                                                ",
"                                                                                                                                ",
"                                                                                                                                ",
"                                        . . . .                                                                                 ",
"                                          . z G O                                                                               ",
"                                            D  .f                                                                               ",
"                                              a w.w @                                                                           ",
"                                                0 +.A .                                                                         ",
"                                                @ 5.L .                                                                         ",
"                                                @ 5.H .                                                                         ",
"                                            + + * 4.Y .                                                                         ",
"                                      . . . C 3.O.c p                                                                           ",
"                                    g m m m G [ [ 8                                                                             ",
"                                  > *.k.h.j.z . .                                                                               ",
"                                3 6.g.) - * -                                                                                   ",
"                                : 6.F t       . . . . . .                                                                       ",
"                              1 i J 8 X     e k k k k k k k l                                                                   ",
"                            . d @.* : 2 & & 2._.).).).).(._.e.=                       * * *                                     ",
"                            . s #.@ . x S.S.Q.{.{.{.{.{.[.}.~.f.2       . . .       2 8.i.X.X                                   ",
"                            . d #.@ . b '.}.}.'.[.[.[.[.[.[.}.^.1.b   & P R K       : 7.z...X                                   ",
"                            . d #.@ : ! [.[.[.[.[.[.[.[.[.[.[.{.}.>.3 $ u.U.q.@   . # / ' B O                                   ",
"                            . s | * :.R.`.[.[.[.[.[.[.[.[.[.[.[.[._.e.* u.b.| @ O + @ & * *                                     ",
"                              > > O >.!.].'.[.[.[.|.^.R.[.[.[.[.'.}.t.& u.z.] # ;.F.M.f.M.>.X                                   ",
"                                . X >.R.!.[.`.[._.e.a.P.Q.[.'.[.[.}.S.S W J M S I.E.V._.|.D.U                                   ",
"                                . X >.L.P._.'.].~.x T s.L.(.[.[.`.{._.J.j : j J._.x._ U.(.}.~.b                                 ",
"                                  X >.L.P._.[.[.[.Q.o.u N.L.Q.`.[.'.[.(.A.m.J.(.}.x.~ ^ C.}.[.Q.Q X                             ",
"                                  X ,.Y.L.T.^.}.{.}.K.>.v r.Q.].'.[.'.[.(.(._.].}.E.V.V.T.W.R.n.q.Q &                           ",
"                                  X I >.<.Z.R.!.!.!.(.M.& >.R.^.[.[.[.'.}.{.[.^.~./.^.(.R.L.H.l.v.4.O                           ",
"                                    * % 5 y.N.A.L.L.G.9.& >.L.L.(._._._.[.[.(.A.N.N.N.N.N.G.L.L.c.} o                           ",
"                                  X V $.} 9 2 n H.L.o.: + <.L.L.I.I.I.T.T.T.p.q 3 3 3 3 2 K L.L.U.0.@                           ",
"                                    i s d M M N S S a & + <.Y.L.L.L.L.G.W S A M * . . .   w S S S Z                             ",
"                                      . @ / &.{ 6 , < = + Q p.G.9.8.8.>.4 . > ( y 1 5       . . .                               ",
"                                          O B =.%.%.h .   O v d.: X O +       @ ) -.} *                                         ",
"                                            > , , , * .   . x B.& X             < , > X                                         ",
"                                              . . . .       p P h 5 X             . . .                                         ",
"                                                              * ` d ; ;                                                         ",
"                                                                * B %.#.1                                                       ",
"                                                                  7 r r                                                         ",
"                                                                    . .                                                         ",
"                                                                                                                                ",
"                                                                                                                                ",
"                                                                                                                                ",
"                                                                                                                                ",
"                                                                                                                                ",
"                                                                                                                                ",
"                                                                                                                                ",
"                                                                                                                                ",
"                                                                                                                                ",
"                                                                                                                                ",
"                                                                                                                                ",
"                                                                                                                                ",
"                                                                                                                                ",
"                                                                                                                                ",
"                                                                                                                                ",
"                                                                                                                                "
};
