/* XPM */
static char *rcp54167712171928449[] = {
/* columns rows colors chars-per-pixel */
"64 64 176 2 ",
"   c None",
".  c #010000",
"X  c #0A0506",
"o  c #0B0708",
"O  c #0D0909",
"+  c #140D0D",
"@  c #180D0E",
"#  c #150F10",
"$  c #1D0F12",
"%  c #161213",
"&  c #1B1213",
"*  c #1E1C1C",
"=  c #2A1416",
"-  c #221C1C",
";  c #2B1B1C",
":  c #331D1E",
">  c #231E21",
",  c #2D1F21",
"<  c #341F21",
"1  c #262223",
"2  c #2B2525",
"3  c #332325",
"4  c #3C2224",
"5  c #3E272A",
"6  c #34292A",
"7  c #3B2E2F",
"8  c #373031",
"9  c #3C3233",
"0  c #3F3D3D",
"q  c #492D2F",
"w  c #412B2D",
"e  c #4F2E31",
"r  c #413536",
"t  c #493135",
"y  c #453B3D",
"u  c #4D3A3C",
"i  c #503739",
"p  c #55383A",
"a  c #593A3C",
"s  c #5E3F42",
"d  c #623F42",
"f  c #474546",
"g  c #4C4445",
"h  c #4D494A",
"j  c #554345",
"k  c #514749",
"l  c #5E4548",
"z  c #544B4C",
"x  c #594445",
"c  c #5A4F51",
"v  c #565555",
"b  c #5E5456",
"n  c #6C464A",
"m  c #6A4B4F",
"M  c #62454A",
"N  c #71494E",
"B  c #674F51",
"V  c #6F4C52",
"C  c #754D52",
"Z  c #685758",
"A  c #665B5D",
"S  c #7A5B5D",
"D  c #6B5F61",
"F  c #6D6062",
"G  c #6D6969",
"H  c #796365",
"J  c #716769",
"K  c #756F6F",
"L  c #786769",
"P  c #7E6F71",
"I  c #7C7879",
"U  c #7D7476",
"Y  c #8D4145",
"T  c #994F54",
"R  c #835156",
"E  c #89585E",
"W  c #84575C",
"Q  c #995158",
"!  c #8E5F66",
"~  c #945D63",
"^  c #985D64",
"/  c #A05C63",
"(  c #816668",
")  c #966066",
"_  c #9F6065",
"`  c #95646A",
"'  c #9C6268",
"]  c #936F74",
"[  c #807173",
"{  c #857779",
"}  c #857B7D",
"|  c #9A7377",
" . c #9C7379",
".. c #A5656C",
"X. c #A9686D",
"o. c #AB6C73",
"O. c #B36E76",
"+. c #B86F74",
"@. c #A07C7D",
"#. c #B47075",
"$. c #B8777C",
"%. c #B27479",
"&. c #A27C81",
"*. c #8F898B",
"=. c #8D8284",
"-. c #958C8D",
";. c #998C8F",
":. c #9A8F91",
">. c #979797",
",. c #999697",
"<. c #B8878F",
"1. c #B6888F",
"2. c #BE8E93",
"3. c #A29495",
"4. c #A89A9C",
"5. c #B39194",
"6. c #B3979B",
"7. c #A3A2A2",
"8. c #ADA0A2",
"9. c #A8A9A9",
"0. c #B0A0A1",
"q. c #BBA2A4",
"w. c #BDA6A8",
"e. c #BBACAE",
"r. c #B5AAAC",
"t. c #BEAEB1",
"y. c #BFB1B3",
"u. c #BDBBBB",
"i. c #C19093",
"p. c #C19698",
"a. c #DB9FA3",
"s. c #C8AAAC",
"d. c #C4A3A8",
"f. c #DAA1A4",
"g. c #D8AEB2",
"h. c #C2B7BA",
"j. c #C3BFBE",
"k. c #CBBCBE",
"l. c #C1B1B4",
"z. c #D5B6B5",
"x. c #D9B6B9",
"c. c #D2BFC2",
"v. c #CDC2C4",
"b. c #C9C7C8",
"n. c #CCCBCB",
"m. c #C3C1C1",
"M. c #D4C2C4",
"N. c #D8C4C7",
"B. c #D3C7CA",
"V. c #D2CCCD",
"C. c #DCCACC",
"Z. c #DECFD1",
"A. c #DDD2D3",
"S. c #E3C4C7",
"D. c #E1CED1",
"F. c #E2D2D4",
"G. c #E6D9DB",
"H. c #EADCDC",
"J. c #EADFE3",
"K. c #E6E5E5",
"L. c #EBE5E5",
"P. c #EEE6E9",
"I. c #EDE9EA",
"U. c #F0E7E9",
"Y. c #F2ECED",
"T. c #F3EEF0",
"R. c #F6F6F6",
"E. c #F8F6F6",
"W. c #F6F8F7",
"Q. c #F9F8F7",
"!. c #F7F7F8",
"~. c #F7F8F8",
"^. c #F9F9F8",
"/. c #FBFAFA",
"(. c #FAF9F9",
"). c #FAFAFA",
/* pixels */
"                                                                                                                                ",
"                                                                                                                                ",
"                                                                                                                                ",
"                                                                                                                                ",
"                                                                                                                                ",
"                                                                                                                                ",
"                                                                                                                                ",
"                                                                                                                                ",
"                                                                                                                                ",
"                                                                                                                                ",
"                                                                                                                                ",
"                                    . .                                                                                         ",
"                                    . . .                                                                                       ",
"                                    . 6 H -                                                                                     ",
"                                    . k d.>                                                                                     ",
"                                    . k 6.6                                                                                     ",
"                                      1 9 &.j                                                                                   ",
"                                        # i.l .                                                                                 ",
"                                      > r @.x                                                                                   ",
"                                    X j 5.6                                                                                     ",
"                                  X H ( u                                                                                       ",
"                                , M S B                                                                                         ",
"                              & w 1.u                                                                                           ",
"                            . i ) ;                                                                                             ",
"                            . p X.+           . . . . . .                                                                       ",
"                            4 d C &         0 h h h h h h h f                                                                   ",
"                          O ~ n X       % % ,.R.T.T.T.T.Y.R.7.*                       & & &                                     ",
"                          o ~ n .   . h b.b.K.^.~.~.~.~.!.^.K.u.2       . . .       1 4.w.{ X                                   ",
"                          o ^ ..d & . v !.^.Q.W.!.!.!.!.!.!.^.I.>.v   % F K D       - 2.a.] X                                   ",
"                          O C o.X.@ - I !.!.!.!.!.!.!.!.!.!.!.~.^.-.2 # q.S.5.+   . @ R ~ N o                                   ",
"                            O s ' & =.G.E.!.!.!.!.!.!.!.!.!.!.!.!.R.7.& q.f.' + O O + % & &                                     ",
"                              ; ; O ;.L.Q.W.!.!.!./.I.G.!.!.!.!.W.^.9.% q.a./ @ *.m.j.u.j.-.X                                   ",
"                                . X ;.G.L.!.E.!.R.7.r.Z.L.!.W.!.!.^.b.A P S n A A.H.z.R./.n.G 2                                 ",
"                                . X ;.C.Z.R.W.Q.L.z J t.C.Y.!.!.E.!.R.B.g - g B.R.s.Q S.Y.^.K.y - 2                             ",
"                                  X ;.C.Z.R.!.!.!.K.} r k.C.L.E.!.W.!.Y.v.h.B.Y.^.s.Y T x.^.Y.<.p.3.#                           ",
"                                  X ;.D.C.F.I.^.~.^.V.-.c 8.L.Q.W.!.W.!.Y.Y.R.Q.^.H.z.z.F.J.G.x.f. .O                           ",
"                                  o G -.:.c.G.L.L.L.Y.j.% -.G.I.!.!.!.W.^.~.!.I.P.U.I.Y.G.C.C.C.g.| O                           ",
"                                    & $ 3 0.k.v.C.C.N.4.% ;.C.C.Y.R.R.R.!.!.Y.v.k.k.k.k.k.M.C.C.M.3.+                           ",
"                                  X V o.) 7 1 b N.C.} - o :.C.C.A.A.A.F.F.F.e.8 2 2 2 2 1 D C.C.[ 2                             ",
"                                    t p a n n m A A y % o :.D.C.C.C.C.M.P A Z n & . . .   9 A A g                               ",
"                                      . + R +._ 4 : , * O U e.M.4.3.3.;.2 . ; E e < 3       . .                                 ",
"                                          o N $.#.O.s .   o c y.- X o o       + W %.` &                                         ",
"                                            ; : : : & .   . z l.% X             , : ; X                                         ",
"                                              . . . .       r F s 3 o             . . .                                         ",
"                                                              & ! a = =                                                         ",
"                                                                & N O.X.<                                                       ",
"                                                                  5 q q                                                         ",
"                                                                    . .                                                         ",
"                                                                                                                                ",
"                                                                                                                                ",
"                                                                                                                                ",
"                                                                                                                                ",
"                                                                                                                                ",
"                                                                                                                                ",
"                                                                                                                                ",
"                                                                                                                                ",
"                                                                                                                                ",
"                                                                                                                                ",
"                                                                                                                                ",
"                                                                                                                                ",
"                                                                                                                                ",
"                                                                                                                                ",
"                                                                                                                                ",
"                                                                                                                                "
};
