/* XPM */
static char *rcp73928872171931234[] = {
/* columns rows colors chars-per-pixel */
"64 64 176 2 ",
"   c None",
".  c #010000",
"X  c #0A0506",
"o  c #0B0708",
"O  c #0D0909",
"+  c #140D0D",
"@  c #180D0E",
"#  c #150F10",
"$  c #1D0F12",
"%  c #161213",
"&  c #1B1213",
"*  c #1E1C1C",
"=  c #2A1416",
"-  c #221C1C",
";  c #2B1B1C",
":  c #331D1E",
">  c #231F20",
",  c #2D1F21",
"<  c #341F21",
"1  c #262323",
"2  c #2B2526",
"3  c #332325",
"4  c #3C2224",
"5  c #3E272A",
"6  c #34292A",
"7  c #3B2E2F",
"8  c #373031",
"9  c #3C3233",
"0  c #3F3D3D",
"q  c #492D2F",
"w  c #412B2D",
"e  c #4F2E31",
"r  c #413536",
"t  c #493135",
"y  c #413638",
"u  c #453B3D",
"i  c #4D3A3C",
"p  c #503739",
"a  c #55383A",
"s  c #593A3C",
"d  c #5E3F42",
"f  c #623F42",
"g  c #474546",
"h  c #4B4445",
"j  c #4D494A",
"k  c #554345",
"l  c #504749",
"z  c #5E4548",
"x  c #544B4C",
"c  c #594445",
"v  c #5A4F51",
"b  c #5B5455",
"n  c #555656",
"m  c #6C464A",
"M  c #66484D",
"N  c #71494E",
"B  c #674F51",
"V  c #6F4C52",
"C  c #754D52",
"Z  c #685758",
"A  c #665B5D",
"S  c #795A5B",
"D  c #6B5F61",
"F  c #7A5D60",
"G  c #6D6062",
"H  c #6D6969",
"J  c #796365",
"K  c #716769",
"L  c #756F6F",
"P  c #786769",
"I  c #7E6F71",
"U  c #7C7879",
"Y  c #7D7476",
"T  c #8D4145",
"R  c #994F54",
"E  c #835156",
"W  c #89585E",
"Q  c #84575C",
"!  c #995158",
"~  c #8E5F66",
"^  c #945D63",
"/  c #985D64",
"(  c #A05C63",
")  c #816668",
"_  c #966066",
"`  c #9F6065",
"'  c #95646A",
"]  c #9C6268",
"[  c #936F74",
"{  c #807173",
"}  c #857779",
"|  c #857B7D",
" . c #9A7377",
".. c #9C7379",
"X. c #A5656C",
"o. c #A9686D",
"O. c #AB6C73",
"+. c #B36E76",
"@. c #B86F74",
"#. c #A07C7D",
"$. c #B47075",
"%. c #B8777C",
"&. c #B27479",
"*. c #A27C81",
"=. c #8F898B",
"-. c #8D8284",
";. c #958C8D",
":. c #998C8F",
">. c #9A8F91",
",. c #979796",
"<. c #999697",
"1. c #B8878F",
"2. c #B6888F",
"3. c #BE8E93",
"4. c #A29495",
"5. c #A89A9C",
"6. c #B39194",
"7. c #B3979B",
"8. c #A3A2A2",
"9. c #ADA0A2",
"0. c #A8A9A9",
"q. c #B0A0A1",
"w. c #BBA2A4",
"e. c #BDA6A8",
"r. c #BBACAE",
"t. c #B5AAAC",
"y. c #BEAEB1",
"u. c #BFB1B3",
"i. c #BDBBBB",
"p. c #C19093",
"a. c #C19698",
"s. c #DB9FA3",
"d. c #C8AAAC",
"f. c #C4A3A8",
"g. c #DAA1A4",
"h. c #D8AEB2",
"j. c #C2B7BA",
"k. c #C3BFBE",
"l. c #CBBCBE",
"z. c #C1B1B4",
"x. c #D5B6B5",
"c. c #D9B6B9",
"v. c #D2BFC2",
"b. c #CDC2C4",
"n. c #C9C7C8",
"m. c #CCCBCB",
"M. c #C3C1C1",
"N. c #D4C2C4",
"B. c #D8C4C7",
"V. c #D3C7CA",
"C. c #D2CCCD",
"Z. c #DCCACC",
"A. c #DECFD1",
"S. c #DDD2D3",
"D. c #E3C4C7",
"F. c #E1CED1",
"G. c #E2D2D4",
"H. c #E6D9DB",
"J. c #EADCDC",
"K. c #EADFE3",
"L. c #E6E5E5",
"P. c #EBE5E5",
"I. c #EEE6E9",
"U. c #EDE9EA",
"Y. c #F0E7E9",
"T. c #F2ECED",
"R. c #F3EEF0",
"E. c #F6F6F6",
"W. c #F8F6F6",
"Q. c #F6F8F7",
"!. c #F9F8F7",
"~. c #F7F7F8",
"^. c #F7F8F8",
"/. c #FBFAFA",
"(. c #F9F9F8",
"). c #FAFAFA",
/* pixels */
"                                                                                                                                ",
"                                                                                                                                ",
"                                                                                                                                ",
"                                                                                                                                ",
"                                                                                                                                ",
"                                                                                                                                ",
"                                                                                                                                ",
"                                                                                                                                ",
"                                                                                                                                ",
"                                                                                                                                ",
"                                                                                                                                ",
"                                    . .                                                                                         ",
"                                    . . .                                                                                       ",
"                                    . 6 J -                                                                                     ",
"                                    . x f.>                                                                                     ",
"                                    . l 7.6                                                                                     ",
"                                      > 9 *.k                                                                                   ",
"                                        # p.z .                                                                                 ",
"                                      > r #.c                                                                                   ",
"                                    X k 6.6                                                                                     ",
"                                  X J ) i                                                                                       ",
"                                , M F B                                                                                         ",
"                              & w 2.i                                                                                           ",
"                            . p _ ;                                                                                             ",
"                            . a o.+           . . . . . .                                                                       ",
"                            4 f C &         0 j j j j j j j g                                                                   ",
"                          O ^ m X       % % <.E.R.R.R.R.T.E.8.*                       & & &                                     ",
"                          o ^ m .   . j n.n.L.(.^.^.^.^.~.(.L.i.2       . . .       1 5.e.} X                                   ",
"                          o / X.f & . n ~.(.!.Q.~.~.~.~.~.~.(.U.,.b   % G L D       - 3.s.[ X                                   ",
"                          O C O.o.@ - U ~.~.~.~.~.~.~.~.~.~.~.^.(.;.2 # w.D.6.+   . @ E ^ N o                                   ",
"                            O d ] & -.H.W.~.~.~.~.~.~.~.~.~.~.~.~.E.8.& w.g.] + O O + % & &                                     ",
"                              ; ; O :.P.!.Q.~.~.~./.U.H.~.~.~.~.Q.(.0.% w.s.( @ =.M.k.i.k.;.X                                   ",
"                                . X ;.H.P.~.W.~.E.8.t.A.P.~.Q.~.~.(.n.A I S m A S.J.x.E./.m.H 2                                 ",
"                                . X ;.Z.A.E.Q.!.P.x K y.Z.T.~.~.W.~.E.V.h - h V.E.d.! D.T.(.L.u - 1                             ",
"                                  X ;.Z.A.E.~.~.~.L.| r l.Z.P.W.~.Q.~.T.b.j.V.T.(.d.T R c.(.T.1.a.4.#                           ",
"                                  X :.F.Z.G.U.(.^.(.C.;.v 9.P.!.Q.~.Q.~.T.T.E.!.(.J.x.x.G.K.H.c.g...O                           ",
"                                  o H ;.>.v.H.P.P.P.T.k.% ;.H.U.~.~.~.Q.(.^.~.U.I.Y.U.T.H.Z.Z.Z.h. .O                           ",
"                                    & $ 3 q.l.b.Z.Z.B.5.% ;.Z.Z.T.E.E.E.~.~.T.b.l.l.l.l.l.N.Z.Z.N.4.+                           ",
"                                  X C O._ 7 1 b B.Z.| - o >.Z.Z.S.S.S.G.G.G.r.8 2 2 2 2 1 D Z.Z.{ 2                             ",
"                                    t a s m m B A A u % o >.F.Z.Z.Z.Z.N.I A Z m & . . .   9 A A h                               ",
"                                      . + E @.` 4 : , * O Y r.N.5.4.4.;.2 . ; W e < 3       . .                                 ",
"                                          o N %.$.+.d .   o v u.- X o o       + Q &.' &                                         ",
"                                            ; : : : & .   . x z.% X             , : ; X                                         ",
"                                              . . . .       y G d 3 o             . . .                                         ",
"                                                              & ~ s = =                                                         ",
"                                                                & N +.o.<                                                       ",
"                                                                  5 q q                                                         ",
"                                                                    . .                                                         ",
"                                                                                                                                ",
"                                                                                                                                ",
"                                                                                                                                ",
"                                                                                                                                ",
"                                                                                                                                ",
"                                                                                                                                ",
"                                                                                                                                ",
"                                                                                                                                ",
"                                                                                                                                ",
"                                                                                                                                ",
"                                                                                                                                ",
"                                                                                                                                ",
"                                                                                                                                ",
"                                                                                                                                ",
"                                                                                                                                ",
"                                                                                                                                "
};
