/* XPM */
static char *rcp31848008071643026[] = {
/* columns rows colors chars-per-pixel */
"64 64 62 1 ",
"  c None",
". c gray7",
"X c #131313",
"o c gray8",
"O c #151515",
"+ c #161616",
"@ c gray9",
"# c #181818",
"$ c #191919",
"% c gray10",
"& c #1B1B1B",
"* c gray11",
"= c #1D1D1D",
"- c #1E1E1E",
"; c gray12",
": c #202020",
"> c gray13",
", c #222222",
"< c #232323",
"1 c gray14",
"2 c #252525",
"3 c gray15",
"4 c #272727",
"5 c #282828",
"6 c gray16",
"7 c #2A2A2A",
"8 c gray17",
"9 c #2C2C2C",
"0 c #2D2D2D",
"q c gray18",
"w c #2F2F2F",
"e c gray19",
"r c #313131",
"t c #323232",
"y c gray20",
"u c #343434",
"i c #353535",
"p c gray21",
"a c #373737",
"s c gray22",
"d c #393939",
"f c #3A3A3A",
"g c gray23",
"h c #3C3C3C",
"j c gray24",
"k c #3E3E3E",
"l c #3F3F3F",
"z c gray25",
"x c #414141",
"c c gray26",
"v c #434343",
"b c #444444",
"n c gray27",
"m c #464646",
"M c gray28",
"N c #484848",
"B c #494949",
"V c gray29",
"C c #4B4B4B",
"Z c #4C4C4C",
"A c gray30",
"S c #4E4E4E",
/* pixels */
"                                                                ",
"                                                                ",
"                                                                ",
"                                                                ",
"                                                                ",
"                                                                ",
"                                                                ",
"                                                                ",
"                                                                ",
"                                                                ",
"                                                                ",
"                                                                ",
"                                                                ",
"                                                                ",
"                               wwwwwww                          ",
"                             wrkzzzzkgrw                        ",
"                            rzzrrkkzmkkkr                       ",
"                           5mzkkgrrkzzzmz&                      ",
"                           5mBzzkkkkzmmr2@                      ",
"                           2uBZmzzzmBmr2,,                      ",
"                          wwwukBZZZBr52,,2ww                    ",
"                        wrzzrwrukzg5,,,,2rggrw                  ",
"                       rkkzzkrwwrg5,,,22rkkkkgr                 ",
"                      rzzzBzkgrrww,,22rgkkkkkzg&                ",
"                     2kzkkzkzzkgrw22rgkkkkkzzk,&X               ",
"                     2zzzzzzBBzkzkggkkkkzzzmm,&&@               ",
"                     5mZBBZBzzzkkkkkzzkkzzzm5&&&@X              ",
"                    2wukBZBzkzBzzzkkzmzggrw2-&&&@X              ",
"                    2wrrukBmzzkkzmzuuggkzw2,&&--&X              ",
"                    2wwwwrumzkuruggkkkkmm5,,-wggu-              ",
"                   wwrrwwwwr5wkkkkkkkzmm5,,-wkkkku-             ",
"                  rkkkurrwww2gBmzzzzzmm5,,,-kmzzzzk&            ",
"                 rzzkkkkurw2wruBZBmBBm5,,,,-rBBBmBz&            ",
"                rzzzkkzkkkr,5wwukBZBr5,,,,-5wruBZm5-@           ",
"               wmBzkkkkkkkku,wwwrukr2,,,2wwrrwwrrr2,@           ",
"               2kBmzkkzkkkzk,5wwwww2,,2wgkkkgrrwww,,@           ",
"               2rkBmzkkkzmzr,-5wwww,,2rgkkkkkkgrw2,,@           ",
"              2wwrzZmzkzmBr2,&,2225,,5mzzzzzzzzkg2,,-@          ",
"              2wwrkzBmzmBr2,,&,ggu52,wkBZZZZZZBmr,,,-@          ",
"              2wwrgukBZBr2,,,,ukkkgr5wrkZmzzmmr52,,,&X          ",
"              2wrgrwruBu2,,,,ukkzkkkgurrkBzBm5,,,,,,&X          ",
"              2wrgrwwrg2,,,,ukkzBzkkkkuwrkBu5,,,@,,,&@X         ",
"              ,wrgrwrru2-,,kzkkkkkzkkkg,wrg2,,,,@,,,&&X         ",
"              @5grwwrw2,,,,mBmkgrukkkzk,wrg5,,,,@-,&&@X         ",
"               &urwwrg2,,&-kBBgukkkzmm5-5wru2,,,-@-&&@X         ",
"                &5wwru,&&&5rrwmBBmBZm5,,-wrg2,,,,@-&@X          ",
"                 @&55-&&&&www2rzZZBk5,,,-www2,,,-@@XX           ",
"                   @@@&&@@ww2wwrkk52,,,--5www,,-&XX             ",
"                     XXXX@5w2wwwrg2,,,,&&&555,-@X               ",
"                         @52wwwwrg5,,,&&@X@@@@@                 ",
"                         @22wwwwwru2,&&@X                       ",
"                          @,5wwwwrg2&&@X                        ",
"                           @&5555wr-@XX                         ",
"                             @@@@@@XX                           ",
"                                                                ",
"                                                                ",
"                                                                ",
"                                                                ",
"                                                                ",
"                                                                ",
"                                                                ",
"                                                                ",
"                                                                ",
"                                                                "
};
