/* XPM */
static char *_e47fe5641064841b67c828f42a1b1c3xPgoNVCUfcEQuVoM[] = {
/* columns rows colors chars-per-pixel */
"64 64 80 1 ",
"  c #060806",
". c #070B0C",
"X c #0B0E0D",
"o c #0E110E",
"O c #11130E",
"+ c #060C10",
"@ c #080F12",
"# c #0D1213",
"$ c #0E161A",
"% c #0E181D",
"& c #121514",
"* c #151916",
"= c #191B16",
"- c #111719",
"; c #151B1B",
": c #191E1D",
"> c #201F1A",
", c #1D201E",
"< c #21231E",
"1 c #0A1721",
"2 c #0D1921",
"3 c #161E22",
"4 c #191F21",
"5 c #162025",
"6 c #1C2223",
"7 c #16222A",
"8 c #1B242A",
"9 c #1E282D",
"0 c #132431",
"q c #182732",
"w c #1A2933",
"e c #172B38",
"r c #212522",
"t c #232623",
"y c #212625",
"u c #242725",
"i c #242823",
"p c #232827",
"a c #242827",
"s c #292B26",
"d c #282B27",
"f c #202729",
"g c #232828",
"h c #242828",
"j c #252928",
"k c #242A2A",
"l c #272B2B",
"z c #272D2B",
"x c #282B2A",
"c c #282D2B",
"v c #2D2F2A",
"b c #282D2C",
"n c #292D2C",
"m c #2B2F2E",
"M c #2B312F",
"N c #2D302D",
"B c #2E302F",
"V c #30332C",
"C c #262D32",
"Z c #292F31",
"A c #2F3231",
"S c #2D3232",
"D c #2F3432",
"F c #25363E",
"G c #2C343B",
"H c #303332",
"J c #313634",
"K c #333736",
"L c #353736",
"P c #323836",
"I c #353837",
"U c #313638",
"Y c #353A39",
"T c #363A3A",
"R c #363B3A",
"E c #393D3C",
"W c #3C3F3E",
"Q c #383D40",
"! c #3F4342",
"~ c #424648",
/* pixels */
":::4:::66#-446666666yp66y66pjzjjanMAnnnAWnpnncncjxapnjccpr,:jypy",
"::64:::6;:;:666:,66yyyj6fyrypyyjAPTTKayaa*pnnKKncci6jjcar<,:jgjy",
"::::::::-f:;::;;:6:ypjy&-9jyy66cnAKBcyr<*oaKAKKAKAr:jjjjaui:jgyr",
":::6:::;:6:;:;*;:66yj,&=66pj6:6y66yzyjr*<=:DATTKITHrjj6rrr<&6jyr",
";;:6:;;&666;:;;:66yr::,66r66:,666rnDpr=<cr:azKKAKWLi*&&&&OOO*uar",
";::6;;*;666;:::666,,6yr,,66:&&:,,aAKK:,vvdrKAHAanKBd*==::==,r,rr",
"::::;;&:666&-:;*,6ay,,,6r6:;**=:=::r::Bddd,WTTKAAAHc*<=::,:ra:,y",
":::::;#666:&&#&;6yyy,:,6a&o:<<raccd<oaVBdr&jnBcKAKIard,rrrr6r,;y",
":::::&;::::;=#6,6y6yr,6,*&&<<<rjuyjrOcVBd<O;jyynAKA:na,anauyrr:;",
";666&;:::;:;*&;,6ypap,*&,<*rraacyrar*adBir=*jyyjjKE6ar,cBcjuyyr*",
"#6:&&:::::;;*&666,66,*#:<<:jncnnyaur:rdBdd<&yyBnjn!an,rjcBjayyy,",
";46:$;:::::**&;;;;,66:66,<,fnyynjjjua,rrdd<*fjLTKnByKujacjuyy6y,",
"4:::#-::::4;*#*;::6yy6jjy666nrajjjaai*ryya<=6TITKArgKnnjnnny6r6,",
"6:*::*;;:66:;#*;:yjgjjnnjjn;frrruaa<*=razy:*#KKnn,&KIBnnaujy666:",
"6;;:66:;;6--;#&:66yyjjjjyjGf;yrrd<:*=ddyca==&jABrXXAWHABncyrryr,",
";;:6:::6:;;*;&#666yyygyyyyCj*&&:=*:<xLc,:::=&;n,&=O6QTHAAjr6ryy:",
";::4:::::6:::;o4:6yyyggy666y=o*:,cccnLr::=:=OX&o*i:&ZUADnyrr66r:",
":;;:;::66:::::&;::6yyggy666j,*:*AWWnxc:==**&O*&*rdrO&ZAjgyry666,",
":;;::::::::::::&;:666gjjjjjAr*:6nTEccn**OO=ad==ruar=&-CAj66r,,:;",
":;;;:::::::::::&*:66yyggjnjc:*:6ynBcnH*O*uHBu&,aajxa>*#jZyrr,,,:",
"6;;;:::::::666,#*:66yy6yjjyy=*:yyjccnr&:<yjy:;jjjnnja:Oo;jyy,,:*",
"4:;;:::::::666*X&*;6:666y6r6=**ynzy,*;:6r6yy:ynnnnjjyr:*X;;;;6:O",
";6;;;:;;:6:6y6#:::::*&;:yy66;;&:a,::=j:;66yy:yyyggyjjy6:&&uryyr:",
"-$;;:::::6666&&464666:;&;:66:&&#*,iirny:,yj64:6yy66gnyy,&6Ay66,;",
";#X$;6::::6;X;:;:466664:=*:;&o*,66aa6zar:up:nygjyy66yar:&ajp,66:",
";;*&&;66::&.;4::444:;4446:&*,anny6yr,pau<,,,nAAAnnj6yja**rpp666:",
";;;;;&#$;;*&,:4444:444:46,*jjyfyy6r,,:::::6ByjnDAgy6yr,*,rpyy,,:",
"::;;;;&OX;6::::4::;664;:::;6666yy66:&;rdr:nAryjjnfgy6:*:yr666:::",
"66:;;;;&&:;;;;;:4:466666:&*,66yy66r:6acBxjAc:=j6yngg6,=uu6666:::",
"44;-;44-;r;;:;:::4466666&o*:6y666jy,ay666KAA,#:yjgyy6::Ayrr66,::",
":4;;46:;4&#-;;:4::4644:&XX::66666p6,pjy&$8T~a:#&:&&;6:&Ajayr6,r,",
";;;:6;##-;:=&;:6::4644--*#::666666:6:*&O&X4Z-&*==&6yy6&4Dnyy6:66",
"556-&&*&-64,:&;64:666;;6;#::666y6:;:**=*:==:,,rr::6pyy,#Cf;:;-::",
"$%;#-;:&;44:<&-;-&48;&44;$4,6:666*#,,;:::raaaru,:::66y,&&&X;:,6:",
"*&-;:::;44:==*&&**#$#;44;#9666666*6Kr;,,raa6,r6:,,:6&:rr6,6njyjy",
"444664:*::;&:ajjf6:X$4:4:$866666y:jny:y6pyr,,,,:::&&rBcar,yjy666",
";44444:;-&&6ffjf46r&;4464-8666666;fy6;gyyjy,:::::*oyMy,ryypyy6f6",
";4664::6#&6686ff66,*6446:&666666:6fyj;f6yyyy,,:;:O:nr::6ajyyf66,",
";44644;#&;4666ff66r&56464;666666;ygjz:gy6pjBr::,*=r,,,66yjyyjfy:",
"4;444;X&444446ff666#$5666$;:6yf6:fjnnjj66gnn6,,=:,;;,,666666y6y:",
"4;;44##644464666666O--;6rX$;6jf-6fnZD66666jjjy;=r::::;:,::66666:",
"4;;6:#456446646666u&;6&::6y6;;&3F886;;:;666jj:;6::4:;&;;::66yf6;",
"444:;;436566346466y&;6:$yjy66:*#$##X#;yay;4g6;666666:;:;::666f6-",
"544-465443633664666#;4*6gyf66jAB,,ara;6ynj,*X46666:6:;;;:666666&",
"457;65434563666666r#$-:jfffff6898jnjj;6466y6;;66:::6:;;;6666666*",
"6-$486-33356666366yo+4f88jff666688886;6::4666&:6:::6;;;6866:66:6",
"66#288;43556666466:#$6888886666886894-6::;666;&::6::;;666;6::;46",
"78;&;34546555464:6,-66666886866866894;6;::664:&;666:;;6664;-X$4;",
"5;4a&-35;4666566;46;66:-5866666886574:64466466:#6y6::;4:&#&;6j6;",
"5466;&$385786666:;;#86&$;66666688665;6g6666444:&;f6;&&&6:=:66gg6",
"353544-@238655666:*@4;44;-6634666644;66666644:::#;-;6r;C6:::::66",
"3637436;#2e95446y:&@-:64:&-66444464;&-866646646&&fy6:66;;::::;:6",
"56;553464$1086686*&;$7954;*-6;4445;# @%666666;&Xgj6:;;6;X;46:;::",
"99;3834896&$q7356&;r*%w966;:**44#@$&::&#64;4::*;j66;;;::O#6666:;",
"86#%733586n:$%$$$&;6d*388864;*-#.&:6,:=O$6664:*6g6::::6y:X$jy6,;",
"6-:57756668f:##&&:;;yr&7986666; -4;:::*X6n644:&9j6::::66,=#f666;",
";;ff37536668y;8::4;;6jr-3954$#=r;4444:&&Cj6466&7j:4::;;66,:;466;",
"4686:3378668;-43634668jr&84$:66Z64444:o4864:46;;8664:::666;y&%6&",
"88866637888$##;78646689g;#$;666f;86666&464::46:#66664:::::*:=#-6",
"98864660w5$&6:47755666886*66:6fy$56664&46:;;446;56664::::;=-:O:y",
"8796;663$-66954839986669j,6n66ja#23;;;#6664::46=;66644::;;;-#*66",
"5787466,$986754858986668866Ggfjry;#666#68664:44=$36644:;;::;&:64",
"7775666y3w8888;77898664654;wjjn:9g6nf6;3844::;;&X;8664;;::;4:46:",
"8775568j4q8866$0e888666644*3jgn:868jf6;-864:4;&X:*44:4;;::;::6::"
};
