/* XPM */
static char *a8c9014753394e79fdbe8d8b9757317ec1yqAyZIQJYMeMMn[] = {
/* columns rows colors chars-per-pixel */
"64 64 128 2 ",
"   c #1D1F1D",
".  c #1F2223",
"X  c #232625",
"o  c #242826",
"O  c #282A27",
"+  c #262A2C",
"@  c #2A2E2C",
"#  c #2E312E",
"$  c #31322E",
"%  c #282E32",
"&  c #2E3233",
"*  c #2F3639",
"=  c #333534",
"-  c #363936",
";  c #393B36",
":  c #323739",
">  c #353B3B",
",  c #3A3D3C",
"<  c #3D413E",
"1  c #40423D",
"2  c #363E42",
"3  c #3A3F41",
"4  c #333F49",
"5  c #364044",
"6  c #3D4243",
"7  c #364149",
"8  c #3C4449",
"9  c #3E484F",
"0  c #424544",
"q  c #454946",
"w  c #494A46",
"e  c #424749",
"r  c #454A4B",
"t  c #4A4E4D",
"y  c #4D514E",
"u  c #51524E",
"i  c #454D52",
"p  c #4A4F51",
"a  c #475257",
"s  c #4D5253",
"d  c #46535E",
"f  c #4D555A",
"g  c #4F585E",
"h  c #515555",
"j  c #555856",
"k  c #595A55",
"l  c #515759",
"z  c #545A5B",
"x  c #5A5D5C",
"c  c #5D605E",
"v  c #61635E",
"b  c #465765",
"n  c #4C5764",
"m  c #4E5960",
"M  c #4D5D6A",
"N  c #545C62",
"B  c #595F61",
"V  c #515D69",
"C  c #576066",
"Z  c #5D6262",
"A  c #56626B",
"S  c #5B646A",
"D  c #576574",
"F  c #5B6771",
"G  c #586977",
"H  c #626564",
"J  c #646866",
"K  c #646967",
"L  c #686B66",
"P  c #696B66",
"I  c #62676A",
"U  c #636868",
"Y  c #666A68",
"T  c #656A6A",
"R  c #676C6A",
"E  c #696C6B",
"W  c #6A6F6D",
"Q  c #6C6F6E",
"!  c #6B706E",
"~  c #6D706E",
"^  c #6E726E",
"/  c #71736D",
"(  c #676D70",
")  c #696F72",
"_  c #6D7270",
"`  c #6D7272",
"'  c #6F7472",
"]  c #707372",
"[  c #707473",
"{  c #727574",
"}  c #737675",
"|  c #757875",
" . c #747977",
".. c #7B7D77",
"X. c #717679",
"o. c #767A7A",
"O. c #787B79",
"+. c #787B7A",
"@. c #787D7B",
"#. c #7B7F7D",
"$. c #7C807E",
"%. c #82857F",
"&. c #757D83",
"*. c #797F82",
"=. c #7E8180",
"-. c #7E8281",
";. c #7F8482",
":. c #73818A",
">. c #7C8289",
",. c #808483",
"<. c #838785",
"1. c #838886",
"2. c #858987",
"3. c #868886",
"4. c #868B8C",
"5. c #898B8A",
"6. c #8A8C8B",
"7. c #898E8C",
"8. c #8B8E8D",
"9. c #8B908E",
"0. c #8E918F",
"q. c #8A8E90",
"w. c #8F9393",
"e. c #919492",
"r. c #919595",
"t. c #949897",
"y. c #9FA2A1",
"u. c #A5A8AA",
/* pixels */
"t t s s t t s s h & 3 s s h h l z l z x x H x h Z j x Z Y ! J Y H _  .@._ ] } +.e.~ H } [ ~ [ Q E E P H ~ J ~ ~ H x k t Y Z H Z ",
"t s s s s t t h 0 t 0 s h s s t h h z Z Z Z J x Z Z x c H Z c R o.1.9.8.,.H c J J 0 H _ [ ,.=.} Q ~ H h W J W J x j u t Y H H Z ",
"t t s s t t s s 6 Z t r s t 0 r y h s Z H Y c , 3 S Y c c z z ! ' o.=. .! x x h , $ J ;.o.<.<.+.=.+.v t Y W E E J H H y J H H x ",
"t t s s s t y q t x t e t 0 6 0 t s h Z J h = w j x Z Y j t h c z z Z W Z J c , k w t $.@.8.8.<.3.5.@.x Y U x x c c k , j J H x ",
"r r y s s r r , h x j r t q q t h h H x t t h x j x j z h h j j j c [ @.H x q k / v u J W =.=.@.3.t.3.H 0 - ; - , ; ; = , H H c ",
"r t y s r 0 6 0 z x z e s r t h z s h h z Z c h h z j y , , t h h H +.<.;.t k } [ E c <.@.#.+.H ~ %. .J , w w u t w w u k h x x ",
"t t y t r r , t z h h - 6 t q 6 s z H Z h h j j c z y q 1 1 q t w y u x t t  .P / P j e.5.8.,.o.o.@.@.~ q k w u u u u x H y h Z ",
"p t t t t r = s z s s > < = - r x Z x x h y j j H , # w k k x J ~ ~ E k $ J %. ./ v , W _ } W =.@.$.6.J x E h x v v j j x j 0 c ",
"p t t s r - r s s s t q q - h h x c z H x h z u 0 - = k k k k J H c W v - ~ ../ P x = r H Z Z ~ @.=.+.h } J h J [ J Z x x c t 0 ",
"e h h s - 6 p y y r t q 0 - r s x c H Y H h 0 ; u k 0 x c H J Q x z J c 1 J / / v c w 6 Y c c Y W $.w.j J k j E  .~ Y H x x x 0 ",
"- s t - , s t s s t r 0 0 , s j j h z x s 0 = t x k t Y [ W ~ _ Z H H c y j P  .P P k , x Z  ._ E [ y.H [ j c E ~  .E J H x H y ",
"0 s h t > r t t s y y 0 0 - r r 0 r s z j y j h h x s H _ Z H _ E Y J H H j H v ~ P x 0 Z W 3.0.3.]  .H =.H E H ~ E H Z c z c h ",
"s s s s = 3 s t t s s q 0 = 0 q t s z Z Z z W Y Z z j x _ z H Y E E J J H 0 x H H J k w s q.5.8.<.o.x H =.[ _ Y ~ _ ] c j x z h ",
"l s 0 t t 0 0 e p h z t 0 = 6 r s x U H Y Y _ _ H Y _ e Z c c c H H H k , q z J E Z w 1 - =.,.} ~ h - =.3. ._ _ H H E Z z z h t ",
"s 6 q s h h t 0 r s 6 6 r - > t l Z Z Z Y U U Y Z Y >.Z t Z x x P k t < w P P v E H w q - Y @. .c # O X.r.#.o. ._ W Z x x x x s ",
"e r s s s s s s s 0 r 0 r , - h x x Z Z Z H Z Z Z Z _ E < - - u q 1 t x P 3.P h u y t q ; r [ j ; y = z r.0.#.@.o.J x z x Z H t ",
"r t t s t t s s s s s s s q # s s h x Z Z H H Z x z z x q = , t h Q ~ E ] 3.c y w q y q = @ < = 0 v y > X.<.@.=.} x x x z z x t ",
"t r r t r t s h h s t s s s , 0 w s x x x H H x z z x E h , t 0 @.t.r.~ W ~ y w w 0 1 ; ; , , < x E x - 3 X.+.W H x x c j h h s ",
"t r r t s t t s s t t t t s r - q s z x z H Y U R U H @.z 1 t h _ 6.0._ W ] 1 < , ; w J P q w z H E x q , 6 _ o.Y z z x h h s q ",
"s r r r t t t t p s s t t s t , 6 t l x B Z H H R W Y ~ w 0 t z Z }  .~ } @., = 0 H #. .H , h H J Y W J u ; - R _ Z x x j h j t ",
"h t r r t s t t s s s s h z h & 6 s z B B B x Z Y H H Z q 6 t Z Z R W E } z > t z Z Y c t r Y W J W _ E J t ; = e Y Z c h h t , ",
"s t w r t s t t t s s s l x 6 @ - 6 r h s s j x Z x z j q < 6 x W ! Z h 0 q t z x z Z Z s Z ) _ _ _ W J x j t , @ 6 r e r j q ; ",
"r s t r r t r r t s s h Z h & w t s s y 0 , 0 p x Z z h 0 0 , s H y t u t Y h q j z H c s x Z Z H H Z Y H x j t , - H z c Z z w ",
"0 > 8 e t s t t s s h x h - , s s s l x z s 0 < 0 s z z s , - = 0 h H H x [ Z t h x Y x s s j Z x z x H _ Z x h ; z @.H j z h q ",
"q = + > r s p t t s l 0 @ 0 r r p p l l h l s s w 0 s r , = q h x z H J j W H z t H H y W Z H Y x Z x z H H x w - J Y H h j h t ",
"0 q 0 , , t z z p t , X 0 s s t p s s p p s p s z t - q j J [ [ c j H x j H H v j h s s _ o.o.} W _ Y x x J H < 0 c H H z j z y ",
"r r e r 0 , = 2 6 0 , , s t s s s s p s s s p s s s 0 Y Y c Z Z Z x x j y t s t y t x o.Z W _ @.} H H x x x h < h x H c Z h h t ",
"p p r r e 0 , = O r h t t t p s t p t l l s r s s t r x z h x Z Z x x t , q x J c h } +.x Z H Y W H H Z z s 1 u c x x z z y w t ",
"s h t 0 e r 0 , , s r r r r r p s p s l l l s s s , 6 s h z c Z x x x t z H Q  .E E @.W w r H z x W H H x h q H H j x x z s t t ",
"p s r 6 r p s 6 r z 0 r t r p p p s s s s s s s - = 6 s x Z z z l J c s H Z z z h =.@.+.j = t Z Y H Z Z z s t o.Z x x j z h h t ",
"t s r r s s t 6 s , = 6 r r t s p p s z s s p , O O y y h z z z h H h h H Y Z , : Z 4.u.H t & , t - , q j t , X.H H x z z h z h ",
"s e e t s e - > < r p r , 0 p s p t s h s s 6 6 6 & y y h h l x l h t z s 6 , = - @ s _ 6 < , 0 w ; x H x h , r *._ H x h s h h ",
"a f f 6 - - 0 < 6 s s h t , t h s p l l s 0 e s r & t s z h l x z t 0 t < < 0 0 w q q t h h j k t w z H Z Z h - _ Z r t 0 6 t r ",
"5 7 6 = 6 r t , 6 s p t k , 3 e 6 3 p N r , p p r * s h l s h z j 0 = h h q y u u k J J H Z H h u y h z x Z h < , > @ 6 t h j r ",
"0 , 6 r p p t 0 s s t r q , > , 0 0 : 6 = 6 s p r > S l l s l x z 0 z <.x q h j x J H z j c j w u h t h , t x x z h j _ Y Z Y x ",
"r t p s s s t 6 s t 0 , t H Y U Z z u o = i s s t > Z z l l x x c t W _ c t H x H Z x j h h h t t t - - x  .Q J c h Z H Z x x h ",
"6 s s s s s p e 6 3 , h Z Z Y Z s s z - e p s l s > B z z l l z j r Z Z z 0 H Z Z Y H j y y y q t 0 $ c  .Z j x c Z H x Z Z Z h ",
"e s s s s t p l & > s z N z H Z l l h 6 s s s l p > f l z l l h t l H Z H e Z x c Z Z Z h h y q t = t [ x t t h H Y Z Z H Z B h ",
"i p s s s s e - > r s l z z Z H B z x , f s s s s 6 l s z z l z r Z H Y W s H x x H W  .x t t h 0 w x h s h j z x Y Z x H Z x y ",
"p p s s s r % 3 s i p s s z Z Z x z B = : s s l h : e t z Z Z h t Z U _ } H Y x z H } _ x y s q w h q q h s j j j h x x x Z Z w ",
"r t s s h & > s s p s f s l l l l l j = 0 6 e x x O : r j Y Z 6 N Z ) X.*.z z z z x Y U R c 0 r z y t r s 0 y s y s l z z x Z r ",
"r r s s t - i a s s s l f s s s s l c - r s > t u j Z l r r - i :.N N l e t p r f z x Y Y t r l t y s s q , q q t s h l x Z x r ",
"s p s s r t s s f s f f s s f s s h Z , 8 z r : B I B l l y 6 > 2 & * @ = r x H Z e i U h r z h l l s l t r r r t s l z x Z z 6 ",
"s s i 0 p f f i i s f s s s s s h l h = 8 s 6 x U Z H z z Y @. .h h J c J 0 s x W Y s 6 @ p h z h s s l t r t r s h h l z z l , ",
"s a g 8 f f i a p s f s f z f f z x x & : 3 s Y Z Z Z Z Z x Z Z Z I ( Y E 0 s s s z Z z q t z h s t t z y r r s B l h l z z h 0 ",
"l 6 2 s z z 6 i i s f f f l f f z z Z $ + i Z N Z S Z Z x l z z N x z z z e s t s s l z j < s h s t t h t r t z B l l s h x p h ",
"z h - 8 N N 6 r s f f f f s f s f f s = > g N N N Z B B l l z N z f N S s 0 x t t r h z h e - s s z s t 0 r s h z s h t t r s h ",
"f N 0 < 8 s p f i f f f s s l s p s s 3 s z f f z N B N x z z N z f z N s r l r t s s s s t < 0 h x z t r r h z l i e 6 @ : s 8 ",
"s 8 s H < 6 e a r i f z g f l h 0 s s r B s s 6 f N N N z z l z z f a g s s x s s h l s s s t > s x h s t r s t - & - r h U l r ",
"f i g z t , > i N a f z f f l z t e r > N s 6 : 6 l z z z s l N N l f f t s Z z l z l s s s y < e S x 0 , - > x t r t j z H H h ",
"s f a f s s 6 % 7 i N z f f f x h t < % i 0 p s 0 6 f l s p f l l z s i r h Z l x z s s s p s y & 8 6 0 h x 6 _ j t t y y s h s ",
"s f e g s a z e * 7 D C f s s l x y - @ 6 s l p s 6 3 l z s s s s l p r , 6 N j z h s l h s l = - Z Z z s z j e r s t s s r t h ",
"g f 8 a f p s x s : 4 M g f f x Z 0 - 0 : m S s s r 6 0 s t p s i s e = . + 7 f z h s z h r < X H Y h t r r x 0 @ r s s s r t t ",
"C C r i z i i N S z , 2 V g s s s < 6 x 0 7 A C l l s t < < p s * % * , w u , - s s 0 s p w , q Y l s r r r s s = & l z x l y e ",
"N f = 7 f i s s z Z W t 2 8 2 : * , e s J 6 i N N N l s q 0 0 & . : p h h t w ; : z s h s w < x H s s t t t x x t @ 6 Y c z h q ",
"l 6 r f d m s f z z N H t & > , , t e r Z v < N C N s s s s 0   > s r t s w 1 @ z ( z s s t , A U s s t t t z x h q = Z Z z h r ",
"e r Z Z i m s g z s f N x e z t t p e r h W x 3 s N a r 6 > r x 8 i i s s t = > ) U l s h s < g S s s t t r t l l j t 0 i z h r ",
"p z Z z p 9 i g z s f z e 6 i s f s s f B Z Y x , N i > p x B } s s p i s w = s A f s p s h q 8 Z h h s p t t s z j 0 Z , 6 z - ",
"N N Z l l l i g N z N 6 = - 8 m N f i f z N S H q & > r z h z Z r N z z z h , p l p t p s s t : z h l l s s t s s s 0 s q & 3 h ",
"N N z f s l f n A s > > z s s m m g s z l l z N z , l z t l S Z 2 g l N z s , s l t r r s s z 0 a l l l s s s t t r q 0 r $ r B ",
"m N N g e f z e 2 8 h l S s s N a N C C N z z S Y h z _ z x Y H * 9 i 6 e r & s z s s p p s z w e x h s s s p t r r 0 6 - < x h ",
"a N N g s f l h 6 A Z f g f i g s N N N N z s N Z j h &.H Z Y x x e > s B h = s B z l s p p s q : s s l l s t r r t t 0 - r s p ",
"m g g g f s z x s F N z g z e d N N A N z l s f f s r A ( Y _ t S H h R Z z 0 s N s s p t r r - + 6 N z l s t r t t t s t s h p ",
"N g g f a f Z W i A m N g z 6 b G N N z z f f l s p 0 9 I H W s C s B U Z z 0 6 N h s p p r - O w < i s s s t r t t e t p l s t "
};
